<?xml version="1.0" encoding="utf-8"?>
<!-- Generator: Adobe Illustrator 19.0.1, SVG Export Plug-In . SVG Version: 6.00 Build 0)  -->
<svg version="1.1" id="Layer_1" xmlns="http://www.w3.org/2000/svg" xmlns:xlink="http://www.w3.org/1999/xlink" x="0px" y="0px"
	 viewBox="-379 181 200 200" style="enable-background:new -379 181 200 200;" xml:space="preserve">
<style type="text/css">
	.st0{fill:#352924;}
	.st1{opacity:0.5;fill:#352924;}
	.st2{fill:#624640;}
	.st3{fill:#CE2455;}
	.st4{fill:#A91E2E;}
	.st5{opacity:0.5;fill:#624640;}
</style>
<g>
	<g>
		<path class="st0" d="M-298.9,356c0,0,2.9,1.1,4.8,0c1.8-1.1,1.2-49,40.1-60.5c38.9-11.5,19.9-10.4,27.5-16.3
			c0,0-19,15.3-28.1,13.5c0,0-12.8,1.1,9.5-15.3l18.6-16.8l-21.2,16.1l-3.3-8l0.7,7.7c0,0-17.3,19.4-16.4,21.9c0,0-7.3,8-9.3,6.2
			c-2-1.8,6.4-27.8,7.9-29.2c1.5-1.5,8.8-23.4,8.8-23.4l-11,20.9c0,0-7.3,15-11.7,10.2c-4.4-4.8-2.6-20.1-6.6-21.2
			c0,0,5.5,26.3,3.7,25.9c0,0,3.7,7.3,4,8.8c0.4,1.5,1.1,10.6-2.6,17.5s-6.9,14.3-6.9,14.3l-11-33.6c0,0-4.4-9.9,0-21.6
			c4.4-11.7,5.1-19.4,5.1-19.4l-7.1,17.2c0,0-12.3-6.2-9.7-26c0,0-4.4,18.6,6.9,28.5c0,0-5.5,14.3-15.3,9.1c0,0,1.8,2.9,11,0.4
			l6.9,12.4c0,0,7.7,28.9,9.5,31.8L-298.9,356z"/>
		<path class="st0" d="M-310.6,210c0,0-12.4-9.3-20.5-5.3c-8,4-32.2,7.7-25.9,31.8c0,0-29.2,13.2,2.9,34.4c0,0,3.3,33.2,35.8,21.5
			c0,0,36.5,14.6,54.5-1.5c0,0,45,25.2,66.1,1.1c0,0,24.5,3.3,10.2-28.5c0,0,4-40.2-32.9-38.4c0,0-27-28.5-38.4-17.5
			c0,0-41.7-13.5-46-1.5L-310.6,210z"/>
		<path class="st0" d="M-260.6,295c0,0,11.4,5.4,16.1,2.8c4.7-2.6,22.1-6,17.9-20.2c0,0,11.7-13.9-7.9-25.8c0,0-13.5-14.6-32.6-6.9
			c0,0-12.7-7.1-23,2.9c0,0-18.2-17.7-30.3-2.9c0,0-18.9,12.2-9.7,30.8c0,0-6.4,14,15.5,12.1c0,0,18.9,19.6,25.4,12.8
			c0,0,21.1,7.3,23.5,0L-260.6,295z"/>
		<path class="st1" d="M-298.9,356c0,0,2.9,1.1,4.8,0c1.8-1.1,1.2-49,40.1-60.5c38.9-11.5,19.9-10.4,27.5-16.3
			c0,0-19,15.3-28.1,13.5c0,0-12.8,1.1,9.5-15.3l18.6-16.8l-21.2,16.1l-3.3-8l0.7,7.7c0,0-17.3,19.4-16.4,21.9c0,0-7.3,8-9.3,6.2
			c-2-1.8,6.4-27.8,7.9-29.2c1.5-1.5,8.8-23.4,8.8-23.4l-11,20.9c0,0-7.3,15-11.7,10.2c-4.4-4.8-2.6-20.1-6.6-21.2
			c0,0,5.5,26.3,3.7,25.9c0,0,3.7,7.3,4,8.8c0.4,1.5,1.1,10.6-2.6,17.5s-6.9,14.3-6.9,14.3l-11-33.6c0,0-4.4-9.9,0-21.6
			c4.4-11.7,5.1-19.4,5.1-19.4l-7.1,17.2c0,0-12.3-6.2-9.7-26c0,0-4.4,18.6,6.9,28.5c0,0-5.5,14.3-15.3,9.1c0,0,1.8,2.9,11,0.4
			l6.9,12.4c0,0,7.7,28.9,9.5,31.8L-298.9,356z"/>
	</g>
	<g>
		<g>
			<path class="st2" d="M-301.8,358.2c0,0,2.9,1.1,4.8,0c1.8-1.1,1.2-49,40.1-60.5c38.9-11.5,19.9-10.4,27.5-16.3
				c0,0-19,15.3-28.1,13.5c0,0-12.8,1.1,9.5-15.3l18.6-16.8l-21.2,16.1l-3.3-8l0.7,7.7c0,0-17.3,19.4-16.4,21.9c0,0-7.3,8-9.3,6.2
				c-2-1.8,6.4-27.8,7.9-29.2s8.8-23.4,8.8-23.4l-11,20.9c0,0-7.3,15-11.7,10.2s-2.6-20.1-6.6-21.2c0,0,5.5,26.3,3.7,25.9
				c0,0,3.7,7.3,4,8.8c0.4,1.5,1.1,10.6-2.6,17.5s-6.9,14.3-6.9,14.3l-11-33.6c0,0-4.4-9.9,0-21.6s5.1-19.4,5.1-19.4l-7.1,17.2
				c0,0-12.3-6.2-9.7-26c0,0-4.4,18.6,6.9,28.5c0,0-5.5,14.3-15.3,9.1c0,0,1.8,2.9,11,0.4l6.9,12.4c0,0,7.7,28.9,9.5,31.8
				L-301.8,358.2z"/>
			<path class="st3" d="M-313.5,212.2c0,0-12.4-9.3-20.5-5.3c-8,4-32.2,7.7-25.9,31.8c0,0-29.2,13.2,2.9,34.4
				c0,0,3.3,33.2,35.8,21.5c0,0,36.5,14.6,54.5-1.5c0,0,45,25.2,66.1,1.1c0,0,24.5,3.3,10.2-28.5c0,0,4-40.2-32.9-38.4
				c0,0-27-28.5-38.4-17.5c0,0-41.7-13.5-46-1.5L-313.5,212.2z"/>
			<path class="st4" d="M-263.5,297.2c0,0,11.4,5.4,16.1,2.8c4.7-2.6,22.1-6,17.9-20.2c0,0,11.7-13.9-7.9-25.8
				c0,0-13.5-14.6-32.6-6.9c0,0-12.7-7.1-23,2.9c0,0-18.2-17.7-30.3-2.9c0,0-18.9,12.2-9.7,30.8c0,0-6.4,14,15.5,12.1
				c0,0,18.9,19.6,25.4,12.8c0,0,21.1,7.3,23.5,0L-263.5,297.2z"/>
			<path class="st5" d="M-301.8,358.2c0,0,2.9,1.1,4.8,0c1.8-1.1,1.2-49,40.1-60.5c38.9-11.5,19.9-10.4,27.5-16.3
				c0,0-19,15.3-28.1,13.5c0,0-12.8,1.1,9.5-15.3l18.6-16.8l-21.2,16.1l-3.3-8l0.7,7.7c0,0-17.3,19.4-16.4,21.9c0,0-7.3,8-9.3,6.2
				c-2-1.8,6.4-27.8,7.9-29.2s8.8-23.4,8.8-23.4l-11,20.9c0,0-7.3,15-11.7,10.2s-2.6-20.1-6.6-21.2c0,0,5.5,26.3,3.7,25.9
				c0,0,3.7,7.3,4,8.8c0.4,1.5,1.1,10.6-2.6,17.5s-6.9,14.3-6.9,14.3l-11-33.6c0,0-4.4-9.9,0-21.6s5.1-19.4,5.1-19.4l-7.1,17.2
				c0,0-12.3-6.2-9.7-26c0,0-4.4,18.6,6.9,28.5c0,0-5.5,14.3-15.3,9.1c0,0,1.8,2.9,11,0.4l6.9,12.4c0,0,7.7,28.9,9.5,31.8
				L-301.8,358.2z"/>
		</g>
	</g>
</g>
</svg>
