<?xml version="1.0" encoding="utf-8"?>
<!-- Generator: Adobe Illustrator 19.0.1, SVG Export Plug-In . SVG Version: 6.00 Build 0)  -->
<svg version="1.1" id="Layer_1" xmlns="http://www.w3.org/2000/svg" xmlns:xlink="http://www.w3.org/1999/xlink" x="0px" y="0px"
	 viewBox="-379 181 200 200" style="enable-background:new -379 181 200 200;" xml:space="preserve">
<style type="text/css">
	.st0{fill:#352924;}
	.st1{opacity:0.4;fill:#352924;}
	.st2{fill:#ABC974;}
	.st3{fill:#7C9540;}
	.st4{opacity:0.4;fill:#5E4942;}
</style>
<g>
	<g>
		<path class="st0" d="M-357.9,242.5c0,0-9-24.9,12.7-32.3c0,0,21.7-22.3,45.6-18c0,0,65.7-17,82.7,12.7c0,0,29.2,19.1,20.7,44
			c0,0,14.3,41.3-4.8,59.4c0,0,14.8,54.1-14.3,56.2c0,0-26,4.2-37.6-2.7c0,0-40.3,20.1-64.7-5.3c0,0-36,0.5-24.4-36
			c0,0-12.2-28,2.7-40.5C-339.3,279.9-366.5,273-357.9,242.5z"/>
		<path class="st0" d="M-316.8,287.9c0,0-16.5-15.6-5-19.5c0,0,14.4-11.4,27-9.1c0,0,45.1-16.1,54.1-0.5c0,0,13.8,19.3,9.3,32.5
			c0,0,12.8,19.3,2.7,28.8c0,0,2.6,31.1-12.8,32.3c0,0-13.7,2.2-19.9-1.4c0,0-21.4,17.4-34.2,4c0,0-22.5-6-16.3-25.3
			c0,0-11.8-16.2-4-22.8C-315.9,306.8-321.3,304-316.8,287.9z"/>
		<path class="st1" d="M-275.4,368.5l-4.3-42.9l-54.9-19.7l55.7,12.5l-0.8-20.7c0,0-29-6.9-45.5-21.3c0,0,47.1,18.9,46.3,12.6
			l-18.7-37.1c0,0-17.9-14.1-26.2-15.7c0,0,29,4.4,33,9.1l15.6,17.5l14.6-17.9c0,0,13.1-15.1,11.9-26.6c0,0,1.6,21.9-6,30.6
			l-15.1,17.9l2,20.3l-0.8,11.5l20-7.2l19.3-23.5l-9.1,18.3c0,0-2.4,7.2,0,7.2c2.4,0,13.5-7.6,13.5-7.6s-8,12.6-42.2,20.1l3.4,59.9"
			/>
	</g>
	<g>
		<g>
			<path class="st2" d="M-361.5,245.2c0,0-9-24.9,12.7-32.3c0,0,21.7-22.3,45.6-18c0,0,65.7-17,82.7,12.7c0,0,29.2,19.1,20.7,44
				c0,0,14.3,41.3-4.8,59.4c0,0,14.8,54.1-14.3,56.2c0,0-26,4.2-37.6-2.7c0,0-40.3,20.1-64.7-5.3c0,0-36,0.5-24.4-36
				c0,0-12.2-28,2.7-40.5C-342.9,282.6-370.1,275.7-361.5,245.2z"/>
			<path class="st3" d="M-320.4,290.6c0,0-16.5-15.6-5-19.5c0,0,14.4-11.4,27-9.1c0,0,45.1-16.1,54.1-0.5c0,0,13.8,19.3,9.3,32.5
				c0,0,12.8,19.3,2.7,28.8c0,0,2.6,31.1-12.8,32.3c0,0-13.7,2.2-19.9-1.4c0,0-21.4,17.4-34.2,4c0,0-22.5-6-16.3-25.3
				c0,0-11.8-16.2-4-22.8C-319.5,309.5-324.9,306.7-320.4,290.6z"/>
			<path class="st4" d="M-279,371.2l-4.3-42.9l-54.9-19.7l55.7,12.5l-0.8-20.7c0,0-29-6.9-45.5-21.3c0,0,47.1,18.9,46.3,12.6
				l-18.7-37.1c0,0-17.9-14.1-26.2-15.7c0,0,29,4.4,33,9.1l15.6,17.5l14.6-17.9c0,0,13.1-15.1,11.9-26.6c0,0,1.6,21.9-6,30.6
				l-15.1,17.9l2,20.3l-0.8,11.5l20-7.2l19.3-23.5l-9.1,18.3c0,0-2.4,7.2,0,7.2c2.4,0,13.5-7.6,13.5-7.6s-8,12.6-42.2,20.1l3.4,59.9
				"/>
		</g>
	</g>
</g>
</svg>
