<?xml version="1.0" encoding="utf-8"?>
<!-- Generator: Adobe Illustrator 19.0.1, SVG Export Plug-In . SVG Version: 6.00 Build 0)  -->
<svg version="1.1" id="Layer_1" xmlns="http://www.w3.org/2000/svg" xmlns:xlink="http://www.w3.org/1999/xlink" x="0px" y="0px"
	 viewBox="-379 181 200 200" style="enable-background:new -379 181 200 200;" xml:space="preserve">
<style type="text/css">
	.st0{fill:#352924;}
	.st1{opacity:0.6;fill:#352924;}
	.st2{fill:#AF6B29;}
	.st3{fill:#6F6027;}
	.st4{opacity:0.6;fill:#574437;}
</style>
<g>
	<g>
		<path class="st0" d="M-326.3,216.3c0,0,62.4-67,112.4,4c0,0,55,23.2,24.1,59c0,0-1,100.8-43,87.9c0,0-72.5,7-89.7-20
			c0,0-66.7-8.5-41.5-69.2C-364,278-375.8,222.3-326.3,216.3z"/>
		<path class="st0" d="M-238.3,345.3c0,0-26.3,34.2-58.9,12.1c0,0-30.8-2.5-18-20.5c0,0-8.8-40.2,14.2-40.1c0,0,37.1-11.6,48.6-3
			c0,0,35.5-4.8,28,22.4C-224.5,316.2-213.1,336.9-238.3,345.3z"/>
		<path class="st1" d="M-282.8,366c0,0-23.4-37.8-46.9-38.3c0,0,33.8,5.5,47,20l0.7-25.5l-52.2-48.5l52.6,37.5l18.9-103.5l-7.9,82.9
			c0,0,39.6-30.4,51.3-25.4c0,0-21.6,1.5-46.2,30l-6.9,36l45.1-15.5l-47.1,27l9.1,25C-265.3,367.7-279.3,366.2-282.8,366z"/>
	</g>
	<g>
		<g>
			<path class="st2" d="M-330.3,219.3c0,0,62.4-67,112.4,4c0,0,55,23.2,24.1,59c0,0-1,100.8-43,87.9c0,0-72.5,7-89.7-20
				c0,0-66.7-8.5-41.5-69.2C-367.9,281-379.8,225.3-330.3,219.3z"/>
			<path class="st3" d="M-242.3,348.3c0,0-26.3,34.2-58.9,12.1c0,0-30.8-2.5-18-20.5c0,0-8.8-40.2,14.2-40.1c0,0,37.1-11.6,48.6-3
				c0,0,35.5-4.8,28,22.4C-228.5,319.2-217.1,339.9-242.3,348.3z"/>
			<path class="st4" d="M-286.8,369c0,0-23.4-37.8-46.9-38.3c0,0,33.8,5.5,47,20l0.7-25.5l-52.2-48.5l52.6,37.5l18.9-103.5
				l-7.9,82.9c0,0,39.6-30.4,51.3-25.4c0,0-21.6,1.5-46.2,30l-6.9,36l45.1-15.5l-47.1,27l9.1,25C-269.3,370.7-283.3,369.2-286.8,369
				z"/>
		</g>
	</g>
</g>
</svg>
