<?xml version="1.0" encoding="utf-8"?>
<!-- Generator: Adobe Illustrator 19.0.1, SVG Export Plug-In . SVG Version: 6.00 Build 0)  -->
<svg version="1.1" id="Layer_1" xmlns="http://www.w3.org/2000/svg" xmlns:xlink="http://www.w3.org/1999/xlink" x="0px" y="0px"
	 viewBox="-379 181 200 200" style="enable-background:new -379 181 200 200;" xml:space="preserve">
<style type="text/css">
	.st0{fill:#352924;}
	.st1{opacity:0.7;fill:#352924;}
	.st2{fill:#536E36;}
	.st3{fill:#3B2F15;}
	.st4{fill:#364C22;}
	.st5{opacity:0.7;fill:#3B2F15;}
</style>
<g>
	<g>
		<path class="st0" d="M-344.3,311.1c0,0-5,28.7,22.2,22.9s22.5-26.4,22.5-26.4s-6.9,24.1,27.9,19.5c0,0,36.7,27.5,29-8
			c0,0,31.7,21.4,19.9-11.5c0,0,61.5,4.7,34.4-35.3c0,0,8.8-25.4-18.3-18.9c0,0,10.7-19.5,9.2-32.1c0,0-4.6-16.4-32.9,0
			c0,0-19.5,14.1-23.3,3.4c0,0-7.6-26.7-26.4-22.5c0,0-67.6,11.5-72.6,30.2c0,0-28.7,8.8-13,24.5c0,0-6.5,21,16.4,21.4
			C-349.3,278.2-361.1,302.3-344.3,311.1z"/>
		<path class="st0" d="M-298.4,355.7h7.6c0,0,10.1-29.7,10.6-29.7c0.5,0,8.2-10,8.2-10l-9.9,6.1l4.6-18.3l-6.1,15.7
			c0,0-1.1-6.9-1.7-7.3c-0.6-0.4,9-19.1,9-19.1l-11.2,16.8l-2.9,1.1c0,0-7.3-15.3-11.8-18c0,0,11.1,18,9.2,20.6
			c0,0,8.4,5.7,7.3,10.7c0,0-4.6,24.5-8,24.8c-3.4,0.4-3.4-3.4-3.4-3.4s-1.5-39.4-5-37.4l-9.6-15.3l6.5,16c0,0,4.6,12.6,0,9.9
			c-4.6-2.7-13.8-18.7-14.9-16.8c0,0,13.4,20.6,13,22.2c-0.4,1.6,0.4-1.6,0.4-1.6S-304.1,343.5-298.4,355.7z"/>
		<path class="st0" d="M-333.3,310.2c0,0,1.3,20.9,17.1,17.5c15.8-3.3,11-8.7,11-8.7s-1.9,7.4,18.3,4.7c0,0,21.3,16,16.9-4.7
			c0,0,31.5,9.1,24.6-10c0,0,33.1-4.2,17.4-27.4c0,0,2-11.4-13.8-7.6c0,0-1.1-4.5-2-11.8c0,0,0.8-14.6-15.6-5c0,0-18.5,5.6-20.7-0.6
			c0,0-0.8-7.9-11.6-5.5c0,0-22.1,2.1-25,13c0,0-22.5,5.8-13.4,14.9c0,0-15.2,16.1-1.9,16.3C-332,295.3-343.1,305.1-333.3,310.2z"/>
		<path class="st1" d="M-298.4,355.7h7.6c0,0,10.1-29.7,10.6-29.7c0.5,0,8.2-10,8.2-10l-9.9,6.1l4.6-18.3l-6.1,15.7
			c0,0-1.1-6.9-1.7-7.3c-0.6-0.4,9-19.1,9-19.1l-11.2,16.8l-2.9,1.1c0,0-7.3-15.3-11.8-18c0,0,11.1,18,9.2,20.6
			c0,0,8.4,5.7,7.3,10.7c0,0-4.6,24.5-8,24.8c-3.4,0.4-3.4-3.4-3.4-3.4s-1.5-39.4-5-37.4l-9.6-15.3l6.5,16c0,0,4.6,12.6,0,9.9
			c-4.6-2.7-13.8-18.7-14.9-16.8c0,0,13.4,20.6,13,22.2c-0.4,1.6,0.4-1.6,0.4-1.6S-304.1,343.5-298.4,355.7z"/>
	</g>
	<g>
		<g>
			<path class="st2" d="M-347.4,313.4c0,0-5,28.7,22.2,22.9c27.1-5.7,22.5-26.4,22.5-26.4s-6.9,24.1,27.9,19.5c0,0,36.7,27.5,29-8
				c0,0,31.7,21.4,19.9-11.5c0,0,61.5,4.7,34.4-35.3c0,0,8.8-25.4-18.3-18.9c0,0,10.7-19.5,9.2-32.1c0,0-4.6-16.4-32.9,0
				c0,0-19.5,14.1-23.3,3.4c0,0-7.6-26.7-26.4-22.5c0,0-67.6,11.5-72.6,30.2c0,0-28.7,8.8-13,24.5c0,0-6.5,21,16.4,21.4
				C-352.3,280.5-364.2,304.6-347.4,313.4z"/>
			<path class="st3" d="M-301.4,358h7.6c0,0,10.1-29.7,10.6-29.7c0.5,0,8.2-10,8.2-10l-9.9,6.1l4.6-18.3l-6.1,15.7
				c0,0-1.1-6.9-1.7-7.3c-0.6-0.4,9-19.1,9-19.1l-11.2,16.8l-2.9,1.1c0,0-7.3-15.3-11.8-18c0,0,11.1,18,9.2,20.6
				c0,0,8.4,5.7,7.3,10.7c0,0-4.6,24.5-8,24.8c-3.4,0.4-3.4-3.4-3.4-3.4s-1.5-39.4-5-37.4l-9.6-15.3l6.5,16c0,0,4.6,12.6,0,9.9
				c-4.6-2.7-13.8-18.7-14.9-16.8c0,0,13.4,20.6,13,22.2c-0.4,1.6,0.4-1.6,0.4-1.6S-307.1,345.8-301.4,358z"/>
			<path class="st4" d="M-336.4,312.5c0,0,1.3,20.9,17.1,17.5c15.8-3.3,11-8.7,11-8.7s-1.9,7.4,18.3,4.7c0,0,21.3,16,16.9-4.7
				c0,0,31.5,9.1,24.6-10c0,0,33.1-4.2,17.4-27.4c0,0,2-11.4-13.8-7.6c0,0-1.1-4.5-2-11.8c0,0,0.8-14.6-15.6-5
				c0,0-18.5,5.6-20.7-0.6c0,0-0.8-7.9-11.6-5.5c0,0-22.1,2.1-25,13c0,0-22.5,5.8-13.4,14.9c0,0-15.2,16.1-1.9,16.3
				C-335.1,297.6-346.2,307.4-336.4,312.5z"/>
			<path class="st5" d="M-301.4,358h7.6c0,0,10.1-29.7,10.6-29.7c0.5,0,8.2-10,8.2-10l-9.9,6.1l4.6-18.3l-6.1,15.7
				c0,0-1.1-6.9-1.7-7.3c-0.6-0.4,9-19.1,9-19.1l-11.2,16.8l-2.9,1.1c0,0-7.3-15.3-11.8-18c0,0,11.1,18,9.2,20.6
				c0,0,8.4,5.7,7.3,10.7c0,0-4.6,24.5-8,24.8c-3.4,0.4-3.4-3.4-3.4-3.4s-1.5-39.4-5-37.4l-9.6-15.3l6.5,16c0,0,4.6,12.6,0,9.9
				c-4.6-2.7-13.8-18.7-14.9-16.8c0,0,13.4,20.6,13,22.2c-0.4,1.6,0.4-1.6,0.4-1.6S-307.1,345.8-301.4,358z"/>
		</g>
	</g>
</g>
</svg>
