<?xml version="1.0" encoding="utf-8"?>
<!-- Generator: Adobe Illustrator 19.0.1, SVG Export Plug-In . SVG Version: 6.00 Build 0)  -->
<svg version="1.1" id="Layer_1" xmlns="http://www.w3.org/2000/svg" xmlns:xlink="http://www.w3.org/1999/xlink" x="0px" y="0px"
	 viewBox="-379 181 200 200" style="enable-background:new -379 181 200 200;" xml:space="preserve">
<style type="text/css">
	.st0{fill:#352924;}
	.st1{opacity:0.6;fill:#352924;}
	.st2{fill:#629C72;}
	.st3{fill:#4E825B;}
	.st4{opacity:0.6;fill:#574437;}
</style>
<g>
	<g>
		<path class="st0" d="M-277.4,335.3c0,0-23.3,4.6-31.2-2.3c0,0-26.3,13.7-34.4-3.1c0,0-11.4-4-10.5-18.9c0,0-8.8,0-7.9-7.4
			l-7.6-7.7c0,0-0.9-8,0-12.3c0,0,2.6-10.6,4.1-11.4c0,0-2.6-19.7,9.6-22.3l5.3-8.6c0,0-1.5-10.6,3.5-13.1s11.4-7.7,14.3-7.4
			c2.9,0.3-3.2-4.3,18.1-6.3c0,0,36.5-12.9,75-5.1c0,0,30.6,6.3,24.5,14c0,0,30.1,9.4,16,23.4l15.8,18c0,0,3.5,7.8-4.1,19.1
			c0,0,4.7,3.4-1.2,11.1c0,0,5.1,27.4-2.9,34c-9.3,7.7-32.7,11.6-45.8,6.3H-277.4z"/>
		<path class="st0" d="M-305.9,332.3c0,0,23.3,14,39.1,4.4c0,0,31.8,13.7,37.1-14c0,0,8.8-7.6-7.9-37.1c0,0,8.2-31.2-9-35.3
			c0,0-44.6-9.9-57.5,12c0,0-24.5,15.8-10.8,40c0,0-4.4,11.4,2.6,15.5C-312.4,317.7-317,329.7-305.9,332.3z"/>
		<path class="st1" d="M-279.7,340c0,0-28.3-26.7-56.3-27.2c0,0,34.6-3.1,50.3,9.6l0.9-22.3l-55.1-37.2l55.6,27.6l16.6-66.5
			l-3.5,48.5c0,0,35.9-22.7,49.9-18.3c0,0-14.4-2.6-43.8,22.3l-8.2,31.5l34.5-9.6l-36.8,19.7l8.8,18.5
			C-266.9,336.7-275.5,340.3-279.7,340z"/>
	</g>
	<g>
		<g>
			<path class="st2" d="M-280.9,337.9c0,0-23.3,4.6-31.2-2.3c0,0-26.3,13.7-34.4-3.1c0,0-11.4-4-10.5-18.9c0,0-8.8,0-7.9-7.4
				l-7.6-7.7c0,0-0.9-8,0-12.3c0,0,2.6-10.6,4.1-11.4c0,0-2.6-19.7,9.6-22.3l5.3-8.6c0,0-1.5-10.6,3.5-13.1s11.4-7.7,14.3-7.4
				c2.9,0.3-3.2-4.3,18.1-6.3c0,0,36.5-12.9,75-5.1c0,0,30.6,6.3,24.5,14c0,0,30.1,9.4,16,23.4l15.8,18c0,0,3.5,7.8-4.1,19.1
				c0,0,4.7,3.4-1.2,11.1c0,0,5.1,27.4-2.9,34c-9.3,7.7-32.7,11.6-45.8,6.3H-280.9z"/>
			<path class="st3" d="M-309.4,334.9c0,0,23.3,14,39.1,4.4c0,0,31.8,13.7,37.1-14c0,0,8.8-7.6-7.9-37.1c0,0,8.2-31.2-9-35.3
				c0,0-44.6-9.9-57.5,12c0,0-24.5,15.8-10.8,40c0,0-4.4,11.4,2.6,15.5C-315.9,320.3-320.5,332.3-309.4,334.9z"/>
			<path class="st4" d="M-283.2,342.7c0,0-28.3-26.7-56.3-27.2c0,0,34.6-3.1,50.3,9.6l0.9-22.3l-55.1-37.2l55.6,27.6l16.6-66.5
				l-3.5,48.5c0,0,35.9-22.7,49.9-18.3c0,0-14.4-2.6-43.8,22.3l-8.2,31.5l34.5-9.6l-36.8,19.7l8.8,18.5
				C-270.4,339.3-279,342.9-283.2,342.7z"/>
		</g>
	</g>
</g>
</svg>
