<?xml version="1.0" encoding="utf-8"?>
<!-- Generator: Adobe Illustrator 19.0.1, SVG Export Plug-In . SVG Version: 6.00 Build 0)  -->
<svg version="1.1" id="Layer_1" xmlns="http://www.w3.org/2000/svg" xmlns:xlink="http://www.w3.org/1999/xlink" x="0px" y="0px"
	 viewBox="-379 181 200 200" style="enable-background:new -379 181 200 200;" xml:space="preserve">
<style type="text/css">
	.st0{fill:#546529;}
	.st1{fill:#E1CCE3;}
	.st2{fill:#BA85BA;}
	.st3{fill:#E8C26D;}
	.st4{fill:#DDCCE4;}
	.st5{fill:#788347;}
	.st6{fill:#FFFFFF;stroke:#231F20;stroke-width:0.9563;stroke-miterlimit:10;}
	.st7{fill:#6A6F3B;}
	.st8{fill:#AE847D;}
	.st9{fill:none;stroke:#231F20;stroke-width:0.9563;stroke-miterlimit:10;}
</style>
<g id="XMLID_571_">
	<g id="XMLID_123_">
		<path class="st0" d="M-328.5,272.6c0,0,0.4,0.2,1.2,0.7c0.8,0.5,1.9,1.2,3.2,2.2c1.4,1,3,2.3,4.8,3.8c1.8,1.5,3.8,3.3,5.8,5.4
			c2.1,2,4.2,4.4,6.4,6.9c2.2,2.5,4.4,5.3,6.5,8.2c2.1,3,4.3,6.1,6.2,9.4c1,1.6,2,3.3,2.9,5c1,1.7,1.8,3.4,2.7,5.2
			c1.7,3.5,3.3,7.1,4.8,10.6c1.4,3.6,2.7,7.1,3.8,10.6c1.1,3.5,2,6.9,2.7,10.2c0.2,0.8,0.4,1.6,0.6,2.4c0.2,0.8,0.3,1.6,0.5,2.3
			c0.3,1.5,0.6,3,0.8,4.5c0.4,2.9,0.8,5.5,1,7.9c0.2,2.3,0.4,4.4,0.5,6.1c0.1,3.4,0.2,5.3,0.2,5.3s-0.4-1.9-1.1-5.2
			c-0.3-1.7-0.8-3.6-1.3-5.9c-0.3-1.1-0.5-2.3-0.9-3.6c-0.3-1.3-0.7-2.6-1-4c-0.4-1.4-0.8-2.8-1.2-4.3c-0.2-0.7-0.4-1.5-0.6-2.3
			c-0.2-0.8-0.5-1.5-0.7-2.3c-0.9-3.1-2.1-6.4-3.3-9.7c-0.6-1.7-1.2-3.4-1.9-5.1c-0.7-1.7-1.4-3.4-2.1-5.1c-1.5-3.4-3-6.9-4.7-10.2
			c-0.8-1.7-1.7-3.4-2.6-5c-0.9-1.7-1.8-3.3-2.7-4.9c-0.9-1.6-1.9-3.2-2.8-4.8c-1-1.5-1.9-3.1-2.9-4.6c-2-3-3.9-5.8-5.8-8.4
			c-2-2.6-3.8-5.1-5.7-7.3c-3.6-4.4-6.9-7.9-9.2-10.3C-327.1,273.9-328.5,272.6-328.5,272.6z"/>
	</g>
	<g id="XMLID_120_">
		<path class="st0" d="M-274.5,375c0,0-0.4-2.2-1.1-6.1c-0.3-1.9-0.7-4.3-1.1-7c-0.4-2.7-0.9-5.7-1.4-9.1c-0.5-3.3-1.1-6.9-1.7-10.7
			c-0.3-1.9-0.6-3.8-0.9-5.8c-0.3-2-0.7-4-1-6.1c-0.7-4.1-1.3-8.4-2-12.7c-0.7-4.3-1.5-8.7-2.2-13.1c-0.8-4.4-1.6-8.8-2.4-13.1
			c-0.9-4.3-1.7-8.5-2.5-12.6c-0.4-2-0.9-4-1.3-6c-0.4-2-0.9-3.9-1.3-5.7c-0.5-1.9-0.9-3.7-1.3-5.4c-0.5-1.7-0.9-3.4-1.3-5
			c-0.4-1.6-0.9-3.1-1.3-4.6c-0.4-1.5-0.8-2.8-1.3-4.1c-0.4-1.3-0.8-2.5-1.2-3.6c-0.4-1.1-0.8-2.1-1.1-3c-0.4-0.9-0.7-1.7-1-2.4
			c-0.3-0.7-0.6-1.3-0.8-1.7c-0.3-0.5-0.4-0.8-0.6-1c-0.1-0.2-0.2-0.3-0.2-0.3s0.4,0.4,1,1.2c0.3,0.4,0.7,1,1.1,1.6
			c0.4,0.7,0.9,1.4,1.4,2.2c0.5,0.9,1,1.8,1.6,2.9c0.6,1,1.1,2.2,1.7,3.5c0.6,1.2,1.2,2.6,1.8,4c0.6,1.4,1.2,2.9,1.8,4.5
			c0.6,1.6,1.2,3.2,1.8,5c0.6,1.7,1.1,3.5,1.7,5.4c1.2,3.7,2.2,7.6,3.3,11.7c0.6,2,1,4.1,1.5,6.2c0.5,2.1,1,4.3,1.5,6.4
			c0.9,4.3,1.7,8.7,2.5,13.2c0.7,4.4,1.4,8.9,2.1,13.2c0.4,2.2,0.6,4.4,0.9,6.5c0.3,2.1,0.5,4.3,0.8,6.4c0.2,2.1,0.5,4.1,0.7,6.2
			c0.2,2,0.3,4,0.5,5.9c0.4,3.8,0.6,7.5,0.9,10.8c0.3,3.3,0.3,6.4,0.5,9.2c0.1,2.7,0.2,5.1,0.3,7.1
			C-274.5,372.8-274.5,375-274.5,375z"/>
	</g>
	<g id="XMLID_117_">
		<path class="st0" d="M-243.2,255.9c0,0-0.2,0.4-0.6,1.3c-0.4,0.8-0.9,2.1-1.5,3.6c-0.6,1.6-1.4,3.5-2.3,5.7
			c-0.9,2.2-1.8,4.7-2.9,7.4c-1.1,2.7-2.1,5.7-3.2,8.8c-0.6,1.5-1.1,3.2-1.7,4.8c-0.5,1.7-1.2,3.3-1.7,5c-1.1,3.5-2.3,7-3.3,10.6
			c-0.5,1.8-1.1,3.6-1.6,5.5c-0.5,1.8-1,3.7-1.5,5.6c-0.5,1.9-1,3.7-1.5,5.6c-0.4,1.9-0.9,3.7-1.3,5.6c-0.9,3.7-1.6,7.3-2.4,10.9
			c-0.8,3.5-1.3,7-1.9,10.2c-0.3,1.6-0.6,3.2-0.8,4.8c-0.2,1.5-0.4,3-0.6,4.5c-0.2,1.4-0.4,2.8-0.6,4.1c-0.2,1.3-0.4,2.6-0.5,3.7
			c-0.2,2.3-0.4,4.4-0.6,6.1c-0.4,3.4-0.6,5.3-0.6,5.3s-0.1-1.9-0.3-5.4c-0.1-1.7-0.2-3.8-0.2-6.2c0-2.4,0.1-5.1,0.2-8
			c0.1-1.5,0.1-3,0.2-4.6c0.2-1.6,0.3-3.2,0.5-4.9c0.3-3.3,0.6-6.9,1.3-10.5c0.6-3.6,1.1-7.4,2-11.1c0.4-1.9,0.8-3.8,1.2-5.7
			c0.4-1.9,1-3.8,1.5-5.7c0.5-1.9,1-3.8,1.6-5.7c0.6-1.9,1.2-3.7,1.8-5.5c0.3-0.9,0.6-1.8,0.9-2.7c0.3-0.9,0.6-1.8,1-2.7
			c0.7-1.8,1.3-3.5,1.9-5.2c1.3-3.4,2.7-6.7,4.1-9.8c1.4-3.1,2.7-6,4-8.6c1.3-2.6,2.6-5,3.7-7.1c1.1-2.1,2.2-3.9,3.1-5.3
			C-244.4,257.5-243.2,255.9-243.2,255.9z"/>
	</g>
	<path id="XMLID_116_" class="st1" d="M-338.3,269.9c0,0-13.7-2.4-19.8-11.2c-6.1-8.8,11.5-13.5,14-13.8
		c2.6-0.3,20.9,11.4,28.2,11.4c0,0,2.3,4,1.4,7s10.7-38.4,18.8-34.1c8.1,4.3-0.2,13.4,8.8,21.7c-4.8,0.7-21.8,33.8-26,25.5
		c0,0,13.9,15.1-2.4,29.6c-15.3-6.1-25,3.2-30.6,3c-5.6-0.2-5.1-8.9-8.4-10.4c-3.3-1.4-3.8,2.7-6.2,1.4c-2.4-1.3-1.8-11.2,0.6-13.7
		c2.4-2.6-1.7-5.7-2.1-5.4c-0.4,0.3,2.3-3,4.2-2.2c1.9,0.8-2.1-2.9-0.6-4.3s16.3-5.6,18.3-7.8C-338,264.5-338.3,269.9-338.3,269.9z"
		/>
	<path id="XMLID_115_" class="st2" d="M-322.8,272.6c0,0,6.4-4.3,8.4-9.9"/>
	<path id="XMLID_114_" class="st2" d="M-323.8,275.2c0,0,9.7-1.2,11.9,2.3"/>
	<path id="XMLID_113_" class="st2" d="M-331.1,282"/>
	<path id="XMLID_112_" class="st2" d="M-328.5,280.5c0,0,12.8,15.1,13.3,25.6"/>
	<path id="XMLID_111_" class="st2" d="M-354.3,298.8c0,0,6.6-13.8,14.5-16"/>
	<path id="XMLID_110_" class="st2" d="M-345.1,269c0,0,3.9-5.8,7.9-1.4"/>
	<polygon id="XMLID_109_" class="st3" points="-329.9,262.7 -329.1,261.7 -329,262.8 -328.1,261.8 -328.2,262.9 -327.2,262 
		-327.4,263.1 -326.4,262.2 -326.6,263.3 -325.6,262.5 -325.9,263.6 -324.8,262.9 -325.3,264 -324.1,263.4 -324.7,264.5 
		-323.5,263.9 -324.1,265 -323,264.5 -323.7,265.6 -322.5,265.2 -323.3,266.2 -322.1,265.9 -322.9,266.9 -321.8,266.7 -322.7,267.6 
		-321.5,267.5 -322.5,268.4 -321.4,268.4 -322.4,269.2 -321.3,269.3 -322.4,270 -321.3,270.2 -322.4,270.9 -321.4,271.1 
		-322.6,271.7 -321.6,272.1 -322.8,272.6 -321.9,273 -323.1,273.5 -322.2,274 -323.4,274.3 -322.7,274.9 -323.8,275.2 -323.2,275.9 
		-324.3,276 -323.8,276.8 -324.9,276.9 -324.4,277.7 -325.5,277.7 -325.1,278.6 -326.2,278.4 -325.9,279.4 -326.9,279.2 
		-326.7,280.1 -327.7,279.8 -327.6,280.9 -328.5,280.5 -328.5,281.5 -329.3,281 -329.4,282.1 -330.2,281.6 -330.4,282.7 -331.1,282 
		-331.4,283.1 -332,282.4 -332.4,283.5 -332.9,282.7 -333.4,283.9 -333.9,283 -334.4,284.1 -334.8,283.2 -335.4,284.3 -335.7,283.3 
		-336.4,284.4 -336.6,283.3 -337.4,284.4 -337.4,283.3 -338.3,284.3 -338.3,283.2 -339.2,284.1 -339,283 -340.1,283.9 -339.8,282.7 
		-340.9,283.5 -340.5,282.4 -341.6,283.1 -341.2,282 -342.3,282.7 -341.8,281.6 -342.9,282.1 -342.3,281 -343.5,281.5 -342.8,280.5 
		-343.9,280.9 -343.2,279.8 -344.3,280.1 -343.5,279.2 -344.7,279.4 -343.7,278.4 -344.9,278.6 -343.9,277.7 -345.1,277.7 
		-344,276.9 -345.1,276.8 -344,276 -345.1,275.9 -344,275.2 -345,274.9 -343.9,274.3 -344.8,274 -343.6,273.5 -344.5,273 
		-343.4,272.6 -344.2,272.1 -343,271.7 -343.8,271.1 -342.6,270.9 -343.3,270.2 -342.1,270 -342.7,269.3 -341.5,269.2 -342,268.4 
		-340.9,268.4 -341.3,267.5 -340.2,267.6 -340.5,266.7 -339.5,266.9 -339.7,265.9 -338.7,266.2 -338.8,265.2 -337.9,265.6 
		-337.9,264.5 -337.1,265 -337,263.9 -336.2,264.5 -336,263.4 -335.3,264 -335,262.9 -334.4,263.6 -334,262.5 -333.5,263.3 
		-333,262.2 -332.6,263.1 -332,262 -331.7,262.9 -331,261.8 -330.8,262.8 -330,261.7 	"/>
	<path id="XMLID_108_" class="st4" d="M-228.9,249.4c0,0,14.8-24.7,30.1-16.9c0,0,15.7,12.6-1.2,28.2c0,0,15.7-4.8,8.8,10.3
		c0,0,13,2.7,5,12.6s-40.8-8.2-40.8-8.2s-12.6,4.7-21.8,3.1c-9.2-1.6-23.8-28.6-23.5-30c0.2-1.4-20.1-10.8-20.1-17.5
		s1.9-11.1,3.3-11.4c1.4-0.2,2.5,0.4,4.1,2.7c0,0,2.4-2.8,6,0c3.6,2.8,2.9-1.4,4.5-2.7c1.7-1.4,4.4-0.5,5.3,1.1
		c0.8,1.7,0-13.3,4.9-15.5c4.9-2.3,10.5,3.7,12.4,18.3c0,0,6.9-30.5,27.1,0.1c6.9,9.4-12.6,25.9-13.3,27.8
		C-238.5,253.2-232,252.1-228.9,249.4z"/>
	<path id="XMLID_107_" class="st5" d="M-295.8,244.6c4.1-11.6-5.5-17.7-5.5-17.7s-0.4-3.3-0.9,3c-0.5,6.3,2.6,15.6,2.6,15.6
		L-295.8,244.6z"/>
	<path id="XMLID_106_" class="st1" d="M-311.4,235.7c0,0-28.2-1.6-39.2,3.2c-11,4.8-27.3-15.5-23.3-21.5c4-6.1,15.6-11.5,30.9-4
		c15.3,7.5-9.1-5.9-9.1-8.3s8.6-12.8,23.3,1c1.3-6.5,16.3-20.7,26.1-14.7c9.9,6.1,14-4.5,14-4.5s8.8-13.5,23,7.8
		c-14.7,19.8-21.8,22-29,25.5C-301.9,223.8-302.4,233.8-311.4,235.7z"/>
	<path id="XMLID_105_" class="st2" d="M-269,220.7c0,0-4.4,23.2,18.2,32.5"/>
	<path id="XMLID_104_" class="st2" d="M-229.5,262.4c0,0,20.8,2.6,28.4-1"/>
	<path id="XMLID_103_" class="st2" d="M-253.1,258.1c0,0-11.8-1.4-18.8-10.5"/>
	<path id="XMLID_102_" class="st2" d="M-247.2,245.1"/>
	<path id="XMLID_101_" class="st2" d="M-247.2,245.1c0,0-6.5-16.1-4.5-21.6"/>
	<path id="XMLID_100_" class="st2" d="M-243.2,263.3c0,0-1.4,8.5,15.9,11.4"/>
	<polygon id="XMLID_99_" class="st3" points="-245.4,244.1 -245.4,243.1 -244.5,244.1 -244.4,243.2 -243.6,244.2 -243.4,243.3 
		-242.7,244.4 -242.3,243.6 -241.7,244.7 -241.3,243.9 -240.7,245 -240.2,244.3 -239.8,245.4 -239.2,244.8 -238.8,245.9 
		-238.1,245.3 -237.9,246.4 -237.1,245.9 -236.9,247 -236.1,246.6 -236,247.6 -235.1,247.3 -235.2,248.3 -234.2,248.1 -234.3,249 
		-233.3,248.9 -233.6,249.8 -232.5,249.7 -232.8,250.6 -231.7,250.6 -232.2,251.4 -231,251.5 -231.5,252.2 -230.3,252.5 -231,253.1 
		-229.8,253.4 -230.5,254 -229.3,254.4 -230.1,254.8 -228.9,255.4 -229.8,255.7 -228.5,256.3 -229.5,256.6 -228.3,257.3 
		-229.3,257.4 -228.2,258.2 -229.2,258.2 -228.1,259.1 -229.2,259 -228.1,259.9 -229.3,259.8 -228.3,260.7 -229.5,260.5 
		-228.5,261.5 -229.7,261.2 -228.8,262.2 -230,261.8 -229.1,262.9 -230.4,262.4 -229.6,263.5 -230.9,262.9 -230.2,264.1 
		-231.4,263.4 -230.8,264.5 -232,263.8 -231.5,264.9 -232.6,264.1 -232.2,265.2 -233.4,264.4 -233,265.5 -234.1,264.6 -233.9,265.6 
		-234.9,264.7 -234.8,265.7 -235.8,264.7 -235.8,265.7 -236.7,264.7 -236.8,265.6 -237.6,264.6 -237.8,265.5 -238.5,264.4 
		-238.9,265.2 -239.5,264.1 -239.9,264.9 -240.5,263.8 -241,264.5 -241.4,263.4 -242,264.1 -242.4,262.9 -243.1,263.5 -243.3,262.4 
		-244.1,262.9 -244.3,261.8 -245.1,262.2 -245.2,261.2 -246.1,261.5 -246,260.5 -247,260.7 -246.9,259.8 -247.9,259.9 -247.6,259 
		-248.8,259.1 -248.4,258.2 -249.5,258.2 -249,257.4 -250.2,257.3 -249.7,256.6 -250.9,256.3 -250.2,255.7 -251.4,255.4 
		-250.7,254.8 -251.9,254.4 -251.1,254 -252.3,253.4 -251.4,253.1 -252.7,252.5 -251.7,252.2 -252.9,251.5 -251.9,251.4 -253,250.6 
		-252,250.6 -253.1,249.7 -252,249.8 -253.1,248.9 -251.9,249 -252.9,248.1 -251.7,248.3 -252.7,247.3 -251.5,247.6 -252.4,246.6 
		-251.2,247 -252.1,245.9 -250.8,246.4 -251.6,245.3 -250.3,245.9 -251,244.8 -249.8,245.4 -250.4,244.3 -249.2,245 -249.7,243.9 
		-248.6,244.7 -249,243.6 -247.8,244.4 -248.2,243.3 -247.1,244.2 -247.3,243.2 -246.3,244.1 -246.4,243.1 	"/>
	<path id="XMLID_98_" class="st2" d="M-310.7,235.5c-9.7-11.8-27.6-19.9-27.6-19.9"/>
	<path id="XMLID_97_" class="st2" d="M-308.1,234.5c0,0-19.6-22.5-20.7-28.4"/>
	<path id="XMLID_27_" class="st2" d="M-305.8,232.8c0,0,15-31,12-40.2"/>
	<path id="XMLID_26_" class="st2" d="M-306.7,233.5c0,0-3.2-35.1-6.8-42.5"/>
	<path id="XMLID_6_" class="st6" d="M-311.4,235.7"/>
	<path id="XMLID_5_" class="st7" d="M-311.8,232.8c0,0-2.1,14.6,9.7,16.5c5.5-0.9,4.8-5.5,4.8-5.5L-311.8,232.8z"/>
	<path id="XMLID_3_" class="st8" d="M-309,234.9c0,0,5.2-4.2,6.8-6.5c1.5-2.3-1.3,6.2,1.2,12.6C-303.4,240.3-309,234.9-309,234.9z"
		/>
	<path id="XMLID_2_" class="st9" d="M-230.1,250.1"/>
</g>
</svg>
