<?xml version="1.0" encoding="utf-8"?>
<!-- Generator: Adobe Illustrator 19.0.1, SVG Export Plug-In . SVG Version: 6.00 Build 0)  -->
<svg version="1.1" id="Layer_1" xmlns="http://www.w3.org/2000/svg" xmlns:xlink="http://www.w3.org/1999/xlink" x="0px" y="0px"
	 viewBox="-379 181 200 200" style="enable-background:new -379 181 200 200;" xml:space="preserve">
<style type="text/css">
	.st0{fill:#73A139;}
	.st1{fill:#82B441;}
	.st2{fill:#885FA7;}
	.st3{fill:#A080BA;}
</style>
<g id="XMLID_573_">
	<g id="XMLID_172_">
		<path class="st0" d="M-261.6,379c0,0-0.4-0.7-0.8-2.1c-0.4-1.4-1.1-3.4-1.7-6.1c-1.3-5.3-2.9-12.8-4.6-22
			c-0.9-4.6-1.8-9.5-2.6-14.8c-0.9-5.2-1.8-10.8-2.7-16.5c-0.9-5.7-1.8-11.7-2.6-17.7c-0.8-6-1.6-12.2-2.4-18.3
			c-0.7-6.1-1.5-12.3-2.2-18.3c-0.7-6-1.3-12-1.9-17.8c-0.6-5.8-1.1-11.4-1.5-16.6c-0.5-5.3-0.8-10.3-1.1-14.9
			c-0.6-9.3-0.9-17-1-22.4c0-2.7,0-4.8,0.2-6.3c0.1-0.7,0.1-1.3,0.2-1.7c0.1-0.4,0.2-0.5,0.2-0.5s-0.1,0.2-0.1,0.5
			c0,0.4,0,0.9,0,1.6c0.1,1.4,0.3,3.6,0.6,6.2c0.6,5.4,1.6,13,2.9,22.2c1.2,9.2,2.7,19.9,4.2,31.4c0.7,5.7,1.6,11.7,2.3,17.7
			c0.8,6,1.6,12.2,2.3,18.3c0.8,6.1,1.5,12.3,2.3,18.3c0.8,6,1.4,12,2.2,17.7c1.4,11.5,2.6,22.2,3.7,31.4c1.1,9.2,2,16.9,2.8,22.2
			c0.4,2.7,0.7,4.8,1,6.2C-261.8,378.2-261.6,379-261.6,379z"/>
	</g>
	<g id="XMLID_177_">
		<path class="st0" d="M-294,202.4c0,0-0.1-0.1-0.2-0.2c-0.1-0.1-0.3-0.4-0.4-0.6c-0.2-0.3-0.4-0.6-0.5-0.9
			c-0.2-0.3-0.3-0.7-0.4-1.2c-0.2-0.8-0.3-1.7-0.1-2.6c0.2-0.9,0.6-1.8,1.4-2.6c0.7-0.8,1.8-1.5,3.3-1.9c0.7-0.2,1.6-0.2,2.4,0
			c0.8,0.1,1.5,0.5,2,1c0.2,0.2,0.4,0.5,0.6,0.7c0.1,0.3,0.2,0.5,0.3,0.7c0.1,0.4,0.1,0.9,0.1,1.2c0,0.3-0.1,0.6-0.2,0.8
			c-0.1,0.2-0.1,0.3-0.1,0.3s-0.1,0-0.3,0.1c-0.2,0-0.5,0.2-0.7,0.2c-0.3,0.1-0.6,0.3-0.8,0.4c-0.2,0.2-0.4,0.5-0.5,0.8
			c0,0.3,0.1,0.6,0.3,0.8c0.2,0.2,0.4,0.4,0.5,0.5c0.2,0.3,0.2,0.5-0.1,0.8c-0.3,0.3-0.7,0.6-1.3,0.8c-0.6,0.2-1.3,0.5-2.1,0.6
			c-0.4,0.1-0.8,0.1-1.1,0.2c-0.3,0.1-0.7,0.1-1,0.1c-0.3,0-0.6,0-0.8,0C-293.9,202.4-294,202.4-294,202.4z"/>
	</g>
	<g id="XMLID_188_">
		<path class="st0" d="M-275.5,230.4c0,0-0.1,0-0.3,0c-0.2,0-0.5,0-0.7-0.1c-0.3,0-0.7-0.1-1-0.1c-0.3-0.1-0.7-0.1-1.1-0.2
			c-0.7-0.1-1.4-0.3-1.9-0.4c-0.5-0.2-0.9-0.3-1-0.4c0,0,0-0.1,0.1-0.1c0.1,0,0.3-0.1,0.5-0.2c0.2-0.1,0.4-0.4,0.5-0.6
			c0.1-0.3,0-0.5-0.2-0.8c-0.1-0.1-0.2-0.2-0.3-0.3c-0.1-0.1-0.3-0.2-0.4-0.3c-0.3-0.1-0.6-0.3-0.8-0.4c-0.2-0.1-0.5-0.2-0.7-0.3
			c-0.2-0.1-0.3-0.1-0.3-0.1s0-0.1-0.1-0.3c0-0.2-0.2-0.5-0.2-0.7c-0.1-0.3-0.1-0.7,0-1.1c0.1-0.4,0.2-0.9,0.5-1.3
			c0.3-0.5,0.7-0.9,1.3-1.3c0.6-0.4,1.4-0.6,2.3-0.6c0.8,0,1.7,0.2,2.4,0.5c0.7,0.3,1.3,0.7,1.7,1.1c1.8,1.7,1.9,3.7,1.4,5.3
			c-0.1,0.4-0.3,0.8-0.5,1.1c-0.2,0.3-0.4,0.6-0.6,0.9c-0.2,0.2-0.4,0.5-0.5,0.6C-275.4,230.3-275.5,230.4-275.5,230.4z"/>
	</g>
	<g id="XMLID_189_">
		<path class="st0" d="M-281.1,284.1c0,0-0.1,0-0.2-0.1c-0.1-0.1-0.4-0.2-0.6-0.4c-0.2-0.2-0.5-0.4-0.7-0.6
			c-0.3-0.2-0.5-0.5-0.7-0.8c-0.5-0.6-0.8-1.3-0.9-2c-0.1-0.7-0.1-1.4,0.3-2.1c0.2-0.3,0.4-0.7,0.6-1c0.1-0.2,0.3-0.3,0.4-0.4
			c0.2-0.1,0.4-0.3,0.5-0.4c0.4-0.2,0.8-0.4,1.3-0.6c0.4-0.1,1-0.2,1.4-0.2c0.4,0,0.9,0.1,1.3,0.3c0.3,0.1,0.7,0.3,0.9,0.5
			c0.2,0.2,0.4,0.4,0.5,0.5c0.1,0.1,0.1,0.2,0.1,0.2s0,0.1,0,0.3c0,0.2,0,0.5,0,0.7c0,0.3,0.1,0.6,0.1,0.9c0,0.1,0.1,0.3,0.2,0.4
			c0.1,0.1,0.1,0.3,0.2,0.4c0.1,0.3,0.3,0.5,0.4,0.7c0.1,0.2,0.3,0.4,0.4,0.6c0,0.1,0.1,0.2,0.1,0.2c0,0.1,0,0.2,0.1,0.2
			c0,0.1,0,0.3-0.1,0.4c-0.1,0.3-0.4,0.6-0.9,0.8c-0.5,0.3-1,0.5-1.7,0.7c-0.3,0.1-0.7,0.2-1,0.3c-0.3,0.1-0.6,0.1-0.9,0.2
			c-0.2,0.1-0.5,0.1-0.7,0.1C-281,284-281.1,284.1-281.1,284.1z"/>
	</g>
	<g id="XMLID_190_">
		<path class="st0" d="M-252.6,265.7c0,0-0.2,0-0.4,0c-0.3,0-0.7-0.1-1.2-0.1c-1-0.1-2.3-0.4-3.8-0.8c-1.5-0.4-3.1-1-4.7-1.7
			c-1.6-0.7-3.2-1.5-4.8-2.4c-0.8-0.4-1.5-0.9-2.2-1.3c-0.7-0.4-1.4-0.9-2-1.3c-0.6-0.4-1.2-0.8-1.7-1.1c-0.5-0.3-1-0.6-1.4-0.9
			c-0.1-0.1-0.2-0.1-0.3-0.2c-0.1,0-0.2-0.1-0.3-0.1c-0.2-0.1-0.4-0.1-0.6-0.2c-0.4-0.1-0.9-0.1-1.3,0.1c-0.4,0.1-0.8,0.3-1,0.4
			c-0.3,0.1-0.4,0.2-0.4,0.2s0-0.1-0.1-0.4c0-0.3-0.1-0.7,0-1.3c0.1-0.6,0.4-1.3,0.9-2c0.3-0.3,0.6-0.7,1.1-1
			c0.2-0.2,0.4-0.3,0.7-0.4c0.2-0.1,0.5-0.2,0.7-0.3c0.5-0.2,1-0.3,1.6-0.5c0.5-0.1,1.1-0.2,1.7-0.2c1.1,0,2.2,0,3.3,0.2
			c1.1,0.2,2.1,0.5,3.2,0.9c1,0.4,2,0.9,2.9,1.4c1.8,1.1,3.5,2.3,4.9,3.7c1.4,1.4,2.5,2.8,3.3,4.2c0.8,1.4,1.4,2.7,1.7,3.6
			c0.2,0.5,0.3,0.9,0.3,1.1C-252.6,265.6-252.6,265.7-252.6,265.7z"/>
	</g>
	<g id="XMLID_182_">
		<path id="XMLID_185_" class="st1" d="M-257.3,268.9c0,0-5.7,5.5-10.3,3.2c-4.7-2.3,9.5-4.1,11-6s-8-8-6.7-9.6
			c8.2,0.8,7.1,0.8,10.2,8.1c3.1,7.2-0.5-1.9,5.5-15.3c1.1-2.4,3.4,0.3-1.7,14.9c-5.1,14.6,7.9-8,3.6-8.7
			c-4.3-0.7,10.8-4.9-1.7,11.4C-259.9,283.2-257.3,268.9-257.3,268.9z"/>
		<path id="XMLID_184_" class="st2" d="M-248.6,261.5c0,0,10.7,20.4,26.6,16.6c-2.2,4.1-6,5.3-14.4,1.5c4.5,6.9,7.4,14.3,10.2,13.4
			c2.8-1-16,9.1-21.7-8.7c1.5,8.2-1.5,20.8-7,25.3c-3.9-2.6-4-16.9-3.7-20.1c-2.5,5.8-3.7,12.1-10.2,10.5c-0.1-5,6.8-11.4,8.5-12.1
			c1.7-0.7,1.4-15,3.5-21.9C-252.7,260.1-248.6,261.5-248.6,261.5z"/>
		<path id="XMLID_183_" class="st3" d="M-260.1,287.9c0,0,5.6-5.2,5.8-8.6c0.3-3.4-2.3,2.3,5.2,1.4c4.4-1.5,0.4-4,4.5-4.5
			c4.1-0.6,0.9,2.3,3.4,1.6c2.5-0.7-1.6-2.6,0.2-3.7c1.8-1,9.3,6.5,13.8,4.4c4.5-2.1-8.3,4.6-21.3-17c-4.1-0.1-5.6,1.1-8.1,4.5
			C-259.2,269.4-258.5,285.3-260.1,287.9z"/>
	</g>
	<g id="XMLID_139_">
		<path id="XMLID_175_" class="st1" d="M-278.5,234.7c0,0-4.1,5.5-9.4,3.2s8.3-4.1,9.3-6c1-1.9-10.3-8-9.4-9.6
			c8.4,0.8,7.3,0.8,12.5,8.1c5.2,7.2-1-1.9,1.1-15.3c0.4-2.4,3.5,0.3,2.6,14.9s5.6-8,1.1-8.7s9.4-4.9,1.6,11.4
			S-278.5,234.7-278.5,234.7z"/>
		<path id="XMLID_140_" class="st2" d="M-271.8,227.4c0,0,16.6,20.4,31.3,16.6c-1,4.1-4.5,5.3-13.9,1.5c6.5,6.9,11.5,14.3,14.1,13.4
			c2.5-1-13.4,9.1-24.2-8.7c3.8,8.2,4.5,20.8,0.3,25.3c-4.6-2.6-8.9-16.9-9.4-20.1c-0.8,5.8-0.3,12.1-7.2,10.5
			c-1.5-5,3.5-11.4,5.1-12.1s-3-15-2.8-21.9C-276.4,226-271.8,227.4-271.8,227.4z"/>
		<path id="XMLID_161_" class="st3" d="M-275.8,253.8c0,0,4.1-5.2,3.4-8.6c-0.7-3.4-1.7,2.3,5.6,1.4c3.9-1.5-0.7-4,3.2-4.5
			c3.9-0.6,1.5,2.3,3.8,1.6c2.3-0.7-2.4-2.6-0.8-3.7s11.2,6.5,15,4.4c3.8-2.1-7,4.6-26.2-17c-4.1-0.1-5.2,1.1-6.8,4.5
			C-280.2,235.3-275,251.2-275.8,253.8z"/>
	</g>
	<g id="XMLID_178_">
		<path id="XMLID_181_" class="st1" d="M-275.2,284.5c0,0,6.8,5.5,11,3.2c4.2-2.3-10.3-4.1-12.2-6c-1.9-1.9,6.4-8,4.8-9.6
			c-8,0.8-6.9,0.8-8.6,8.1s0.1-1.9-8.6-15.3c-1.6-2.4-3.4,0.3,4.7,14.9c8.1,14.6-9.5-8-5.4-8.7c4.2-0.7-11.8-4.9,4,11.4
			C-269.7,298.8-275.2,284.5-275.2,284.5z"/>
		<path id="XMLID_180_" class="st2" d="M-285.4,277.2c0,0-6.6,20.4-23.2,16.6c3,4.1,7.1,5.3,14.7,1.5c-3.1,6.9-4.5,14.3-7.5,13.4
			s17.8,9.1,19.9-8.7c0.2,8.2,5.7,20.8,12.1,25.3c3.4-2.6,0.6-16.9-0.4-20.1c3.7,5.8,6.2,12.1,12.3,10.5c-0.9-5-9.1-11.4-11-12.1
			c-1.9-0.7-4.4-15-7.9-21.9C-281.6,275.8-285.4,277.2-285.4,277.2z"/>
		<path id="XMLID_179_" class="st3" d="M-268.5,303.6c0,0-6.6-5.2-7.6-8.6c-0.9-3.4,2.8,2.3-4.9,1.4c-4.7-1.5-1.2-4-5.4-4.5
			c-4.2-0.6-0.4,2.3-3,1.6c-2.6-0.7,1.1-2.6-0.9-3.7s-8,6.5-12.9,4.4c-4.9-2.1,9.2,4.6,17.9-17c4-0.1,5.8,1.1,9,4.5
			S-270.7,301-268.5,303.6z"/>
	</g>
	<g id="XMLID_176_">
		<path id="XMLID_45_" class="st2" d="M-291.3,204.3c0,0-6.8,32.4-0.7,41.5c-5.2,0.8-2.5-5.5-4.9-4.9c-2.4,0.6-1.3,12.2-4.4,15
			s-8.9-15.5-4.5-22.9c4.4-7.5-9,14.9-19.6,13.6c-1.4-6.1,5.3-19.4,9.1-23.1c1.5-2.5-12.8,6.2-14.8,6c-2-0.1-4.9-1.3-5.1-3.4
			c-0.1-2.1,3-4.9,6.3-5.9s8.6,0.7,11.5-0.6c3-1.3,16.9-16.7,20.4-17.3C-294.2,201.9-291.3,204.3-291.3,204.3z"/>
		<path id="XMLID_153_" class="st3" d="M-292.7,240.5c0,0-7.1-6.9-6.1-16.7c-0.6-6.5-2.5,8.2-11.4,3.9c-5.9-2.5-3.8-8.8,0-11.4
			c3.8-2.5-7.2,1.8-7.2,1.8s18.6-16,19.7-17.1s5.4,0.2,7.1,1.6C-288.7,204-296.1,216.5-292.7,240.5z"/>
		<path id="XMLID_141_" class="st1" d="M-298.5,200.7c0,0-0.1-12.2,6.9-13.2c-2,3.5-2.7,7.7-3.2,11.5c1.1,1.3,8.7-6.6,9.4-8
			c0.7-1.4-0.9,7.8-2.8,9.2c2.8,1.9,2.7,0.4,9.8-1.8c-5.5,4.8-5.5,4.8-10.8,6.1C-299,200.2-298.5,200.7-298.5,200.7z"/>
	</g>
</g>
</svg>
