<?xml version="1.0" encoding="utf-8"?>
<!-- Generator: Adobe Illustrator 19.0.1, SVG Export Plug-In . SVG Version: 6.00 Build 0)  -->
<svg version="1.1" id="Layer_1" xmlns="http://www.w3.org/2000/svg" xmlns:xlink="http://www.w3.org/1999/xlink" x="0px" y="0px"
	 viewBox="-379 181 200 200" style="enable-background:new -379 181 200 200;" xml:space="preserve">
<style type="text/css">
	.st0{fill:#4D6F45;}
	.st1{fill:#EDE717;}
	.st2{fill:#E2A025;}
</style>
<g id="XMLID_570_">
	<g id="XMLID_619_">
		<path class="st0" d="M-241.3,229.5c0,0-0.4,0.5-1.1,1.4c-0.7,0.9-1.8,2.3-3.1,4c-1.3,1.8-2.9,3.9-4.7,6.4
			c-1.8,2.5-3.7,5.4-5.7,8.5c-1,1.6-2.1,3.2-3.1,5c-1.1,1.7-2.1,3.5-3.2,5.4c-2.2,3.7-4.3,7.7-6.5,11.9c-2.2,4.1-4.1,8.6-6.1,13
			c-0.9,2.3-1.9,4.5-2.8,6.9c-0.8,2.3-1.8,4.6-2.5,7l-1.2,3.5c-0.4,1.2-0.7,2.4-1.1,3.6c-0.3,1.2-0.7,2.4-1,3.6
			c-0.3,1.2-0.6,2.4-0.9,3.6c-0.3,1.2-0.6,2.4-0.8,3.6c-0.2,1.2-0.5,2.4-0.7,3.5c-0.3,1.2-0.4,2.3-0.6,3.5c-0.2,1.2-0.4,2.3-0.6,3.5
			c-0.4,2.3-0.5,4.6-0.8,6.8c-0.2,2.2-0.3,4.4-0.5,6.6c-0.1,4.3-0.2,8.3,0,12.1c0,0.9,0.1,1.9,0.1,2.7c0.1,0.9,0.2,1.8,0.2,2.6
			c0.2,1.7,0.3,3.3,0.4,4.8c0.5,3,0.8,5.7,1.2,7.8c0.5,2.1,0.8,3.8,1,5c0.2,1.2,0.4,1.8,0.4,1.8s-0.2-0.6-0.6-1.7
			c-0.4-1.1-0.9-2.8-1.6-4.9c-0.6-2.1-1.2-4.7-2-7.7c-0.3-1.5-0.6-3.1-0.9-4.8c-0.2-0.9-0.3-1.7-0.4-2.6c-0.1-0.9-0.2-1.8-0.3-2.8
			c-0.5-3.8-0.7-7.9-0.7-12.3c0.1-2.2,0-4.4,0.2-6.7c0.1-1.1,0.2-2.3,0.3-3.5c0.1-1.2,0.1-2.4,0.3-3.5c0.6-4.7,1.3-9.6,2.5-14.5
			c0.3-1.2,0.6-2.4,0.9-3.7c0.3-1.2,0.7-2.4,1-3.7c0.4-1.2,0.7-2.5,1.1-3.7l1.2-3.6c0.8-2.4,1.7-4.8,2.6-7.2c0.9-2.4,1.9-4.7,2.9-7
			c1.1-2.3,2-4.6,3.2-6.7c0.6-1.1,1.1-2.2,1.7-3.3c0.6-1.1,1.1-2.1,1.7-3.2c2.3-4.2,4.7-8.1,7-11.8c2.4-3.7,4.7-7,7-10.1
			c1.1-1.5,2.3-3,3.3-4.3c1.1-1.3,2.1-2.6,3.1-3.8c2-2.4,3.8-4.4,5.3-6c1.5-1.6,2.7-2.8,3.6-3.7
			C-241.7,229.9-241.3,229.5-241.3,229.5z"/>
	</g>
	<g id="XMLID_618_">
		<path class="st0" d="M-289.4,354.3c0,0-0.3-0.5-0.9-1.5c-0.3-0.5-0.6-1.1-1-1.8c-0.4-0.7-0.8-1.5-1.2-2.5c-0.4-1-0.9-2-1.4-3.2
			c-0.5-1.2-0.9-2.5-1.4-3.8c-0.5-1.4-0.9-2.9-1.4-4.4c-0.5-1.6-1-3.2-1.4-5c-0.4-1.8-0.8-3.6-1.3-5.5c-0.4-1.9-0.6-3.9-0.9-5.9
			c-0.2-1-0.3-2.1-0.5-3.1c-0.1-1.1-0.2-2.1-0.3-3.2c-0.2-2.2-0.4-4.4-0.6-6.6c0-2.3-0.1-4.5-0.1-6.9c0-1.2,0-2.3-0.1-3.5
			c0-1.2,0.1-2.3,0.1-3.5c0.3-4.7,0.4-9.5,1.1-14.3c0.3-2.4,0.6-4.8,0.9-7.1c0.1-1.2,0.4-2.4,0.6-3.5c0.2-1.2,0.4-2.3,0.7-3.5
			c0.9-4.6,1.7-9.2,3-13.5c0.6-2.2,1.1-4.3,1.7-6.4c0.3-1,0.6-2.1,0.9-3.1c0.1-0.5,0.3-1,0.4-1.5c0.2-0.5,0.3-1,0.5-1.5
			c1.3-3.9,2.6-7.6,3.8-10.9c0.6-1.7,1.1-3.3,1.7-4.8c0.6-1.5,1.2-2.9,1.8-4.3c1.2-2.7,2.2-5,3-6.9c0.8-1.9,1.5-3.4,2-4.4
			c0.5-1,0.7-1.6,0.7-1.6s-0.2,0.6-0.5,1.6c-0.3,1.1-0.8,2.6-1.4,4.6c-0.6,2-1.4,4.4-2.3,7.1c-0.4,1.4-0.9,2.8-1.4,4.4
			c-0.5,1.6-0.9,3.2-1.4,4.9c-0.9,3.4-1.9,7.1-3.1,11c-0.1,0.5-0.3,1-0.4,1.5c-0.1,0.5-0.2,1-0.3,1.5c-0.2,1-0.5,2-0.7,3.1
			c-0.5,2.1-1,4.2-1.5,6.4c-0.5,2.2-1.1,4.3-1.4,6.6c-0.4,2.2-0.8,4.5-1.2,6.8c-0.2,1.1-0.4,2.3-0.6,3.4c-0.2,1.1-0.4,2.3-0.5,3.5
			c-0.3,2.3-0.6,4.7-0.8,7c-0.7,4.7-0.9,9.4-1.2,14c-0.1,1.2-0.2,2.3-0.2,3.5c0,1.1,0,2.3,0,3.4c0,2.3-0.1,4.5-0.1,6.7
			c0.1,2.2,0.2,4.4,0.3,6.5c0,1.1,0.1,2.1,0.1,3.1c0.1,1,0.2,2,0.3,3.1c0.2,2,0.4,4,0.6,5.9c0.3,1.9,0.6,3.7,0.8,5.4
			c0.2,1.8,0.7,3.4,1,5c0.3,1.6,0.6,3.1,1,4.5c0.4,1.4,0.7,2.7,1,3.9c0.4,1.2,0.7,2.3,1,3.3c0.3,1,0.7,1.8,0.9,2.6
			c0.3,0.8,0.5,1.4,0.8,1.9C-289.7,353.8-289.4,354.3-289.4,354.3z"/>
	</g>
	<g id="XMLID_617_">
		<path class="st0" d="M-297.1,268.5c0,0-0.5-0.6-1.4-1.6c-0.4-0.5-0.9-1.2-1.5-2c-0.5-0.8-1.2-1.6-1.7-2.6c-0.6-1-1.3-2.1-1.9-3.2
			c-0.7-1.2-1.3-2.4-1.9-3.7c-0.6-1.3-1.2-2.7-1.8-4.1c-0.6-1.4-1.1-2.9-1.6-4.3c-0.5-1.5-1-2.9-1.3-4.4c-0.4-1.5-0.8-2.9-1-4.4
			c-0.1-0.7-0.3-1.4-0.4-2.1c-0.1-0.7-0.2-1.4-0.3-2c-0.2-1.3-0.3-2.6-0.3-3.7c-0.1-1.2-0.1-2.2-0.1-3.2c0-0.9,0.1-1.8,0.1-2.5
			c0.1-1.4,0.2-2.1,0.2-2.1s0.3,0.7,0.6,2c0.2,0.6,0.4,1.4,0.6,2.3c0.3,0.9,0.6,1.9,0.9,3c0.3,1.1,0.7,2.3,1.1,3.5
			c0.2,0.6,0.4,1.3,0.6,1.9c0.2,0.6,0.4,1.3,0.6,2c0.2,0.7,0.4,1.4,0.6,2c0.2,0.7,0.5,1.4,0.7,2.1c0.4,1.4,0.9,2.8,1.4,4.2
			c0.4,1.4,1,2.8,1.4,4.2c0.5,1.4,1,2.8,1.4,4.1c0.9,2.7,1.8,5.2,2.6,7.3c0.8,2.1,1.4,4,1.8,5.2
			C-297.3,267.7-297.1,268.5-297.1,268.5z"/>
	</g>
	<path id="XMLID_616_" class="st1" d="M-279.3,209c0,0-4.2,11.4-9.4,8.1c-5.2-3.4-9.6-5.7-9.1-8.1s5.2-6,12.2-4.4
		c7,1.6-9.4,1.3-13.5-7.3s2.6-11.7,3.9-11.4s10.1,2.3,14,13c3.9,10.7-5.7-9.1,2.9-13c8.6-3.9,12.5,1.8,12,7.3
		c-0.5,5.5-5.5,7.1-6.5,8s9.9-9.3,16.9-5.1c7,4.2,2.6,15.3-12.7,13c-15.3-2.3-2.3-2.1-3.1-3.4s11.7,10.9,5.2,14.8
		C-273.1,224.3-284.8,211.4-279.3,209z"/>
	<path id="XMLID_615_" class="st2" d="M-269.4,204.8c1.1,3.4-1.7,6.2-6.2,6.2c-4.5,0-8.9-2.8-10-6.2c-1.1-3.4,1.7-6.2,6.2-6.2
		C-275,198.6-270.5,201.3-269.4,204.8z"/>
	<path id="XMLID_614_" class="st1" d="M-252,238.5c0,0-5.9-0.9-4.3-6.5c0,0-5.5-11,2-13.2s5.7,5.9,6,6.7c0.4,0.8,5.5-8,11.4-4.3
		c6,3.7-1.7,13.7-2.1,14.6c-0.4,0.9,8.7-5.6,12.2-1.8c3.5,3.8-8.1,12.2-12.1,9.8c-4.2,0.8-5.5,1.8-9.1-2
		C-252,238.5-252,238.5-252,238.5z"/>
	<path id="XMLID_613_" class="st1" d="M-315.5,215c0,0-0.1-10.8,8.3-9.9c5.7,0.6,5.2,6.7,5.2,6.7s8.1-6.9,9.5,6.1
		c-1.5,10.1-12.9,7.9-13.8,7.3c-0.9-0.7,4.2,2.2,3.5,3.4s-12.9,7.2-17.3,2c-1,0-12.5,2.1-12-9.4c4-3.1,7.2,0.7,8.2,0.7
		s-8.6-5.9-7.2-9.3c1.4-3.4,5.9-6,11.3-3.3C-315.9,211.2-315.5,215-315.5,215z"/>
	<path id="XMLID_612_" class="st2" d="M-305.9,217.6c2.3,2.2,1.4,5.5-2,7.5c-3.4,1.9-8.1,1.7-10.4-0.5c-2.3-2.2-1.4-5.5,2-7.5
		S-308.2,215.4-305.9,217.6z"/>
	<g id="XMLID_611_">
		<path class="st2" d="M-251.1,237.8c0,0-0.2-0.5-0.6-1.2c-0.4-0.7-0.8-1.6-1.4-2.5c-0.2-0.2-0.3-0.4-0.4-0.6
			c-0.2-0.2-0.3-0.4-0.5-0.6c-0.2-0.2-0.3-0.3-0.5-0.4c-0.2-0.1-0.3-0.2-0.5-0.3c-0.2-0.1-0.3-0.1-0.5-0.2c-0.2-0.1-0.3-0.1-0.4,0
			c-0.2,0-0.4,0-0.4,0s0.1,0,0.4-0.1c0.1,0,0.3-0.1,0.4-0.1c0.2,0,0.4,0,0.6,0.1c0.2,0.1,0.4,0.1,0.6,0.3c0.2,0.1,0.4,0.3,0.6,0.4
			c0.4,0.3,0.7,0.8,1.1,1.2c0.3,0.5,0.6,0.9,0.8,1.4c0.2,0.5,0.4,0.9,0.5,1.3C-251.2,237.3-251.1,237.8-251.1,237.8z"/>
	</g>
	<g id="XMLID_610_">
		<path class="st2" d="M-247.9,233.5c0,0-0.2-0.5-0.5-1.2c-0.2-0.7-0.5-1.8-0.5-2.8c0-0.5,0-1,0-1.5c0-0.5,0.1-0.9,0.2-1.3
			c0.2-0.8,0.5-1.2,0.5-1.2s0,0.1,0,0.4c0,0.2,0,0.5-0.1,0.9c0,0.8,0,1.8,0.1,2.8c0.1,1,0.2,2,0.3,2.8
			C-247.9,233-247.9,233.5-247.9,233.5z"/>
	</g>
	<g id="XMLID_609_">
		<path class="st2" d="M-243.7,236.8c0,0,0.3,0,0.8,0c0.5,0,1.1-0.1,1.7-0.2c0.6-0.1,1.2-0.3,1.6-0.5c0.4-0.2,0.7-0.4,0.7-0.3
			c0,0,0,0.1-0.1,0.2c-0.1,0.1-0.2,0.3-0.4,0.5c-0.2,0.2-0.4,0.3-0.7,0.5c-0.3,0.1-0.6,0.3-0.9,0.3c-0.7,0.1-1.4,0.1-1.8-0.1
			C-243.4,237-243.7,236.8-243.7,236.8z"/>
	</g>
	<g id="XMLID_608_">
		<path class="st2" d="M-246.9,240.9c0,0,0.6,0,1.4,0.1c0.8,0.1,1.9,0.3,3,0.6c1.1,0.3,2.1,0.7,2.8,1.2c0.4,0.2,0.6,0.5,0.8,0.6
			c0.2,0.2,0.2,0.3,0.2,0.3s-0.1-0.1-0.3-0.2c-0.2-0.1-0.5-0.3-0.9-0.4c-0.7-0.3-1.8-0.6-2.8-0.9c-1-0.3-2.1-0.6-2.9-0.8
			C-246.4,241.1-246.9,240.9-246.9,240.9z"/>
	</g>
	<g id="XMLID_607_">
		<path class="st2" d="M-314.2,218.8c0,0-0.2-0.2-0.5-0.6c-0.3-0.4-0.5-1-0.7-1.6c-0.2-0.6-0.3-1.3-0.2-1.7c0-0.5,0.2-0.8,0.2-0.8
			s0,0.1,0,0.2c0,0.1,0.1,0.3,0.1,0.5c0.1,0.4,0.3,1,0.5,1.6c0.2,0.6,0.4,1.2,0.5,1.6C-314.2,218.5-314.2,218.8-314.2,218.8z"/>
	</g>
	<g id="XMLID_606_">
		<path class="st2" d="M-308.4,218.8c0,0,0.5-0.4,1.2-1c0.7-0.6,1.6-1.4,2.5-2.2c0.4-0.4,0.8-0.9,1.2-1.3c0.2-0.2,0.3-0.4,0.5-0.6
			c0.2-0.2,0.3-0.4,0.4-0.6c0.2-0.4,0.5-0.7,0.5-0.9c0.1-0.2,0.2-0.4,0.2-0.4s0,0.2-0.1,0.4c0,0.3-0.2,0.6-0.4,1.1
			c-0.2,0.4-0.5,0.9-0.8,1.4c-0.3,0.5-0.8,0.9-1.2,1.4c-0.9,0.9-1.9,1.6-2.7,2.1C-307.9,218.6-308.4,218.8-308.4,218.8z"/>
	</g>
	<g id="XMLID_605_">
		<path class="st2" d="M-307.5,223.6c0,0,0.2-0.1,0.6,0c0.3,0.1,0.8,0.3,1.1,0.6c0.3,0.3,0.6,0.7,0.6,1.1c0.1,0.3,0,0.6,0,0.6
			s0,0-0.1-0.1c-0.1-0.1-0.2-0.2-0.3-0.3c-0.2-0.2-0.5-0.5-0.7-0.8c-0.3-0.3-0.6-0.5-0.8-0.7C-307.3,223.7-307.5,223.6-307.5,223.6z
			"/>
	</g>
	<g id="XMLID_604_">
		<path class="st2" d="M-320,230.5c0,0,0.1-0.5,0.4-1.2c0.3-0.7,0.7-1.6,1.2-2.5c0.3-0.4,0.6-0.8,0.9-1.2c0.3-0.4,0.6-0.7,1-0.9
			c0.3-0.2,0.6-0.4,0.8-0.5c0.2-0.1,0.3-0.1,0.3-0.1s-0.1,0.1-0.3,0.2c-0.2,0.1-0.4,0.3-0.6,0.6c-0.5,0.5-1,1.3-1.6,2.2
			c-0.5,0.8-1,1.7-1.4,2.3C-319.7,230.1-320,230.5-320,230.5z"/>
	</g>
	<g id="XMLID_603_">
		<path class="st2" d="M-317.7,221.8c0,0-0.3,0.2-0.9,0.4c-0.6,0.2-1.3,0.4-2.1,0.5c-0.4,0-0.8,0-1.2,0c-0.4,0-0.7-0.2-1-0.3
			c-0.1-0.1-0.3-0.2-0.4-0.2c-0.1-0.1-0.2-0.1-0.2-0.2c-0.1-0.1-0.2-0.2-0.2-0.2s0.1,0,0.2,0.1c0.1,0,0.2,0.1,0.3,0.1
			c0.1,0,0.2,0.1,0.4,0.1c0.5,0.1,1.3,0.1,2.1,0c0.8-0.1,1.5-0.2,2.1-0.2C-318.1,221.9-317.7,221.8-317.7,221.8z"/>
	</g>
	<g id="XMLID_568_">
		<path class="st2" d="M-280.6,201.2c0,0-0.2-0.2-0.3-0.5c-0.2-0.3-0.3-0.7-0.5-1.2c-0.1-0.4-0.2-0.9-0.2-1.3c0-0.4,0.1-0.6,0.1-0.6
			s0.1,0.2,0.3,0.5c0.1,0.3,0.3,0.7,0.4,1.2c0.1,0.4,0.2,0.9,0.2,1.2C-280.6,200.9-280.6,201.2-280.6,201.2z"/>
	</g>
	<g id="XMLID_567_">
		<path class="st2" d="M-272.9,202.8c0,0,0.3-0.3,0.7-0.8c0.4-0.5,1-1.1,1.6-1.7c0.6-0.6,1.2-1.2,1.6-1.7c0.2-0.2,0.4-0.4,0.5-0.6
			c0.1-0.1,0.2-0.2,0.2-0.2s-0.1,0.4-0.5,1c-0.3,0.6-0.8,1.3-1.4,1.9c-0.6,0.6-1.2,1.2-1.8,1.6
			C-272.6,202.6-272.9,202.8-272.9,202.8z"/>
	</g>
	<g id="XMLID_566_">
		<path class="st2" d="M-272.4,208c0,0,0.3-0.1,0.7-0.2c0.5-0.1,1.1-0.1,1.7,0.1c0.3,0.1,0.6,0.2,0.8,0.4c0.3,0.1,0.5,0.3,0.6,0.5
			c0.2,0.2,0.3,0.3,0.3,0.5c0.1,0.1,0.1,0.2,0.1,0.2s-0.1,0-0.2-0.1c-0.1-0.1-0.3-0.2-0.5-0.3c-0.4-0.2-0.9-0.4-1.4-0.5
			c-0.5-0.2-1.1-0.3-1.5-0.4C-272.1,208.1-272.4,208-272.4,208z"/>
	</g>
	<g id="XMLID_565_">
		<path class="st2" d="M-279.1,208.2c0,0-0.1,0.3-0.2,0.6c-0.1,0.4-0.4,0.8-0.6,1.2c-0.2,0.4-0.5,0.9-0.6,1.2
			c-0.1,0.2-0.1,0.3-0.1,0.4c0,0.1,0,0.2,0,0.2s0-0.1-0.1-0.2c0-0.1-0.1-0.3-0.1-0.5c0-0.4,0.2-1,0.4-1.4c0.2-0.5,0.6-0.9,0.9-1.2
			C-279.3,208.4-279.1,208.2-279.1,208.2z"/>
	</g>
	<g id="XMLID_569_">
		<path class="st2" d="M-283.7,204.1c0,0-0.5,0.1-1.2,0.2c-0.7,0.1-1.7,0.2-2.6,0.2c-1,0-1.9,0-2.6,0c-0.7-0.1-1.2-0.1-1.2-0.1
			s0.1-0.1,0.3-0.1c0.2,0,0.5-0.1,0.9-0.2c0.7-0.1,1.7-0.2,2.6-0.2c1,0,1.9,0,2.6,0.1C-284.2,204.1-283.7,204.1-283.7,204.1z"/>
	</g>
</g>
</svg>
