<?xml version="1.0" encoding="utf-8"?>
<!-- Generator: Adobe Illustrator 19.0.1, SVG Export Plug-In . SVG Version: 6.00 Build 0)  -->
<svg version="1.1" id="Layer_1" xmlns="http://www.w3.org/2000/svg" xmlns:xlink="http://www.w3.org/1999/xlink" x="0px" y="0px"
	 viewBox="-379 181 200 200" style="enable-background:new -379 181 200 200;" xml:space="preserve">
<style type="text/css">
	.st0{fill:#416B33;}
	.st1{fill:#F7BD20;}
	.st2{fill:#DB5526;}
	.st3{fill:#F7E559;}
</style>
<g id="XMLID_137_">
	<g id="XMLID_557_">
		<path class="st0" d="M-273.4,235.6c0,0,0,0.6,0.1,1.6c0,0.5,0,1.2,0,2c0,0.8,0,1.7-0.1,2.7c-0.1,2-0.3,4.4-0.5,7.1
			c-0.2,2.7-0.5,5.8-0.8,9.2c-0.6,6.7-1.3,14.5-2,22.9c-0.2,2.1-0.4,4.2-0.5,6.4c-0.2,2.2-0.3,4.3-0.5,6.5c-0.4,4.4-0.7,8.9-1,13.3
			c-0.3,4.5-0.6,8.9-0.9,13.3c-0.3,4.4-0.5,8.7-0.8,12.9c-0.5,8.4-1,16.2-1.4,23c-0.2,3.4-0.5,6.5-0.6,9.2c-0.2,2.7-0.3,5.1-0.5,7.1
			c-0.3,3.9-0.5,6.2-0.5,6.2s-0.3-2.2-0.6-6.2c-0.2-2-0.4-4.4-0.6-7.1c-0.2-2.7-0.4-5.8-0.5-9.2c-0.1-3.4-0.3-7-0.3-10.9
			c0-3.9-0.1-8,0-12.2c0.1-4.2,0.2-8.6,0.4-13c0.2-4.4,0.4-8.9,0.8-13.5c0.4-4.5,0.7-9,1.2-13.4c0.4-4.4,1-8.8,1.5-13
			c0.5-4.2,1.2-8.2,1.8-12.1c0.6-3.8,1.3-7.4,2-10.8c0.6-3.3,1.3-6.4,1.9-9c0.6-2.7,1.1-5,1.5-6.9c0.4-1.9,0.8-3.4,0.9-4.5
			C-273.5,236.2-273.4,235.6-273.4,235.6z"/>
	</g>
	<g id="XMLID_554_">
		<path class="st0" d="M-244.5,249.8c0,0-0.1,0.1-0.2,0.4c-0.2,0.2-0.4,0.6-0.7,1c-0.6,0.8-1.6,1.9-2.9,3.1
			c-1.3,1.2-2.8,2.5-4.6,3.8c-0.9,0.6-1.8,1.2-2.8,1.8c-1,0.6-2,1.1-3,1.7c-1,0.5-2.1,1-3.2,1.4c-1.1,0.4-2.2,0.8-3.2,1.1
			c-1.1,0.3-2.1,0.5-3.2,0.7c-1,0.2-2,0.2-3,0.2c-0.9,0-1.8-0.1-2.5-0.3c-0.4-0.1-0.7-0.2-1-0.3c-0.3-0.1-0.6-0.2-0.9-0.3
			c-0.5-0.2-0.9-0.5-1.1-0.7c-0.2-0.2-0.3-0.3-0.3-0.3s0.2,0,0.4,0c0.1,0,0.3,0,0.5,0c0.2,0,0.4-0.1,0.7-0.1c0.2,0,0.5-0.1,0.8-0.2
			c0.3-0.1,0.6-0.2,0.9-0.3c0.6-0.2,1.3-0.5,2-0.8c0.4-0.2,0.7-0.3,1.1-0.5c0.4-0.2,0.8-0.4,1.2-0.6c0.8-0.4,1.7-0.8,2.6-1.3
			c1.8-0.9,3.7-1.9,5.7-2.8c2-1,3.9-1.9,5.8-2.7c1.9-0.8,3.7-1.6,5.3-2.2c1.6-0.6,3-1,4-1.3C-245.1,249.9-244.5,249.8-244.5,249.8z"
			/>
	</g>
	<g id="XMLID_551_">
		<path class="st0" d="M-277.1,263c0,0-0.1,0-0.4,0c-0.2,0-0.6,0-1,0c-0.9,0-2.1-0.1-3.4-0.4c-1.4-0.3-3-0.7-4.6-1.3
			c-0.8-0.3-1.6-0.7-2.5-1.1c-0.8-0.4-1.6-0.9-2.4-1.4c-1.6-1-3.1-2.2-4.3-3.6c-0.6-0.7-1.2-1.4-1.7-2.1c-0.5-0.7-0.9-1.5-1.1-2.2
			c-0.3-0.7-0.4-1.5-0.5-2.1c-0.1-0.7,0-1.2,0.1-1.7c0.1-0.5,0.3-0.8,0.4-1c0.1-0.2,0.2-0.3,0.2-0.3s0.1,0.1,0.2,0.3
			c0.1,0.2,0.2,0.5,0.4,0.8c0.1,0.2,0.2,0.3,0.4,0.5c0.2,0.2,0.3,0.4,0.5,0.5c0.3,0.4,0.7,0.7,1.2,1.1c0.2,0.2,0.5,0.4,0.7,0.6
			c0.3,0.2,0.5,0.4,0.8,0.6c0.6,0.4,1.2,0.8,1.8,1.2c1.3,0.8,2.7,1.7,4.1,2.6c0.7,0.5,1.4,0.9,2.1,1.4c0.7,0.5,1.4,0.9,2.1,1.4
			c1.3,1,2.6,1.9,3.6,2.8c1,0.9,1.9,1.7,2.5,2.3c0.3,0.3,0.5,0.6,0.7,0.7C-277.2,262.9-277.1,263-277.1,263z"/>
	</g>
	<g id="XMLID_534_">
		<path id="XMLID_550_" class="st1" d="M-326.4,223.1c0,0-4.2,2.5-8.6,0s0.8,9.2,8.6,3.8c1.3,2.3-0.2,10.3,0,13.6
			c0.2,3.4,1.4,1.7,3.4,0s0.6,2.7,3.5,4c2.9,1.3,3.6-8.2,1.5-13.4c-2.1-5.2,4,6.9,10.3,2.6c-2.2-3.4-9.4-4.5-11.1-7.6
			c-1.7-3.1,0.9,0,3.9-1.1c1.7-0.7,0.1-2.6-1.4-3.5c-1.5-0.8-4.6,2.9-4,1c0.6-1.9,7.1-8.6,3.8-9.4c-3.4-0.8-4.2,4.2-3.8,1.7
			s4.6-4.6,2.3-8.4c-2.3-3.8-5,2.9-5,5.7c0,2.7-3.1-1.9-4.8-4.4c-1.7-2.5-2.9,2.9-1.3,5.5c1.7,2.5-12.6-10.1-1.3,7.1
			C-328.9,220.8-326.4,223.1-326.4,223.1z"/>
		<path id="XMLID_549_" class="st2" d="M-334.5,225.4c0,0,4.9,1.8,8.8-0.5"/>
		<path id="XMLID_548_" class="st2" d="M-311.1,232.7c0,0-6.6-3.7-9.5-5.6"/>
		<path id="XMLID_547_" class="st2" d="M-324,227.2c-0.7,5.5,0.6,10.2,1,11.1"/>
		<path id="XMLID_546_" class="st2" d="M-323.6,216.3c0,0,2.1,3.1,1.9,6.3"/>
		<path id="XMLID_545_" class="st2" d="M-318.9,228.9"/>
		<path id="XMLID_544_" class="st2" d="M-322.1,230.1"/>
		<path id="XMLID_543_" class="st2" d="M-320.5,220.1c0,0,1.6-3.1,2.7-3.8"/>
		<line id="XMLID_542_" class="st2" x1="-323.2" y1="237.9" x2="-322.1" y2="240.1"/>
		<path id="XMLID_541_" class="st2" d="M-324,226.7"/>
		<path id="XMLID_540_" class="st2" d="M-326.3,227.2"/>
		<path id="XMLID_539_" class="st2" d="M-329.1,213c0,0,1.7,3.5,3.9,4"/>
		<path id="XMLID_538_" class="st2" d="M-323.2,212.7"/>
		<path id="XMLID_537_" class="st2" d="M-323.6,217.1"/>
		<path id="XMLID_536_" class="st2" d="M-320.3,215c0,0-3.1,2-3.9,1.2"/>
		<path id="XMLID_535_" class="st3" d="M-324.3,217.5c0,0,4.8-2.8,1.2-3.5S-327.4,216.2-324.3,217.5z"/>
	</g>
	<g id="XMLID_517_">
		<path id="XMLID_533_" class="st1" d="M-337.1,235.4c0,0-4.2,2.5-8.6,0c-4.4-2.5,0.8,9.2,8.6,3.8c1.3,2.3-0.2,10.3,0,13.6
			c0.2,3.4,1.4,1.7,3.4,0c2.1-1.7,0.6,2.7,3.5,4s3.6-8.2,1.5-13.4s4,6.9,10.3,2.6c-2.2-3.4-9.4-4.5-11.1-7.6c-1.7-3.1,0.9,0,3.9-1.1
			c1.7-0.7,0.1-2.6-1.4-3.5s-4.6,2.9-4,1c0.6-1.9,7.1-8.6,3.8-9.4c-3.4-0.8-4.2,4.2-3.8,1.7c0.4-2.5,4.6-4.6,2.3-8.4s-5,2.9-5,5.7
			c0,2.7-3.1-1.9-4.8-4.4c-1.7-2.5-2.9,2.9-1.3,5.5s-12.6-10.1-1.3,7.1C-339.6,233.1-337.1,235.4-337.1,235.4z"/>
		<path id="XMLID_532_" class="st2" d="M-345.1,237.7c0,0,4.9,1.8,8.8-0.5"/>
		<path id="XMLID_531_" class="st2" d="M-321.8,245c0,0-6.6-3.7-9.5-5.6"/>
		<path id="XMLID_530_" class="st2" d="M-334.7,239.5c-0.7,5.5,0.6,10.2,1,11.1"/>
		<path id="XMLID_529_" class="st2" d="M-334.3,228.6c0,0,2.1,3.1,1.9,6.3"/>
		<path id="XMLID_528_" class="st2" d="M-329.6,241.2"/>
		<path id="XMLID_527_" class="st2" d="M-332.8,242.4"/>
		<path id="XMLID_526_" class="st2" d="M-331.2,232.3c0,0,1.6-3.1,2.7-3.8"/>
		<line id="XMLID_525_" class="st2" x1="-333.9" y1="250.2" x2="-332.8" y2="252.4"/>
		<path id="XMLID_524_" class="st2" d="M-334.7,239"/>
		<path id="XMLID_523_" class="st2" d="M-337,239.5"/>
		<path id="XMLID_522_" class="st2" d="M-339.8,225.3c0,0,1.7,3.5,3.9,4"/>
		<path id="XMLID_521_" class="st2" d="M-333.9,225"/>
		<path id="XMLID_520_" class="st2" d="M-334.3,229.3"/>
		<path id="XMLID_519_" class="st2" d="M-331,227.3c0,0-3.1,2-3.9,1.2"/>
		<path id="XMLID_518_" class="st3" d="M-335,229.8c0,0,4.8-2.8,1.2-3.5C-337.5,225.7-338.1,228.5-335,229.8z"/>
	</g>
	<g id="XMLID_500_">
		<path id="XMLID_516_" class="st1" d="M-252.5,259.5c0,0-4.2,2.5-8.6,0c-4.4-2.5,0.8,9.2,8.6,3.8c1.3,2.3-0.2,10.3,0,13.6
			s1.4,1.7,3.4,0c2.1-1.7,0.6,2.7,3.5,4c2.9,1.3,3.6-8.2,1.5-13.4c-2.1-5.2,4,6.9,10.3,2.6c-2.2-3.4-9.4-4.5-11.1-7.6
			c-1.7-3.1,0.9,0,3.9-1.1c1.7-0.7,0.1-2.6-1.4-3.5c-1.5-0.8-4.6,2.9-4,1s7.1-8.6,3.8-9.4c-3.4-0.8-4.2,4.2-3.8,1.7s4.6-4.6,2.3-8.4
			c-2.3-3.8-5,2.9-5,5.7c0,2.7-3.1-1.9-4.8-4.4c-1.7-2.5-2.9,2.9-1.3,5.5c1.7,2.5-12.6-10.1-1.3,7.1
			C-255,257.2-252.5,259.5-252.5,259.5z"/>
		<path id="XMLID_515_" class="st2" d="M-260.6,261.8c0,0,4.9,1.8,8.8-0.5"/>
		<path id="XMLID_514_" class="st2" d="M-237.2,269.2c0,0-6.6-3.7-9.5-5.6"/>
		<path id="XMLID_513_" class="st2" d="M-250.2,263.6c-0.7,5.5,0.6,10.2,1,11.1"/>
		<path id="XMLID_512_" class="st2" d="M-249.8,252.7c0,0,2.1,3.1,1.9,6.3"/>
		<path id="XMLID_511_" class="st2" d="M-245.1,265.3"/>
		<path id="XMLID_510_" class="st2" d="M-248.3,266.6"/>
		<path id="XMLID_509_" class="st2" d="M-246.7,256.5c0,0,1.6-3.1,2.7-3.8"/>
		<line id="XMLID_508_" class="st2" x1="-249.3" y1="274.4" x2="-248.3" y2="276.6"/>
		<path id="XMLID_507_" class="st2" d="M-250.2,263.1"/>
		<path id="XMLID_506_" class="st2" d="M-252.4,263.6"/>
		<path id="XMLID_505_" class="st2" d="M-255.2,249.5c0,0,1.7,3.5,3.9,4"/>
		<path id="XMLID_504_" class="st2" d="M-249.3,249.1"/>
		<path id="XMLID_503_" class="st2" d="M-249.8,253.5"/>
		<path id="XMLID_502_" class="st2" d="M-246.5,251.5c0,0-3.1,2-3.9,1.2"/>
		<path id="XMLID_501_" class="st3" d="M-250.4,254c0,0,4.8-2.8,1.2-3.5C-252.9,249.9-253.6,252.6-250.4,254z"/>
	</g>
	<g id="XMLID_483_">
		<path id="XMLID_499_" class="st1" d="M-274.2,254.8c0,0-4.2,2.5-8.6,0s0.8,9.2,8.6,3.8c1.3,2.3-0.2,10.3,0,13.6
			c0.2,3.4,1.4,1.7,3.4,0s0.6,2.7,3.5,4s3.6-8.2,1.5-13.4c-2.1-5.2,4,6.9,10.3,2.6c-2.2-3.4-9.4-4.5-11.1-7.6
			c-1.7-3.1,0.9,0,3.9-1.1c1.7-0.7,0.1-2.6-1.4-3.5c-1.5-0.8-4.6,2.9-4,1s7.1-8.6,3.8-9.4c-3.4-0.8-4.2,4.2-3.8,1.7s4.6-4.6,2.3-8.4
			s-5,2.9-5,5.7c0,2.7-3.1-1.9-4.8-4.4c-1.7-2.5-2.9,2.9-1.3,5.5c1.7,2.5-12.6-10.1-1.3,7.1C-276.8,252.5-274.2,254.8-274.2,254.8z"
			/>
		<path id="XMLID_498_" class="st2" d="M-282.3,257.1c0,0,4.9,1.8,8.8-0.5"/>
		<path id="XMLID_497_" class="st2" d="M-258.9,264.4c0,0-6.6-3.7-9.5-5.6"/>
		<path id="XMLID_496_" class="st2" d="M-271.9,258.9c-0.7,5.5,0.6,10.2,1,11.1"/>
		<path id="XMLID_495_" class="st2" d="M-271.5,247.9c0,0,2.1,3.1,1.9,6.3"/>
		<path id="XMLID_494_" class="st2" d="M-266.8,260.5"/>
		<path id="XMLID_493_" class="st2" d="M-270,261.8"/>
		<path id="XMLID_492_" class="st2" d="M-268.4,251.7c0,0,1.6-3.1,2.7-3.8"/>
		<line id="XMLID_491_" class="st2" x1="-271" y1="269.6" x2="-270" y2="271.8"/>
		<path id="XMLID_490_" class="st2" d="M-271.9,258.3"/>
		<path id="XMLID_489_" class="st2" d="M-274.2,258.9"/>
		<path id="XMLID_488_" class="st2" d="M-277,244.7c0,0,1.7,3.5,3.9,4"/>
		<path id="XMLID_487_" class="st2" d="M-271,244.3"/>
		<path id="XMLID_486_" class="st2" d="M-271.5,248.7"/>
		<path id="XMLID_485_" class="st2" d="M-268.2,246.7c0,0-3.1,2-3.9,1.2"/>
		<path id="XMLID_484_" class="st3" d="M-272.1,249.2c0,0,4.8-2.8,1.2-3.5C-274.7,245.1-275.3,247.8-272.1,249.2z"/>
	</g>
	<g id="XMLID_466_">
		<path id="XMLID_482_" class="st1" d="M-292.7,243c0,0-4.2,2.5-8.6,0c-4.4-2.5,0.8,9.2,8.6,3.8c1.3,2.3-0.2,10.3,0,13.6
			c0.2,3.4,1.4,1.7,3.4,0c2.1-1.7,0.6,2.7,3.5,4c2.9,1.3,3.6-8.2,1.5-13.4c-2.1-5.2,4,6.9,10.3,2.6c-2.2-3.4-9.4-4.5-11.1-7.6
			c-1.7-3.1,0.9,0,3.9-1.1c1.7-0.7,0.1-2.6-1.4-3.5c-1.5-0.8-4.6,2.9-4,1c0.6-1.9,7.1-8.6,3.8-9.4c-3.4-0.8-4.2,4.2-3.8,1.7
			c0.4-2.5,4.6-4.6,2.3-8.4c-2.3-3.8-5,2.9-5,5.7c0,2.7-3.1-1.9-4.8-4.4c-1.7-2.5-2.9,2.9-1.3,5.5c1.7,2.5-12.6-10.1-1.3,7.1
			C-295.2,240.7-292.7,243-292.7,243z"/>
		<path id="XMLID_481_" class="st2" d="M-300.8,245.3c0,0,4.9,1.8,8.8-0.5"/>
		<path id="XMLID_480_" class="st2" d="M-277.4,252.7c0,0-6.6-3.7-9.5-5.6"/>
		<path id="XMLID_479_" class="st2" d="M-290.3,247.1c-0.7,5.5,0.6,10.2,1,11.1"/>
		<path id="XMLID_478_" class="st2" d="M-289.9,236.2c0,0,2.1,3.1,1.9,6.3"/>
		<path id="XMLID_477_" class="st2" d="M-285.3,248.8"/>
		<path id="XMLID_476_" class="st2" d="M-288.5,250"/>
		<path id="XMLID_475_" class="st2" d="M-286.9,240c0,0,1.6-3.1,2.7-3.8"/>
		<line id="XMLID_474_" class="st2" x1="-289.5" y1="257.8" x2="-288.5" y2="260.1"/>
		<path id="XMLID_473_" class="st2" d="M-290.3,246.6"/>
		<path id="XMLID_472_" class="st2" d="M-292.6,247.1"/>
		<path id="XMLID_471_" class="st2" d="M-295.4,232.9c0,0,1.7,3.5,3.9,4"/>
		<path id="XMLID_470_" class="st2" d="M-289.5,232.6"/>
		<path id="XMLID_469_" class="st2" d="M-289.9,237"/>
		<path id="XMLID_468_" class="st2" d="M-286.7,235c0,0-3.1,2-3.9,1.2"/>
		<path id="XMLID_467_" class="st3" d="M-290.6,237.5c0,0,4.8-2.8,1.2-3.5C-293.1,233.4-293.7,236.1-290.6,237.5z"/>
	</g>
	<g id="XMLID_449_">
		<path id="XMLID_465_" class="st1" d="M-262.5,241.3c0,0-4.2,2.5-8.6,0c-4.4-2.5,0.8,9.2,8.6,3.8c1.3,2.3-0.2,10.3,0,13.6
			c0.2,3.4,1.4,1.7,3.4,0c2.1-1.7,0.6,2.7,3.5,4c2.9,1.3,3.6-8.2,1.5-13.4c-2.1-5.2,4,6.9,10.3,2.6c-2.2-3.4-9.4-4.5-11.1-7.6
			c-1.7-3.1,0.9,0,3.9-1.1c1.7-0.7,0.1-2.6-1.4-3.5c-1.5-0.8-4.6,2.9-4,1c0.6-1.9,7.1-8.6,3.8-9.4c-3.4-0.8-4.2,4.2-3.8,1.7
			c0.4-2.5,4.6-4.6,2.3-8.4s-5,2.9-5,5.7c0,2.7-3.1-1.9-4.8-4.4c-1.7-2.5-2.9,2.9-1.3,5.5c1.7,2.5-12.6-10.1-1.3,7.1
			C-265,239-262.5,241.3-262.5,241.3z"/>
		<path id="XMLID_464_" class="st2" d="M-270.6,243.6c0,0,4.9,1.8,8.8-0.5"/>
		<path id="XMLID_463_" class="st2" d="M-247.2,251c0,0-6.6-3.7-9.5-5.6"/>
		<path id="XMLID_462_" class="st2" d="M-260.1,245.4c-0.7,5.5,0.6,10.2,1,11.1"/>
		<path id="XMLID_461_" class="st2" d="M-259.7,234.5c0,0,2.1,3.1,1.9,6.3"/>
		<path id="XMLID_460_" class="st2" d="M-255,247.1"/>
		<path id="XMLID_459_" class="st2" d="M-258.3,248.4"/>
		<path id="XMLID_458_" class="st2" d="M-256.7,238.3c0,0,1.6-3.1,2.7-3.8"/>
		<line id="XMLID_457_" class="st2" x1="-259.3" y1="256.2" x2="-258.3" y2="258.4"/>
		<path id="XMLID_456_" class="st2" d="M-260.1,244.9"/>
		<path id="XMLID_455_" class="st2" d="M-262.4,245.4"/>
		<path id="XMLID_454_" class="st2" d="M-265.2,231.3c0,0,1.7,3.5,3.9,4"/>
		<path id="XMLID_453_" class="st2" d="M-259.3,230.9"/>
		<path id="XMLID_452_" class="st2" d="M-259.7,235.3"/>
		<path id="XMLID_451_" class="st2" d="M-256.5,233.3c0,0-3.1,2-3.9,1.2"/>
		<path id="XMLID_450_" class="st3" d="M-260.4,235.8c0,0,4.8-2.8,1.2-3.5C-262.9,231.7-263.5,234.4-260.4,235.8z"/>
	</g>
	<g id="XMLID_432_">
		<path id="XMLID_448_" class="st1" d="M-231.4,256.9c0,0-4.2,2.5-8.6,0c-4.4-2.5,0.8,9.2,8.6,3.8c1.3,2.3-0.2,10.3,0,13.6
			c0.2,3.4,1.4,1.7,3.4,0c2.1-1.7,0.6,2.7,3.5,4s3.6-8.2,1.5-13.4c-2.1-5.2,4,6.9,10.3,2.6c-2.2-3.4-9.4-4.5-11.1-7.6
			c-1.7-3.1,0.9,0,3.9-1.1c1.7-0.7,0.1-2.6-1.4-3.5c-1.5-0.8-4.6,2.9-4,1c0.6-1.9,7.1-8.6,3.8-9.4c-3.4-0.8-4.2,4.2-3.8,1.7
			c0.4-2.5,4.6-4.6,2.3-8.4c-2.3-3.8-5,2.9-5,5.7s-3.1-1.9-4.8-4.4s-2.9,2.9-1.3,5.5c1.7,2.5-12.6-10.1-1.3,7.1
			C-233.9,254.6-231.4,256.9-231.4,256.9z"/>
		<path id="XMLID_447_" class="st2" d="M-239.4,259.2c0,0,4.9,1.8,8.8-0.5"/>
		<path id="XMLID_446_" class="st2" d="M-216,266.6c0,0-6.6-3.7-9.5-5.6"/>
		<path id="XMLID_445_" class="st2" d="M-229,261c-0.7,5.5,0.6,10.2,1,11.1"/>
		<path id="XMLID_444_" class="st2" d="M-228.6,250.1c0,0,2.1,3.1,1.9,6.3"/>
		<path id="XMLID_443_" class="st2" d="M-223.9,262.7"/>
		<path id="XMLID_442_" class="st2" d="M-227.1,263.9"/>
		<path id="XMLID_441_" class="st2" d="M-225.5,253.9c0,0,1.6-3.1,2.7-3.8"/>
		<line id="XMLID_440_" class="st2" x1="-228.1" y1="271.7" x2="-227.1" y2="274"/>
		<path id="XMLID_439_" class="st2" d="M-229,260.5"/>
		<path id="XMLID_438_" class="st2" d="M-231.3,261"/>
		<path id="XMLID_437_" class="st2" d="M-234.1,246.8c0,0,1.7,3.5,3.9,4"/>
		<path id="XMLID_436_" class="st2" d="M-228.1,246.5"/>
		<path id="XMLID_435_" class="st2" d="M-228.6,250.9"/>
		<path id="XMLID_434_" class="st2" d="M-225.3,248.9c0,0-3.1,2-3.9,1.2"/>
		<path id="XMLID_433_" class="st3" d="M-229.3,251.4c0,0,4.8-2.8,1.2-3.5C-231.8,247.3-232.4,250-229.3,251.4z"/>
	</g>
	<g id="XMLID_415_">
		<path id="XMLID_431_" class="st1" d="M-240.5,201.5c0,0-4.2,2.5-8.6,0c-4.4-2.5,0.8,9.2,8.6,3.8c1.3,2.3-0.2,10.3,0,13.6
			c0.2,3.4,1.4,1.7,3.4,0c2.1-1.7,0.6,2.7,3.5,4c2.9,1.3,3.6-8.2,1.5-13.4c-2.1-5.2,4,6.9,10.3,2.6c-2.2-3.4-9.4-4.5-11.1-7.6
			c-1.7-3.1,0.9,0,3.9-1.1c1.7-0.7,0.1-2.6-1.4-3.5c-1.5-0.8-4.6,2.9-4,1c0.6-1.9,7.1-8.6,3.8-9.4s-4.2,4.2-3.8,1.7
			c0.4-2.5,4.6-4.6,2.3-8.4c-2.3-3.8-5,2.9-5,5.7c0,2.7-3.1-1.9-4.8-4.4c-1.7-2.5-2.9,2.9-1.3,5.5c1.7,2.5-12.6-10.1-1.3,7.1
			C-243,199.2-240.5,201.5-240.5,201.5z"/>
		<path id="XMLID_430_" class="st2" d="M-248.5,203.8c0,0,4.9,1.8,8.8-0.5"/>
		<path id="XMLID_429_" class="st2" d="M-225.1,211.1c0,0-6.6-3.7-9.5-5.6"/>
		<path id="XMLID_428_" class="st2" d="M-238.1,205.6c-0.7,5.5,0.6,10.2,1,11.1"/>
		<path id="XMLID_427_" class="st2" d="M-237.7,194.7c0,0,2.1,3.1,1.9,6.3"/>
		<path id="XMLID_426_" class="st2" d="M-233,207.3"/>
		<path id="XMLID_425_" class="st2" d="M-236.2,208.5"/>
		<path id="XMLID_424_" class="st2" d="M-234.6,198.5c0,0,1.6-3.1,2.7-3.8"/>
		<line id="XMLID_423_" class="st2" x1="-237.2" y1="216.3" x2="-236.2" y2="218.5"/>
		<path id="XMLID_422_" class="st2" d="M-238.1,205.1"/>
		<path id="XMLID_421_" class="st2" d="M-240.4,205.6"/>
		<path id="XMLID_420_" class="st2" d="M-243.2,191.4c0,0,1.7,3.5,3.9,4"/>
		<path id="XMLID_419_" class="st2" d="M-237.2,191.1"/>
		<path id="XMLID_418_" class="st2" d="M-237.7,195.5"/>
		<path id="XMLID_417_" class="st2" d="M-234.4,193.4c0,0-3.1,2-3.9,1.2"/>
		<path id="XMLID_416_" class="st3" d="M-238.4,195.9c0,0,4.8-2.8,1.2-3.5C-240.9,191.8-241.5,194.6-238.4,195.9z"/>
	</g>
	<g id="XMLID_398_">
		<path id="XMLID_414_" class="st1" d="M-288.4,200.9c0,0-4.2,2.5-8.6,0c-4.4-2.5,0.8,9.2,8.6,3.8c1.3,2.3-0.2,10.3,0,13.6
			c0.2,3.4,1.4,1.7,3.4,0c2.1-1.7,0.6,2.7,3.5,4c2.9,1.3,3.6-8.2,1.5-13.4c-2.1-5.2,4,6.9,10.3,2.6c-2.2-3.4-9.4-4.5-11.1-7.6
			c-1.7-3.1,0.9,0,3.9-1.1c1.7-0.7,0.1-2.6-1.4-3.5c-1.5-0.8-4.6,2.9-4,1c0.6-1.9,7.1-8.6,3.8-9.4c-3.4-0.8-4.2,4.2-3.8,1.7
			c0.4-2.5,4.6-4.6,2.3-8.4s-5,2.9-5,5.7c0,2.7-3.1-1.9-4.8-4.4c-1.7-2.5-2.9,2.9-1.3,5.5c1.7,2.5-12.6-10.1-1.3,7.1
			C-291,198.6-288.4,200.9-288.4,200.9z"/>
		<path id="XMLID_413_" class="st2" d="M-296.5,203.2c0,0,4.9,1.8,8.8-0.5"/>
		<path id="XMLID_412_" class="st2" d="M-273.1,210.6c0,0-6.6-3.7-9.5-5.6"/>
		<path id="XMLID_411_" class="st2" d="M-286.1,205c-0.7,5.5,0.6,10.2,1,11.1"/>
		<path id="XMLID_410_" class="st2" d="M-285.7,194.1c0,0,2.1,3.1,1.9,6.3"/>
		<path id="XMLID_409_" class="st2" d="M-281,206.7"/>
		<path id="XMLID_408_" class="st2" d="M-284.2,207.9"/>
		<path id="XMLID_407_" class="st2" d="M-282.6,197.9c0,0,1.6-3.1,2.7-3.8"/>
		<line id="XMLID_406_" class="st2" x1="-285.2" y1="215.7" x2="-284.2" y2="218"/>
		<path id="XMLID_405_" class="st2" d="M-286.1,204.5"/>
		<path id="XMLID_404_" class="st2" d="M-288.4,205"/>
		<path id="XMLID_403_" class="st2" d="M-291.2,190.8c0,0,1.7,3.5,3.9,4"/>
		<path id="XMLID_402_" class="st2" d="M-285.2,190.5"/>
		<path id="XMLID_401_" class="st2" d="M-285.7,194.9"/>
		<path id="XMLID_400_" class="st2" d="M-282.4,192.9c0,0-3.1,2-3.9,1.2"/>
		<path id="XMLID_399_" class="st3" d="M-286.3,195.3c0,0,4.8-2.8,1.2-3.5C-288.9,191.3-289.5,194-286.3,195.3z"/>
	</g>
	<g id="XMLID_381_">
		<path id="XMLID_397_" class="st1" d="M-307.8,234.6c0,0-4.2,2.5-8.6,0c-4.4-2.5,0.8,9.2,8.6,3.8c1.3,2.3-0.2,10.3,0,13.6
			c0.2,3.4,1.4,1.7,3.4,0c2.1-1.7,0.6,2.7,3.5,4c2.9,1.3,3.6-8.2,1.5-13.4s4,6.9,10.3,2.6c-2.2-3.4-9.4-4.5-11.1-7.6s0.9,0,3.9-1.1
			c1.7-0.7,0.1-2.6-1.4-3.5s-4.6,2.9-4,1c0.6-1.9,7.1-8.6,3.8-9.4c-3.4-0.8-4.2,4.2-3.8,1.7c0.4-2.5,4.6-4.6,2.3-8.4s-5,2.9-5,5.7
			c0,2.7-3.1-1.9-4.8-4.4c-1.7-2.5-2.9,2.9-1.3,5.5c1.7,2.5-12.6-10.1-1.3,7.1C-310.3,232.3-307.8,234.6-307.8,234.6z"/>
		<path id="XMLID_396_" class="st2" d="M-315.9,236.9c0,0,4.9,1.8,8.8-0.5"/>
		<path id="XMLID_395_" class="st2" d="M-292.5,244.3c0,0-6.6-3.7-9.5-5.6"/>
		<path id="XMLID_394_" class="st2" d="M-305.4,238.7c-0.7,5.5,0.6,10.2,1,11.1"/>
		<path id="XMLID_393_" class="st2" d="M-305,227.8c0,0,2.1,3.1,1.9,6.3"/>
		<path id="XMLID_392_" class="st2" d="M-300.4,240.4"/>
		<path id="XMLID_391_" class="st2" d="M-303.6,241.6"/>
		<path id="XMLID_390_" class="st2" d="M-302,231.6c0,0,1.6-3.1,2.7-3.8"/>
		<line id="XMLID_389_" class="st2" x1="-304.6" y1="249.5" x2="-303.6" y2="251.7"/>
		<path id="XMLID_388_" class="st2" d="M-305.4,238.2"/>
		<path id="XMLID_387_" class="st2" d="M-307.7,238.7"/>
		<path id="XMLID_386_" class="st2" d="M-310.5,224.6c0,0,1.7,3.5,3.9,4"/>
		<path id="XMLID_385_" class="st2" d="M-304.6,224.2"/>
		<path id="XMLID_384_" class="st2" d="M-305,228.6"/>
		<path id="XMLID_383_" class="st2" d="M-301.8,226.6c0,0-3.1,2-3.9,1.2"/>
		<path id="XMLID_382_" class="st3" d="M-305.7,229.1c0,0,4.8-2.8,1.2-3.5C-308.2,225-308.8,227.7-305.7,229.1z"/>
	</g>
	<g id="XMLID_364_">
		<path id="XMLID_380_" class="st1" d="M-299.4,209.5c0,0-4.2,2.5-8.6,0c-4.4-2.5,0.8,9.2,8.6,3.8c1.3,2.3-0.2,10.3,0,13.6
			c0.2,3.4,1.4,1.7,3.4,0c2.1-1.7,0.6,2.7,3.5,4c2.9,1.3,3.6-8.2,1.5-13.4s4,6.9,10.3,2.6c-2.2-3.4-9.4-4.5-11.1-7.6s0.9,0,3.9-1.1
			c1.7-0.7,0.1-2.6-1.4-3.5s-4.6,2.9-4,1c0.6-1.9,7.1-8.6,3.8-9.4c-3.4-0.8-4.2,4.2-3.8,1.7c0.4-2.5,4.6-4.6,2.3-8.4
			c-2.3-3.8-5,2.9-5,5.7c0,2.7-3.1-1.9-4.8-4.4c-1.7-2.5-2.9,2.9-1.3,5.5s-12.6-10.1-1.3,7.1C-301.9,207.1-299.4,209.5-299.4,209.5z
			"/>
		<path id="XMLID_379_" class="st2" d="M-307.5,211.8c0,0,4.9,1.8,8.8-0.5"/>
		<path id="XMLID_378_" class="st2" d="M-284.1,219.1c0,0-6.6-3.7-9.5-5.6"/>
		<path id="XMLID_377_" class="st2" d="M-297.1,213.5c-0.7,5.5,0.6,10.2,1,11.1"/>
		<path id="XMLID_376_" class="st2" d="M-296.7,202.6c0,0,2.1,3.1,1.9,6.3"/>
		<path id="XMLID_375_" class="st2" d="M-292,215.2"/>
		<path id="XMLID_374_" class="st2" d="M-295.2,216.5"/>
		<path id="XMLID_373_" class="st2" d="M-293.6,206.4c0,0,1.6-3.1,2.7-3.8"/>
		<line id="XMLID_372_" class="st2" x1="-296.2" y1="224.3" x2="-295.2" y2="226.5"/>
		<path id="XMLID_371_" class="st2" d="M-297.1,213"/>
		<path id="XMLID_370_" class="st2" d="M-299.3,213.5"/>
		<path id="XMLID_369_" class="st2" d="M-302.1,199.4c0,0,1.7,3.5,3.9,4"/>
		<path id="XMLID_368_" class="st2" d="M-296.2,199"/>
		<path id="XMLID_367_" class="st2" d="M-296.7,203.4"/>
		<path id="XMLID_366_" class="st2" d="M-293.4,201.4c0,0-3.1,2-3.9,1.2"/>
		<path id="XMLID_365_" class="st3" d="M-297.3,203.9c0,0,4.8-2.8,1.2-3.5C-299.8,199.8-300.5,202.5-297.3,203.9z"/>
	</g>
	<g id="XMLID_347_">
		<path id="XMLID_363_" class="st1" d="M-315.2,203.3c0,0-4.2,2.5-8.6,0c-4.4-2.5,0.8,9.2,8.6,3.8c1.3,2.3-0.2,10.3,0,13.6
			c0.2,3.4,1.4,1.7,3.4,0c2.1-1.7,0.6,2.7,3.5,4c2.9,1.3,3.6-8.2,1.5-13.4c-2.1-5.2,4,6.9,10.3,2.6c-2.2-3.4-9.4-4.5-11.1-7.6
			c-1.7-3.1,0.9,0,3.9-1.1c1.7-0.7,0.1-2.6-1.4-3.5c-1.5-0.8-4.6,2.9-4,1c0.6-1.9,7.1-8.6,3.8-9.4c-3.4-0.8-4.2,4.2-3.8,1.7
			c0.4-2.5,4.6-4.6,2.3-8.4c-2.3-3.8-5,2.9-5,5.7s-3.1-1.9-4.8-4.4c-1.7-2.5-2.9,2.9-1.3,5.5c1.7,2.5-12.6-10.1-1.3,7.1
			C-317.7,201-315.2,203.3-315.2,203.3z"/>
		<path id="XMLID_362_" class="st2" d="M-323.3,205.6c0,0,4.9,1.8,8.8-0.5"/>
		<path id="XMLID_361_" class="st2" d="M-299.9,213c0,0-6.6-3.7-9.5-5.6"/>
		<path id="XMLID_360_" class="st2" d="M-312.9,207.4c-0.7,5.5,0.6,10.2,1,11.1"/>
		<path id="XMLID_359_" class="st2" d="M-312.5,196.5c0,0,2.1,3.1,1.9,6.3"/>
		<path id="XMLID_358_" class="st2" d="M-307.8,209.1"/>
		<path id="XMLID_357_" class="st2" d="M-311,210.3"/>
		<path id="XMLID_356_" class="st2" d="M-309.4,200.3c0,0,1.6-3.1,2.7-3.8"/>
		<line id="XMLID_355_" class="st2" x1="-312" y1="218.1" x2="-311" y2="220.3"/>
		<path id="XMLID_354_" class="st2" d="M-312.9,206.9"/>
		<path id="XMLID_353_" class="st2" d="M-315.1,207.4"/>
		<path id="XMLID_352_" class="st2" d="M-317.9,193.2c0,0,1.7,3.5,3.9,4"/>
		<path id="XMLID_351_" class="st2" d="M-312,192.9"/>
		<path id="XMLID_350_" class="st2" d="M-312.5,197.3"/>
		<path id="XMLID_349_" class="st2" d="M-309.2,195.2c0,0-3.1,2-3.9,1.2"/>
		<path id="XMLID_348_" class="st3" d="M-313.1,197.7c0,0,4.8-2.8,1.2-3.5C-315.6,193.7-316.3,196.4-313.1,197.7z"/>
	</g>
	<g id="XMLID_330_">
		<path id="XMLID_346_" class="st1" d="M-229.4,231.7c0,0-4.2,2.5-8.6,0s0.8,9.2,8.6,3.8c1.3,2.3-0.2,10.3,0,13.6s1.4,1.7,3.4,0
			c2.1-1.7,0.6,2.7,3.5,4s3.6-8.2,1.5-13.4c-2.1-5.2,4,6.9,10.3,2.6c-2.2-3.4-9.4-4.5-11.1-7.6c-1.7-3.1,0.9,0,3.9-1.1
			c1.7-0.7,0.1-2.6-1.4-3.5c-1.5-0.8-4.6,2.9-4,1c0.6-1.9,7.1-8.6,3.8-9.4c-3.4-0.8-4.2,4.2-3.8,1.7s4.6-4.6,2.3-8.4
			c-2.3-3.8-5,2.9-5,5.7c0,2.7-3.1-1.9-4.8-4.4c-1.7-2.5-2.9,2.9-1.3,5.5c1.7,2.5-12.6-10.1-1.3,7.1
			C-231.9,229.3-229.4,231.7-229.4,231.7z"/>
		<path id="XMLID_345_" class="st2" d="M-237.5,234c0,0,4.9,1.8,8.8-0.5"/>
		<path id="XMLID_344_" class="st2" d="M-214.1,241.3c0,0-6.6-3.7-9.5-5.6"/>
		<path id="XMLID_343_" class="st2" d="M-227,235.7c-0.7,5.5,0.6,10.2,1,11.1"/>
		<path id="XMLID_342_" class="st2" d="M-226.6,224.8c0,0,2.1,3.1,1.9,6.3"/>
		<path id="XMLID_341_" class="st2" d="M-221.9,237.4"/>
		<path id="XMLID_340_" class="st2" d="M-225.2,238.7"/>
		<path id="XMLID_339_" class="st2" d="M-223.6,228.6c0,0,1.6-3.1,2.7-3.8"/>
		<line id="XMLID_338_" class="st2" x1="-226.2" y1="246.5" x2="-225.2" y2="248.7"/>
		<path id="XMLID_337_" class="st2" d="M-227,235.2"/>
		<path id="XMLID_336_" class="st2" d="M-229.3,235.7"/>
		<path id="XMLID_335_" class="st2" d="M-232.1,221.6c0,0,1.7,3.5,3.9,4"/>
		<path id="XMLID_334_" class="st2" d="M-226.2,221.2"/>
		<path id="XMLID_333_" class="st2" d="M-226.6,225.6"/>
		<path id="XMLID_332_" class="st2" d="M-223.4,223.6c0,0-3.1,2-3.9,1.2"/>
		<path id="XMLID_331_" class="st3" d="M-227.3,226.1c0,0,4.8-2.8,1.2-3.5C-229.8,222-230.4,224.7-227.3,226.1z"/>
	</g>
	<g id="XMLID_313_">
		<path id="XMLID_329_" class="st1" d="M-306.4,264.5c0,0-4.2,2.5-8.6,0s0.8,9.2,8.6,3.8c1.3,2.3-0.2,10.3,0,13.6
			c0.2,3.4,1.4,1.7,3.4,0c2.1-1.7,0.6,2.7,3.5,4c2.9,1.3,3.6-8.2,1.5-13.4c-2.1-5.2,4,6.9,10.3,2.6c-2.2-3.4-9.4-4.5-11.1-7.6
			c-1.7-3.1,0.9,0,3.9-1.1c1.7-0.7,0.1-2.6-1.4-3.5c-1.5-0.8-4.6,2.9-4,1c0.6-1.9,7.1-8.6,3.8-9.4s-4.2,4.2-3.8,1.7
			c0.4-2.5,4.6-4.6,2.3-8.4c-2.3-3.8-5,2.9-5,5.7c0,2.7-3.1-1.9-4.8-4.4c-1.7-2.5-2.9,2.9-1.3,5.5c1.7,2.5-12.6-10.1-1.3,7.1
			C-308.9,262.1-306.4,264.5-306.4,264.5z"/>
		<path id="XMLID_328_" class="st2" d="M-314.5,266.8c0,0,4.9,1.8,8.8-0.5"/>
		<path id="XMLID_327_" class="st2" d="M-291.1,274.1c0,0-6.6-3.7-9.5-5.6"/>
		<path id="XMLID_326_" class="st2" d="M-304.1,268.5c-0.7,5.5,0.6,10.2,1,11.1"/>
		<path id="XMLID_325_" class="st2" d="M-303.6,257.6c0,0,2.1,3.1,1.9,6.3"/>
		<path id="XMLID_324_" class="st2" d="M-299,270.2"/>
		<path id="XMLID_323_" class="st2" d="M-302.2,271.5"/>
		<path id="XMLID_322_" class="st2" d="M-300.6,261.4c0,0,1.6-3.1,2.7-3.8"/>
		<line id="XMLID_321_" class="st2" x1="-303.2" y1="279.3" x2="-302.2" y2="281.5"/>
		<path id="XMLID_320_" class="st2" d="M-304.1,268"/>
		<path id="XMLID_319_" class="st2" d="M-306.3,268.5"/>
		<path id="XMLID_318_" class="st2" d="M-309.1,254.4c0,0,1.7,3.5,3.9,4"/>
		<path id="XMLID_317_" class="st2" d="M-303.2,254"/>
		<path id="XMLID_316_" class="st2" d="M-303.6,258.4"/>
		<path id="XMLID_315_" class="st2" d="M-300.4,256.4c0,0-3.1,2-3.9,1.2"/>
		<path id="XMLID_314_" class="st3" d="M-304.3,258.9c0,0,4.8-2.8,1.2-3.5C-306.8,254.8-307.5,257.5-304.3,258.9z"/>
	</g>
	<g id="XMLID_296_">
		<path id="XMLID_312_" class="st1" d="M-329.6,246.4c0,0-4.2,2.5-8.6,0s0.8,9.2,8.6,3.8c1.3,2.3-0.2,10.3,0,13.6
			c0.2,3.4,1.4,1.7,3.4,0c2.1-1.7,0.6,2.7,3.5,4c2.9,1.3,3.6-8.2,1.5-13.4c-2.1-5.2,4,6.9,10.3,2.6c-2.2-3.4-9.4-4.5-11.1-7.6
			c-1.7-3.1,0.9,0,3.9-1.1c1.7-0.7,0.1-2.6-1.4-3.5c-1.5-0.8-4.6,2.9-4,1c0.6-1.9,7.1-8.6,3.8-9.4c-3.4-0.8-4.2,4.2-3.8,1.7
			c0.4-2.5,4.6-4.6,2.3-8.4c-2.3-3.8-5,2.9-5,5.7c0,2.7-3.1-1.9-4.8-4.4c-1.7-2.5-2.9,2.9-1.3,5.5c1.7,2.5-12.6-10.1-1.3,7.1
			C-332.1,244.1-329.6,246.4-329.6,246.4z"/>
		<path id="XMLID_311_" class="st2" d="M-337.7,248.7c0,0,4.9,1.8,8.8-0.5"/>
		<path id="XMLID_310_" class="st2" d="M-314.3,256c0,0-6.6-3.7-9.5-5.6"/>
		<path id="XMLID_309_" class="st2" d="M-327.3,250.5c-0.7,5.5,0.6,10.2,1,11.1"/>
		<path id="XMLID_308_" class="st2" d="M-326.9,239.6c0,0,2.1,3.1,1.9,6.3"/>
		<path id="XMLID_307_" class="st2" d="M-322.2,252.1"/>
		<path id="XMLID_306_" class="st2" d="M-325.4,253.4"/>
		<path id="XMLID_305_" class="st2" d="M-323.8,243.3c0,0,1.6-3.1,2.7-3.8"/>
		<line id="XMLID_304_" class="st2" x1="-326.4" y1="261.2" x2="-325.4" y2="263.4"/>
		<path id="XMLID_303_" class="st2" d="M-327.3,249.9"/>
		<path id="XMLID_302_" class="st2" d="M-329.5,250.5"/>
		<path id="XMLID_301_" class="st2" d="M-332.3,236.3c0,0,1.7,3.5,3.9,4"/>
		<path id="XMLID_300_" class="st2" d="M-326.4,235.9"/>
		<path id="XMLID_299_" class="st2" d="M-326.9,240.3"/>
		<path id="XMLID_298_" class="st2" d="M-323.6,238.3c0,0-3.1,2-3.9,1.2"/>
		<path id="XMLID_297_" class="st3" d="M-327.5,240.8c0,0,4.8-2.8,1.2-3.5C-330,236.7-330.7,239.4-327.5,240.8z"/>
	</g>
	<g id="XMLID_279_">
		<path id="XMLID_295_" class="st1" d="M-246,243.6c0,0-4.2,2.5-8.6,0c-4.4-2.5,0.8,9.2,8.6,3.8c1.3,2.3-0.2,10.3,0,13.6
			c0.2,3.4,1.4,1.7,3.4,0c2.1-1.7,0.6,2.7,3.5,4c2.9,1.3,3.6-8.2,1.5-13.4c-2.1-5.2,4,6.9,10.3,2.6c-2.2-3.4-9.4-4.5-11.1-7.6
			c-1.7-3.1,0.9,0,3.9-1.1c1.7-0.7,0.1-2.6-1.4-3.5s-4.6,2.9-4,1c0.6-1.9,7.1-8.6,3.8-9.4s-4.2,4.2-3.8,1.7c0.4-2.5,4.6-4.6,2.3-8.4
			c-2.3-3.8-5,2.9-5,5.7s-3.1-1.9-4.8-4.4c-1.7-2.5-2.9,2.9-1.3,5.5c1.7,2.5-12.6-10.1-1.3,7.1C-248.5,241.3-246,243.6-246,243.6z"
			/>
		<path id="XMLID_294_" class="st2" d="M-254,245.9c0,0,4.9,1.8,8.8-0.5"/>
		<path id="XMLID_293_" class="st2" d="M-230.7,253.2c0,0-6.6-3.7-9.5-5.6"/>
		<path id="XMLID_292_" class="st2" d="M-243.6,247.7c-0.7,5.5,0.6,10.2,1,11.1"/>
		<path id="XMLID_291_" class="st2" d="M-243.2,236.8c0,0,2.1,3.1,1.9,6.3"/>
		<path id="XMLID_290_" class="st2" d="M-238.5,249.4"/>
		<path id="XMLID_289_" class="st2" d="M-241.7,250.6"/>
		<path id="XMLID_288_" class="st2" d="M-240.1,240.5c0,0,1.6-3.1,2.7-3.8"/>
		<line id="XMLID_287_" class="st2" x1="-242.7" y1="258.4" x2="-241.7" y2="260.6"/>
		<path id="XMLID_286_" class="st2" d="M-243.6,247.2"/>
		<path id="XMLID_285_" class="st2" d="M-245.9,247.7"/>
		<path id="XMLID_284_" class="st2" d="M-248.7,233.5c0,0,1.7,3.5,3.9,4"/>
		<path id="XMLID_283_" class="st2" d="M-242.7,233.2"/>
		<path id="XMLID_282_" class="st2" d="M-243.2,237.5"/>
		<path id="XMLID_281_" class="st2" d="M-239.9,235.5c0,0-3.1,2-3.9,1.2"/>
		<path id="XMLID_280_" class="st3" d="M-243.9,238c0,0,4.8-2.8,1.2-3.5C-246.4,233.9-247,236.7-243.9,238z"/>
	</g>
	<g id="XMLID_262_">
		<path id="XMLID_278_" class="st1" d="M-318.6,251c0,0-4.2,2.5-8.6,0c-4.4-2.5,0.8,9.2,8.6,3.8c1.3,2.3-0.2,10.3,0,13.6
			c0.2,3.4,1.4,1.7,3.4,0c2.1-1.7,0.6,2.7,3.5,4c2.9,1.3,3.6-8.2,1.5-13.4c-2.1-5.2,4,6.9,10.3,2.6c-2.2-3.4-9.4-4.5-11.1-7.6
			c-1.7-3.1,0.9,0,3.9-1.1c1.7-0.7,0.1-2.6-1.4-3.5c-1.5-0.8-4.6,2.9-4,1c0.6-1.9,7.1-8.6,3.8-9.4c-3.4-0.8-4.2,4.2-3.8,1.7
			c0.4-2.5,4.6-4.6,2.3-8.4c-2.3-3.8-5,2.9-5,5.7s-3.1-1.9-4.8-4.4c-1.7-2.5-2.9,2.9-1.3,5.5c1.7,2.5-12.6-10.1-1.3,7.1
			C-321.1,248.6-318.6,251-318.6,251z"/>
		<path id="XMLID_277_" class="st2" d="M-326.7,253.3c0,0,4.9,1.8,8.8-0.5"/>
		<path id="XMLID_276_" class="st2" d="M-303.3,260.6c0,0-6.6-3.7-9.5-5.6"/>
		<path id="XMLID_275_" class="st2" d="M-316.3,255c-0.7,5.5,0.6,10.2,1,11.1"/>
		<path id="XMLID_274_" class="st2" d="M-315.9,244.1c0,0,2.1,3.1,1.9,6.3"/>
		<path id="XMLID_273_" class="st2" d="M-311.2,256.7"/>
		<path id="XMLID_272_" class="st2" d="M-314.4,258"/>
		<path id="XMLID_271_" class="st2" d="M-312.8,247.9c0,0,1.6-3.1,2.7-3.8"/>
		<line id="XMLID_270_" class="st2" x1="-315.4" y1="265.8" x2="-314.4" y2="268"/>
		<path id="XMLID_269_" class="st2" d="M-316.3,254.5"/>
		<path id="XMLID_268_" class="st2" d="M-318.6,255"/>
		<path id="XMLID_267_" class="st2" d="M-321.4,240.9c0,0,1.7,3.5,3.9,4"/>
		<path id="XMLID_266_" class="st2" d="M-315.4,240.5"/>
		<path id="XMLID_265_" class="st2" d="M-315.9,244.9"/>
		<path id="XMLID_264_" class="st2" d="M-312.6,242.9c0,0-3.1,2-3.9,1.2"/>
		<path id="XMLID_263_" class="st3" d="M-316.5,245.4c0,0,4.8-2.8,1.2-3.5C-319,241.3-319.7,244-316.5,245.4z"/>
	</g>
	<g id="XMLID_245_">
		<path id="XMLID_261_" class="st1" d="M-281.9,217.6c0,0-4.2,2.5-8.6,0c-4.4-2.5,0.8,9.2,8.6,3.8c1.3,2.3-0.2,10.3,0,13.6
			c0.2,3.4,1.4,1.7,3.4,0c2.1-1.7,0.6,2.7,3.5,4s3.6-8.2,1.5-13.4c-2.1-5.2,4,6.9,10.3,2.6c-2.2-3.4-9.4-4.5-11.1-7.6
			c-1.7-3.1,0.9,0,3.9-1.1c1.7-0.7,0.1-2.6-1.4-3.5s-4.6,2.9-4,1s7.1-8.6,3.8-9.4c-3.4-0.8-4.2,4.2-3.8,1.7c0.4-2.5,4.6-4.6,2.3-8.4
			s-5,2.9-5,5.7c0,2.7-3.1-1.9-4.8-4.4c-1.7-2.5-2.9,2.9-1.3,5.5c1.7,2.5-12.6-10.1-1.3,7.1C-284.4,215.3-281.9,217.6-281.9,217.6z"
			/>
		<path id="XMLID_260_" class="st2" d="M-290,219.9c0,0,4.9,1.8,8.8-0.5"/>
		<path id="XMLID_259_" class="st2" d="M-266.6,227.3c0,0-6.6-3.7-9.5-5.6"/>
		<path id="XMLID_258_" class="st2" d="M-279.5,221.7c-0.7,5.5,0.6,10.2,1,11.1"/>
		<path id="XMLID_257_" class="st2" d="M-279.1,210.8c0,0,2.1,3.1,1.9,6.3"/>
		<path id="XMLID_256_" class="st2" d="M-274.5,223.4"/>
		<path id="XMLID_255_" class="st2" d="M-277.7,224.7"/>
		<path id="XMLID_254_" class="st2" d="M-276.1,214.6c0,0,1.6-3.1,2.7-3.8"/>
		<line id="XMLID_253_" class="st2" x1="-278.7" y1="232.5" x2="-277.7" y2="234.7"/>
		<path id="XMLID_252_" class="st2" d="M-279.5,221.2"/>
		<path id="XMLID_251_" class="st2" d="M-281.8,221.7"/>
		<path id="XMLID_250_" class="st2" d="M-284.6,207.6c0,0,1.7,3.5,3.9,4"/>
		<path id="XMLID_249_" class="st2" d="M-278.7,207.2"/>
		<path id="XMLID_248_" class="st2" d="M-279.1,211.6"/>
		<path id="XMLID_247_" class="st2" d="M-275.9,209.6c0,0-3.1,2-3.9,1.2"/>
		<path id="XMLID_246_" class="st3" d="M-279.8,212.1c0,0,4.8-2.8,1.2-3.5C-282.3,208-282.9,210.7-279.8,212.1z"/>
	</g>
	<g id="XMLID_228_">
		<path id="XMLID_244_" class="st1" d="M-270.3,210.1c0,0-4.2,2.5-8.6,0c-4.4-2.5,0.8,9.2,8.6,3.8c1.3,2.3-0.2,10.3,0,13.6
			c0.2,3.4,1.4,1.7,3.4,0c2.1-1.7,0.6,2.7,3.5,4c2.9,1.3,3.6-8.2,1.5-13.4c-2.1-5.2,4,6.9,10.3,2.6c-2.2-3.4-9.4-4.5-11.1-7.6
			c-1.7-3.1,0.9,0,3.9-1.1c1.7-0.7,0.1-2.6-1.4-3.5c-1.5-0.8-4.6,2.9-4,1c0.6-1.9,7.1-8.6,3.8-9.4c-3.4-0.8-4.2,4.2-3.8,1.7
			c0.4-2.5,4.6-4.6,2.3-8.4c-2.3-3.8-5,2.9-5,5.7s-3.1-1.9-4.8-4.4s-2.9,2.9-1.3,5.5c1.7,2.5-12.6-10.1-1.3,7.1
			C-272.8,207.8-270.3,210.1-270.3,210.1z"/>
		<path id="XMLID_243_" class="st2" d="M-278.4,212.4c0,0,4.9,1.8,8.8-0.5"/>
		<path id="XMLID_242_" class="st2" d="M-255,219.7c0,0-6.6-3.7-9.5-5.6"/>
		<path id="XMLID_241_" class="st2" d="M-268,214.2c-0.7,5.5,0.6,10.2,1,11.1"/>
		<path id="XMLID_240_" class="st2" d="M-267.6,203.3c0,0,2.1,3.1,1.9,6.3"/>
		<path id="XMLID_239_" class="st2" d="M-262.9,215.9"/>
		<path id="XMLID_238_" class="st2" d="M-266.1,217.1"/>
		<path id="XMLID_237_" class="st2" d="M-264.5,207.1c0,0,1.6-3.1,2.7-3.8"/>
		<line id="XMLID_236_" class="st2" x1="-267.1" y1="224.9" x2="-266.1" y2="227.1"/>
		<path id="XMLID_235_" class="st2" d="M-268,213.7"/>
		<path id="XMLID_234_" class="st2" d="M-270.2,214.2"/>
		<path id="XMLID_233_" class="st2" d="M-273,200c0,0,1.7,3.5,3.9,4"/>
		<path id="XMLID_232_" class="st2" d="M-267.1,199.7"/>
		<path id="XMLID_231_" class="st2" d="M-267.6,204"/>
		<path id="XMLID_230_" class="st2" d="M-264.3,202c0,0-3.1,2-3.9,1.2"/>
		<path id="XMLID_229_" class="st3" d="M-268.2,204.5c0,0,4.8-2.8,1.2-3.5C-270.7,200.4-271.4,203.2-268.2,204.5z"/>
	</g>
	<g id="XMLID_171_">
		<path id="XMLID_227_" class="st1" d="M-254.5,210.5c0,0-4.2,2.5-8.6,0c-4.4-2.5,0.8,9.2,8.6,3.8c1.3,2.3-0.2,10.3,0,13.6
			s1.4,1.7,3.4,0c2.1-1.7,0.6,2.7,3.5,4c2.9,1.3,3.6-8.2,1.5-13.4c-2.1-5.2,4,6.9,10.3,2.6c-2.2-3.4-9.4-4.5-11.1-7.6
			c-1.7-3.1,0.9,0,3.9-1.1c1.7-0.7,0.1-2.6-1.4-3.5c-1.5-0.8-4.6,2.9-4,1c0.6-1.9,7.1-8.6,3.8-9.4c-3.4-0.8-4.2,4.2-3.8,1.7
			c0.4-2.5,4.6-4.6,2.3-8.4s-5,2.9-5,5.7c0,2.7-3.1-1.9-4.8-4.4c-1.7-2.5-2.9,2.9-1.3,5.5c1.7,2.5-12.6-10.1-1.3,7.1
			C-257,208.2-254.5,210.5-254.5,210.5z"/>
		<path id="XMLID_226_" class="st2" d="M-262.5,212.8c0,0,4.9,1.8,8.8-0.5"/>
		<path id="XMLID_225_" class="st2" d="M-239.2,220.1c0,0-6.6-3.7-9.5-5.6"/>
		<path id="XMLID_224_" class="st2" d="M-252.1,214.6c-0.7,5.5,0.6,10.2,1,11.1"/>
		<path id="XMLID_223_" class="st2" d="M-251.7,203.6c0,0,2.1,3.1,1.9,6.3"/>
		<path id="XMLID_222_" class="st2" d="M-247,216.2"/>
		<path id="XMLID_221_" class="st2" d="M-250.2,217.5"/>
		<path id="XMLID_220_" class="st2" d="M-248.6,207.4c0,0,1.6-3.1,2.7-3.8"/>
		<line id="XMLID_219_" class="st2" x1="-251.3" y1="225.3" x2="-250.2" y2="227.5"/>
		<path id="XMLID_218_" class="st2" d="M-252.1,214"/>
		<path id="XMLID_217_" class="st2" d="M-254.4,214.6"/>
		<path id="XMLID_216_" class="st2" d="M-257.2,200.4c0,0,1.7,3.5,3.9,4"/>
		<path id="XMLID_215_" class="st2" d="M-251.3,200"/>
		<path id="XMLID_214_" class="st2" d="M-251.7,204.4"/>
		<path id="XMLID_195_" class="st2" d="M-248.4,202.4c0,0-3.1,2-3.9,1.2"/>
		<path id="XMLID_191_" class="st3" d="M-252.4,204.9c0,0,4.8-2.8,1.2-3.5C-254.9,200.8-255.5,203.5-252.4,204.9z"/>
	</g>
</g>
</svg>
