<?xml version="1.0" encoding="utf-8"?>
<!-- Generator: Adobe Illustrator 19.0.1, SVG Export Plug-In . SVG Version: 6.00 Build 0)  -->
<svg version="1.1" id="Layer_1" xmlns="http://www.w3.org/2000/svg" xmlns:xlink="http://www.w3.org/1999/xlink" x="0px" y="0px"
	 viewBox="-379 181 200 200" style="enable-background:new -379 181 200 200;" xml:space="preserve">
<style type="text/css">
	.st0{fill:#546529;}
	.st1{fill:#8975B4;}
	.st2{fill:#6F499C;}
	.st3{fill:#DFCFE5;}
</style>
<g id="XMLID_44_">
	<g id="XMLID_20_">
		<path class="st0" d="M-304,251.4c0,0,1.6,7.9,3.6,19.7c1,5.9,2.1,12.8,3.2,20.3c0.5,3.7,1.1,7.5,1.6,11.5
			c0.5,3.9,1.1,7.9,1.6,11.8c0.5,4,1,7.9,1.4,11.9c0.5,3.9,0.9,7.8,1.3,11.5c0.8,7.5,1.4,14.5,1.8,20.5c0.4,6,0.6,11,0.5,14.5
			c0,1.8-0.1,3.1-0.3,4.1c-0.1,0.9-0.3,1.4-0.3,1.4s0.2-0.5,0.2-1.4c0.1-0.9,0-2.3-0.1-4c-0.2-3.5-0.8-8.5-1.5-14.4
			c-0.8-6-1.6-12.9-2.6-20.3c-1-7.4-2-15.4-3-23.3c-1-7.9-2-15.9-2.9-23.3c-0.9-7.4-1.7-14.4-2.4-20.4
			C-303.3,259.4-304,251.4-304,251.4z"/>
	</g>
	<polygon id="XMLID_13_" class="st1" points="-296.2,252.3 -295.5,248.6 -297.8,247.4 -298.7,245.2 -298,241.8 -297.5,241.5 
		-299,238 -298.3,234.5 -297.2,233.4 -299.3,230.2 -299.1,226.4 -300.9,225.8 -300.1,224.2 -301.7,222.7 -300.2,221.7 -301.4,218.1 
		-300.2,214.5 -303.4,212.5 -303.5,212.2 -301.8,209.8 -304.2,206.8 -304.5,203 -308.2,202.3 -310.9,199.6 -314.2,201.5 -318,201.1 
		-319.3,204.7 -322.4,206.8 -321.2,210.4 -322.2,214 -319,215.9 -320.7,218.2 -318.4,221.2 -318.4,221.8 -320.9,224.1 -319.2,227.4 
		-319.6,231.2 -316.8,232.4 -318,235.2 -316.3,236.5 -316.3,236.6 -318.3,239.8 -316.1,242.2 -316,243.8 -318,247.1 -315.4,249.8 
		-314.9,253.2 -315.5,254.2 -313,256.9 -312.4,260.7 -308.7,261.2 -305.9,263.7 -302.7,261.7 -298.9,261.8 -297.8,258.2 
		-294.8,255.8 	"/>
	<polygon id="XMLID_4_" class="st2" points="-299.8,246.4 -299.2,243.8 -300.9,242.9 -301.6,241.3 -301,238.9 -300.7,238.6 
		-301.8,236.2 -301.2,233.7 -300.5,232.9 -302,230.6 -301.9,227.9 -303.1,227.5 -302.5,226.3 -303.7,225.3 -302.6,224.6 -303.4,222 
		-302.6,219.4 -304.9,218 -305,217.8 -303.8,216.1 -305.5,214 -305.7,211.3 -308.3,210.8 -310.2,208.9 -312.6,210.2 -315.3,209.9 
		-316.2,212.4 -318.4,214 -317.6,216.5 -318.3,219.1 -316,220.5 -317.2,222.1 -315.6,224.2 -315.6,224.6 -317.3,226.2 -316.1,228.6 
		-316.5,231.3 -314.4,232.2 -315.3,234.2 -314.1,235.1 -314.1,235.2 -315.5,237.4 -313.9,239.2 -313.9,240.3 -315.3,242.6 
		-313.5,244.6 -313.1,247 -313.5,247.7 -311.7,249.7 -311.3,252.3 -308.6,252.7 -306.6,254.5 -304.4,253 -301.7,253.1 -300.9,250.5 
		-298.8,248.9 	"/>
	<polygon id="XMLID_1_" class="st3" points="-314.5,214 -314.3,213.8 -314.3,214.5 -314.2,214.8 -314.2,215.6 -314.1,216.3 
		-314.2,216.8 -314.2,217.6 -314.4,217.6 -314.5,218.1 -314.6,217.6 -314.7,217.6 -314.7,216.8 -314.8,216.3 -314.8,215.6 
		-314.8,214.8 -314.7,214.5 -314.6,213.8 	"/>
	<polygon id="XMLID_7_" class="st3" points="-308.6,214 -308.5,213.8 -308.4,214.5 -308.3,214.8 -308.3,215.6 -308.3,216.3 
		-308.3,216.8 -308.4,217.6 -308.5,217.6 -308.6,218.1 -308.7,217.6 -308.8,217.6 -308.9,216.8 -308.9,216.3 -308.9,215.6 
		-308.9,214.8 -308.8,214.5 -308.7,213.8 	"/>
	<polygon id="XMLID_8_" class="st3" points="-312,216.2 -311.9,216 -311.8,216.6 -311.7,216.9 -311.7,217.7 -311.7,218.5 
		-311.8,219 -311.8,219.8 -311.9,219.8 -312,220.3 -312.1,219.8 -312.2,219.8 -312.3,219 -312.4,218.5 -312.3,217.7 -312.3,216.9 
		-312.2,216.6 -312.1,216 	"/>
	<polygon id="XMLID_9_" class="st3" points="-311.7,222.7 -311.6,222.5 -311.5,223.2 -311.4,223.5 -311.4,224.3 -311.3,225 
		-311.4,225.5 -311.4,226.3 -311.6,226.4 -311.7,226.8 -311.8,226.4 -311.9,226.3 -311.9,225.5 -312,225 -312,224.3 -312,223.5 
		-311.9,223.2 -311.8,222.5 	"/>
	<polygon id="XMLID_10_" class="st3" points="-311.7,231.9 -311.6,231.7 -311.5,232.3 -311.4,232.7 -311.4,233.5 -311.3,234.2 
		-311.4,234.7 -311.4,235.5 -311.6,235.5 -311.7,236 -311.8,235.5 -311.9,235.5 -311.9,234.7 -312,234.2 -312,233.5 -312,232.7 
		-311.9,232.3 -311.8,231.7 	"/>
	<polygon id="XMLID_11_" class="st3" points="-306.5,229.7 -306.4,229.5 -306.3,230.2 -306.2,230.5 -306.2,231.3 -306.2,232 
		-306.3,232.5 -306.3,233.3 -306.4,233.4 -306.5,233.8 -306.6,233.4 -306.8,233.3 -306.8,232.5 -306.9,232 -306.8,231.3 
		-306.8,230.5 -306.7,230.2 -306.7,229.5 	"/>
	<polygon id="XMLID_12_" class="st3" points="-306.9,222.7 -306.8,222.5 -306.7,223.2 -306.6,223.5 -306.6,224.3 -306.5,225 
		-306.6,225.5 -306.7,226.3 -306.8,226.4 -306.9,226.8 -307,226.4 -307.1,226.3 -307.1,225.5 -307.2,225 -307.2,224.3 -307.2,223.5 
		-307.1,223.2 -307,222.5 	"/>
	<polygon id="XMLID_14_" class="st3" points="-311.3,238.9 -311.2,238.7 -311.1,239.4 -311,239.7 -311,240.5 -311,241.2 
		-311.1,241.7 -311.1,242.5 -311.2,242.6 -311.3,243 -311.4,242.6 -311.6,242.5 -311.6,241.7 -311.7,241.2 -311.6,240.5 
		-311.6,239.7 -311.5,239.4 -311.4,238.7 	"/>
	<polygon id="XMLID_15_" class="st3" points="-306.2,238.9 -306.1,238.7 -306,239.4 -305.9,239.7 -305.9,240.5 -305.8,241.2 
		-305.9,241.7 -306,242.5 -306.1,242.6 -306.2,243 -306.3,242.6 -306.4,242.5 -306.4,241.7 -306.5,241.2 -306.5,240.5 -306.5,239.7 
		-306.4,239.4 -306.3,238.7 	"/>
	<polygon id="XMLID_16_" class="st3" points="-308.9,227.6 -308.8,227.3 -308.8,228 -308.6,228.3 -308.7,229.1 -308.6,229.8 
		-308.7,230.4 -308.7,231.1 -308.8,231.2 -308.9,231.7 -309,231.2 -309.2,231.1 -309.2,230.4 -309.3,229.8 -309.2,229.1 
		-309.3,228.3 -309.1,228 -309.1,227.3 	"/>
	<polygon id="XMLID_17_" class="st3" points="-307.2,245.1 -307.1,244.9 -307,245.5 -306.9,245.9 -306.9,246.6 -306.9,247.4 
		-307,247.9 -307,248.7 -307.1,248.7 -307.2,249.2 -307.3,248.7 -307.5,248.7 -307.5,247.9 -307.6,247.4 -307.5,246.6 -307.5,245.9 
		-307.4,245.5 -307.3,244.9 	"/>
	<polygon id="XMLID_18_" class="st3" points="-311,245.1 -310.9,244.9 -310.8,245.5 -310.7,245.9 -310.7,246.6 -310.6,247.4 
		-310.7,247.9 -310.8,248.7 -310.9,248.7 -311,249.2 -311.1,248.7 -311.2,248.7 -311.2,247.9 -311.3,247.4 -311.3,246.6 
		-311.3,245.9 -311.2,245.5 -311.1,244.9 	"/>
	<polygon id="XMLID_19_" class="st3" points="-303.6,247.3 -303.5,247 -303.5,247.7 -303.3,248 -303.4,248.8 -303.3,249.5 
		-303.4,250.1 -303.4,250.9 -303.5,250.9 -303.6,251.4 -303.7,250.9 -303.9,250.9 -303.9,250.1 -304,249.5 -303.9,248.8 -304,248 
		-303.8,247.7 -303.8,247 	"/>
	<g id="XMLID_38_">
		<path class="st0" d="M-297.8,265.1c0,0,1.1,7.1,2.6,17.7c0.7,5.3,1.5,11.5,2.3,18.2c0.4,3.3,0.8,6.8,1.2,10.2
			c0.4,3.5,0.8,7,1.2,10.6c0.4,3.5,0.8,7.1,1.2,10.6c0.4,3.5,0.7,6.9,1.1,10.3c0.7,6.7,1.3,12.9,1.9,18.2c0.6,5.3,1,9.8,1.4,12.9
			c0.2,1.5,0.4,2.8,0.6,3.6c0.1,0.4,0.2,0.7,0.2,0.9c0.1,0.2,0.1,0.3,0.1,0.3s0-0.1-0.1-0.3c-0.1-0.2-0.2-0.5-0.3-0.9
			c-0.2-0.8-0.6-2-0.9-3.5c-0.7-3.1-1.5-7.5-2.4-12.7c-0.9-5.3-1.8-11.5-2.7-18.1c-0.4-3.3-0.9-6.8-1.3-10.2
			c-0.4-3.5-0.8-7-1.2-10.6c-0.4-3.6-0.8-7.1-1.1-10.6c-0.4-3.5-0.7-6.9-1-10.3c-0.3-3.3-0.6-6.6-0.8-9.6c-0.3-3.1-0.5-6-0.7-8.6
			C-297.5,272.3-297.8,265.1-297.8,265.1z"/>
	</g>
	<polygon id="XMLID_37_" class="st1" points="-305.6,266.1 -306.4,262.4 -304,261.2 -303.1,259 -303.8,255.5 -304.3,255.2 
		-302.8,251.7 -303.6,248.2 -304.6,247.1 -302.6,243.9 -302.7,240.1 -300.9,239.5 -301.8,237.9 -300.1,236.4 -301.6,235.4 
		-300.5,231.8 -301.6,228.2 -298.4,226.2 -298.3,225.9 -300,223.5 -297.6,220.5 -297.3,216.8 -293.6,216.1 -290.9,213.4 
		-287.6,215.2 -283.9,214.8 -282.5,218.4 -279.4,220.5 -280.6,224.1 -279.6,227.8 -282.8,229.6 -281.1,231.9 -283.4,234.9 
		-283.4,235.5 -281,237.8 -282.7,241.1 -282.2,244.9 -285,246.1 -283.9,248.9 -285.5,250.2 -285.5,250.3 -283.5,253.5 -285.8,255.9 
		-285.8,257.6 -283.8,260.8 -286.4,263.6 -286.9,266.9 -286.3,267.9 -288.9,270.7 -289.4,274.4 -293.2,274.9 -296,277.4 
		-299.2,275.4 -302.9,275.5 -304.1,271.9 -307,269.6 	"/>
	<polygon id="XMLID_36_" class="st2" points="-302,260.1 -302.6,257.5 -300.9,256.6 -300.3,255.1 -300.8,252.6 -301.1,252.4 
		-300.1,249.9 -300.6,247.4 -301.3,246.6 -299.9,244.3 -300,241.6 -298.7,241.2 -299.3,240 -298.2,239 -299.2,238.3 -298.4,235.7 
		-299.2,233.2 -296.9,231.7 -296.8,231.5 -298,229.8 -296.3,227.7 -296.1,225 -293.5,224.5 -291.6,222.6 -289.2,223.9 -286.6,223.6 
		-285.6,226.2 -283.4,227.7 -284.3,230.2 -283.6,232.8 -285.8,234.2 -284.6,235.8 -286.2,237.9 -286.3,238.4 -284.5,240 
		-285.7,242.4 -285.4,245 -287.4,245.9 -286.6,247.9 -287.8,248.8 -287.8,248.9 -286.3,251.2 -287.9,252.9 -288,254.1 -286.5,256.3 
		-288.4,258.3 -288.7,260.7 -288.3,261.4 -290.1,263.4 -290.5,266.1 -293.2,266.4 -295.2,268.2 -297.4,266.7 -300.1,266.8 
		-300.9,264.3 -303.1,262.6 	"/>
	<polygon id="XMLID_35_" class="st3" points="-287.4,227.7 -287.5,227.5 -287.6,228.2 -287.7,228.5 -287.7,229.3 -287.7,230 
		-287.6,230.5 -287.6,231.3 -287.5,231.4 -287.4,231.9 -287.3,231.4 -287.1,231.3 -287.1,230.5 -287,230 -287.1,229.3 -287.1,228.5 
		-287.2,228.2 -287.2,227.5 	"/>
	<polygon id="XMLID_34_" class="st3" points="-293.2,227.7 -293.3,227.5 -293.4,228.2 -293.5,228.5 -293.5,229.3 -293.6,230 
		-293.5,230.5 -293.5,231.3 -293.3,231.4 -293.2,231.9 -293.1,231.4 -293,231.3 -293,230.5 -292.9,230 -292.9,229.3 -292.9,228.5 
		-293,228.2 -293.1,227.5 	"/>
	<polygon id="XMLID_33_" class="st3" points="-289.8,229.9 -289.9,229.7 -290,230.4 -290.1,230.7 -290.1,231.5 -290.2,232.2 
		-290.1,232.7 -290,233.5 -289.9,233.5 -289.8,234 -289.7,233.5 -289.6,233.5 -289.5,232.7 -289.5,232.2 -289.5,231.5 -289.5,230.7 
		-289.6,230.4 -289.7,229.7 	"/>
	<polygon id="XMLID_32_" class="st3" points="-290.2,236.4 -290.3,236.2 -290.3,236.9 -290.5,237.2 -290.4,238 -290.5,238.7 
		-290.4,239.3 -290.4,240 -290.3,240.1 -290.2,240.6 -290.1,240.1 -289.9,240 -289.9,239.3 -289.8,238.7 -289.9,238 -289.8,237.2 
		-290,236.9 -290,236.2 	"/>
	<polygon id="XMLID_31_" class="st3" points="-290.2,245.6 -290.3,245.4 -290.3,246.1 -290.5,246.4 -290.4,247.2 -290.5,247.9 
		-290.4,248.4 -290.4,249.2 -290.3,249.3 -290.2,249.7 -290.1,249.3 -289.9,249.2 -289.9,248.4 -289.8,247.9 -289.9,247.2 
		-289.8,246.4 -290,246.1 -290,245.4 	"/>
	<polygon id="XMLID_30_" class="st3" points="-295.3,243.5 -295.4,243.2 -295.5,243.9 -295.6,244.2 -295.6,245 -295.6,245.7 
		-295.5,246.3 -295.5,247 -295.4,247.1 -295.3,247.6 -295.2,247.1 -295.1,247 -295,246.3 -294.9,245.7 -295,245 -295,244.2 
		-295.1,243.9 -295.2,243.2 	"/>
	<polygon id="XMLID_29_" class="st3" points="-294.9,236.4 -295.1,236.2 -295.1,236.9 -295.2,237.2 -295.2,238 -295.3,238.7 
		-295.2,239.3 -295.2,240 -295,240.1 -294.9,240.6 -294.8,240.1 -294.7,240 -294.7,239.3 -294.6,238.7 -294.7,238 -294.6,237.2 
		-294.8,236.9 -294.8,236.2 	"/>
	<polygon id="XMLID_28_" class="st3" points="-290.5,252.6 -290.6,252.4 -290.7,253.1 -290.8,253.4 -290.8,254.2 -290.8,254.9 
		-290.8,255.5 -290.7,256.2 -290.6,256.3 -290.5,256.8 -290.4,256.3 -290.3,256.2 -290.2,255.5 -290.2,254.9 -290.2,254.2 
		-290.2,253.4 -290.3,253.1 -290.4,252.4 	"/>
	<polygon id="XMLID_25_" class="st3" points="-295.6,252.6 -295.8,252.4 -295.8,253.1 -295.9,253.4 -295.9,254.2 -296,254.9 
		-295.9,255.5 -295.9,256.2 -295.7,256.3 -295.6,256.8 -295.5,256.3 -295.4,256.2 -295.4,255.5 -295.3,254.9 -295.3,254.2 
		-295.3,253.4 -295.4,253.1 -295.5,252.4 	"/>
	<polygon id="XMLID_24_" class="st3" points="-292.9,241.3 -293,241 -293.1,241.7 -293.2,242 -293.2,242.8 -293.2,243.5 
		-293.1,244.1 -293.1,244.9 -293,244.9 -292.9,245.4 -292.8,244.9 -292.6,244.9 -292.6,244.1 -292.5,243.5 -292.6,242.8 -292.6,242 
		-292.7,241.7 -292.8,241 	"/>
	<polygon id="XMLID_23_" class="st3" points="-294.6,258.8 -294.7,258.6 -294.8,259.3 -294.9,259.6 -294.9,260.4 -294.9,261.1 
		-294.9,261.6 -294.8,262.4 -294.7,262.5 -294.6,262.9 -294.5,262.5 -294.4,262.4 -294.3,261.6 -294.2,261.1 -294.3,260.4 
		-294.3,259.6 -294.4,259.3 -294.5,258.6 	"/>
	<polygon id="XMLID_22_" class="st3" points="-290.8,258.8 -291,258.6 -291,259.3 -291.2,259.6 -291.1,260.4 -291.2,261.1 
		-291.1,261.6 -291.1,262.4 -290.9,262.5 -290.8,262.9 -290.7,262.5 -290.6,262.4 -290.6,261.6 -290.5,261.1 -290.6,260.4 
		-290.5,259.6 -290.7,259.3 -290.7,258.6 	"/>
	<polygon id="XMLID_21_" class="st3" points="-298.2,261 -298.3,260.8 -298.4,261.4 -298.5,261.8 -298.5,262.5 -298.5,263.3 
		-298.4,263.8 -298.4,264.6 -298.3,264.6 -298.2,265.1 -298.1,264.6 -298,264.6 -297.9,263.8 -297.8,263.3 -297.9,262.5 
		-297.9,261.8 -298,261.4 -298.1,260.8 	"/>
	<g id="XMLID_56_">
		<path class="st0" d="M-270.2,235.3c0,0,0,8.9-0.3,22.2c-0.1,6.7-0.3,14.4-0.6,22.8c-0.3,8.3-0.5,17.2-0.8,26.1
			c-0.6,17.7-1.3,35.5-1.8,48.8c-0.2,6.7-0.4,12.2-0.3,16.1c0,1.9,0.1,3.5,0.2,4.5c0,0.5,0.1,0.9,0.2,1.2c0.1,0.3,0.1,0.4,0.1,0.4
			s0-0.1-0.1-0.4c-0.1-0.3-0.2-0.6-0.3-1.2c-0.2-1-0.4-2.6-0.5-4.5c-0.3-3.9-0.5-9.4-0.6-16.1c-0.1-3.3-0.1-6.9-0.1-10.8
			c0-3.8,0-7.8,0.1-12c0.1-4.2,0.1-8.5,0.3-12.8c0.1-4.4,0.3-8.8,0.4-13.3c0.2-4.4,0.4-8.9,0.5-13.2c0.2-4.4,0.4-8.7,0.6-12.8
			c0.2-4.2,0.4-8.2,0.7-12c0.2-3.8,0.5-7.4,0.7-10.7C-271.1,244.1-270.2,235.3-270.2,235.3z"/>
	</g>
	<polygon id="XMLID_55_" class="st1" points="-278,236.2 -278.7,232.5 -276.4,231.3 -275.5,229.1 -276.2,225.7 -276.7,225.3 
		-275.2,221.8 -275.9,218.4 -276.9,217.2 -274.9,214 -275.1,210.3 -273.3,209.7 -274.1,208 -272.5,206.5 -274,205.6 -272.8,202 
		-274,198.4 -270.8,196.3 -270.6,196 -272.4,193.6 -270,190.7 -269.7,186.9 -266,186.2 -263.3,183.5 -260,185.3 -256.2,185 
		-254.9,188.5 -251.8,190.7 -253,194.2 -252,197.9 -255.2,199.8 -253.5,202 -255.8,205 -255.8,205.6 -253.3,207.9 -255,211.3 
		-254.5,215 -257.4,216.2 -256.2,219.1 -257.9,220.4 -257.9,220.4 -255.9,223.6 -258.1,226.1 -258.2,227.7 -256.2,230.9 
		-258.8,233.7 -259.3,237.1 -258.7,238 -261.2,240.8 -261.8,244.5 -265.5,245 -268.3,247.6 -271.5,245.5 -275.3,245.6 -276.4,242 
		-279.4,239.7 	"/>
	<polygon id="XMLID_54_" class="st2" points="-274.4,230.2 -274.9,227.6 -273.3,226.8 -272.6,225.2 -273.2,222.7 -273.5,222.5 
		-272.4,220 -273,217.5 -273.7,216.7 -272.2,214.5 -272.3,211.8 -271,211.4 -271.7,210.2 -270.5,209.1 -271.6,208.4 -270.8,205.9 
		-271.5,203.3 -269.3,201.8 -269.2,201.6 -270.4,199.9 -268.7,197.8 -268.5,195.1 -265.9,194.6 -264,192.7 -261.6,194 -258.9,193.8 
		-258,196.3 -255.8,197.8 -256.6,200.4 -255.9,203 -258.2,204.3 -257,205.9 -258.6,208 -258.6,208.5 -256.9,210.1 -258.1,212.5 
		-257.7,215.2 -259.7,216 -258.9,218 -260.1,219 -260.1,219 -258.7,221.3 -260.3,223 -260.3,224.2 -258.9,226.5 -260.7,228.5 
		-261.1,230.9 -260.7,231.5 -262.5,233.5 -262.9,236.2 -265.5,236.5 -267.5,238.3 -269.8,236.9 -272.5,237 -273.3,234.4 
		-275.4,232.7 	"/>
	<polygon id="XMLID_53_" class="st3" points="-259.7,197.9 -259.9,197.6 -259.9,198.3 -260,198.6 -260,199.4 -260.1,200.1 
		-260,200.7 -260,201.5 -259.8,201.5 -259.7,202 -259.6,201.5 -259.5,201.5 -259.5,200.7 -259.4,200.1 -259.4,199.4 -259.4,198.6 
		-259.5,198.3 -259.6,197.6 	"/>
	<polygon id="XMLID_52_" class="st3" points="-265.6,197.9 -265.7,197.6 -265.8,198.3 -265.9,198.6 -265.9,199.4 -265.9,200.1 
		-265.8,200.7 -265.8,201.5 -265.7,201.5 -265.6,202 -265.5,201.5 -265.4,201.5 -265.3,200.7 -265.2,200.1 -265.3,199.4 
		-265.3,198.6 -265.4,198.3 -265.5,197.6 	"/>
	<polygon id="XMLID_51_" class="st3" points="-262.2,200 -262.3,199.8 -262.4,200.5 -262.5,200.8 -262.5,201.6 -262.5,202.3 
		-262.4,202.9 -262.4,203.6 -262.3,203.7 -262.2,204.2 -262.1,203.7 -261.9,203.6 -261.9,202.9 -261.8,202.3 -261.9,201.6 
		-261.9,200.8 -262,200.5 -262.1,199.8 	"/>
	<polygon id="XMLID_50_" class="st3" points="-262.5,206.6 -262.6,206.3 -262.7,207 -262.8,207.3 -262.8,208.1 -262.9,208.8 
		-262.8,209.4 -262.7,210.2 -262.6,210.2 -262.5,210.7 -262.4,210.2 -262.3,210.2 -262.3,209.4 -262.2,208.8 -262.2,208.1 
		-262.2,207.3 -262.3,207 -262.4,206.3 	"/>
	<polygon id="XMLID_49_" class="st3" points="-262.5,215.8 -262.6,215.5 -262.7,216.2 -262.8,216.5 -262.8,217.3 -262.9,218 
		-262.8,218.6 -262.7,219.4 -262.6,219.4 -262.5,219.9 -262.4,219.4 -262.3,219.4 -262.3,218.6 -262.2,218 -262.2,217.3 
		-262.2,216.5 -262.3,216.2 -262.4,215.5 	"/>
	<polygon id="XMLID_48_" class="st3" points="-267.7,213.6 -267.8,213.3 -267.8,214 -268,214.3 -268,215.1 -268,215.8 -267.9,216.4 
		-267.9,217.2 -267.8,217.2 -267.7,217.7 -267.6,217.2 -267.4,217.2 -267.4,216.4 -267.3,215.8 -267.4,215.1 -267.4,214.3 
		-267.5,214 -267.5,213.3 	"/>
	<polygon id="XMLID_47_" class="st3" points="-267.3,206.6 -267.4,206.3 -267.5,207 -267.6,207.3 -267.6,208.1 -267.7,208.8 
		-267.6,209.4 -267.5,210.2 -267.4,210.2 -267.3,210.7 -267.2,210.2 -267.1,210.2 -267.1,209.4 -267,208.8 -267,208.1 -267,207.3 
		-267.1,207 -267.2,206.3 	"/>
	<polygon id="XMLID_46_" class="st3" points="-262.9,222.8 -263,222.5 -263.1,223.2 -263.2,223.5 -263.2,224.3 -263.2,225 
		-263.1,225.6 -263.1,226.4 -263,226.4 -262.9,226.9 -262.8,226.4 -262.6,226.4 -262.6,225.6 -262.5,225 -262.6,224.3 -262.6,223.5 
		-262.7,223.2 -262.7,222.5 	"/>
	<polygon id="XMLID_43_" class="st3" points="-268,222.8 -268.1,222.5 -268.2,223.2 -268.3,223.5 -268.3,224.3 -268.4,225 
		-268.3,225.6 -268.2,226.4 -268.1,226.4 -268,226.9 -267.9,226.4 -267.8,226.4 -267.8,225.6 -267.7,225 -267.7,224.3 -267.7,223.5 
		-267.8,223.2 -267.9,222.5 	"/>
	<polygon id="XMLID_42_" class="st3" points="-265.2,211.4 -265.4,211.2 -265.4,211.8 -265.6,212.2 -265.5,213 -265.6,213.7 
		-265.5,214.2 -265.5,215 -265.3,215 -265.2,215.5 -265.1,215 -265,215 -265,214.2 -264.9,213.7 -265,213 -264.9,212.2 
		-265.1,211.8 -265.1,211.2 	"/>
	<polygon id="XMLID_41_" class="st3" points="-267,229 -267.1,228.7 -267.2,229.4 -267.3,229.7 -267.3,230.5 -267.3,231.2 
		-267.2,231.8 -267.2,232.6 -267.1,232.6 -267,233.1 -266.9,232.6 -266.7,232.6 -266.7,231.8 -266.6,231.2 -266.7,230.5 
		-266.7,229.7 -266.8,229.4 -266.8,228.7 	"/>
	<polygon id="XMLID_40_" class="st3" points="-263.2,229 -263.3,228.7 -263.4,229.4 -263.5,229.7 -263.5,230.5 -263.6,231.2 
		-263.5,231.8 -263.4,232.6 -263.3,232.6 -263.2,233.1 -263.1,232.6 -263,232.6 -263,231.8 -262.9,231.2 -262.9,230.5 -262.9,229.7 
		-263,229.4 -263.1,228.7 	"/>
	<polygon id="XMLID_39_" class="st3" points="-270.5,231.1 -270.7,230.9 -270.7,231.6 -270.9,231.9 -270.8,232.7 -270.9,233.4 
		-270.8,233.9 -270.8,234.7 -270.6,234.8 -270.5,235.3 -270.4,234.8 -270.3,234.7 -270.3,233.9 -270.2,233.4 -270.3,232.7 
		-270.2,231.9 -270.4,231.6 -270.4,230.9 	"/>
	<g id="XMLID_74_">
		<path class="st0" d="M-254,251.6c0,0-1.5,7.7-4.1,19.3c-1.3,5.8-2.8,12.5-4.5,19.7c-1.7,7.2-3.5,14.8-5.2,22.5
			c-1.8,7.7-3.6,15.3-5.3,22.5c-1.7,7.2-3.2,13.9-4.5,19.6c-1.3,5.8-2.2,10.6-2.8,14c-0.2,1.7-0.4,3-0.4,4c0,0.5,0,0.8,0.1,1
			c0.1,0.2,0.1,0.4,0.1,0.4s0-0.1-0.1-0.3c-0.1-0.2-0.1-0.6-0.2-1c-0.1-0.9-0.1-2.3,0-4c0.2-3.5,0.8-8.4,1.8-14.2
			c0.9-5.8,2.2-12.6,3.7-19.9c0.8-3.6,1.5-7.4,2.4-11.1c0.9-3.8,1.7-7.6,2.6-11.5c0.9-3.8,1.9-7.7,2.8-11.4c0.9-3.8,1.9-7.5,2.8-11
			c1.8-7.1,3.6-13.8,5.2-19.5C-256.4,259.1-254,251.6-254,251.6z"/>
	</g>
	<polygon id="XMLID_73_" class="st1" points="-261.8,252.5 -262.5,248.8 -260.2,247.6 -259.3,245.4 -260,242 -260.5,241.6 
		-259,238.1 -259.7,234.7 -260.8,233.5 -258.7,230.4 -258.9,226.6 -257.1,226 -257.9,224.3 -256.3,222.8 -257.8,221.9 -256.6,218.3 
		-257.8,214.7 -254.6,212.6 -254.5,212.3 -256.2,209.9 -253.8,207 -253.5,203.2 -249.8,202.5 -247.1,199.8 -243.8,201.7 -240,201.3 
		-238.7,204.8 -235.6,207 -236.8,210.6 -235.8,214.2 -239,216.1 -237.3,218.3 -239.6,221.3 -239.6,222 -237.1,224.2 -238.8,227.6 
		-238.4,231.3 -241.2,232.5 -240,235.4 -241.7,236.7 -241.7,236.7 -239.7,240 -241.9,242.4 -242,244 -240,247.2 -242.6,250 
		-243.1,253.4 -242.5,254.3 -245,257.1 -245.6,260.9 -249.3,261.3 -252.1,263.9 -255.3,261.8 -259.1,261.9 -260.2,258.3 -263.2,256 
			"/>
	<polygon id="XMLID_72_" class="st2" points="-258.2,246.6 -258.8,243.9 -257.1,243.1 -256.4,241.5 -257,239.1 -257.3,238.8 
		-256.2,236.3 -256.8,233.9 -257.5,233.1 -256,230.8 -256.1,228.1 -254.9,227.7 -255.5,226.5 -254.3,225.4 -255.4,224.8 
		-254.6,222.2 -255.4,219.6 -253.1,218.2 -253,218 -254.2,216.2 -252.5,214.1 -252.3,211.5 -249.7,210.9 -247.8,209 -245.4,210.3 
		-242.7,210.1 -241.8,212.6 -239.6,214.1 -240.4,216.7 -239.7,219.3 -242,220.6 -240.8,222.2 -242.4,224.4 -242.4,224.8 
		-240.7,226.4 -241.9,228.8 -241.5,231.5 -243.6,232.3 -242.7,234.4 -243.9,235.3 -243.9,235.3 -242.5,237.6 -244.1,239.3 
		-244.1,240.5 -242.7,242.8 -244.5,244.8 -244.9,247.2 -244.5,247.9 -246.3,249.8 -246.7,252.5 -249.4,252.8 -251.4,254.6 
		-253.6,253.2 -256.3,253.3 -257.1,250.7 -259.2,249 	"/>
	<polygon id="XMLID_71_" class="st3" points="-243.5,214.2 -243.7,213.9 -243.7,214.6 -243.8,214.9 -243.8,215.7 -243.9,216.4 
		-243.8,217 -243.8,217.8 -243.6,217.8 -243.5,218.3 -243.4,217.8 -243.3,217.8 -243.3,217 -243.2,216.4 -243.2,215.7 -243.2,214.9 
		-243.3,214.6 -243.4,213.9 	"/>
	<polygon id="XMLID_70_" class="st3" points="-249.4,214.2 -249.5,213.9 -249.6,214.6 -249.7,214.9 -249.7,215.7 -249.7,216.4 
		-249.7,217 -249.6,217.8 -249.5,217.8 -249.4,218.3 -249.3,217.8 -249.2,217.8 -249.1,217 -249.1,216.4 -249.1,215.7 -249.1,214.9 
		-249.2,214.6 -249.3,213.9 	"/>
	<polygon id="XMLID_69_" class="st3" points="-246,216.4 -246.1,216.1 -246.2,216.8 -246.3,217.1 -246.3,217.9 -246.3,218.6 
		-246.2,219.2 -246.2,220 -246.1,220 -246,220.5 -245.9,220 -245.8,220 -245.7,219.2 -245.6,218.6 -245.7,217.9 -245.7,217.1 
		-245.8,216.8 -245.9,216.1 	"/>
	<polygon id="XMLID_68_" class="st3" points="-246.3,222.9 -246.4,222.7 -246.5,223.3 -246.6,223.6 -246.6,224.4 -246.7,225.2 
		-246.6,225.7 -246.6,226.5 -246.4,226.5 -246.3,227 -246.2,226.5 -246.1,226.5 -246.1,225.7 -246,225.2 -246,224.4 -246,223.6 
		-246.1,223.3 -246.2,222.7 	"/>
	<polygon id="XMLID_67_" class="st3" points="-246.3,232.1 -246.4,231.8 -246.5,232.5 -246.6,232.8 -246.6,233.6 -246.7,234.3 
		-246.6,234.9 -246.6,235.7 -246.4,235.7 -246.3,236.2 -246.2,235.7 -246.1,235.7 -246.1,234.9 -246,234.3 -246,233.6 -246,232.8 
		-246.1,232.5 -246.2,231.8 	"/>
	<polygon id="XMLID_66_" class="st3" points="-251.5,229.9 -251.6,229.7 -251.7,230.3 -251.8,230.6 -251.8,231.4 -251.8,232.2 
		-251.7,232.7 -251.7,233.5 -251.6,233.5 -251.5,234 -251.4,233.5 -251.2,233.5 -251.2,232.7 -251.1,232.2 -251.2,231.4 
		-251.2,230.6 -251.3,230.3 -251.3,229.7 	"/>
	<polygon id="XMLID_65_" class="st3" points="-251.1,222.9 -251.2,222.7 -251.3,223.3 -251.4,223.6 -251.4,224.4 -251.5,225.2 
		-251.4,225.7 -251.3,226.5 -251.2,226.5 -251.1,227 -251,226.5 -250.9,226.5 -250.9,225.7 -250.8,225.2 -250.8,224.4 -250.8,223.6 
		-250.9,223.3 -251,222.7 	"/>
	<polygon id="XMLID_64_" class="st3" points="-246.7,239.1 -246.8,238.9 -246.9,239.5 -247,239.8 -247,240.6 -247,241.4 
		-246.9,241.9 -246.9,242.7 -246.8,242.7 -246.7,243.2 -246.6,242.7 -246.4,242.7 -246.4,241.9 -246.3,241.4 -246.4,240.6 
		-246.4,239.8 -246.5,239.5 -246.6,238.9 	"/>
	<polygon id="XMLID_63_" class="st3" points="-251.8,239.1 -251.9,238.9 -252,239.5 -252.1,239.8 -252.1,240.6 -252.2,241.4 
		-252.1,241.9 -252,242.7 -251.9,242.7 -251.8,243.2 -251.7,242.7 -251.6,242.7 -251.6,241.9 -251.5,241.4 -251.5,240.6 
		-251.5,239.8 -251.6,239.5 -251.7,238.9 	"/>
	<polygon id="XMLID_62_" class="st3" points="-249.1,227.7 -249.2,227.5 -249.2,228.2 -249.4,228.5 -249.3,229.3 -249.4,230 
		-249.3,230.5 -249.3,231.3 -249.2,231.3 -249.1,231.8 -249,231.3 -248.8,231.3 -248.8,230.5 -248.7,230 -248.8,229.3 -248.7,228.5 
		-248.9,228.2 -248.9,227.5 	"/>
	<polygon id="XMLID_61_" class="st3" points="-250.8,245.3 -250.9,245 -251,245.7 -251.1,246 -251.1,246.8 -251.1,247.5 -251,248.1 
		-251,248.9 -250.9,248.9 -250.8,249.4 -250.7,248.9 -250.5,248.9 -250.5,248.1 -250.4,247.5 -250.5,246.8 -250.5,246 -250.6,245.7 
		-250.7,245 	"/>
	<polygon id="XMLID_60_" class="st3" points="-247,245.3 -247.1,245 -247.2,245.7 -247.3,246 -247.3,246.8 -247.4,247.5 
		-247.3,248.1 -247.2,248.9 -247.1,248.9 -247,249.4 -246.9,248.9 -246.8,248.9 -246.8,248.1 -246.7,247.5 -246.7,246.8 -246.7,246 
		-246.8,245.7 -246.9,245 	"/>
	<polygon id="XMLID_59_" class="st3" points="-254.4,247.4 -254.5,247.2 -254.5,247.9 -254.7,248.2 -254.6,249 -254.7,249.7 
		-254.6,250.3 -254.6,251 -254.5,251.1 -254.4,251.6 -254.3,251.1 -254.1,251 -254.1,250.3 -254,249.7 -254.1,249 -254,248.2 
		-254.2,247.9 -254.2,247.2 	"/>
	<g id="XMLID_92_">
		<path class="st0" d="M-278.8,242.4c0,0,0.4,8.3,0.5,20.7c0,3.1,0.1,6.5,0.1,10c0,3.6,0,7.3,0,11.2c0,3.9,0,7.9-0.1,11.9
			c-0.1,4.1-0.1,8.2-0.2,12.3c-0.1,4.1-0.2,8.3-0.3,12.3c-0.1,4.1-0.3,8.1-0.4,11.9c-0.1,3.9-0.3,7.6-0.5,11.2
			c-0.2,3.5-0.4,6.9-0.6,10c-0.4,6.2-1,11.3-1.4,14.9c-0.2,1.8-0.5,3.2-0.7,4.1c-0.1,0.5-0.2,0.8-0.3,1.1c-0.1,0.2-0.1,0.4-0.1,0.4
			s0-0.1,0.1-0.4c0-0.2,0.2-0.6,0.2-1.1c0.1-1,0.2-2.4,0.3-4.2c0.2-3.6,0.3-8.8,0.5-15c0.2-12.4,0.5-28.9,0.8-45.4
			c0.1-4.1,0.2-8.3,0.3-12.3c0.1-4.1,0.2-8.1,0.3-11.9c0.2-7.7,0.5-15,0.7-21.2C-279.3,250.7-278.8,242.4-278.8,242.4z"/>
	</g>
	<polygon id="XMLID_91_" class="st1" points="-271,243.4 -270.2,239.7 -272.6,238.5 -273.5,236.3 -272.8,232.8 -272.3,232.5 
		-273.8,229 -273.1,225.5 -272,224.4 -274.1,221.2 -273.9,217.4 -275.7,216.8 -274.9,215.2 -276.5,213.7 -275,212.7 -276.1,209.1 
		-275,205.5 -278.2,203.5 -278.3,203.2 -276.6,200.8 -279,197.8 -279.3,194.1 -283,193.4 -285.7,190.7 -289,192.5 -292.7,192.2 
		-294.1,195.7 -297.2,197.8 -296,201.4 -297,205.1 -293.8,206.9 -295.5,209.2 -293.2,212.2 -293.2,212.8 -295.7,215.1 -293.9,218.4 
		-294.4,222.2 -291.6,223.4 -292.8,226.2 -291.1,227.5 -291.1,227.6 -293.1,230.8 -290.8,233.2 -290.8,234.9 -292.8,238.1 
		-290.2,240.9 -289.7,244.2 -290.3,245.2 -287.7,248 -287.2,251.7 -283.5,252.2 -280.6,254.7 -277.5,252.7 -273.7,252.8 
		-272.5,249.2 -269.6,246.9 	"/>
	<polygon id="XMLID_90_" class="st2" points="-274.6,237.4 -274,234.8 -275.7,233.9 -276.3,232.4 -275.8,229.9 -275.5,229.7 
		-276.6,227.2 -276,224.7 -275.3,223.9 -276.7,221.6 -276.6,218.9 -277.9,218.5 -277.3,217.3 -278.5,216.3 -277.4,215.6 -278.2,213 
		-277.4,210.5 -279.7,209 -279.8,208.8 -278.6,207.1 -280.3,205 -280.5,202.3 -283.1,201.8 -285,199.9 -287.4,201.2 -290,200.9 
		-291,203.5 -293.2,205 -292.3,207.5 -293.1,210.1 -290.8,211.5 -292,213.1 -290.4,215.2 -290.4,215.7 -292.1,217.3 -290.9,219.7 
		-291.3,222.3 -289.2,223.2 -290.1,225.2 -288.9,226.1 -288.9,226.2 -290.3,228.5 -288.7,230.2 -288.6,231.4 -290.1,233.6 
		-288.2,235.6 -287.9,238 -288.3,238.7 -286.5,240.7 -286.1,243.4 -283.4,243.7 -281.4,245.5 -279.2,244 -276.5,244.1 -275.7,241.6 
		-273.5,239.9 	"/>
	<polygon id="XMLID_89_" class="st3" points="-289.2,205 -289.1,204.8 -289.1,205.5 -288.9,205.8 -289,206.6 -288.9,207.3 
		-289,207.8 -289,208.6 -289.1,208.7 -289.2,209.2 -289.4,208.7 -289.5,208.6 -289.5,207.8 -289.6,207.3 -289.5,206.6 -289.6,205.8 
		-289.4,205.5 -289.4,204.8 	"/>
	<polygon id="XMLID_88_" class="st3" points="-283.4,205 -283.3,204.8 -283.2,205.5 -283.1,205.8 -283.1,206.6 -283,207.3 
		-283.1,207.8 -283.2,208.6 -283.3,208.7 -283.4,209.2 -283.5,208.7 -283.6,208.6 -283.6,207.8 -283.7,207.3 -283.7,206.6 
		-283.7,205.8 -283.6,205.5 -283.5,204.8 	"/>
	<polygon id="XMLID_87_" class="st3" points="-286.8,207.2 -286.7,207 -286.6,207.7 -286.5,208 -286.5,208.8 -286.5,209.5 
		-286.6,210 -286.6,210.8 -286.7,210.8 -286.8,211.3 -286.9,210.8 -287,210.8 -287.1,210 -287.2,209.5 -287.1,208.8 -287.1,208 
		-287,207.7 -286.9,207 	"/>
	<polygon id="XMLID_86_" class="st3" points="-286.5,213.7 -286.3,213.5 -286.3,214.2 -286.2,214.5 -286.2,215.3 -286.1,216 
		-286.2,216.6 -286.2,217.3 -286.4,217.4 -286.5,217.9 -286.6,217.4 -286.7,217.3 -286.7,216.6 -286.8,216 -286.7,215.3 
		-286.8,214.5 -286.6,214.2 -286.6,213.5 	"/>
	<polygon id="XMLID_85_" class="st3" points="-286.5,222.9 -286.3,222.7 -286.3,223.4 -286.2,223.7 -286.2,224.5 -286.1,225.2 
		-286.2,225.7 -286.2,226.5 -286.4,226.6 -286.5,227 -286.6,226.6 -286.7,226.5 -286.7,225.7 -286.8,225.2 -286.7,224.5 
		-286.8,223.7 -286.6,223.4 -286.6,222.7 	"/>
	<polygon id="XMLID_84_" class="st3" points="-281.3,220.8 -281.2,220.5 -281.1,221.2 -281,221.5 -281,222.3 -281,223 -281.1,223.6 
		-281.1,224.3 -281.2,224.4 -281.3,224.9 -281.4,224.4 -281.5,224.3 -281.6,223.6 -281.7,223 -281.6,222.3 -281.6,221.5 
		-281.5,221.2 -281.4,220.5 	"/>
	<polygon id="XMLID_83_" class="st3" points="-281.7,213.7 -281.5,213.5 -281.5,214.2 -281.4,214.5 -281.4,215.3 -281.3,216 
		-281.4,216.6 -281.4,217.3 -281.6,217.4 -281.7,217.9 -281.8,217.4 -281.9,217.3 -281.9,216.6 -282,216 -282,215.3 -282,214.5 
		-281.9,214.2 -281.8,213.5 	"/>
	<polygon id="XMLID_82_" class="st3" points="-286.1,229.9 -286,229.7 -285.9,230.4 -285.8,230.7 -285.8,231.5 -285.8,232.2 
		-285.9,232.8 -285.9,233.5 -286,233.6 -286.1,234.1 -286.2,233.6 -286.3,233.5 -286.4,232.8 -286.5,232.2 -286.4,231.5 
		-286.4,230.7 -286.3,230.4 -286.2,229.7 	"/>
	<polygon id="XMLID_79_" class="st3" points="-281,229.9 -280.9,229.7 -280.8,230.4 -280.7,230.7 -280.7,231.5 -280.6,232.2 
		-280.7,232.8 -280.7,233.5 -280.9,233.6 -281,234.1 -281.1,233.6 -281.2,233.5 -281.2,232.8 -281.3,232.2 -281.3,231.5 
		-281.3,230.7 -281.2,230.4 -281.1,229.7 	"/>
	<polygon id="XMLID_78_" class="st3" points="-283.7,218.6 -283.6,218.3 -283.5,219 -283.4,219.3 -283.4,220.1 -283.4,220.8 
		-283.5,221.4 -283.5,222.2 -283.6,222.2 -283.7,222.7 -283.8,222.2 -284,222.2 -284,221.4 -284.1,220.8 -284,220.1 -284,219.3 
		-283.9,219 -283.9,218.3 	"/>
	<polygon id="XMLID_77_" class="st3" points="-282,236.1 -281.9,235.9 -281.8,236.6 -281.7,236.9 -281.7,237.7 -281.7,238.4 
		-281.8,238.9 -281.8,239.7 -281.9,239.8 -282,240.2 -282.1,239.8 -282.2,239.7 -282.3,238.9 -282.4,238.4 -282.3,237.7 
		-282.3,236.9 -282.2,236.6 -282.1,235.9 	"/>
	<polygon id="XMLID_76_" class="st3" points="-285.8,236.1 -285.6,235.9 -285.6,236.6 -285.5,236.9 -285.5,237.7 -285.4,238.4 
		-285.5,238.9 -285.5,239.7 -285.7,239.8 -285.8,240.2 -285.9,239.8 -286,239.7 -286,238.9 -286.1,238.4 -286.1,237.7 -286.1,236.9 
		-286,236.6 -285.9,235.9 	"/>
	<polygon id="XMLID_75_" class="st3" points="-278.4,238.3 -278.3,238.1 -278.2,238.7 -278.1,239.1 -278.1,239.9 -278.1,240.6 
		-278.2,241.1 -278.2,241.9 -278.3,241.9 -278.4,242.4 -278.5,241.9 -278.7,241.9 -278.7,241.1 -278.8,240.6 -278.7,239.9 
		-278.7,239.1 -278.6,238.7 -278.6,238.1 	"/>
</g>
</svg>
