<?xml version="1.0" encoding="utf-8"?>
<!-- Generator: Adobe Illustrator 19.0.1, SVG Export Plug-In . SVG Version: 6.00 Build 0)  -->
<svg version="1.1" id="Layer_1" xmlns="http://www.w3.org/2000/svg" xmlns:xlink="http://www.w3.org/1999/xlink" x="0px" y="0px"
	 viewBox="-379 181 200 200" style="enable-background:new -379 181 200 200;" xml:space="preserve">
<style type="text/css">
	.st0{fill:#68853E;}
	.st1{fill:#9E93C7;}
	.st2{fill:#442F86;}
	.st3{fill:#D9BD24;}
</style>
<g id="XMLID_572_">
	<g id="XMLID_57_">
		<path class="st0" d="M-258,243.9c0,0,0.1,0.5,0.2,1.5c0.1,1,0.4,2.4,0.6,4.3c0.2,1.8,0.5,4.1,0.8,6.7c0.3,2.6,0.6,5.5,0.9,8.6
			c0.3,3.2,0.6,6.6,0.9,10.2c0.3,3.6,0.6,7.5,0.8,11.4c0.3,4,0.5,8.1,0.7,12.2c0.2,4.2,0.3,8.4,0.5,12.7c0.1,4.2,0.2,8.5,0.2,12.7
			c0,2.1,0,4.2,0,6.2c0,2,0,4.1,0,6.1c-0.1,4-0.1,7.8-0.3,11.5c-0.1,3.7-0.3,7.1-0.6,10.3c-0.2,3.2-0.4,6.1-0.8,8.7
			c-0.3,2.6-0.5,4.8-0.9,6.7c-0.6,3.7-1.1,5.8-1.1,5.8s0-2.1,0.1-5.8c0.1-1.8-0.1-4.1,0-6.7c0-2.6-0.1-5.5-0.2-8.7
			c0-3.2-0.2-6.6-0.3-10.2c-0.1-3.6-0.3-7.5-0.4-11.4c-0.2-7.9-0.5-16.4-0.7-24.8c-0.1-4.2-0.2-8.5-0.3-12.6
			c-0.1-4.2-0.2-8.3-0.3-12.2c-0.1-4-0.1-7.8-0.1-11.4c-0.1-3.6-0.1-7.1-0.1-10.3c0-6.4,0-11.7,0.1-15.4
			C-258,246-258,243.9-258,243.9z"/>
	</g>
	<g id="XMLID_58_">
		<path class="st0" d="M-328.4,254.4c0-0.1,0.1,0.6,0.2,1.6c0.1,1.1,0.3,2.6,0.7,4.5c0.4,1.9,0.9,4.3,1.7,6.9
			c0.7,2.6,1.7,5.6,2.8,8.8c1.1,3.2,2.5,6.6,4,10.1c1.5,3.5,3.3,7.2,5.2,11c3.8,7.5,8.2,15.4,13,23c2.4,3.8,4.8,7.6,7.3,11.3
			c2.5,3.7,4.9,7.3,7.4,10.8c2.4,3.5,4.8,6.8,7.1,10c2.3,3.1,4.5,6.1,6.5,8.8c8.2,10.9,13.7,18.1,13.7,18.1s-0.4-0.4-1.2-1.1
			c-0.8-0.7-1.9-1.8-3.3-3.2c-2.8-2.8-6.8-6.9-11.4-12c-2.3-2.5-4.7-5.3-7.2-8.4c-2.5-3-5.1-6.2-7.7-9.6c-2.6-3.4-5.2-7-7.8-10.7
			c-2.6-3.7-5.1-7.5-7.5-11.4c-2.4-3.9-4.7-7.9-6.8-11.8c-2.1-4-4.1-8-5.9-11.9c-1.8-3.9-3.3-7.8-4.7-11.5
			c-1.4-3.7-2.5-7.3-3.3-10.6c-1.8-6.7-2.6-12.4-2.8-16.4c-0.1-2-0.1-3.6,0-4.7C-328.4,255-328.3,254.4-328.4,254.4z"/>
	</g>
	<g id="XMLID_138_">
		<path class="st0" d="M-213.3,299.3c0,0-0.2,1.4-0.8,3.8c-0.6,2.4-1.5,5.7-2.7,9.7c-0.6,2-1.3,4.2-2.1,6.4
			c-0.8,2.3-1.7,4.6-2.6,7.1c-0.9,2.4-2,4.9-3.1,7.4c-1.1,2.5-2.3,5-3.5,7.6c-1.3,2.5-2.5,5-3.8,7.4c-0.7,1.2-1.3,2.4-2,3.6
			c-0.7,1.2-1.3,2.3-2,3.4c-1.4,2.2-2.7,4.4-4.1,6.4c-1.4,2-2.7,3.8-3.9,5.5c-1.3,1.7-2.5,3.2-3.6,4.5c-1,1.3-2.1,2.4-2.9,3.3
			c-1.7,1.8-2.7,2.8-2.7,2.8s0.7-1.2,1.9-3.4c0.6-1.1,1.4-2.3,2.2-3.8c0.8-1.5,1.7-3.2,2.7-4.9c1-1.8,2-3.8,3.1-5.9
			c1.1-2.1,2.2-4.3,3.4-6.6c1.2-2.3,2.3-4.7,3.6-7.1c1.2-2.4,2.4-4.9,3.6-7.4c4.8-9.9,9.6-19.9,13.2-27.3c0.9-1.9,1.7-3.6,2.5-5.1
			c0.7-1.5,1.4-2.8,1.9-3.9c0.5-1.1,1-1.9,1.3-2.5C-213.4,299.6-213.3,299.3-213.3,299.3z"/>
	</g>
	<g id="XMLID_144_">
		<path class="st0" d="M-293.5,208.8c0,0,0.5,2.7,1.4,7.3c0.9,4.7,2.1,11.3,3.5,19.4c1.4,8,3,17.4,4.8,27.4c0.9,5,1.8,10.2,2.7,15.4
			c0.9,5.3,1.9,10.6,2.8,15.9c0.9,5.3,1.9,10.7,2.9,15.9c1,5.2,1.9,10.4,3,15.3c0.5,2.5,1,4.9,1.5,7.3c0.5,2.4,1,4.7,1.5,7
			c0.3,1.1,0.5,2.3,0.7,3.4c0.3,1.1,0.5,2.2,0.8,3.2c0.5,2.1,1,4.2,1.5,6.1c0.5,2,1,3.8,1.5,5.6c0.2,0.9,0.5,1.8,0.7,2.6
			c0.2,0.8,0.5,1.7,0.7,2.4c0.2,0.8,0.5,1.6,0.7,2.3c0.2,0.7,0.5,1.4,0.7,2.1c0.4,1.3,0.8,2.6,1.2,3.7c0.4,1.1,0.8,2.1,1.1,3
			c0.3,0.9,0.7,1.6,0.9,2.2c0.5,1.2,0.8,1.8,0.8,1.8s-0.3-0.6-1-1.7c-0.3-0.6-0.7-1.2-1.2-2c-0.4-0.8-0.9-1.8-1.4-2.8
			c-0.6-1.1-1.1-2.3-1.7-3.6c-0.6-1.3-1.2-2.8-1.8-4.3c-0.3-0.8-0.6-1.6-0.9-2.4c-0.3-0.8-0.6-1.7-0.9-2.6c-0.6-1.8-1.3-3.6-1.9-5.6
			c-0.6-1.9-1.3-4-1.9-6.1c-0.7-2.1-1.3-4.3-1.9-6.6c-1.3-4.5-2.5-9.3-3.7-14.3c-1.2-5-2.4-10.1-3.4-15.4
			c-1.1-5.2-2.1-10.6-3.1-15.9c-0.9-5.4-1.8-10.7-2.7-16c-0.9-5.3-1.6-10.5-2.3-15.5c-0.7-5-1.3-9.9-1.9-14.6c-0.6-4.6-1-9-1.5-13.1
			c-0.4-4.1-0.8-7.8-1-11.1c-0.3-3.3-0.5-6.2-0.7-8.5c-0.2-2.4-0.3-4.2-0.3-5.5C-293.5,209.4-293.5,208.8-293.5,208.8z"/>
	</g>
	<path id="XMLID_205_" class="st1" d="M-260,254.5c0,0-15.5-39.5-3.7-42c11.7-2.5,13.7,28.2,10.7,39s8-38.5,27.5-29
		c19.5,9.5-20.2,37.2-26.2,39.5s37-22,42.5,8.5c3,15.5-38.5-8.5-39.5-7c0,0,26.5,17.2,10.1,30.5c-16.4,13.2-21.4-29.2-19.6-31.7
		c1.7-2.5-9.5,30-30.7,28s11.6-32.5,27.2-29.2c15.6,3.2-41.2-4.5-37.5-22c3.7-17.5,33.5-2.2,40.5,17.5S-260,254.5-260,254.5z"/>
	<path id="XMLID_204_" class="st1" d="M-294.4,205.9c0,0,1.4-22.4,7.6-20.9c6.2,1.4,0.3,16.6-3.6,21.1s12.4-16.6,19.7-7.7
		c7.2,8.9-18,13.3-21.4,13s22.6-2.2,18.4,13.6c-2,8.1-16.5-12.7-17.3-12.2c0,0,8.8,14.2-2,16.9c-10.8,2.7-3.7-18.8-2.3-19.6
		c1.4-0.8-11.3,12.2-21,6.5c-9.7-5.7,12.8-12.9,19.6-7.9c6.8,5-18.7-11.4-13-18.9s16.5,6.4,15.5,17.4S-294.4,205.9-294.4,205.9z"/>
	<path id="XMLID_203_" class="st1" d="M-215.8,299.6c0,0-15.7-16-9.7-20.4c6-4.4,12.7,10.7,13,17c0.3,6.3-2.6-21.7,9.8-22
		s-4.3,24.3-7.2,27c-2.9,2.7,16.3-20.9,24.9-6.9c4.5,7.1-22.7,5.8-23,6.8c0,0,17.7,1.8,11.1,12.8s-17.1-9.2-16.6-11
		c0.5-1.7,0.3,17.7-11.8,22.3c-12,4.6,0.5-19.6,9.6-22s-23.5,8.6-24.6-1.3c-1.1-9.9,18-10,25.5-1.8
		C-207.3,308.5-215.8,299.6-215.8,299.6z"/>
	<path id="XMLID_198_" class="st1" d="M-331.7,250.5c0,0-27-31.4-18.6-33.4c8.4-2,21.4,22.5,23,31c1.6,8.6-7.9-30.6,11.1-23.1
		c19,7.6-2.3,29.7-6.2,31.4c-3.9,1.8,21.3-17.5,37,6.8c8.1,12.3-33.8-6.8-34-5.6c0,0,27.5,13.7,19.4,24.3s-27.9-23.3-27.4-25.3
		c0.5-2,3.6,23.9-14.1,22.3c-17.7-1.6-2.8-25.8,10.8-23.3s-34.5-3.6-38-17.5c-3.5-13.9,25.8-1.8,38.7,13.9
		C-317.1,267.8-331.7,250.5-331.7,250.5z"/>
	<path id="XMLID_143_" class="st2" d="M-258.2,255.5c0,0-6.2-44.2-7.7-46.7"/>
	<path id="XMLID_136_" class="st2" d="M-253.2,257.2c0,0,28.7-32.2,30-37.7"/>
	<path id="XMLID_135_" class="st2" d="M-256.2,260.5c0,0,40.5,3.5,48.2,10.2"/>
	<path id="XMLID_134_" class="st2" d="M-256.2,263.5c0,0,11.8,28.7,16.3,35.2"/>
	<path id="XMLID_133_" class="st2" d="M-297.7,290c0,0,28.5-26.7,39.5-30.5"/>
	<path id="XMLID_132_" class="st2" d="M-304,235.5c0,0,40.7,21.7,45.7,21.7"/>
	<path id="XMLID_81_" class="st3" d="M-264.1,253.1c0,0,3.5,0.2,5.2,3.5c1.7,3.2-2.7-6.7,0-6.7s3.2,2,3.2,2s5.1-2.7,6.6-1
		c1.5,1.7-0.2,4.3-2.2,6.4c-2,2.1,2.8,0,2.8,0s1.4,5.6-3.8,4.8c-5.2-0.7,1.2,1.7,1.2,1.7s-5.2,1.5-6.5,0c-1.2-1.5-5.7-2.5-5-3.7
		c0.7-1.2,3-0.2,3-0.2s-4.7-1.2-4.5-5.2C-263.9,250.6-264.1,253.1-264.1,253.1z"/>
	<path id="XMLID_152_" class="st2" d="M-293.8,206.7c0,0,6.9-22.6,6.8-24.1"/>
	<path id="XMLID_151_" class="st2" d="M-291.8,208.7c0,0,21-9,22.8-11.4"/>
	<path id="XMLID_150_" class="st2" d="M-294,209.6c0,0,18.6,10.7,20.8,15.7"/>
	<path id="XMLID_149_" class="st2" d="M-294.6,211c0,0-0.8,16.4-0.1,20.5"/>
	<path id="XMLID_148_" class="st2" d="M-320.4,214.4c0,0,19.6-6.4,25.7-5.8"/>
	<path id="XMLID_147_" class="st2" d="M-311.2,186.9c0,0,14.6,19.5,17,20.7"/>
	<path id="XMLID_146_" class="st3" d="M-296.1,204.3c0,0,1.6,0.9,1.7,2.9s0.2-3.8,1.5-3.2c1.3,0.6,1.1,1.7,1.1,1.7s3-0.2,3.4,1
		c0.3,1.2-1.1,2-2.5,2.6c-1.4,0.6,1.3,0.6,1.3,0.6s-0.6,3-2.9,1.5c-2.3-1.5,0.2,1.1,0.2,1.1s-2.8-0.5-3.1-1.5s-2.2-2.5-1.6-2.9
		s1.5,0.6,1.5,0.6s-2-1.7-1-3.5C-295.4,203.2-296.1,204.3-296.1,204.3z"/>
	<path id="XMLID_168_" class="st2" d="M-214.6,299.6c0,0-11.5-20.8-12.8-21.7"/>
	<path id="XMLID_167_" class="st2" d="M-211.6,299.2c0,0,9.9-24,9.6-27.1"/>
	<path id="XMLID_166_" class="st2" d="M-212.6,301.6c0,0,22.9-8.9,28.4-7.5"/>
	<path id="XMLID_165_" class="st2" d="M-212.1,303.2c0,0,11.7,11.5,15.4,13.6"/>
	<path id="XMLID_164_" class="st2" d="M-230,327.5c0,0,10.8-21.1,16.1-25.9"/>
	<path id="XMLID_163_" class="st2" d="M-243.4,301.5c0,0,26.4,0.3,29.1-1"/>
	<path id="XMLID_162_" class="st3" d="M-218.3,300c0,0,2-0.8,3.5,0.4s-2.7-2.7-1.2-3.4c1.5-0.7,2.1,0.2,2.1,0.2s2.3-2.7,3.4-2.2
		c1.1,0.5,0.6,2.2-0.1,3.8c-0.7,1.6,1.5-0.7,1.5-0.7s1.8,2.5-1.2,3.5s1,0.6,1,0.6s-2.6,2.1-3.6,1.7c-1-0.4-3.6,0.2-3.4-0.6
		c0.2-0.8,1.6-0.9,1.6-0.9s-2.8,0.6-3.4-1.5C-218.6,298.7-218.3,300-218.3,300z"/>
	<path id="XMLID_160_" class="st2" d="M-329.9,251.3c0,0-21.4-35.2-23.5-37.2"/>
	<path id="XMLID_159_" class="st2" d="M-325.3,252.7c0,0,10.9-25.7,9.9-30.1"/>
	<path id="XMLID_158_" class="st2" d="M-326.5,255.3c0,0,33.5,2.8,42.2,8.2"/>
	<path id="XMLID_157_" class="st2" d="M-325.4,257.7c0,0,20,22.9,26,28.1"/>
	<path id="XMLID_156_" class="st2" d="M-348.6,278.7c0,0,12.8-21.3,20.1-24.3"/>
	<path id="XMLID_155_" class="st2" d="M-373.8,235.4c0,0,40.5,17.3,44.5,17.3"/>
	<path id="XMLID_154_" class="st3" d="M-335.5,249.4c0,0,2.9,0.2,5.5,2.8c2.6,2.6-4.7-5.4-2.5-5.4s3.3,1.6,3.3,1.6s3-2.2,4.8-0.8
		c1.8,1.4,1.4,3.4,0.6,5.1c-0.8,1.7,2.2,0,2.2,0s3.2,4.5-1.2,3.9s1.6,1.4,1.6,1.4s-3.6,1.2-5.2,0s-5.5-2-5.4-3s2.3-0.2,2.3-0.2
		s-4.2-1-5.5-4.2C-336.2,247.4-335.5,249.4-335.5,249.4z"/>
</g>
</svg>
