<?xml version="1.0" encoding="utf-8"?>
<!-- Generator: Adobe Illustrator 19.0.1, SVG Export Plug-In . SVG Version: 6.00 Build 0)  -->
<svg version="1.1" id="Layer_1" xmlns="http://www.w3.org/2000/svg" xmlns:xlink="http://www.w3.org/1999/xlink" x="0px" y="0px"
	 viewBox="0 0 200 200" style="enable-background:new 0 0 200 200;" xml:space="preserve">
<style type="text/css">
	.st0{fill:#352924;}
	.st1{fill:#FFFFFF;stroke:#000000;stroke-width:6.5514;stroke-miterlimit:10;}
	.st2{fill:#FFFFFF;stroke:#332C27;stroke-width:6.5514;stroke-miterlimit:10;}
	.st3{fill:#B29079;}
	.st4{fill:#F4D3BD;}
	.st5{fill:#FFFFFF;stroke:#000000;stroke-width:12.7389;stroke-miterlimit:10;}
	.st6{fill:#FFFFFF;stroke:#332C27;stroke-width:6.8302;stroke-miterlimit:10;}
</style>
<g>
	<path class="st0" d="M168.5,104.3l10.7-5.6l-0.5-3.1l-21.5-5.1l-3.6,1.5l0.5-13.2l5.2-2l-0.5-3.1l-26.6-6.2l14.7-3.8l-0.5-3.1
		l-6.2-6L112.6,50H83.5l-24.7,4.2l-4.2,6.6l0.5,3.1l12.4,2.9l-29.7,5.9l0.5,3.1l3.1,1.3v13.8l-0.6-0.3l-19.1,6.7l0.5,3.1l6.1,3
		l1,21.9l-1,2.6l31.7,21.3l10.5-6l-2.7-8.6l-4-2.2l-0.5-20.8l6.8-2.4v16.6h12.7V70.2l1.7,0.4h28.7l-0.9,35.5l3.8,0.1l-0.9,17.9
		l12.7,0.6l1.3-25.3l4.9,1.3l-3.5,1.5l0.5,3.1l9.5,2.8l-1.2,22.4l-3,1.9l-3,8.9l12.7,4.6l25-17.1v-5.6l-3.8-1.2L168.5,104.3z
		 M129.6,83.2l4.1-1.7v6.1l-4.3-1.1L129.6,83.2z M140.3,78.8l7.4,2l-0.4,10.3l-7-1.9V78.8z M150.7,111.2l-0.7,12.3l-4.2,2.7
		l0.9-16.1L150.7,111.2z M130.4,68.3l0-0.1l0.4-0.1L130.4,68.3z M62.9,92.1V80.4l6.8,4.1v5.3L62.9,92.1z M48.1,80l8.2-1.6v16
		l-3.7,1.3l-4.9-2.1V79.8L48.1,80z M49.8,114l2.6,1.3l4-1.4l0.3,14.8l-6.4-3.5L49.8,114z M69.7,76.8L68.4,76l1.3-0.3V76.8z
		 M35.4,122l-0.7-15.4l8.4,4.1l0.5,10.7l-2.8-1.5L35.4,122z M156.8,119.1l0.5-9l4.3-2.2l-1.1,12.1l-3.4-1.1L156.8,119.1z"/>
	<g>
		<line class="st1" x1="142.9" y1="106.9" x2="141.2" y2="139.5"/>
		<line class="st1" x1="153.8" y1="103" x2="152.1" y2="132.1"/>
		<line class="st1" x1="165.2" y1="97.5" x2="162.6" y2="126.6"/>
		<line class="st1" x1="58.9" y1="110.3" x2="59.6" y2="144.6"/>
		<line class="st1" x1="45.3" y1="103" x2="46.9" y2="138.4"/>
		<line class="st1" x1="30.3" y1="100.5" x2="31.6" y2="128.3"/>
		<line class="st2" x1="43.7" y1="76.3" x2="43.7" y2="99"/>
		<g>
			<polygon points="58.9,150 27.2,128.7 28.6,125.1 40.1,120.7 66.7,135.4 69.4,144 			"/>
		</g>
		<line class="st2" x1="58.9" y1="75.3" x2="58.9" y2="96.3"/>
		<line class="st2" x1="73.1" y1="83.8" x2="58.9" y2="75.3"/>
		<line class="st2" x1="136.3" y1="75.7" x2="136.3" y2="97.5"/>
		<polygon class="st3" points="37.4,76.4 47.4,80.8 79.6,74.4 79.1,71.3 68.7,70.2 36.9,73.3 		"/>
		<line class="st2" x1="150.3" y1="77.7" x2="149.5" y2="99"/>
		<line class="st2" x1="120.3" y1="83.8" x2="140.3" y2="75.7"/>
		<polygon class="st3" points="130,106.1 152.9,112.8 178.6,99.5 178.1,96.4 157.1,94.4 129.5,103 		"/>
		<polygon class="st3" points="148,81.8 158.7,77.7 158.3,74.6 131.4,71.3 124.5,75.5 		"/>
		<polygon class="st4" points="36.9,73.3 46.9,77.7 79.1,71.3 68.2,67.1 		"/>
		<line class="st5" x1="73.1" y1="95.8" x2="46.1" y2="105.1"/>
		<line class="st5" x1="75.3" y1="65.9" x2="75.3" y2="126.6"/>
		<line class="st5" x1="125.7" y1="92.9" x2="148.5" y2="99"/>
		<polygon class="st4" points="129.5,103 152.5,109.7 178.1,96.4 156.6,91.3 		"/>
		<polygon class="st3" points="21.2,101.1 51.7,116.1 73.6,108.4 73.1,105.3 40.3,94.4 20.7,98 		"/>
		<polygon class="st4" points="147.5,78.8 158.3,74.6 131,68.2 124.1,72.4 		"/>
		<line class="st6" x1="115.6" y1="68.2" x2="114.6" y2="106.9"/>
		<line class="st5" x1="123.4" y1="66.4" x2="120.4" y2="125.2"/>
		<polygon class="st3" points="54.3,64.6 83.4,71.3 120.3,71.3 146.4,64.6 145.9,61.5 140.2,58.6 112.3,53.8 83.2,53.8 58.5,58 
			53.8,61.5 		"/>
		<polygon class="st4" points="53.8,61.5 82.9,68.2 119.9,68.2 145.9,61.5 139.7,55.5 111.9,50.7 82.8,50.7 58,54.9 		"/>
		<g>
			<polygon points="145,146.7 132.3,142.1 135.4,133.1 156.5,119.6 170,124.1 170,129.6 			"/>
		</g>
		<polygon class="st4" points="20.7,98 51.3,113 73.1,105.3 39.8,91.3 		"/>
	</g>
</g>
</svg>
