<?xml version="1.0" encoding="utf-8"?>
<!-- Generator: Adobe Illustrator 19.0.1, SVG Export Plug-In . SVG Version: 6.00 Build 0)  -->
<svg version="1.1" id="Layer_1" xmlns="http://www.w3.org/2000/svg" xmlns:xlink="http://www.w3.org/1999/xlink" x="0px" y="0px"
	 viewBox="0 0 200 200" style="enable-background:new 0 0 200 200;" xml:space="preserve">
<style type="text/css">
	.st0{fill:#352924;}
	.st1{fill:#57472E;}
	.st2{fill:#7D663D;}
	.st3{fill:#6B5839;}
	.st4{fill:#9C7F4C;}
	.st5{fill:#8C7653;}
	.st6{fill:#CEAE76;}
</style>
<g>
	<g>
		<path class="st0" d="M167.7,87.1L164,74.8l20.4-6.5l1.9-1.9L73,50L27.6,60.8l-1.9,1.9L51,66.6l-9.5,27.8l-2.8,0.7l-13.8-2.8
			l-17,4.9L6,99.1l12.5,2.7l5.4,13.1l11.8-3.6l-6.5,19l10.8-5.9l1.9-1.9l5.4-14.7l67.4,14.3l-0.9,0.4l-1.9,1.9l4,11.1l3.9-1.6
			l-4.8,14.9h7.4l1.9-1.9l5.8-17.3l35.4-14.8l2.9,9.6l7.4-1.5l1.9-1.9l-3-10.1l7.6-3.2l1.9-1.9v-6.5l0.3,0.1l12-5.2l1.9-1.9
			L167.7,87.1z M101.1,107.9L95,93.2l2.1-0.6l1.9-1.9v-5.4l34.6,5.7l-7.1,22L101.1,107.9z M84.3,96.5l3.8,8.7l-19.4-4L84.3,96.5z
			 M145.5,83.4l1-3l7.9-2.5l2.2,7.4L145.5,83.4z M136.5,81.9l-49.8-8.4l-0.6-1.4l51,8L136.5,81.9z M76.5,78.5l-1.2,0.8l-1.9,1.9
			l4.5,0.7l1.1,2.6l-25.9,6.8l8.4-23L72.8,70L76.5,78.5z M142.4,92.5l17.2,2.8l2,6.6l-26.1,11.2L142.4,92.5z M170.6,97.1l1.6,0.3
			l-1.4,0.6L170.6,97.1z"/>
	</g>
	<g>
		<g>
			<polygon class="st1" points="110.6,150 134.4,76.2 142.7,76.2 119.9,148.1 118.1,150 			"/>
			<polygon class="st2" points="112.5,148.1 136.3,74.4 144.6,74.4 119.9,148.1 			"/>
		</g>
		<g>
			<polygon class="st3" points="19.6,116 14.2,103 92.7,82.4 94.6,92 92.7,93.8 			"/>
			<polygon class="st4" points="21.5,114.2 16,101.1 94.6,80.6 94.6,92 			"/>
		</g>
		<g>
			<polygon class="st1" points="164,125.6 149.2,76.2 156.6,73.8 173.3,122.2 171.5,124.1 			"/>
			<polygon class="st2" points="165.9,123.8 151.1,74.4 158.5,71.9 173.3,122.2 			"/>
		</g>
		<g>
			<polygon class="st3" points="111.6,136.7 107.6,125.6 109.4,123.8 177.9,95.4 179.8,107.1 177.9,109 			"/>
			<polygon class="st4" points="113.4,134.9 109.4,123.8 179.8,93.5 179.8,107.1 			"/>
		</g>
		<g>
			<polygon class="st5" points="69.1,82.4 180.1,100.6 192.1,95.4 194,93.5 78.5,76.2 71,80.6 			"/>
			<polygon class="st6" points="71,80.6 181.9,98.8 194,93.5 80.4,74.4 			"/>
		</g>
		<g>
			<polygon class="st1" points="87.1,114.2 65,63.2 74.7,63.2 95.1,111.8 			"/>
			<polygon class="st2" points="89.1,112.1 67,61.1 76.7,61.1 97.1,109.7 			"/>
		</g>
		<g>
			<polygon class="st1" points="24.8,131.5 48.3,63 58.5,63 37.5,123.8 35.6,125.6 			"/>
			<polygon class="st2" points="26.7,129.6 50.2,61.1 60.3,61.1 37.5,123.8 			"/>
		</g>
		<g>
			<polygon class="st5" points="1.7,100.3 120.8,125.6 136.6,119.4 138.4,117.6 18.7,95.4 3.5,98.5 			"/>
			<polygon class="st6" points="3.5,98.5 122.7,123.8 138.4,117.6 20.5,93.5 			"/>
		</g>
		<g>
			<polygon class="st5" points="21.5,63.9 139.7,82.4 180.1,69.4 181.9,67.6 66.8,53.1 23.3,62 			"/>
			<polygon class="st6" points="23.3,62 141.5,80.6 181.9,67.6 68.7,51.2 			"/>
		</g>
	</g>
</g>
</svg>
