<?xml version="1.0" encoding="utf-8"?>
<!-- Generator: Adobe Illustrator 19.0.1, SVG Export Plug-In . SVG Version: 6.00 Build 0)  -->
<svg version="1.1" id="Layer_1" xmlns="http://www.w3.org/2000/svg" xmlns:xlink="http://www.w3.org/1999/xlink" x="0px" y="0px"
	 viewBox="0 0 200 200" style="enable-background:new 0 0 200 200;" xml:space="preserve">
<style type="text/css">
	.st0{fill:#352924;}
	.st1{fill:#84AF52;}
	.st2{fill:#4C2C26;}
	.st3{fill:#F09950;}
	.st4{fill:#822417;}
	.st5{fill:#A5693C;}
	.st6{fill:#485931;}
	.st7{fill:#87180A;}
	.st8{fill:#D1691C;}
</style>
<g>
	<path class="st0" d="M110.1,114.7c0.3-1.2,0.7-2.3,1-3.4l-1.2-0.3l1.3,0.1c0-0.1,0.7-5.6,7.7-44.7c1.1-1.7,2.8-10.3,4.4-39.9
		c0,0-5.3,20.6-6.3,26.6c-0.5,3.1-0.4,6.9,0.1,9.7l-0.1,0c-3.6,20.2-5.7,32.1-6.8,38.9l-1.3-0.2l1.4,0.1c0-0.1,0.4-6.6,5-54.1
		l-0.2,0c0.7-4.9,1.3-16.6,0.9-41.9c0,0-2.2,13.2-3.5,22.6c0.1-1.3,0.2-2.7,0.2-4.1c0,0-2.1,8.2-3.9,15.8c-1.8,5.1-3.5,10.4-4.2,13
		c-1,3.5-1,8-0.7,10.9c-0.9,3.2-1.7,6.3-2.4,9.1c-0.2-0.9-0.5-1.9-0.8-2.9c0.7-4.1,1.5-8.7,2.4-13.8l-0.1,0
		c0.6-5.3,0.9-16.2,0.5-37.7c0,0-3.7,21.8-4.3,28.1c-0.3,3.6,0.2,7.9,1,10.9c-0.4,2.3-0.8,4.4-1.1,6.5c-0.1-0.2-0.1-0.5-0.2-0.7
		c0.3-2.9,0.2-7.4-0.7-10.9c-0.5-2-1.7-5.7-3.1-9.7c0-0.5,0-1-0.1-1.6c-0.6-6.5-4.3-28.9-4.3-28.9c-0.1,5-0.2,9.4-0.2,13.3
		c-0.3-1.2-0.5-1.9-0.5-1.9c0.1,1.9,0.2,3.7,0.3,5.4c-0.6-1.6-0.9-2.6-0.9-2.6c0.4,2.6,0.7,5,1.1,7.2c0.1,10.2,0.4,15.9,0.9,18.9
		l-0.2,0c1.7,18,2.8,29.8,3.5,37.6c-0.7,4.3-1.2,7.5-1.6,9.8c-0.7-6.1-1.7-14.2-2.9-25c0.8-2.5,1.5-6.6,1.1-10
		c-0.6-5.5-4.5-24.4-4.5-24.4c-0.3,16.6,0,25.9,0.5,31c-0.5-2.8-1-5.7-1.6-8.9c0.6-2.8,0.9-7.3,0.3-10.9c-1-6-6.3-26.6-6.3-26.6
		c1.2,22.7,2.5,33.1,3.5,37.4l-0.1,0c5.9,32.9,7.6,43.7,8.1,46.8c-2.3,10.3-2.5,25.4-0.6,45.1c0.2,2.2,0.4,4.4,0.7,6.5
		c-0.7,14.5-0.6,26.8,0.1,30.4l2.5-0.4c-0.4-2.1-0.7-7.4-0.6-14.3c0.6,4,1.2,7.4,1.6,10c-0.3,2.7-0.6,4.7-1,5.8l2.4,0.6
		c0.1-0.4,0.3-1,0.4-1.7l0.2,0c-0.1,0.4-0.2,0.8-0.3,1.2l2.6,0.6c0.1-0.2,0.1-0.5,0.2-0.7l1.5,0.2c0.1-0.7,0.3-1.7,0.4-3
		c0.1,1.6,0.2,2.9,0.4,3.7l1.5-0.3c0.1,0.3,0.1,0.5,0.2,0.8l2.4-0.6c-0.4-1.2-0.8-3.6-1.1-6.7l0.3,0c0-0.2,0-0.3,0.1-0.5
		c0.3,3.7,0.7,6.4,1,7.8l2.7-0.6c-0.7-2.6-1.3-9.7-1.8-19c0.6-3.5,1.3-7.6,1.9-11.9c0.6,13.5,0.5,24.8-0.2,28.2l2.5,0.4
		c0.9-4.6,0.9-23.1-0.6-42.5C111.6,136.5,112,124.4,110.1,114.7z M108.8,132.1c-0.3-2.3-0.6-4.6-1-6.8c0.2-1.2,0.4-2.3,0.6-3.4
		C108.8,125.1,108.9,128.6,108.8,132.1z M101.5,134.5c-0.3-7.7-0.8-15.1-1.7-21.6c0.3-1.2,0.6-2.3,1-3.3l-1.2-0.3l1.3,0.1
		c0,0,0.1-0.6,0.4-2.5c0.2,1.4,0.3,1.8,0.3,1.8l1.3-0.1l-1.2,0.3c0.9,2.7,1.6,5.7,2.3,9C102.7,122.8,101.9,128.6,101.5,134.5z
		 M98.3,176.1c-0.1-0.3-0.1-0.7-0.2-1c0.2-3.4,0.3-7.1,0.4-10.8c0.1,1.5,0.1,3,0.2,4.4C98.5,171.3,98.4,173.8,98.3,176.1z
		 M93.7,124.4c0.2,1,0.4,2.1,0.5,3.2c-0.3,1.7-0.5,3.4-0.7,5.1C93.5,129.9,93.5,127.1,93.7,124.4z M95.4,138.6
		c0.6,7.6,0.7,15.8,0.7,23.5c-0.6-4.2-1.2-8.8-1.6-13.4C94.7,145.3,95,141.9,95.4,138.6z M95,114.6c0.2-1.1,0.5-2.1,0.8-3.1
		l-1.2-0.3l1.2-0.2c0-0.1-0.1-1,0.3-4.1c0.4,1.9,0.7,3.9,1,6.1c-0.4,1.7-0.9,3.5-1.2,5.3C95.6,117.1,95.3,115.8,95,114.6z
		 M96.6,104.3l0.4,0L96.6,104.3C96.6,104.3,96.6,104.3,96.6,104.3z M112,46c0.1,0.5,0.2,1,0.3,1.5c-0.1,1-0.2,2-0.3,2.9
		C112.1,49.1,112.1,47.6,112,46z M107.9,68.7c0.2,1.5,0.5,2.8,0.9,3.9c-0.9,8.6-1.7,15.6-2.3,21.3c-0.5-2.2-1-4.6-1.7-7.4
		C105.6,81.6,106.6,75.7,107.9,68.7z M105.5,102.3c-0.4,3.5-0.6,6.1-0.8,8.2c-0.2-0.7-0.4-1.5-0.7-2.2c-0.1-0.4-0.4-2.5-1.5-9.3
		c0.3-1.8,0.6-3.8,1.1-6.2C104.5,96.9,105.1,99.9,105.5,102.3z M101.2,91.4c-0.3-1.5-0.5-3.1-0.8-4.8c0.3-1.1,0.6-2.3,0.9-3.5
		c0.3,1.2,0.6,2.3,0.8,3.4C101.8,88.3,101.5,89.9,101.2,91.4z M99.9,99.1c-0.6,3.3-0.9,5.6-1.2,7.1c-0.1-0.7-0.3-1.4-0.4-2
		c0-0.4-0.1-1.8-0.5-6.3c0.3-1.5,0.7-3.1,1.1-4.8C99.3,95.3,99.6,97.3,99.9,99.1z M97.5,87.6c0.1-0.4,0.1-0.8,0.2-1.2
		c0,0.1,0,0.1,0,0.2C97.7,86.9,97.6,87.2,97.5,87.6z M97.2,125.3c0.2-1.5,0.5-2.9,0.8-4.3c0.4,5.1,0.7,10.6,0.9,16.2
		C98.4,133,97.8,129,97.2,125.3z M109,108.2c0-0.1,0-0.3,0-0.4c0.3-2.2,0.7-4.2,1.1-6C109.6,104.8,109.2,106.8,109,108.2z
		 M105.7,66.2c-0.9,5.3-1.8,9.9-2.5,14c-0.2-0.8-0.4-1.6-0.6-2.4C103.5,74.3,104.5,70.5,105.7,66.2z M99.9,77.8
		c-0.2,0.9-0.4,1.7-0.6,2.5c-0.1-0.5-0.2-1.1-0.3-1.7c0.1-0.9,0.3-1.8,0.5-2.7C99.6,76.6,99.8,77.2,99.9,77.8z M97.6,70.9
		c-0.3-1.7-0.6-3.5-1-5.3c0.4,1.5,0.8,2.9,1.1,4.2C97.7,70.2,97.7,70.6,97.6,70.9z M95.8,75.7c0.2,1,0.3,1.9,0.5,2.8
		c-0.1,0.3-0.1,0.6-0.2,0.9C96.1,78.2,96,77,95.8,75.7z M93.7,106C93.7,106,93.7,106,93.7,106l-0.1,0c0,0,0,0,0-0.1L93.7,106z
		 M103.8,176.9c-0.1-1.3-0.2-2.7-0.2-4.2c0.1-2.6,0.2-5.3,0.3-8.2c0.1,3.5,0.2,6.8,0.4,9.9C104.1,175.3,104,176.1,103.8,176.9z
		 M106.5,160c-0.1-7.8-0.1-16.2,0.2-24.4c0.5,4.1,0.9,8.3,1.2,12.5C107.5,152.1,107,156.1,106.5,160z"/>
	<g>
		<g>
			<path class="st1" d="M108.9,191.3l-2.5-0.5c1.6-8.7-0.3-46.4-7.6-71.4l2.5-0.7C108.7,144,110.6,182.5,108.9,191.3z"/>
		</g>
		<g>
			<path class="st2" d="M87,25.2c1.8,35.3,3.5,43.5,4.7,44.3c1.1,0.8,2.7-8.4,1.7-15C92.3,47.9,87,25.2,87,25.2z"/>
		</g>
		<g>
			<path class="st3" d="M98.7,119.3c0-0.1-0.8-6.6-8.3-52.9L93,66c7.5,46.4,8.3,52.7,8.3,53L98.7,119.3z"/>
		</g>
	</g>
	<g>
		<g>
			<path class="st1" d="M102.7,186.4l-2.6-0.3c0.2-1.6,0.6-4.4,1.2-8.3c2.8-17.6,7.9-35.9,2.5-56.3l2.5-0.7
				c5.6,21,0.4,39.7-2.4,57.4C103.3,182,102.9,184.9,102.7,186.4z"/>
		</g>
		<g>
			<path class="st4" d="M86.4,28.2c4.7,35,7.2,43,8.4,43.8s2-8.6,0.4-15.1S86.4,28.2,86.4,28.2z"/>
		</g>
		<g>
			<path class="st5" d="M106.3,121.4l-2.6-0.4c0-0.2,0.6-7.4-10.5-52l2.5-0.6c6,23.9,8.5,36.9,9.6,43.6
				C106.5,119.2,106.4,121.1,106.3,121.4z"/>
		</g>
	</g>
	<g>
		<g>
			<path class="st1" d="M98.6,193.2l-2.5-0.5c1.6-8.7-0.3-46.4-7.6-71.4l2.5-0.7C98.3,145.9,100.2,184.4,98.6,193.2z"/>
		</g>
		<g>
			<path class="st2" d="M76.7,27.1c1.8,35.3,3.5,43.5,4.7,44.3s2.7-8.4,1.7-15C82,49.8,76.7,27.1,76.7,27.1z"/>
		</g>
		<g>
			<path class="st3" d="M88.4,121.2c0-0.1-0.8-6.6-8.3-52.9l2.6-0.4c7.5,46.4,8.3,52.7,8.3,53L88.4,121.2z"/>
		</g>
	</g>
	<g>
		<path class="st6" d="M89,192.1c-1.7-8.8-0.9-47.3,6.6-72.6l2.5,0.7c-7.3,24.9-8.1,62.7-6.5,71.4L89,192.1z"/>
	</g>
	<g>
		<path class="st2" d="M109.8,25.9c-1.8,35.3-3.5,43.5-4.7,44.3c-1.1,0.8-2.7-8.4-1.7-15C104.5,48.6,109.8,25.9,109.8,25.9z"/>
	</g>
	<g>
		<path class="st3" d="M98.1,120l-2.6-0.3c0-0.2,0.8-6.5,8.3-53l2.6,0.4C98.9,113.5,98.1,119.9,98.1,120z"/>
	</g>
	<g>
		<path class="st6" d="M95.2,187.1c-0.2-1.6-0.6-4.5-1.2-8.1c-2.8-17.7-9.1-36.4-3.5-57.4l2.5,0.7c-5.5,20.5,0.8,38.8,3.6,56.3
			c0.6,3.9,1,6.6,1.2,8.3L95.2,187.1z"/>
	</g>
	<g>
		<path class="st4" d="M110.4,28.9c-4.7,35-7.2,43-8.4,43.8s-2-8.6-0.4-15.1C103.2,51.1,110.4,28.9,110.4,28.9z"/>
	</g>
	<g>
		<path class="st5" d="M90.5,122.1c0-0.3-0.2-2.1,1-9.3c1.1-6.7,3.7-19.8,9.6-43.6l2.5,0.6c-11.1,44.5-10.6,51.7-10.5,52L90.5,122.1
			z"/>
	</g>
	<g>
		<path class="st6" d="M99.3,194c-1.7-8.8-0.9-47.3,6.6-72.6l2.5,0.7c-7.3,24.9-8.1,62.7-6.5,71.4L99.3,194z"/>
	</g>
	<g>
		<path class="st3" d="M108.4,121.9l-2.6-0.3c0-0.2,0.8-6.5,8.3-53l2.6,0.4C109.2,115.4,108.4,121.8,108.4,121.9z"/>
	</g>
	<g>
		<path class="st6" d="M103.8,194.5c-2.2-9.7-5-54.8,0.9-83.5l2.7,0.5c-5.8,28.4-3,72.7-0.9,82.3L103.8,194.5z"/>
	</g>
	<g>
		<path class="st7" d="M113.1,5.5c0.5,39.5-0.8,48.8-1.9,49.8s-3.2-9.2-2.6-16.6C109.2,31.2,113.1,5.5,113.1,5.5z"/>
	</g>
	<g>
		<path class="st8" d="M107.4,111.3l-2.7-0.1c0-0.3,0.4-7.3,5-59.7l2.7,0.2C107.7,104,107.4,111.2,107.4,111.3z"/>
	</g>
	<g>
		<path class="st6" d="M101.1,194.5c-1.3-4.5-2.9-2.3-3.1-18.2c-0.1-12,0.1-34.1,3.5-48.1l2.4,0.6c-5.6,23.5-2.6,57.1-0.3,65.1
			L101.1,194.5z"/>
	</g>
	<g>
		<path class="st2" d="M109.1,40.7c0.7,32.7-0.6,40.5-1.6,41.3c-1.1,0.8-3.3-7.6-2.7-13.8C105.4,62,109.1,40.7,109.1,40.7z"/>
	</g>
	<g>
		<path class="st3" d="M103.9,128.5l-2.5-0.1c0-0.2,0.3-6.1,4.7-49.6l2.5,0.2C104.2,122.3,103.9,128.5,103.9,128.5z"/>
	</g>
	<g>
		<path class="st1" d="M94,193.8l-2.4-0.7c2.2-7.8,3.8-40.2-2-63.1l2.4-0.6c3.4,13.7,3.8,35.3,3.8,47C95.7,192,95.2,189.4,94,193.8z
			"/>
	</g>
	<g>
		<path class="st7" d="M83.7,44c-0.5,32,0.8,39.5,1.9,40.3c1.1,0.8,3.2-7.5,2.6-13.5C87.6,64.8,83.7,44,83.7,44z"/>
	</g>
	<g>
		<path class="st8" d="M89.6,129.8c0-0.1-0.4-6-5-48.3l2.5-0.3c4.6,42.4,5,48.2,5,48.4L89.6,129.8z"/>
	</g>
	<g>
		<path class="st1" d="M96.9,193.8l-2.6-0.6c2.2-9.2,4.2-51.2-1.4-78.5l2.6-0.5C101.2,141.7,99.2,184.4,96.9,193.8z"/>
	</g>
	<g>
		<path class="st2" d="M87.7,12.5c-0.7,38,0.6,46.9,1.6,47.9s3.3-8.8,2.7-16S87.7,12.5,87.7,12.5z"/>
	</g>
	<g>
		<path class="st3" d="M92.8,114.4c0-0.1-0.3-7.1-4.7-57.3l2.7-0.2c4.3,50.4,4.7,57.2,4.7,57.5L92.8,114.4z"/>
	</g>
	<g>
		<path class="st2" d="M120.6,28.7c-1.8,35.3-3.5,43.5-4.7,44.3s-2.7-8.4-1.7-15C115.3,51.4,120.6,28.7,120.6,28.7z"/>
	</g>
	<g>
		<path class="st6" d="M93.4,192.1c-0.1-0.8-4-1-5.9-22.5c-2.1-24.4-1.6-42.5,1.6-53.8l2.5,0.7c-7.8,27.8,4.2,74.4,4.3,75
			L93.4,192.1z"/>
	</g>
	<g>
		<path class="st3" d="M91.7,116.3l-2.6-0.3c0-0.3,0.8-6.8,8.3-55.2l2.6,0.4C92.6,109.5,91.8,116.3,91.7,116.3z"/>
	</g>
	<g>
		<path class="st2" d="M100.5,19.7c0.7,36.8-0.6,45.5-1.6,46.4c-1.1,0.9-3.3-8.6-2.7-15.5C96.8,43.7,100.5,19.7,100.5,19.7z"/>
	</g>
</g>
</svg>
