<?xml version="1.0" encoding="utf-8"?>
<!-- Generator: Adobe Illustrator 19.0.1, SVG Export Plug-In . SVG Version: 6.00 Build 0)  -->
<svg version="1.1" id="Layer_1" xmlns="http://www.w3.org/2000/svg" xmlns:xlink="http://www.w3.org/1999/xlink" x="0px" y="0px"
	 viewBox="0 0 200 200" style="enable-background:new 0 0 200 200;" xml:space="preserve">
<style type="text/css">
	.st0{fill:#352924;}
	.st1{opacity:0.75;}
	.st2{fill:#878787;}
	.st3{fill:#B5AC9C;}
	.st4{fill:#6D6D6C;}
</style>
<g>
	<g>
		<path class="st0" d="M176.2,46.8c0,0-25.8-20.6-57-12.6c0,0-20.8,0.6-29.7,3.2c0,0-10.9,0.6-16.4,0.9c-5.6,0.3-27.6,0-28.5-0.9
			c0,0-11.2,2.1-16.1,4.4c0,0-21.7,1.8-19.7,16.4c0,0,30.2,84.8,42.9,94.2c0,0,12.5,7.9,40.7,7.9c28.3,0,86.4-22.9,86.4-22.9
			s28.8-19.1,18.2-44.3c-10.6-25.2-7.9-14.4-11.4-23.8C182.1,60,178.9,48.7,176.2,46.8z"/>
		<path class="st0" d="M141.9,43.8c0,0,25-9.7-28.8-7.3c-53.7,2.3-60.5,6.5-70.8,4.7C32,39.4,5.9,50,19.4,58.2
			c0,0-6.2,25.8,62.2,1.2c0,0,27.2-6.5,13.6-12.3c0,0,19.6-2,7.3,6C102.5,53.1,143,45.3,141.9,43.8z"/>
		<path class="st0" d="M88.1,65.9c0,0-64.3,3.2-53.7,30.8c10.6,27.6,19.7,40.2,21.4,40.2c1.8,0,9.7,12.6,19.7,14.1
			c10,1.5,27-16,75.7-17c29.1-0.6,33.7-15.3,33.2-17c-1.8-5.9,5.3-20.3-7.6-28.2c-12.9-7.9-38.2,7.3-38.2,7.9c0,0.6-21.1,8.2-25,2.1
			c-3.8-6.2,0.9-6.1-10.6-15.9C91.6,73.1,102.2,68.2,88.1,65.9z"/>
		<path class="st0" d="M80.2,154.5c0,0,25.5-20.6,57.8-12l2.6,2.3C140.7,144.8,92.2,167.1,80.2,154.5z"/>
		<path class="st0" d="M148.6,48.8c0,0,15-5.9,11.4,6.5c-3.5,12.3-5.5,3.8-5.5,3.8l-6-5.9c0,0-6.2-1.5-11.7,0c-5.6,1.5,0-2.6,0-2.6
			s2.1-3.7,3.8-3.2C142.4,47.9,148.6,48.8,148.6,48.8z"/>
		<path class="st0" d="M9.4,56.2c0,0,3.8,3.5,7.3,2.9c3.5-0.6,0.6,11.8,5.3,14c4.7,2.2,0,5.1,0,5.1h-5.3C16.8,78.2,13,64.1,9.4,56.2
			z"/>
		<path class="st0" d="M172.2,50.4c0,0-25.8-20.6-57-12.6c0,0-20.8,0.6-29.7,3.2c0,0-10.9,0.6-16.4,0.9c-5.6,0.3-27.6,0-28.5-0.9
			c0,0-11.2,2.1-16.1,4.4c0,0-21.7,1.8-19.7,16.4c0,0,30.2,84.8,42.9,94.2c0,0,12.5,7.9,40.7,7.9c28.3,0,86.4-22.9,86.4-22.9
			S203.6,122,193,96.8c-10.6-25.2-7.9-14.4-11.4-23.8C178,63.6,174.9,52.3,172.2,50.4z"/>
		<path class="st0" d="M137.8,47.5c0,0,25-9.7-28.8-7.3c-53.7,2.3-60.5,6.5-70.8,4.7c-10.3-1.8-36.4,8.8-22.9,17
			c0,0-6.2,25.8,62.2,1.2c0,0,27.2-6.5,13.6-12.3c0,0,19.6-2,7.3,6C98.5,56.7,139,48.9,137.8,47.5z"/>
		<path class="st0" d="M84.1,69.5c0,0-64.3,3.2-53.7,30.8c10.6,27.6,19.7,40.2,21.4,40.2c1.8,0,9.7,12.6,19.7,14.1
			c10,1.5,27-16,75.7-17c29.1-0.6,33.7-15.3,33.2-17c-1.8-5.9,5.3-20.3-7.6-28.2c-12.9-7.9-38.2,7.3-38.2,7.9c0,0.6-21.1,8.2-25,2.1
			c-3.8-6.2,0.9-6.1-10.6-15.9C87.6,76.7,98.2,71.8,84.1,69.5z"/>
		<path class="st0" d="M76.1,158.2c0,0,25.5-20.6,57.8-12l2.6,2.3C136.6,148.5,88.2,170.8,76.1,158.2z"/>
		<path class="st0" d="M144.6,52.5c0,0,15-5.9,11.5,6.5c-3.5,12.3-5.5,3.8-5.5,3.8l-6-5.9c0,0-6.2-1.5-11.7,0c-5.6,1.5,0-2.6,0-2.6
			s2.1-3.7,3.8-3.2C138.4,51.6,144.6,52.5,144.6,52.5z"/>
		<path class="st0" d="M5.4,59.8c0,0,3.8,3.5,7.3,2.9c3.5-0.6,0.6,11.8,5.3,14c4.7,2.2,0,5.1,0,5.1h-5.3
			C12.8,81.8,8.9,67.7,5.4,59.8z"/>
	</g>
	<g>
		<g class="st1">
			<path class="st0" d="M176.2,46.8c0,0-25.8-20.6-57-12.6c0,0-20.8,0.6-29.7,3.2c0,0-10.9,0.6-16.4,0.9c-5.6,0.3-27.6,0-28.5-0.9
				c0,0-11.2,2.1-16.1,4.4c0,0-21.7,1.8-19.7,16.4c0,0,30.2,84.8,42.9,94.2c0,0,12.5,7.9,40.7,7.9c28.3,0,86.4-22.9,86.4-22.9
				s28.8-19.1,18.2-44.3c-10.6-25.2-7.9-14.4-11.4-23.8C182.1,60,178.9,48.7,176.2,46.8z"/>
			<path class="st0" d="M141.9,43.8c0,0,25-9.7-28.8-7.3c-53.7,2.3-60.5,6.5-70.8,4.7C32,39.4,5.9,50,19.4,58.2
				c0,0-6.2,25.8,62.2,1.2c0,0,27.2-6.5,13.6-12.3c0,0,19.6-2,7.3,6C102.5,53.1,143,45.3,141.9,43.8z"/>
			<path class="st0" d="M88.1,65.9c0,0-64.3,3.2-53.7,30.8c10.6,27.6,19.7,40.2,21.4,40.2c1.8,0,9.7,12.6,19.7,14.1
				c10,1.5,27-16,75.7-17c29.1-0.6,33.7-15.3,33.2-17c-1.8-5.9,5.3-20.3-7.6-28.2c-12.9-7.9-38.2,7.3-38.2,7.9
				c0,0.6-21.1,8.2-25,2.1c-3.8-6.2,0.9-6.1-10.6-15.9C91.6,73.1,102.2,68.2,88.1,65.9z"/>
			<path class="st0" d="M80.2,154.5c0,0,25.5-20.6,57.8-12l2.6,2.3C140.7,144.8,92.2,167.1,80.2,154.5z"/>
			<path class="st0" d="M148.6,48.8c0,0,15-5.9,11.4,6.5c-3.5,12.3-5.5,3.8-5.5,3.8l-6-5.9c0,0-6.2-1.5-11.7,0c-5.6,1.5,0-2.6,0-2.6
				s2.1-3.7,3.8-3.2C142.4,47.9,148.6,48.8,148.6,48.8z"/>
			<path class="st0" d="M9.4,56.2c0,0,3.8,3.5,7.3,2.9c3.5-0.6,0.6,11.8,5.3,14c4.7,2.2,0,5.1,0,5.1h-5.3
				C16.8,78.2,13,64.1,9.4,56.2z"/>
		</g>
		<g>
			<g>
				<path class="st2" d="M172.2,50.4c0,0-25.8-20.6-57-12.6c0,0-20.8,0.6-29.7,3.2c0,0-10.9,0.6-16.4,0.9c-5.6,0.3-27.6,0-28.5-0.9
					c0,0-11.2,2.1-16.1,4.4c0,0-21.7,1.8-19.7,16.4c0,0,30.2,84.8,42.9,94.2c0,0,12.5,7.9,40.7,7.9c28.3,0,86.4-22.9,86.4-22.9
					S203.6,122,193,96.8c-10.6-25.2-7.9-14.4-11.4-23.8C178,63.6,174.9,52.3,172.2,50.4z"/>
				<path class="st3" d="M137.8,47.5c0,0,25-9.7-28.8-7.3c-53.7,2.3-60.5,6.5-70.8,4.7c-10.3-1.8-36.4,8.8-22.9,17
					c0,0-6.2,25.8,62.2,1.2c0,0,27.2-6.5,13.6-12.3c0,0,19.6-2,7.3,6C98.5,56.7,139,48.9,137.8,47.5z"/>
				<path class="st3" d="M84.1,69.5c0,0-64.3,3.2-53.7,30.8c10.6,27.6,19.7,40.2,21.4,40.2c1.8,0,9.7,12.6,19.7,14.1
					c10,1.5,27-16,75.7-17c29.1-0.6,33.7-15.3,33.2-17c-1.8-5.9,5.3-20.3-7.6-28.2c-12.9-7.9-38.2,7.3-38.2,7.9
					c0,0.6-21.1,8.2-25,2.1c-3.8-6.2,0.9-6.1-10.6-15.9C87.6,76.7,98.2,71.8,84.1,69.5z"/>
				<path class="st4" d="M76.1,158.2c0,0,25.5-20.6,57.8-12l2.6,2.3C136.6,148.5,88.2,170.8,76.1,158.2z"/>
				<path class="st4" d="M144.6,52.5c0,0,15-5.9,11.5,6.5c-3.5,12.3-5.5,3.8-5.5,3.8l-6-5.9c0,0-6.2-1.5-11.7,0
					c-5.6,1.5,0-2.6,0-2.6s2.1-3.7,3.8-3.2C138.4,51.6,144.6,52.5,144.6,52.5z"/>
				<path class="st4" d="M5.4,59.8c0,0,3.8,3.5,7.3,2.9c3.5-0.6,0.6,11.8,5.3,14c4.7,2.2,0,5.1,0,5.1h-5.3
					C12.8,81.8,8.9,67.7,5.4,59.8z"/>
			</g>
		</g>
	</g>
</g>
</svg>
