<?xml version="1.0" encoding="utf-8"?>
<!-- Generator: Adobe Illustrator 19.0.1, SVG Export Plug-In . SVG Version: 6.00 Build 0)  -->
<svg version="1.1" id="Layer_1" xmlns="http://www.w3.org/2000/svg" xmlns:xlink="http://www.w3.org/1999/xlink" x="0px" y="0px"
	 viewBox="0 0 200 200" style="enable-background:new 0 0 200 200;" xml:space="preserve">
<style type="text/css">
	.st0{fill:#352924;}
	.st1{fill:#3D3123;}
	.st2{fill:#96805E;}
	.st3{fill:#6B604E;}
	.st4{fill:#B5AC9C;}
</style>
<g>
	<g>
		<path class="st0" d="M179.9,73.1c0,0,20,4.5,19,31c1,29.7-16.4,35.5-24.5,35.2c-8.1-0.3-84.5-25.8-102.2-33.1s-17.7-7.3-17.7-7.3
			s-34.2-8.7-35.8-7.7S6.3,76,7.6,73.1c1.3-2.9,2.9-11.9,12.9-14.2c0,0,7.7-8.7,19.7,0C40.2,58.9,175.3,76.6,179.9,73.1z"/>
		<path class="st0" d="M177,76.3c0,0-22.9,0.3-24.2,31.9c-1.3,31.6,25.8,24.8,25.8,24.8s15.8,3.5,19-28.1
			C197.6,105,196.6,76.9,177,76.3z"/>
		<path class="st0" d="M30.2,56.6c0,0-18.7,6.1-16.8,17.7s73.5,20,73.5,20s-36.4-8.1-32.9-12.9c3.5-4.8,37.4,5.5,37.4,5.5L70.2,75.5
			c0,0,5.5-1.5,14.2,1.5c8.7,2.9,31.6-1,31.9-1.5s-45.5-11.1-53.2-6.6S30.2,56.6,30.2,56.6z"/>
		<path class="st0" d="M176.8,79c0,0-20.7,0.3-21.9,28.9c-1.2,28.6,23.3,22.5,23.3,22.5s14.3,3.2,17.2-25.4
			C195.4,105,194.6,79.6,176.8,79z"/>
		<path class="st0" d="M176.6,81.3c0,0-18.9,0.3-20,26.3c-1.1,26.1,21.3,20.5,21.3,20.5s13,2.9,15.7-23.2
			C193.7,105,192.9,81.8,176.6,81.3z"/>
		<path class="st0" d="M176.5,83c0,0-17.6,0.2-18.6,24.5c-1,24.3,19.8,19.1,19.8,19.1s12.1,2.7,14.6-21.6
			C192.4,105,191.6,83.5,176.5,83z"/>
	</g>
	<g>
		<g>
			<path class="st1" d="M176.6,76c0,0,20,4.5,19,31c1,29.7-16.4,35.5-24.5,35.2c-8.1-0.3-84.5-25.8-102.2-33.1s-17.7-7.3-17.7-7.3
				S17,93.1,15.4,94C13.8,95,3.1,78.9,4.4,76C5.7,73.1,7.3,64,17.3,61.8c0,0,7.7-8.7,19.7,0C37,61.8,172.1,79.5,176.6,76z"/>
			<path class="st2" d="M173.7,79.2c0,0-22.9,0.3-24.2,31.9s25.8,24.8,25.8,24.8s15.8,3.5,19-28.1
				C194.4,107.9,193.4,79.8,173.7,79.2z"/>
			<path class="st3" d="M27,59.5c0,0-18.7,6.1-16.8,17.7s73.5,20,73.5,20s-36.4-8.1-32.9-12.9c3.5-4.8,37.4,5.5,37.4,5.5L67,78.4
				c0,0,5.5-1.5,14.2,1.5s31.6-1,31.9-1.5c0.3-0.5-45.5-11.1-53.2-6.6S27,59.5,27,59.5z"/>
			<path class="st4" d="M173.6,81.9c0,0-20.7,0.3-21.9,28.9c-1.2,28.6,23.3,22.5,23.3,22.5s14.3,3.2,17.2-25.4
				C192.2,107.9,191.3,82.5,173.6,81.9z"/>
			<path class="st2" d="M173.4,84.2c0,0-18.9,0.3-20,26.3c-1.1,26.1,21.3,20.5,21.3,20.5s13,2.9,15.7-23.2
				C190.4,107.9,189.6,84.7,173.4,84.2z"/>
			<path class="st4" d="M173.3,85.9c0,0-17.6,0.2-18.6,24.5c-1,24.3,19.8,19.1,19.8,19.1s12.1,2.7,14.6-21.6
				C189.2,107.9,188.4,86.4,173.3,85.9z"/>
		</g>
	</g>
</g>
</svg>
