<?xml version="1.0" encoding="utf-8"?>
<!-- Generator: Adobe Illustrator 19.0.1, SVG Export Plug-In . SVG Version: 6.00 Build 0)  -->
<svg version="1.1" id="Layer_1" xmlns="http://www.w3.org/2000/svg" xmlns:xlink="http://www.w3.org/1999/xlink" x="0px" y="0px"
	 viewBox="0 0 200 200" style="enable-background:new 0 0 200 200;" xml:space="preserve">
<style type="text/css">
	.st0{fill:#20300A;}
	.st1{fill:#8C7656;}
	.st2{fill:#CBDD5F;}
	.st3{opacity:0.28;}
</style>
<g>
	<path class="st0" d="M187.9,78.7c-2.4-5.6-5.3-11.6-10.8-14.1c-3.2-1.4-6.7-1.5-10.1-2.2c-5.4-1.1-10.4-3.9-14.2-7.8
		c-2.1-2.2-3.8-4.7-6.1-6.5c-3.3-2.6-7.4-3.6-11.5-4.4c-29.6-5.9-61-2.6-88.7,9.3c-3.8,1.6-8.1,4-8.8,8.1l0.7,0.5
		c-4,1.1-8.1,2.3-12.1,3.4c-1.1,0.3-2.4,0.7-3,1.7c-0.5,0.9-0.4,2.1-0.9,3c-1,1.9-3.8,1.8-5.4,3.2c-3.1,2.6-0.4,7.4,0,11.4
		c0.7,6.6-5.2,11.8-7.5,18c-2.5,6.8-0.4,14.3,1.6,21.2c0.5,1.7,1.1,3.5,2.2,4.9c0.9,1.1,2.1,1.8,2.9,2.9c1,1.3,1.4,2.9,1.8,4.4
		c1.2,4.5,2.5,9.1,3.7,13.6c1.2-4.6,2.5-9.1,3.7-13.7c1.7,3.1,3.7,6.6,7.2,7.4c0.6,3.2,2.1,6.3,4.3,8.8c0.3-4.1,0.6-8.2,1-12.3
		c0-0.5,0.1-1.1,0.6-1.4c0.7-0.4,1.4,0.3,1.9,1c1.1,1.6,2.2,3.2,3.3,4.8c1.4-0.3,1.3-2.3,1.1-3.8c-0.2-1.4,0.6-3.5,1.9-3
		c0.8,0.3,1,1.3,1.5,1.9c1.3,1.4,3.9,0.2,4.6-1.7c0.7-1.8,0.4-3.8,0.8-5.7c0.4-1.9,2.3-3.8,4.1-3c0,2.9,0.1,5.7,0.1,8.6
		c0,0.9,0,1.9,0.6,2.6c1.4,1.7,4.4,0.2,4.9-2c0.5-2.1-0.4-4.3-0.6-6.5c-0.3-2.2,0.5-4.9,2.7-5.4c0,5.5,1.7,11,4.7,15.7
		c2.5-2.3,1.5-6.3,0.9-9.6c-0.6-3.3,0.3-7.9,3.7-8c1.2,6.7,2.8,13.3,4.9,19.9c3.2-1.4,4-5.5,3.7-8.9c-0.2-3.4-1-7.1,0.5-10.2
		c1.3,5.1,2.5,10.2,3.8,15.3c0.3,1.3,1.4,2.9,2.5,2.3c0.3-4.6,0.6-9.3,1-13.9c1-0.6,2.2-0.8,3.3-0.6c0.1,0.2,0.2,0.4,0.4,0.6
		c0.2,0.4,0.4,0.7,0.7,1.1l0.1,0.1l0,0.1l0.1,0.1l0,0.1l0,0l0,0.1c0,0.2,0.1,0.5,0.1,0.9c0.1,0.7,0.1,1.4,0.1,2.2
		c0.1,1.5,0.1,3.2,0.1,4.8c0,3.2,0,6.5-0.1,9.8l-0.1,4.9c-0.1,1.6-0.1,3.3-0.2,4.9l13.8-0.3c-0.1-1.7-0.3-3.4-0.5-5.1l-0.5-5
		c-0.4-3.4-0.8-6.7-1.2-10.1c-0.1-0.6-0.2-1.2-0.3-1.9c0.1-0.1,0.2-0.3,0.3-0.4c2.4-2.6,6.5-2.4,10-1.9c1.3,2.1,3.1,4.5,5.5,4.4
		c2.8-0.2,4.1-3.5,5-6.1c0.9-2.7,2.9-5.8,5.6-5.2c0.6,4.1,2.9,8,6.3,10.4c0.3-3,0.7-6,1-9c0.1-0.7,0.2-1.4,0.6-1.9
		c1.4-1.9,4.4,0.2,5,2.5c0.6,2.3,0.4,5,2.2,6.5c-0.1-4.7-0.2-9.4-0.2-14c1.5,0.1,2.3,1.8,2.8,3.2c1.6,5.1,3.3,10.2,4.9,15.3
		c2.4-5.4,2.4-11.9-0.1-17.3c2.7,5.6,5.5,11.3,8.2,16.9c0.6-5.3,0.5-10.6-0.2-15.9c1.4,3.9,2.9,7.7,4.3,11.6
		c0.3,0.9,0.8,1.8,1.6,2.1c1.9,0.5,2.5-2.6,2-4.5c1.5,1.6,2.9,3.2,4.4,4.8c0.6-4.7,0.4-9.6-0.5-14.3c2.9,3.3,5.1,7.2,6.5,11.3
		c0.6-2.5,1.6-4.9,2.9-7.1c0.9,0.5,1.8,1.1,2.8,1.6c-0.3-8.5,5-16.3,6-24.8C194.8,94.9,191.3,86.6,187.9,78.7z M96.2,130.9
		c0,0-0.1-0.1-0.1-0.1c-0.1-0.1-0.1-0.2-0.2-0.3l-0.1-0.1c0,0,0-0.1-0.1-0.1l0.1,0.1l0.2,0.3l0.1,0.1L96.2,130.9
		C96.3,130.9,96.1,130.8,96.2,130.9L96.2,130.9z"/>
	<g>
		<g>
			<path class="st1" d="M93.2,159.2c0.1-1.6,0.1-3.3,0.2-4.9l0.1-4.9c0.1-3.3,0.1-6.6,0.1-9.8c0-1.6,0-3.2-0.1-4.8
				c0-0.8-0.1-1.5-0.1-2.2c0-0.3-0.1-0.7-0.1-0.9l0-0.1l0,0l0,0c0,0,0,0,0,0c0,0,0,0,0,0c0,0,0,0.1,0.1,0.1c0,0,0.1,0.1,0.1,0.2
				l0.1,0.1c0.1,0.1,0.1,0.2,0.2,0.3c0,0,0.1,0.1,0.1,0.1l0.1,0.1c-0.2-0.2-0.1-0.1-0.1-0.1l0-0.1l-0.1-0.1l-0.2-0.3l-0.3-0.4
				l-0.1-0.1l0-0.1l-0.1-0.1c-0.2-0.4-0.5-0.8-0.7-1.1c-0.4-0.7-0.9-1.5-1.3-2.2c-0.9-1.5-1.7-2.9-2.5-4.4
				c-3.3-5.9-6.5-11.8-9.5-17.8c-0.8-1.5-1.5-3-2.2-4.5c-0.7-1.5-1.4-3.1-2.1-4.6c-0.7-1.6-1.3-3.1-1.9-4.8
				c-0.1-0.4-0.3-0.8-0.4-1.2c-0.1-0.4-0.3-0.8-0.4-1.3c-0.1-0.5-0.2-0.9-0.3-1.4l-0.1-0.4c0-0.1,0-0.2-0.1-0.4c0-0.3,0-0.6-0.1-0.8
				l0.1,0.4c-0.1-0.5-0.3-1-0.4-1.5l-0.4-1.5c-0.3-1-0.6-2.1-1-3.1c-0.7-2-1.4-4.1-2.2-6.1c-0.8-2-1.7-4-2.7-5.9
				c-0.3-0.5-0.5-0.9-0.8-1.4c-0.1-0.2-0.3-0.5-0.4-0.7c-0.1-0.2-0.3-0.5-0.4-0.7c-0.3-0.5-0.6-0.9-1-1.3L61.5,64L61,63.4l0.6,0.5
				l0.6,0.6c0.4,0.4,0.8,0.8,1.1,1.2c0.2,0.2,0.4,0.4,0.5,0.6c0.2,0.2,0.4,0.4,0.5,0.6c0.3,0.4,0.7,0.9,1,1.3
				c1.3,1.8,2.4,3.7,3.5,5.6c1.1,1.9,2.1,3.9,3,5.9c0.5,1,0.9,2,1.4,3l0.7,1.5c0.2,0.5,0.4,1,0.6,1.5l0.1,0.4c0,0.1,0.1,0.3,0.1,0.4
				c0,0.1,0,0.1,0.1,0.2l0.1,0.2c0.1,0.3,0.3,0.7,0.4,1c0.1,0.3,0.3,0.7,0.5,1.1c0.2,0.4,0.4,0.7,0.5,1.1c0.7,1.4,1.6,2.8,2.4,4.2
				c0.9,1.4,1.7,2.8,2.6,4.2c0.9,1.4,1.8,2.7,2.7,4.1c3.7,5.4,7.6,10.8,11.6,16.1c1,1.3,2,2.6,3,3.9c0.5,0.6,1,1.3,1.5,1.9
				c0.3,0.3,0.5,0.6,0.7,0.9l0.1,0.1l0,0.1l0,0l0.1,0.1l0.1,0.2l0.1,0.1l0.1,0.1c0,0,0.1,0.1-0.1-0.1l0.1,0.1l0.2,0.2
				c0.1,0.1,0.2,0.3,0.3,0.4c0.1,0.1,0.1,0.2,0.2,0.3c0.1,0.2,0.2,0.4,0.3,0.5c0.1,0.1,0.1,0.3,0.2,0.4l0.1,0.3l0.1,0.2l0,0.1
				l0.1,0.3l0.1,0.5c0.2,0.6,0.3,1.1,0.4,1.6c0.2,1,0.4,1.8,0.5,2.7c0.3,1.8,0.6,3.5,0.8,5.2c0.5,3.4,0.9,6.7,1.2,10.1l0.5,5
				c0.2,1.7,0.3,3.3,0.5,5.1L93.2,159.2z"/>
			<path class="st1" d="M96.8,133c0,0,0.6-0.3,1.6-0.9c0.5-0.3,1.1-0.7,1.8-1.1c0.7-0.4,1.5-0.9,2.3-1.4c0.9-0.5,1.8-1.1,2.8-1.7
				c0.5-0.3,1-0.6,1.5-0.9c0.5-0.3,1.1-0.6,1.6-0.9c0.5-0.3,1.1-0.6,1.7-1c0.6-0.3,1.1-0.7,1.7-1c0.6-0.3,1.2-0.6,1.8-1
				c0.6-0.3,1.2-0.6,1.8-0.9l0.9-0.5l0.9-0.4c0.6-0.3,1.2-0.6,1.8-0.8c1.2-0.5,2.4-1.1,3.6-1.5c0.6-0.2,1.2-0.5,1.7-0.7
				c0.6-0.2,1.1-0.4,1.7-0.6c0.3-0.1,0.5-0.2,0.8-0.3c0.3-0.1,0.5-0.2,0.8-0.2c0.5-0.1,1-0.3,1.5-0.4c0.2-0.1,0.5-0.1,0.7-0.2
				c0.2-0.1,0.5-0.1,0.7-0.2c0.4-0.1,0.9-0.2,1.3-0.3c0.4-0.1,0.8-0.2,1.1-0.2c0.3-0.1,0.7-0.1,1-0.2c1.1-0.2,1.8-0.3,1.8-0.3
				s-0.6,0.2-1.7,0.6c-0.3,0.1-0.6,0.2-0.9,0.3c-0.3,0.1-0.7,0.3-1,0.4c-0.4,0.2-0.8,0.3-1.2,0.5c-0.2,0.1-0.4,0.2-0.6,0.3
				c-0.2,0.1-0.4,0.2-0.7,0.3c-0.4,0.2-0.9,0.4-1.4,0.7c-0.2,0.1-0.5,0.2-0.7,0.4c-0.2,0.1-0.5,0.3-0.7,0.4c-0.5,0.3-1,0.5-1.5,0.8
				c-0.5,0.3-1,0.6-1.6,0.9c-1.1,0.6-2.1,1.3-3.2,2c-0.5,0.4-1.1,0.7-1.6,1.1l-0.8,0.6l-0.8,0.6c-0.5,0.4-1,0.8-1.6,1.2
				c-0.5,0.4-1,0.8-1.5,1.2c-0.5,0.4-1,0.8-1.5,1.2c-0.5,0.4-1,0.8-1.4,1.2c-0.5,0.4-0.9,0.8-1.4,1.2c-0.4,0.4-0.9,0.8-1.3,1.1
				c-0.9,0.7-1.7,1.5-2.4,2.1c-0.8,0.7-1.4,1.3-2.1,1.8c-0.6,0.5-1.2,1-1.6,1.4c-0.9,0.8-1.4,1.2-1.4,1.2L96.8,133z"/>
			<path class="st1" d="M85.6,115.9c0,0-0.9-0.3-2.3-0.8c-0.7-0.3-1.6-0.6-2.7-0.9c-1.1-0.4-2.2-0.8-3.5-1.3c-1.3-0.5-2.7-1-4.1-1.6
				c-1.4-0.6-3-1.2-4.5-1.8c-0.8-0.3-1.6-0.6-2.4-0.9c-0.8-0.3-1.6-0.6-2.4-0.9c-0.8-0.3-1.7-0.6-2.5-0.9c-0.4-0.2-0.8-0.3-1.3-0.5
				c-0.4-0.2-0.8-0.3-1.3-0.4l-1.3-0.4c-0.4-0.1-0.8-0.3-1.3-0.4c-0.8-0.3-1.7-0.5-2.5-0.8c-0.8-0.2-1.7-0.4-2.5-0.6
				c-0.4-0.1-0.8-0.2-1.2-0.3c-0.4-0.1-0.8-0.2-1.2-0.2c-0.4-0.1-0.8-0.2-1.2-0.2c-0.4-0.1-0.8-0.1-1.2-0.2
				c-0.8-0.1-1.6-0.2-2.3-0.3c-0.8-0.1-1.5-0.1-2.2-0.2c-0.7,0-1.4,0-2.1,0c-0.3,0-0.7,0-1,0c-0.3,0-0.6,0-0.9,0
				c-0.6,0-1.2,0.1-1.7,0.1c-0.5,0-1.1,0.1-1.5,0.1c-0.5,0.1-0.9,0.1-1.3,0.1c-1.6,0.2-2.5,0.3-2.5,0.3s0.9-0.2,2.4-0.6
				c0.4-0.1,0.8-0.2,1.3-0.3c0.5-0.1,1-0.2,1.5-0.3c0.5-0.1,1.1-0.2,1.7-0.3c0.3-0.1,0.6-0.1,0.9-0.1c0.3,0,0.7-0.1,1-0.1
				c0.7-0.1,1.4-0.2,2.1-0.2c0.7,0,1.5-0.1,2.3-0.1c0.8-0.1,1.6,0,2.4,0c0.4,0,0.8,0,1.3,0c0.4,0,0.8,0.1,1.3,0.1
				c0.4,0,0.9,0.1,1.3,0.1c0.4,0,0.9,0.1,1.3,0.1c0.9,0.1,1.8,0.2,2.7,0.3c0.9,0.2,1.8,0.3,2.7,0.5c0.5,0.1,0.9,0.2,1.3,0.3l1.3,0.3
				c0.4,0.1,0.9,0.2,1.3,0.3c0.4,0.1,0.9,0.2,1.3,0.3c0.9,0.2,1.8,0.4,2.6,0.6c0.9,0.2,1.7,0.4,2.6,0.6c0.8,0.2,1.7,0.4,2.5,0.6
				c1.6,0.4,3.2,0.8,4.7,1.2c1.5,0.4,2.9,0.7,4.2,1c1.3,0.3,2.5,0.6,3.5,0.8c1,0.2,2,0.4,2.8,0.6c1.5,0.3,2.4,0.5,2.4,0.5
				L85.6,115.9z"/>
			<path class="st1" d="M76.9,95.5c0,0,0.8-0.3,2.1-0.8c0.3-0.1,0.7-0.3,1.1-0.4c0.1,0,0.2-0.1,0.3-0.1c0.1,0,0.2-0.1,0.3-0.1
				c0.2-0.1,0.4-0.2,0.6-0.3c0.4-0.2,0.9-0.4,1.3-0.6c0.2-0.1,0.5-0.2,0.7-0.3c0.2-0.1,0.5-0.3,0.8-0.4c0.5-0.3,1.1-0.5,1.6-0.8
				c0.6-0.3,1.1-0.6,1.7-1c0.3-0.2,0.6-0.3,0.9-0.5c0.3-0.2,0.6-0.4,0.9-0.6c0.6-0.4,1.2-0.8,1.8-1.2c0.6-0.4,1.2-0.9,1.9-1.3
				c0.6-0.5,1.3-0.9,1.9-1.4c1.3-0.9,2.6-1.9,4-2.8c0.7-0.5,1.4-0.9,2.1-1.4c0.3-0.2,0.7-0.4,1-0.7c0.4-0.2,0.7-0.4,1.1-0.6
				c0.4-0.2,0.7-0.4,1.1-0.6l0.5-0.3c0.2-0.1,0.4-0.2,0.5-0.3c0.7-0.4,1.4-0.7,2.1-1.1c0.7-0.4,1.4-0.6,2.1-1c0.7-0.3,1.3-0.6,2-0.9
				c0.7-0.3,1.3-0.5,1.9-0.7c0.3-0.1,0.6-0.2,0.9-0.4c0.3-0.1,0.6-0.2,0.9-0.3c1.2-0.4,2.2-0.7,3.2-1c1-0.3,1.8-0.5,2.5-0.7
				c1.4-0.4,2.2-0.6,2.2-0.6s-0.7,0.3-2,0.9c-0.7,0.3-1.4,0.6-2.3,1c-0.9,0.4-1.9,0.9-3,1.5c-0.3,0.1-0.6,0.3-0.8,0.4
				c-0.3,0.2-0.6,0.3-0.8,0.5c-0.6,0.3-1.2,0.6-1.8,1c-0.6,0.3-1.2,0.7-1.8,1.1c-0.6,0.4-1.2,0.8-1.8,1.2c-0.6,0.4-1.2,0.9-1.8,1.3
				l-0.5,0.3l-0.5,0.4c-0.3,0.2-0.6,0.5-0.9,0.7c-0.3,0.2-0.6,0.5-0.9,0.7c-0.3,0.3-0.6,0.5-0.9,0.8c-0.6,0.5-1.2,1-1.8,1.6
				c-1.2,1.1-2.3,2.2-3.5,3.3c-0.6,0.6-1.2,1.1-1.7,1.6c-0.6,0.5-1.2,1.1-1.7,1.6c-0.6,0.5-1.2,1-1.7,1.5c-0.3,0.2-0.6,0.5-0.9,0.7
				c-0.3,0.2-0.6,0.5-0.9,0.7c-0.6,0.4-1.1,0.9-1.7,1.3c-0.6,0.4-1.1,0.8-1.6,1.1c-0.3,0.2-0.5,0.4-0.8,0.5
				c-0.3,0.2-0.5,0.3-0.8,0.5c-0.5,0.3-1,0.6-1.4,0.9c-0.2,0.1-0.4,0.3-0.7,0.4c-0.1,0.1-0.2,0.1-0.3,0.2c-0.1,0.1-0.2,0.1-0.3,0.2
				c-0.4,0.2-0.7,0.4-1,0.6c-1.2,0.7-2,1.1-2,1.1L76.9,95.5z"/>
			<path class="st1" d="M88.6,118.3c0,0,0.2-0.2,0.5-0.7c0.2-0.2,0.5-0.6,0.8-1c0.3-0.3,0.6-0.7,1-1.2c0.8-0.8,1.8-1.8,2.9-2.8
				c1.2-1,2.5-2.1,4-3.2c3-2.2,6.6-4.5,10.5-6.7c4-2.2,8.2-4.3,12.6-6.3c8.7-3.9,17.7-7.2,24.6-9.1c3.4-1,6.4-1.6,8.4-1.8
				c1-0.1,1.9-0.1,2.4-0.1c0.3,0,0.5,0,0.6,0.1c0.1,0,0.2,0,0.2,0s-0.1,0-0.2,0c-0.1,0-0.4,0-0.6,0c-0.6,0-1.4,0.1-2.4,0.3
				c-2,0.4-4.8,1.3-8.1,2.6c-6.6,2.5-15.1,6.6-23.3,11.3c-4.1,2.3-8,4.8-11.6,7.3c-3.6,2.5-6.8,5-9.3,7.2c-1.3,1.1-2.4,2.2-3.3,3.2
				c-0.9,1-1.7,1.8-2.2,2.6c-0.3,0.4-0.5,0.7-0.7,1c-0.2,0.3-0.3,0.5-0.4,0.7c-0.3,0.5-0.4,0.7-0.4,0.7L88.6,118.3z"/>
		</g>
		<path class="st2" d="M36,63c-4,1.1-8.1,2.3-12.1,3.4c-1.1,0.3-2.4,0.7-3,1.7c-0.5,0.9-0.4,2.1-0.9,3c-1,1.9-3.8,1.8-5.4,3.2
			c-3.1,2.6-0.4,7.4,0,11.4c0.7,6.6-5.2,11.8-7.5,18c-2.5,6.8-0.4,14.3,1.6,21.2c0.5,1.7,1.1,3.5,2.2,4.9c0.9,1.1,2.1,1.8,2.9,2.9
			c1,1.3,1.4,2.9,1.8,4.4c1.2,4.5,2.5,9.1,3.7,13.6c1.2-4.6,2.5-9.1,3.7-13.7c1.7,3.1,3.7,6.6,7.2,7.4c0.6,3.2,2.1,6.3,4.3,8.8
			c0.3-4.1,0.6-8.2,1-12.3c0-0.5,0.1-1.1,0.6-1.4c0.7-0.4,1.4,0.3,1.9,1c1.1,1.6,2.2,3.2,3.3,4.8c1.4-0.3,1.3-2.3,1.1-3.8
			s0.6-3.5,1.9-3c0.8,0.3,1,1.3,1.5,1.9c1.3,1.4,3.9,0.2,4.6-1.7c0.7-1.8,0.4-3.8,0.8-5.7c0.4-1.9,2.3-3.8,4.1-3
			c0,2.9,0.1,5.7,0.1,8.6c0,0.9,0,1.9,0.6,2.6c1.4,1.7,4.4,0.2,4.9-2c0.5-2.1-0.4-4.3-0.6-6.5c-0.3-2.2,0.5-4.9,2.7-5.4
			c0,5.5,1.7,11,4.7,15.7c2.5-2.3,1.5-6.3,0.9-9.6c-0.6-3.3,0.3-7.9,3.7-8c1.2,6.7,2.8,13.3,4.9,19.9c3.2-1.4,4-5.5,3.7-8.9
			s-1-7.1,0.5-10.2c1.3,5.1,2.5,10.2,3.8,15.3c0.3,1.3,1.4,2.9,2.5,2.3c0.3-4.6,0.6-9.3,1-13.9c3.7-2.2,8.9,1.3,9.2,5.6
			c0.1,1.9-0.2,4.3,1.5,5.1c2.3,1.1,3.8-2.4,5.5-4.3c2.4-2.6,6.5-2.4,10-1.9c1.3,2.1,3.1,4.5,5.5,4.4c2.8-0.2,4.1-3.5,5-6.1
			c0.9-2.7,2.9-5.8,5.6-5.2c0.6,4.1,2.9,8,6.3,10.4c0.3-3,0.7-6,1-9c0.1-0.7,0.2-1.4,0.6-1.9c1.4-1.9,4.4,0.2,5,2.5
			c0.6,2.3,0.4,5,2.2,6.5c-0.1-4.7-0.2-9.4-0.2-14c1.5,0.1,2.3,1.8,2.8,3.2c1.6,5.1,3.3,10.2,4.9,15.3c2.4-5.4,2.4-11.9-0.1-17.3
			c2.7,5.6,5.5,11.3,8.2,16.9c0.6-5.3,0.5-10.6-0.2-15.9c1.4,3.9,2.9,7.7,4.3,11.6c0.3,0.9,0.8,1.8,1.6,2.1c1.9,0.5,2.5-2.6,2-4.5
			c1.5,1.6,2.9,3.2,4.4,4.8c0.6-4.7,0.4-9.6-0.5-14.3c2.9,3.3,5.1,7.2,6.5,11.3c0.6-2.5,1.6-4.9,2.9-7.1c0.9,0.5,1.8,1.1,2.8,1.6
			c-0.3-8.5,5-16.3,6-24.8c1-8.5-2.5-16.8-5.9-24.7c-2.4-5.6-5.3-11.6-10.8-14.1c-3.2-1.4-6.7-1.5-10.1-2.2
			c-5.4-1.1-10.4-3.9-14.2-7.8c-2.1-2.2-3.8-4.7-6.1-6.5c-3.3-2.6-7.4-3.6-11.5-4.4c-29.6-5.9-61-2.6-88.7,9.3
			c-3.8,1.6-8.1,4-8.8,8.1"/>
		<g class="st3">
			<path class="st1" d="M93.2,159.2c0.1-1.6,0.1-3.3,0.2-4.9l0.1-4.9c0.1-3.3,0.1-6.6,0.1-9.8c0-1.6,0-3.2-0.1-4.8
				c0-0.8-0.1-1.5-0.1-2.2c0-0.3-0.1-0.7-0.1-0.9l0-0.1l0,0l0,0c0,0,0,0,0,0c0,0,0,0,0,0c0,0,0,0.1,0.1,0.1c0,0,0.1,0.1,0.1,0.2
				l0.1,0.1c0.1,0.1,0.1,0.2,0.2,0.3c0,0,0.1,0.1,0.1,0.1l0.1,0.1c-0.2-0.2-0.1-0.1-0.1-0.1l0-0.1l-0.1-0.1l-0.2-0.3l-0.3-0.4
				l-0.1-0.1l0-0.1l-0.1-0.1c-0.2-0.4-0.5-0.8-0.7-1.1c-0.4-0.7-0.9-1.5-1.3-2.2c-0.9-1.5-1.7-2.9-2.5-4.4
				c-3.3-5.9-6.5-11.8-9.5-17.8c-0.8-1.5-1.5-3-2.2-4.5c-0.7-1.5-1.4-3.1-2.1-4.6c-0.7-1.6-1.3-3.1-1.9-4.8
				c-0.1-0.4-0.3-0.8-0.4-1.2c-0.1-0.4-0.3-0.8-0.4-1.3c-0.1-0.5-0.2-0.9-0.3-1.4l-0.1-0.4c0-0.1,0-0.2-0.1-0.4c0-0.3,0-0.6-0.1-0.8
				l0.1,0.4c-0.1-0.5-0.3-1-0.4-1.5l-0.4-1.5c-0.3-1-0.6-2.1-1-3.1c-0.7-2-1.4-4.1-2.2-6.1c-0.8-2-1.7-4-2.7-5.9
				c-0.3-0.5-0.5-0.9-0.8-1.4c-0.1-0.2-0.3-0.5-0.4-0.7c-0.1-0.2-0.3-0.5-0.4-0.7c-0.3-0.5-0.6-0.9-1-1.3L61.5,64L61,63.4l0.6,0.5
				l0.6,0.6c0.4,0.4,0.8,0.8,1.1,1.2c0.2,0.2,0.4,0.4,0.5,0.6c0.2,0.2,0.4,0.4,0.5,0.6c0.3,0.4,0.7,0.9,1,1.3
				c1.3,1.8,2.4,3.7,3.5,5.6c1.1,1.9,2.1,3.9,3,5.9c0.5,1,0.9,2,1.4,3l0.7,1.5c0.2,0.5,0.4,1,0.6,1.5l0.1,0.4c0,0.1,0.1,0.3,0.1,0.4
				c0,0.1,0,0.1,0.1,0.2l0.1,0.2c0.1,0.3,0.3,0.7,0.4,1c0.1,0.3,0.3,0.7,0.5,1.1c0.2,0.4,0.4,0.7,0.5,1.1c0.7,1.4,1.6,2.8,2.4,4.2
				c0.9,1.4,1.7,2.8,2.6,4.2c0.9,1.4,1.8,2.7,2.7,4.1c3.7,5.4,7.6,10.8,11.6,16.1c1,1.3,2,2.6,3,3.9c0.5,0.6,1,1.3,1.5,1.9
				c0.3,0.3,0.5,0.6,0.7,0.9l0.1,0.1l0,0.1l0,0l0.1,0.1l0.1,0.2l0.1,0.1l0.1,0.1c0,0,0.1,0.1-0.1-0.1l0.1,0.1l0.2,0.2
				c0.1,0.1,0.2,0.3,0.3,0.4c0.1,0.1,0.1,0.2,0.2,0.3c0.1,0.2,0.2,0.4,0.3,0.5c0.1,0.1,0.1,0.3,0.2,0.4l0.1,0.3l0.1,0.2l0,0.1
				l0.1,0.3l0.1,0.5c0.2,0.6,0.3,1.1,0.4,1.6c0.2,1,0.4,1.8,0.5,2.7c0.3,1.8,0.6,3.5,0.8,5.2c0.5,3.4,0.9,6.7,1.2,10.1l0.5,5
				c0.2,1.7,0.3,3.3,0.5,5.1L93.2,159.2z"/>
			<path class="st1" d="M96.8,133c0,0,0.6-0.3,1.6-0.9c0.5-0.3,1.1-0.7,1.8-1.1c0.7-0.4,1.5-0.9,2.3-1.4c0.9-0.5,1.8-1.1,2.8-1.7
				c0.5-0.3,1-0.6,1.5-0.9c0.5-0.3,1.1-0.6,1.6-0.9c0.5-0.3,1.1-0.6,1.7-1c0.6-0.3,1.1-0.7,1.7-1c0.6-0.3,1.2-0.6,1.8-1
				c0.6-0.3,1.2-0.6,1.8-0.9l0.9-0.5l0.9-0.4c0.6-0.3,1.2-0.6,1.8-0.8c1.2-0.5,2.4-1.1,3.6-1.5c0.6-0.2,1.2-0.5,1.7-0.7
				c0.6-0.2,1.1-0.4,1.7-0.6c0.3-0.1,0.5-0.2,0.8-0.3c0.3-0.1,0.5-0.2,0.8-0.2c0.5-0.1,1-0.3,1.5-0.4c0.2-0.1,0.5-0.1,0.7-0.2
				c0.2-0.1,0.5-0.1,0.7-0.2c0.4-0.1,0.9-0.2,1.3-0.3c0.4-0.1,0.8-0.2,1.1-0.2c0.3-0.1,0.7-0.1,1-0.2c1.1-0.2,1.8-0.3,1.8-0.3
				s-0.6,0.2-1.7,0.6c-0.3,0.1-0.6,0.2-0.9,0.3c-0.3,0.1-0.7,0.3-1,0.4c-0.4,0.2-0.8,0.3-1.2,0.5c-0.2,0.1-0.4,0.2-0.6,0.3
				c-0.2,0.1-0.4,0.2-0.7,0.3c-0.4,0.2-0.9,0.4-1.4,0.7c-0.2,0.1-0.5,0.2-0.7,0.4c-0.2,0.1-0.5,0.3-0.7,0.4c-0.5,0.3-1,0.5-1.5,0.8
				c-0.5,0.3-1,0.6-1.6,0.9c-1.1,0.6-2.1,1.3-3.2,2c-0.5,0.4-1.1,0.7-1.6,1.1l-0.8,0.6l-0.8,0.6c-0.5,0.4-1,0.8-1.6,1.2
				c-0.5,0.4-1,0.8-1.5,1.2c-0.5,0.4-1,0.8-1.5,1.2c-0.5,0.4-1,0.8-1.4,1.2c-0.5,0.4-0.9,0.8-1.4,1.2c-0.4,0.4-0.9,0.8-1.3,1.1
				c-0.9,0.7-1.7,1.5-2.4,2.1c-0.8,0.7-1.4,1.3-2.1,1.8c-0.6,0.5-1.2,1-1.6,1.4c-0.9,0.8-1.4,1.2-1.4,1.2L96.8,133z"/>
			<path class="st1" d="M85.6,115.9c0,0-0.9-0.3-2.3-0.8c-0.7-0.3-1.6-0.6-2.7-0.9c-1.1-0.4-2.2-0.8-3.5-1.3c-1.3-0.5-2.7-1-4.1-1.6
				c-1.4-0.6-3-1.2-4.5-1.8c-0.8-0.3-1.6-0.6-2.4-0.9c-0.8-0.3-1.6-0.6-2.4-0.9c-0.8-0.3-1.7-0.6-2.5-0.9c-0.4-0.2-0.8-0.3-1.3-0.5
				c-0.4-0.2-0.8-0.3-1.3-0.4l-1.3-0.4c-0.4-0.1-0.8-0.3-1.3-0.4c-0.8-0.3-1.7-0.5-2.5-0.8c-0.8-0.2-1.7-0.4-2.5-0.6
				c-0.4-0.1-0.8-0.2-1.2-0.3c-0.4-0.1-0.8-0.2-1.2-0.2c-0.4-0.1-0.8-0.2-1.2-0.2c-0.4-0.1-0.8-0.1-1.2-0.2
				c-0.8-0.1-1.6-0.2-2.3-0.3c-0.8-0.1-1.5-0.1-2.2-0.2c-0.7,0-1.4,0-2.1,0c-0.3,0-0.7,0-1,0c-0.3,0-0.6,0-0.9,0
				c-0.6,0-1.2,0.1-1.7,0.1c-0.5,0-1.1,0.1-1.5,0.1c-0.5,0.1-0.9,0.1-1.3,0.1c-1.6,0.2-2.5,0.3-2.5,0.3s0.9-0.2,2.4-0.6
				c0.4-0.1,0.8-0.2,1.3-0.3c0.5-0.1,1-0.2,1.5-0.3c0.5-0.1,1.1-0.2,1.7-0.3c0.3-0.1,0.6-0.1,0.9-0.1c0.3,0,0.7-0.1,1-0.1
				c0.7-0.1,1.4-0.2,2.1-0.2c0.7,0,1.5-0.1,2.3-0.1c0.8-0.1,1.6,0,2.4,0c0.4,0,0.8,0,1.3,0c0.4,0,0.8,0.1,1.3,0.1
				c0.4,0,0.9,0.1,1.3,0.1c0.4,0,0.9,0.1,1.3,0.1c0.9,0.1,1.8,0.2,2.7,0.3c0.9,0.2,1.8,0.3,2.7,0.5c0.5,0.1,0.9,0.2,1.3,0.3l1.3,0.3
				c0.4,0.1,0.9,0.2,1.3,0.3c0.4,0.1,0.9,0.2,1.3,0.3c0.9,0.2,1.8,0.4,2.6,0.6c0.9,0.2,1.7,0.4,2.6,0.6c0.8,0.2,1.7,0.4,2.5,0.6
				c1.6,0.4,3.2,0.8,4.7,1.2c1.5,0.4,2.9,0.7,4.2,1c1.3,0.3,2.5,0.6,3.5,0.8c1,0.2,2,0.4,2.8,0.6c1.5,0.3,2.4,0.5,2.4,0.5
				L85.6,115.9z"/>
			<path class="st1" d="M76.9,95.5c0,0,0.8-0.3,2.1-0.8c0.3-0.1,0.7-0.3,1.1-0.4c0.1,0,0.2-0.1,0.3-0.1c0.1,0,0.2-0.1,0.3-0.1
				c0.2-0.1,0.4-0.2,0.6-0.3c0.4-0.2,0.9-0.4,1.3-0.6c0.2-0.1,0.5-0.2,0.7-0.3c0.2-0.1,0.5-0.3,0.8-0.4c0.5-0.3,1.1-0.5,1.6-0.8
				c0.6-0.3,1.1-0.6,1.7-1c0.3-0.2,0.6-0.3,0.9-0.5c0.3-0.2,0.6-0.4,0.9-0.6c0.6-0.4,1.2-0.8,1.8-1.2c0.6-0.4,1.2-0.9,1.9-1.3
				c0.6-0.5,1.3-0.9,1.9-1.4c1.3-0.9,2.6-1.9,4-2.8c0.7-0.5,1.4-0.9,2.1-1.4c0.3-0.2,0.7-0.4,1-0.7c0.4-0.2,0.7-0.4,1.1-0.6
				c0.4-0.2,0.7-0.4,1.1-0.6l0.5-0.3c0.2-0.1,0.4-0.2,0.5-0.3c0.7-0.4,1.4-0.7,2.1-1.1c0.7-0.4,1.4-0.6,2.1-1c0.7-0.3,1.3-0.6,2-0.9
				c0.7-0.3,1.3-0.5,1.9-0.7c0.3-0.1,0.6-0.2,0.9-0.4c0.3-0.1,0.6-0.2,0.9-0.3c1.2-0.4,2.2-0.7,3.2-1c1-0.3,1.8-0.5,2.5-0.7
				c1.4-0.4,2.2-0.6,2.2-0.6s-0.7,0.3-2,0.9c-0.7,0.3-1.4,0.6-2.3,1c-0.9,0.4-1.9,0.9-3,1.5c-0.3,0.1-0.6,0.3-0.8,0.4
				c-0.3,0.2-0.6,0.3-0.8,0.5c-0.6,0.3-1.2,0.6-1.8,1c-0.6,0.3-1.2,0.7-1.8,1.1c-0.6,0.4-1.2,0.8-1.8,1.2c-0.6,0.4-1.2,0.9-1.8,1.3
				l-0.5,0.3l-0.5,0.4c-0.3,0.2-0.6,0.5-0.9,0.7c-0.3,0.2-0.6,0.5-0.9,0.7c-0.3,0.3-0.6,0.5-0.9,0.8c-0.6,0.5-1.2,1-1.8,1.6
				c-1.2,1.1-2.3,2.2-3.5,3.3c-0.6,0.6-1.2,1.1-1.7,1.6c-0.6,0.5-1.2,1.1-1.7,1.6c-0.6,0.5-1.2,1-1.7,1.5c-0.3,0.2-0.6,0.5-0.9,0.7
				c-0.3,0.2-0.6,0.5-0.9,0.7c-0.6,0.4-1.1,0.9-1.7,1.3c-0.6,0.4-1.1,0.8-1.6,1.1c-0.3,0.2-0.5,0.4-0.8,0.5
				c-0.3,0.2-0.5,0.3-0.8,0.5c-0.5,0.3-1,0.6-1.4,0.9c-0.2,0.1-0.4,0.3-0.7,0.4c-0.1,0.1-0.2,0.1-0.3,0.2c-0.1,0.1-0.2,0.1-0.3,0.2
				c-0.4,0.2-0.7,0.4-1,0.6c-1.2,0.7-2,1.1-2,1.1L76.9,95.5z"/>
			<path class="st1" d="M88.6,118.3c0,0,0.2-0.2,0.5-0.7c0.2-0.2,0.5-0.6,0.8-1c0.3-0.3,0.6-0.7,1-1.2c0.8-0.8,1.8-1.8,2.9-2.8
				c1.2-1,2.5-2.1,4-3.2c3-2.2,6.6-4.5,10.5-6.7c4-2.2,8.2-4.3,12.6-6.3c8.7-3.9,17.7-7.2,24.6-9.1c3.4-1,6.4-1.6,8.4-1.8
				c1-0.1,1.9-0.1,2.4-0.1c0.3,0,0.5,0,0.6,0.1c0.1,0,0.2,0,0.2,0s-0.1,0-0.2,0c-0.1,0-0.4,0-0.6,0c-0.6,0-1.4,0.1-2.4,0.3
				c-2,0.4-4.8,1.3-8.1,2.6c-6.6,2.5-15.1,6.6-23.3,11.3c-4.1,2.3-8,4.8-11.6,7.3c-3.6,2.5-6.8,5-9.3,7.2c-1.3,1.1-2.4,2.2-3.3,3.2
				c-0.9,1-1.7,1.8-2.2,2.6c-0.3,0.4-0.5,0.7-0.7,1c-0.2,0.3-0.3,0.5-0.4,0.7c-0.3,0.5-0.4,0.7-0.4,0.7L88.6,118.3z"/>
		</g>
	</g>
</g>
</svg>
