<?xml version="1.0" encoding="utf-8"?>
<!-- Generator: Adobe Illustrator 19.0.1, SVG Export Plug-In . SVG Version: 6.00 Build 0)  -->
<svg version="1.1" id="Layer_1" xmlns="http://www.w3.org/2000/svg" xmlns:xlink="http://www.w3.org/1999/xlink" x="0px" y="0px"
	 viewBox="-379 181 200 200" style="enable-background:new -379 181 200 200;" xml:space="preserve">
<style type="text/css">
	.st0{fill:#20300A;}
	.st1{fill:#9B9B9B;}
	.st2{fill:#3A472B;}
	.st3{fill:#FFFFFF;}
	.st4{fill:#607101;}
	.st5{fill:#2F4908;}
	.st6{opacity:0.27;}
	.st7{fill:#D1D1D1;}
	.st8{fill:#424242;}
</style>
<g>
	<path class="st0" d="M-216,215.4c-2.3-4.3-6.4-7.2-10.4-10c-2.8-2-5.6-3.9-8.4-5.9c-1.9-1.3-3.9-2.7-6.3-2.9
		c-1.7-0.1-3.3,0.4-4.7,1.3c0.1-1.9-1-3.9-2.8-3.8c-1.1,0.1-2,0.9-3.2,1.1c-2.4,0.3-3.8-2.5-5.3-4.2c-1.1-1.3-2.7-2.2-4.3-2.8
		c-5.1-2.2-11.1-2.4-16.4-0.7c-2.5-1.5-5.9-1.8-9-1.9c-8-0.1-15.9,0.3-23.9,1.1c-2,0.2-4.3,0.6-5.6,2.1c-0.9,1.1-1.1,2.5-1.4,3.9
		c-0.4,2.4-0.8,4.7-1.2,7.1c-0.1,0.7-0.2,1.4-0.6,1.9c-1,1.4-3,1.4-4.5,2.2c-3,1.5-3.5,5.8-2.3,9c0.5,1.5,1.3,2.8,2.1,4.2
		c-1.6,0.9-3.1,1.7-4.6,2.6c-3.6,2.1-7.4,4.5-8.6,8.4c-1.1,3.8,0.6,8.1-0.8,11.9c-0.4,1.1-1.1,2.1-1.4,3.3c-0.6,2-0.1,4.1,0.5,6
		c2.1,6.6,5.4,12.6,8.8,18.6c0.5,0.8,0.9,1.6,1.7,2.2c0.9,0.6,2.1,0.7,3.2,0.7c7.6,0.2,15.3,0.5,22.9,0.7l0.4-0.4
		c0.9,0,1.8-0.1,2.6-0.3c3.6-0.8,5.7-4.1,7.5-7.5c0.5,1.9,0.9,3.8,1.2,5.7c0.4,2.4,0.8,4.9,1.1,7.4c0.7,5,1.2,10.2,1.6,15.3
		c0.8,10.3,1.3,20.7,1.6,30.4c0.1,4.9,0.2,9.5,0.3,14c0,4.4,0.1,8.7,0,12.5c0,3.9-0.1,7.4-0.1,10.6c-0.1,3.1-0.2,5.9-0.2,8.1
		c-0.1,2.2-0.2,4-0.2,5.2c-0.1,1.2-0.1,1.9-0.1,1.9l10.7,0.2l0,0h1.2c0,0,0-0.7,0-1.9c0-1.2,0-3.1-0.1-5.4c-0.1-2.3-0.2-5.1-0.3-8.3
		s-0.3-6.8-0.5-10.7c-0.2-3.9-0.5-8.2-0.9-12.6c-0.3-4.5-0.7-9.2-1.2-14.1c-0.5-5.1-1-10.4-1.7-15.7v-0.1c0.1-0.2,0.2-0.6,0.4-0.9
		c0.2-0.4,0.3-0.8,0.6-1.3c0.9-1.9,2.3-4.7,4.2-8c1.9-3.3,4.2-7.1,6.8-11.1c2.3-3.6,4.8-7.4,7.3-11.2c6.2,0.4,12.5-1.2,17.7-4.6
		c0.5-0.3,1-0.7,1.4-1.3c0.7-1.1,0.3-2.6,0.1-3.9c-0.5-3.2,0.5-6.5,2.5-9c5.1-6.3,15.4-5.9,20.9-11.8c0.1-1.6-2.1-2.2-3.7-2.2
		c-2.3,0-4.5,0.1-6.8,0.1c-1.5,0-3.4-0.2-3.8-1.7c-0.4-1.4,1-2.6,2.1-3.4c4.4-3.1,8.6-6.6,12.6-10.3c0.8-0.8,1.6-1.6,2.1-2.5
		C-214.2,220.5-214.8,217.7-216,215.4z M-263.5,253.7c-0.1,0.5-0.1,1.1-0.3,1.6c-0.3,1.2-0.9,2.2-1.5,3.3
		C-264.6,257-264.1,255.4-263.5,253.7z M-283.4,265.9c-0.7,4.4-1.3,8.7-1.9,12.7c-0.1-0.5-0.2-1-0.3-1.4c-0.5-2.5-1.1-5-1.7-7.5
		c-0.6-2.5-1.3-4.9-2.1-7.3c-0.1-0.3-0.2-0.6-0.3-0.8C-287.9,263.3-285.7,264.8-283.4,265.9z M-279.9,287.9
		c0.4-5.4,0.8-11.8,1.5-18.7c0.2-0.2,0.4-0.5,0.7-0.8c0,0,0,0,0.1-0.1c2.3,0.4,4.8-0.1,6.8-1.5c1.2-0.9,2.2-2,3-3.2
		c-1,3.1-0.8,6.5,0.6,9.4l-0.2,0.8c0.3,0.1,0.7,0.2,1,0.3c-2.5,3.2-4.9,6.4-7.2,9.4c-2.3,3.1-4.5,6-6.4,8.8
		C-280.1,290.9-280,289.4-279.9,287.9z"/>
	<g>
		<g>
			<path class="st1" d="M-290.3,376.3c0,0,0-0.6,0.1-1.9c0.1-1.2,0.1-3,0.2-5.2c0.1-2.2,0.2-5,0.2-8.1c0.1-3.1,0.1-6.7,0.1-10.6
				c0-3.9,0-8.1,0-12.5s-0.1-9.1-0.3-14c-0.3-9.7-0.8-20.1-1.6-30.4c-0.4-5.2-0.9-10.3-1.6-15.3c-0.3-2.5-0.7-5-1.1-7.4
				c-0.5-2.4-0.9-4.8-1.6-7.1c-0.2-0.6-0.3-1.1-0.5-1.7c-0.2-0.6-0.4-1.1-0.6-1.7c-0.4-1.1-0.8-2.3-1.1-3.4
				c-0.8-2.2-1.5-4.4-2.2-6.5c-1.5-4.2-2.9-8.2-4.2-11.8c-1.4-3.6-2.7-7-3.9-9.9c-1.3-2.9-2.4-5.4-3.5-7.4c-0.5-1-1.1-1.9-1.5-2.6
				c-0.5-0.7-0.9-1.3-1.3-1.8c-0.8-0.9-1.2-1.4-1.2-1.4s0.4,0.5,1.3,1.4c0.4,0.5,0.9,1.1,1.4,1.8s1.1,1.6,1.7,2.5
				c1.2,1.9,2.6,4.4,4,7.2c1.5,2.8,3,6.1,4.6,9.6c1.6,3.6,3.3,7.5,5,11.6c0.9,2.1,1.7,4.2,2.6,6.4c0.4,1.1,0.9,2.2,1.4,3.3
				c0.2,0.6,0.5,1.1,0.7,1.7s0.4,1.2,0.7,1.8c0.8,2.4,1.5,4.8,2.1,7.3c0.6,2.5,1.2,5,1.7,7.5c1,5.1,1.9,10.2,2.6,15.4
				c1.5,10.4,2.7,20.8,3.6,30.5c0.5,4.9,0.9,9.6,1.2,14.1c0.3,4.5,0.6,8.7,0.9,12.6c0.2,3.9,0.4,7.5,0.5,10.7c0.1,3.2,0.2,6,0.3,8.3
				c0.1,2.3,0.1,4.2,0.1,5.4s0,1.9,0,1.9L-290.3,376.3z"/>
			<path class="st1" d="M-290.3,306.1c0,0,0.1-0.3,0.4-0.8c0.1-0.3,0.3-0.7,0.5-1.1c0.2-0.4,0.5-0.9,0.7-1.4
				c1.1-2.1,2.9-4.9,5.1-8.1c2.2-3.2,4.9-6.9,7.8-10.7c2.9-3.9,6.1-7.9,9.2-12c6.2-8.1,12.4-16.4,16.2-23c1-1.7,1.8-3.2,2.4-4.6
				c0.6-1.4,1.1-2.7,1.4-3.8c0.3-1.1,0.5-1.9,0.6-2.5c0-0.3,0-0.5,0.1-0.7c0-0.2,0-0.2,0-0.2s0,0.1,0,0.2c0,0.2,0,0.4,0,0.7
				c0,0.6-0.1,1.5-0.4,2.6c-0.2,1.1-0.6,2.4-1.2,3.9c-0.5,1.5-1.2,3.1-2.1,4.9c-3.3,7-8.8,15.8-14.5,24.4c-2.8,4.3-5.6,8.6-8.2,12.6
				c-2.6,4-4.9,7.8-6.8,11.1c-1.9,3.3-3.3,6.1-4.2,8c-0.2,0.5-0.4,0.9-0.6,1.3c-0.1,0.4-0.3,0.7-0.4,0.9c-0.2,0.6-0.3,0.9-0.3,0.9
				L-290.3,306.1z"/>
			<path class="st1" d="M-290.6,303.9c0,0,0.1-0.4,0.2-1.2c0.1-0.7,0.3-1.8,0.4-3.2c0.4-2.8,0.9-6.9,1.5-11.7
				c1.3-9.7,3-22.7,5.5-35.6c1.2-6.4,2.6-12.9,4.1-18.8c1.5-6,3.3-11.4,5.1-16c0.9-2.3,1.9-4.3,2.8-6.1c1-1.8,1.9-3.2,2.8-4.4
				c0.9-1.1,1.7-1.9,2.2-2.5c0.3-0.3,0.5-0.4,0.7-0.6c0.2-0.1,0.2-0.2,0.2-0.2s-0.1,0.1-0.2,0.2c-0.1,0.1-0.4,0.3-0.6,0.6
				c-0.5,0.5-1.3,1.4-2.1,2.6s-1.6,2.7-2.5,4.5c-0.8,1.8-1.7,3.9-2.4,6.2c-1.5,4.6-2.9,10.1-4.1,16.1s-2.1,12.4-2.9,18.9
				c-1.6,12.9-2.6,25.9-3.3,35.6c-0.3,4.9-0.6,9-0.8,11.8c-0.1,1.4-0.2,2.6-0.3,3.3c-0.1,0.8-0.1,1.2-0.1,1.2L-290.6,303.9z"/>
			<path class="st1" d="M-283.7,254.9c0,0-0.4-0.7-1-2c-0.3-0.6-0.7-1.4-1.1-2.3c-0.4-0.9-0.9-1.9-1.4-3.1c-0.3-0.6-0.5-1.2-0.8-1.8
				c-0.1-0.3-0.3-0.6-0.4-1c-0.1-0.3-0.2-0.7-0.4-1c-0.1-0.3-0.3-0.7-0.4-1c-0.1-0.3-0.2-0.7-0.3-1.1c-0.2-0.7-0.5-1.5-0.6-2.2
				c-0.2-0.8-0.4-1.5-0.5-2.4c-0.1-0.8-0.3-1.6-0.4-2.4c0-0.4-0.1-0.8-0.1-1.2s-0.1-0.8-0.1-1.2c0-0.8-0.1-1.7-0.1-2.5
				c0-1.7,0-3.3,0.1-4.9c0-0.8,0.1-1.6,0.1-2.4c0.1-0.8,0.1-1.6,0.2-2.3c0.1-1.5,0.3-3,0.5-4.4c0.1-1.4,0.3-2.7,0.5-3.9
				c0.2-1.2,0.3-2.3,0.4-3.3c0.1-1,0.3-1.8,0.4-2.5c0.2-1.4,0.3-2.2,0.3-2.2s-0.1,0.8-0.2,2.2c0,0.7-0.1,1.6-0.2,2.6
				c-0.1,1-0.1,2.1-0.2,3.3s-0.1,2.5-0.2,3.9c0,1.4-0.1,2.9-0.1,4.4c0,0.8,0,1.5,0,2.3c0,0.8,0,1.6,0,2.4c0,1.6,0.2,3.2,0.3,4.8
				c0.1,0.8,0.2,1.6,0.3,2.4c0,0.4,0.1,0.8,0.2,1.2c0.1,0.4,0.1,0.8,0.2,1.2c0.1,0.8,0.3,1.5,0.5,2.2c0.2,0.7,0.4,1.4,0.6,2.1
				c0.2,0.7,0.5,1.4,0.8,2c0.1,0.3,0.3,0.7,0.4,1c0.1,0.3,0.3,0.6,0.4,0.9c0.1,0.3,0.3,0.6,0.4,0.9c0.1,0.3,0.3,0.6,0.4,0.9
				c0.3,0.6,0.6,1.1,0.9,1.6c0.6,1,1.1,2,1.6,2.9c0.5,0.8,0.9,1.6,1.3,2.2c0.7,1.2,1.1,1.9,1.1,1.9L-283.7,254.9z"/>
			<path class="st1" d="M-296.3,259.7c0,0-2-1.7-5.1-4.2c-0.8-0.6-1.6-1.3-2.5-2.1c-0.9-0.7-1.8-1.5-2.7-2.4
				c-0.2-0.2-0.5-0.4-0.7-0.6c-0.2-0.2-0.5-0.5-0.7-0.7c-0.2-0.2-0.5-0.5-0.7-0.7c-0.2-0.2-0.4-0.5-0.7-0.8
				c-0.2-0.3-0.4-0.5-0.7-0.8c-0.2-0.3-0.4-0.5-0.6-0.8c-0.2-0.3-0.4-0.5-0.6-0.8l-0.4-0.8c-0.4-0.6-0.7-1.2-1-1.8
				c-0.3-0.6-0.6-1.2-0.9-1.8c-0.1-0.3-0.3-0.6-0.4-0.9s-0.2-0.6-0.4-0.9c-0.2-0.6-0.5-1.2-0.7-1.8c-0.4-1.2-0.8-2.3-1.2-3.4
				c-0.4-1.1-0.7-2.1-1-3.1c-1.2-3.8-2-6.3-2-6.3s0.9,2.5,2.3,6.2c0.3,0.9,0.7,1.9,1.1,3c0.4,1.1,0.9,2.2,1.3,3.3
				c0.2,0.6,0.5,1.1,0.8,1.7c0.1,0.3,0.3,0.6,0.4,0.9c0.1,0.3,0.3,0.6,0.4,0.9c0.3,0.6,0.6,1.2,0.9,1.7c0.3,0.6,0.6,1.1,1,1.7
				l0.6,0.8c0.2,0.3,0.4,0.5,0.6,0.8l0.6,0.7c0.2,0.2,0.4,0.5,0.7,0.7c0.2,0.2,0.4,0.5,0.7,0.7c0.2,0.2,0.5,0.4,0.7,0.6
				s0.5,0.4,0.7,0.6c0.2,0.2,0.5,0.4,0.7,0.6c0.9,0.8,1.9,1.5,2.8,2.2c0.9,0.7,1.8,1.3,2.5,1.9c3.2,2.4,5.3,4,5.3,4L-296.3,259.7z"
				/>
			<path class="st1" d="M-285.3,267c0,0,0.4-0.4,1.2-1.1c0.7-0.7,1.8-1.8,3.1-3c2.5-2.5,5.9-5.9,9-9.5c1.5-1.8,3-3.6,4.3-5.5
				c0.6-0.9,1.2-1.8,1.7-2.7c0.5-0.9,1-1.7,1.3-2.5c0.4-0.8,0.7-1.6,0.9-2.2c0.2-0.7,0.4-1.3,0.5-1.8c0.1-0.5,0.2-0.9,0.2-1.2
				c0-0.3,0-0.4,0-0.4s0,0.1,0,0.4s0,0.7,0,1.2s-0.1,1.2-0.3,1.9c-0.1,0.7-0.4,1.5-0.7,2.4c-0.3,0.9-0.7,1.8-1.1,2.7
				c-0.4,1-0.9,1.9-1.5,2.9c-1.1,2-2.4,4.1-3.7,6.1c-2.7,4-5.7,7.8-8,10.6c-1.1,1.4-2.1,2.6-2.8,3.4c-0.7,0.8-1,1.3-1,1.3
				L-285.3,267z"/>
		</g>
		<path class="st2" d="M-305.9,273.3c-7.6-0.2-15.3-0.5-22.9-0.7c-1.1,0-2.3-0.1-3.2-0.7c-0.8-0.5-1.2-1.4-1.7-2.2
			c-3.3-6-6.7-12.1-8.8-18.6c-0.6-2-1.1-4.1-0.5-6c0.3-1.2,1-2.2,1.4-3.3c1.4-3.7-0.3-8,0.8-11.9c1.2-3.9,5-6.4,8.6-8.4
			c6.9-4,14.1-8,22-8.5c4-0.2,7.9,0.5,11.9,0.4c4.2-0.2,9.3-1,12.1,2.1c1.9,2.1,2.1,5.5,4.3,7.4c-0.9,7.2,2.5,14,4,21.1
			c0.1,0.5,0.2,1.1-0.1,1.6c-0.4,0.6-1.2,0.8-1.9,0.9c-4.1,0.8-7.1,4.3-9.5,7.8c-1.7,2.6-3.3,5.3-4.7,8.1c-2.1,4.2-4.3,9.2-8.9,10.3
			c-0.9,0.2-1.7,0.2-2.6,0.3"/>
		<g>
			<path class="st3" d="M-289.1,376.3c0,0,0-0.6,0.1-1.9c0.1-1.2,0.1-3,0.2-5.2c0.1-2.2,0.2-5,0.2-8.1c0.1-3.1,0.1-6.7,0.1-10.6
				c0-3.9,0-8.1,0-12.5s-0.1-9.1-0.3-14c-0.3-9.7-0.8-20.1-1.6-30.4c-0.4-5.2-0.9-10.3-1.6-15.3c-0.3-2.5-0.7-5-1.1-7.4
				c-0.5-2.4-0.9-4.8-1.6-7.1c-0.2-0.6-0.3-1.1-0.5-1.7c-0.2-0.6-0.4-1.1-0.6-1.7c-0.4-1.1-0.8-2.3-1.1-3.4
				c-0.8-2.2-1.5-4.4-2.2-6.5c-1.5-4.2-2.9-8.2-4.2-11.8c-1.4-3.6-2.7-7-3.9-9.9c-1.3-2.9-2.4-5.4-3.5-7.4c-0.5-1-1.1-1.9-1.5-2.6
				c-0.5-0.7-0.9-1.3-1.3-1.8c-0.8-0.9-1.2-1.4-1.2-1.4s0.4,0.5,1.3,1.4c0.4,0.5,0.9,1.1,1.4,1.8s1.1,1.6,1.7,2.5
				c1.2,1.9,2.6,4.4,4,7.2c1.5,2.8,3,6.1,4.6,9.6c1.6,3.6,3.3,7.5,5,11.6c0.9,2.1,1.7,4.2,2.6,6.4c0.4,1.1,0.9,2.2,1.4,3.3
				c0.2,0.6,0.5,1.1,0.7,1.7s0.4,1.2,0.7,1.8c0.8,2.4,1.5,4.8,2.1,7.3c0.6,2.5,1.2,5,1.7,7.5c1,5.1,1.9,10.2,2.6,15.4
				c1.5,10.4,2.7,20.8,3.6,30.5c0.5,4.9,0.9,9.6,1.2,14.1c0.3,4.5,0.6,8.7,0.9,12.6c0.2,3.9,0.4,7.5,0.5,10.7c0.1,3.2,0.2,6,0.3,8.3
				c0.1,2.3,0.1,4.2,0.1,5.4s0,1.9,0,1.9L-289.1,376.3z"/>
			<path class="st3" d="M-289.2,306.1c0,0,0.1-0.3,0.4-0.8c0.1-0.3,0.3-0.7,0.5-1.1c0.2-0.4,0.5-0.9,0.7-1.4
				c1.1-2.1,2.9-4.9,5.1-8.1c2.2-3.2,4.9-6.9,7.8-10.7c2.9-3.9,6.1-7.9,9.2-12c6.2-8.1,12.4-16.4,16.2-23c1-1.7,1.8-3.2,2.4-4.6
				c0.6-1.4,1.1-2.7,1.4-3.8c0.3-1.1,0.5-1.9,0.6-2.5c0-0.3,0-0.5,0.1-0.7c0-0.2,0-0.2,0-0.2s0,0.1,0,0.2c0,0.2,0,0.4,0,0.7
				c0,0.6-0.1,1.5-0.4,2.6c-0.2,1.1-0.6,2.4-1.2,3.9c-0.5,1.5-1.2,3.1-2.1,4.9c-3.3,7-8.8,15.8-14.5,24.4c-2.8,4.3-5.6,8.6-8.2,12.6
				c-2.6,4-4.9,7.8-6.8,11.1c-1.9,3.3-3.3,6.1-4.2,8c-0.2,0.5-0.4,0.9-0.6,1.3c-0.1,0.4-0.3,0.7-0.4,0.9c-0.2,0.6-0.3,0.9-0.3,0.9
				L-289.2,306.1z"/>
			<path class="st3" d="M-289.4,303.9c0,0,0.1-0.4,0.2-1.2c0.1-0.7,0.3-1.8,0.4-3.2c0.4-2.8,0.9-6.9,1.5-11.7
				c1.3-9.7,3-22.7,5.5-35.6c1.2-6.4,2.6-12.9,4.1-18.8c1.5-6,3.3-11.4,5.1-16c0.9-2.3,1.9-4.3,2.8-6.1c1-1.8,1.9-3.2,2.8-4.4
				c0.9-1.1,1.7-1.9,2.2-2.5c0.3-0.3,0.5-0.4,0.7-0.6c0.2-0.1,0.2-0.2,0.2-0.2s-0.1,0.1-0.2,0.2c-0.1,0.1-0.4,0.3-0.6,0.6
				c-0.5,0.5-1.3,1.4-2.1,2.6c-0.8,1.2-1.6,2.7-2.5,4.5c-0.8,1.8-1.7,3.9-2.4,6.2c-1.5,4.6-2.9,10.1-4.1,16.1
				c-1.2,6-2.1,12.4-2.9,18.9c-1.6,12.9-2.6,25.9-3.3,35.6c-0.3,4.9-0.6,9-0.8,11.8c-0.1,1.4-0.2,2.6-0.3,3.3
				c-0.1,0.8-0.1,1.2-0.1,1.2L-289.4,303.9z"/>
			<path class="st3" d="M-282.5,254.9c0,0-0.4-0.7-1-2c-0.3-0.6-0.7-1.4-1.1-2.3c-0.4-0.9-0.9-1.9-1.4-3.1c-0.3-0.6-0.5-1.2-0.8-1.8
				c-0.1-0.3-0.3-0.6-0.4-1c-0.1-0.3-0.2-0.7-0.4-1c-0.1-0.3-0.3-0.7-0.4-1c-0.1-0.3-0.2-0.7-0.3-1.1c-0.2-0.7-0.5-1.5-0.6-2.2
				c-0.2-0.8-0.4-1.5-0.5-2.4c-0.1-0.8-0.3-1.6-0.4-2.4c0-0.4-0.1-0.8-0.1-1.2s-0.1-0.8-0.1-1.2c0-0.8-0.1-1.7-0.1-2.5
				c0-1.7,0-3.3,0.1-4.9c0-0.8,0.1-1.6,0.1-2.4c0.1-0.8,0.1-1.6,0.2-2.3c0.1-1.5,0.3-3,0.5-4.4c0.1-1.4,0.3-2.7,0.5-3.9
				s0.3-2.3,0.4-3.3s0.3-1.8,0.4-2.5c0.2-1.4,0.3-2.2,0.3-2.2s-0.1,0.8-0.2,2.2c0,0.7-0.1,1.6-0.2,2.6s-0.1,2.1-0.2,3.3
				c-0.1,1.2-0.1,2.5-0.2,3.9c0,1.4-0.1,2.9-0.1,4.4c0,0.8,0,1.5,0,2.3c0,0.8,0,1.6,0,2.4c0,1.6,0.2,3.2,0.3,4.8
				c0.1,0.8,0.2,1.6,0.3,2.4c0,0.4,0.1,0.8,0.2,1.2c0.1,0.4,0.1,0.8,0.2,1.2c0.1,0.8,0.3,1.5,0.5,2.2c0.2,0.7,0.4,1.4,0.6,2.1
				c0.2,0.7,0.5,1.4,0.8,2c0.1,0.3,0.3,0.7,0.4,1c0.1,0.3,0.3,0.6,0.4,0.9s0.3,0.6,0.4,0.9c0.1,0.3,0.3,0.6,0.4,0.9
				c0.3,0.6,0.6,1.1,0.9,1.6c0.6,1,1.1,2,1.6,2.9c0.5,0.8,0.9,1.6,1.3,2.2c0.7,1.2,1.1,1.9,1.1,1.9L-282.5,254.9z"/>
			<path class="st3" d="M-295.1,259.7c0,0-2-1.7-5.1-4.2c-0.8-0.6-1.6-1.3-2.5-2.1c-0.9-0.7-1.8-1.5-2.7-2.4
				c-0.2-0.2-0.5-0.4-0.7-0.6c-0.2-0.2-0.5-0.5-0.7-0.7c-0.2-0.2-0.5-0.5-0.7-0.7c-0.2-0.2-0.4-0.5-0.7-0.8
				c-0.2-0.3-0.4-0.5-0.7-0.8c-0.2-0.3-0.4-0.5-0.6-0.8c-0.2-0.3-0.4-0.5-0.6-0.8l-0.4-0.8c-0.4-0.6-0.7-1.2-1-1.8
				c-0.3-0.6-0.6-1.2-0.9-1.8c-0.1-0.3-0.3-0.6-0.4-0.9c-0.1-0.3-0.2-0.6-0.4-0.9c-0.2-0.6-0.5-1.2-0.7-1.8
				c-0.4-1.2-0.8-2.3-1.2-3.4c-0.4-1.1-0.7-2.1-1-3.1c-1.2-3.8-2-6.3-2-6.3s0.9,2.5,2.3,6.2c0.3,0.9,0.7,1.9,1.1,3
				c0.4,1.1,0.9,2.2,1.3,3.3c0.2,0.6,0.5,1.1,0.8,1.7c0.1,0.3,0.3,0.6,0.4,0.9c0.1,0.3,0.3,0.6,0.4,0.9c0.3,0.6,0.6,1.2,0.9,1.7
				c0.3,0.6,0.6,1.1,1,1.7l0.6,0.8c0.2,0.3,0.4,0.5,0.6,0.8l0.6,0.7c0.2,0.2,0.4,0.5,0.7,0.7c0.2,0.2,0.4,0.5,0.7,0.7
				c0.2,0.2,0.5,0.4,0.7,0.6c0.2,0.2,0.5,0.4,0.7,0.6c0.2,0.2,0.5,0.4,0.7,0.6c0.9,0.8,1.9,1.5,2.8,2.2s1.8,1.3,2.5,1.9
				c3.2,2.4,5.3,4,5.3,4L-295.1,259.7z"/>
			<path class="st3" d="M-284.1,267c0,0,0.4-0.4,1.2-1.1c0.7-0.7,1.8-1.8,3.1-3c2.5-2.5,5.9-5.9,9-9.5c1.5-1.8,3-3.6,4.3-5.5
				c0.6-0.9,1.2-1.8,1.7-2.7c0.5-0.9,1-1.7,1.3-2.5c0.4-0.8,0.7-1.6,0.9-2.2c0.2-0.7,0.4-1.3,0.5-1.8s0.2-0.9,0.2-1.2
				c0-0.3,0-0.4,0-0.4s0,0.1,0,0.4s0,0.7,0,1.2s-0.1,1.2-0.3,1.9c-0.1,0.7-0.4,1.5-0.7,2.4c-0.3,0.9-0.7,1.8-1.1,2.7
				c-0.4,1-0.9,1.9-1.5,2.9c-1.1,2-2.4,4.1-3.7,6.1c-2.7,4-5.7,7.8-8,10.6c-1.1,1.4-2.1,2.6-2.8,3.4c-0.7,0.8-1,1.3-1,1.3
				L-284.1,267z"/>
		</g>
		<path class="st2" d="M-269.6,274.2c7.9,2.3,16.7,0.9,23.5-3.6c0.5-0.3,1-0.7,1.4-1.3c0.7-1.1,0.3-2.6,0.1-3.9
			c-0.5-3.2,0.5-6.5,2.5-9c5.1-6.3,15.4-5.9,20.9-11.8c0.1-1.6-2.1-2.2-3.7-2.2c-2.3,0-4.5,0.1-6.8,0.1c-1.5,0-3.4-0.2-3.8-1.7
			c-0.4-1.4,1-2.6,2.1-3.4c4.4-3.1,8.6-6.6,12.6-10.3c0.8-0.8,1.6-1.6,2.1-2.5c1.2-2.3,0.5-5.1-0.7-7.4c-2.3-4.3-6.4-7.2-10.4-10
			c-2.8-2-5.6-3.9-8.4-5.9c-1.9-1.3-3.9-2.7-6.3-2.9c-3.2-0.2-6.2,1.9-8.1,4.5c-3.3,4.3-4.7,10.2-3.6,15.5c0.3,1.6,0.9,3.4,0,4.9
			c-0.3,0.6-0.9,1.1-1.3,1.5c-2.1,2.1-3.6,4.7-5.1,7.2c-0.7,1.3-1.5,2.6-1.6,4c-0.2,2.3,1.3,4.6,0.9,6.9c-0.2,1.5-1.2,2.8-1.7,4.2
			c-0.9,2.7-0.2,5.8-0.9,8.5c-0.7,2.5-2.5,4.4-3.6,6.8c-1.6,3.4-1.7,7.5,0,10.9"/>
		<path class="st4" d="M-282.4,267.8c2.9,1.6,6.7,1.3,9.4-0.6c1.7-1.2,2.9-2.9,3.9-4.7c3.1-5.5,4.7-11.8,6.1-18
			c0.4-1.9,0.9-3.9,1.9-5.7c0.9-1.5,2.1-2.7,3.1-4c4.4-5.8,5-13.5,4.9-20.8c-0.1-2.6-0.2-5.4,0.9-7.8c0.8-1.9,2.4-3.5,2.9-5.6
			s-0.6-4.8-2.7-4.7c-1.1,0.1-2,0.9-3.2,1.1c-2.4,0.3-3.8-2.5-5.3-4.2c-1.1-1.3-2.7-2.2-4.3-2.8c-8.8-3.8-19.8-1.5-26.3,5.4
			c-1.7,1.8-3.2,3.9-5.2,5.3c-2.2,1.5-4.8,2.1-7,3.6c-2.2,1.5-3.9,4.4-2.6,6.7c1.3,2.4,4.9,2.8,5.9,5.4c0.4,1.1,0.2,2.3-0.1,3.5
			c-1.4,5.4-4.7,10.9-3,16.3c1.4,4.6,6.3,7.8,7.3,12.5c0.5,2.1,0.1,4.2,0.4,6.3c0.9,6.5,7.3,10.7,13.4,13"/>
		<path class="st5" d="M-294.9,255.8c-1.9-0.8-3.9,0.8-5.7,1.8c-3.2,1.9-7.1,2.2-10.8,1.8c-3.7-0.4-7.3-1.3-10.9-1.8
			c-2.1-0.3-4.2-0.4-6.1-1.3c-1.3-0.6-2.5-1.5-3.5-2.5c-2.9-2.7-5.4-5.9-6.5-9.7c-1.1-3.8-0.7-8.1,1.8-11.2c2.4-3,6.2-4.4,9.8-5.7
			c0.6-0.2,1.3-0.5,1.7-1.1c0.4-0.7,0.2-1.5,0-2.3c-1.1-3.2-3.4-5.9-4.5-9.1c-1.2-3.2-0.8-7.5,2.3-9c1.5-0.8,3.6-0.8,4.5-2.2
			c0.4-0.6,0.5-1.2,0.6-1.9c0.4-2.4,0.8-4.7,1.2-7.1c0.2-1.4,0.5-2.8,1.4-3.9c1.3-1.6,3.6-2,5.6-2.2c7.9-0.8,15.9-1.2,23.9-1.1
			c4.2,0,9,0.6,11.3,4c2.4,3.6,0.8,8.3,0.4,12.5c-0.2,2-0.1,4-0.8,5.9c-0.5,1.3-1.4,2.5-1.9,3.8c-1,2.3-1,4.9-0.9,7.4
			c0.1,3.1,0.1,6.1,0.2,9.2c0,1.4,0,2.8-0.5,4c-0.4,1-1.2,1.8-1.9,2.6c-2.9,3.4-4.7,7.7-5.2,12.2c-0.3,2.7-0.7,6.2-3.3,6.9"/>
		<g class="st6">
			<path class="st7" d="M-290.3,376.3c0,0,0-0.6,0.1-1.9c0.1-1.2,0.1-3,0.2-5.2c0.1-2.2,0.2-5,0.2-8.1c0.1-3.1,0.1-6.7,0.1-10.6
				c0-3.9,0-8.1,0-12.5s-0.1-9.1-0.3-14c-0.3-9.7-0.8-20.1-1.6-30.4c-0.4-5.2-0.9-10.3-1.6-15.3c-0.3-2.5-0.7-5-1.1-7.4
				c-0.5-2.4-0.9-4.8-1.6-7.1c-0.2-0.6-0.3-1.1-0.5-1.7c-0.2-0.6-0.4-1.1-0.6-1.7c-0.4-1.1-0.8-2.3-1.1-3.4
				c-0.8-2.2-1.5-4.4-2.2-6.5c-1.5-4.2-2.9-8.2-4.2-11.8c-1.4-3.6-2.7-7-3.9-9.9c-1.3-2.9-2.4-5.4-3.5-7.4c-0.5-1-1.1-1.9-1.5-2.6
				c-0.5-0.7-0.9-1.3-1.3-1.8c-0.8-0.9-1.2-1.4-1.2-1.4s0.4,0.5,1.3,1.4c0.4,0.5,0.9,1.1,1.4,1.8s1.1,1.6,1.7,2.5
				c1.2,1.9,2.6,4.4,4,7.2c1.5,2.8,3,6.1,4.6,9.6c1.6,3.6,3.3,7.5,5,11.6c0.9,2.1,1.7,4.2,2.6,6.4c0.4,1.1,0.9,2.2,1.4,3.3
				c0.2,0.6,0.5,1.1,0.7,1.7s0.4,1.2,0.7,1.8c0.8,2.4,1.5,4.8,2.1,7.3c0.6,2.5,1.2,5,1.7,7.5c1,5.1,1.9,10.2,2.6,15.4
				c1.5,10.4,2.7,20.8,3.6,30.5c0.5,4.9,0.9,9.6,1.2,14.1c0.3,4.5,0.6,8.7,0.9,12.6c0.2,3.9,0.4,7.5,0.5,10.7c0.1,3.2,0.2,6,0.3,8.3
				c0.1,2.3,0.1,4.2,0.1,5.4s0,1.9,0,1.9L-290.3,376.3z"/>
			<path class="st7" d="M-290.3,306.1c0,0,0.1-0.3,0.4-0.8c0.1-0.3,0.3-0.7,0.5-1.1c0.2-0.4,0.5-0.9,0.7-1.4
				c1.1-2.1,2.9-4.9,5.1-8.1c2.2-3.2,4.9-6.9,7.8-10.7c2.9-3.9,6.1-7.9,9.2-12c6.2-8.1,12.4-16.4,16.2-23c1-1.7,1.8-3.2,2.4-4.6
				c0.6-1.4,1.1-2.7,1.4-3.8c0.3-1.1,0.5-1.9,0.6-2.5c0-0.3,0-0.5,0.1-0.7c0-0.2,0-0.2,0-0.2s0,0.1,0,0.2c0,0.2,0,0.4,0,0.7
				c0,0.6-0.1,1.5-0.4,2.6c-0.2,1.1-0.6,2.4-1.2,3.9c-0.5,1.5-1.2,3.1-2.1,4.9c-3.3,7-8.8,15.8-14.5,24.4c-2.8,4.3-5.6,8.6-8.2,12.6
				c-2.6,4-4.9,7.8-6.8,11.1c-1.9,3.3-3.3,6.1-4.2,8c-0.2,0.5-0.4,0.9-0.6,1.3c-0.1,0.4-0.3,0.7-0.4,0.9c-0.2,0.6-0.3,0.9-0.3,0.9
				L-290.3,306.1z"/>
			<path class="st7" d="M-290.6,303.9c0,0,0.1-0.4,0.2-1.2c0.1-0.7,0.3-1.8,0.4-3.2c0.4-2.8,0.9-6.9,1.5-11.7
				c1.3-9.7,3-22.7,5.5-35.6c1.2-6.4,2.6-12.9,4.1-18.8c1.5-6,3.3-11.4,5.1-16c0.9-2.3,1.9-4.3,2.8-6.1c1-1.8,1.9-3.2,2.8-4.4
				c0.9-1.1,1.7-1.9,2.2-2.5c0.3-0.3,0.5-0.4,0.7-0.6c0.2-0.1,0.2-0.2,0.2-0.2s-0.1,0.1-0.2,0.2c-0.1,0.1-0.4,0.3-0.6,0.6
				c-0.5,0.5-1.3,1.4-2.1,2.6s-1.6,2.7-2.5,4.5c-0.8,1.8-1.7,3.9-2.4,6.2c-1.5,4.6-2.9,10.1-4.1,16.1s-2.1,12.4-2.9,18.9
				c-1.6,12.9-2.6,25.9-3.3,35.6c-0.3,4.9-0.6,9-0.8,11.8c-0.1,1.4-0.2,2.6-0.3,3.3c-0.1,0.8-0.1,1.2-0.1,1.2L-290.6,303.9z"/>
			<path class="st7" d="M-283.7,254.9c0,0-0.4-0.7-1-2c-0.3-0.6-0.7-1.4-1.1-2.3c-0.4-0.9-0.9-1.9-1.4-3.1c-0.3-0.6-0.5-1.2-0.8-1.8
				c-0.1-0.3-0.3-0.6-0.4-1c-0.1-0.3-0.2-0.7-0.4-1c-0.1-0.3-0.3-0.7-0.4-1c-0.1-0.3-0.2-0.7-0.3-1.1c-0.2-0.7-0.5-1.5-0.6-2.2
				c-0.2-0.8-0.4-1.5-0.5-2.4c-0.1-0.8-0.3-1.6-0.4-2.4c0-0.4-0.1-0.8-0.1-1.2s-0.1-0.8-0.1-1.2c0-0.8-0.1-1.7-0.1-2.5
				c0-1.7,0-3.3,0.1-4.9c0-0.8,0.1-1.6,0.1-2.4c0.1-0.8,0.1-1.6,0.2-2.3c0.1-1.5,0.3-3,0.5-4.4c0.1-1.4,0.3-2.7,0.5-3.9
				c0.2-1.2,0.3-2.3,0.4-3.3c0.1-1,0.3-1.8,0.4-2.5c0.2-1.4,0.3-2.2,0.3-2.2s-0.1,0.8-0.2,2.2c0,0.7-0.1,1.6-0.2,2.6
				c-0.1,1-0.1,2.1-0.2,3.3s-0.1,2.5-0.2,3.9c0,1.4-0.1,2.9-0.1,4.4c0,0.8,0,1.5,0,2.3c0,0.8,0,1.6,0,2.4c0,1.6,0.2,3.2,0.3,4.8
				c0.1,0.8,0.2,1.6,0.3,2.4c0,0.4,0.1,0.8,0.2,1.2c0.1,0.4,0.1,0.8,0.2,1.2c0.1,0.8,0.3,1.5,0.5,2.2c0.2,0.7,0.4,1.4,0.6,2.1
				c0.2,0.7,0.5,1.4,0.8,2c0.1,0.3,0.3,0.7,0.4,1c0.1,0.3,0.3,0.6,0.4,0.9c0.1,0.3,0.3,0.6,0.4,0.9c0.1,0.3,0.3,0.6,0.4,0.9
				c0.3,0.6,0.6,1.1,0.9,1.6c0.6,1,1.1,2,1.6,2.9c0.5,0.8,0.9,1.6,1.3,2.2c0.7,1.2,1.1,1.9,1.1,1.9L-283.7,254.9z"/>
			<path class="st7" d="M-296.3,259.7c0,0-2-1.7-5.1-4.2c-0.8-0.6-1.6-1.3-2.5-2.1c-0.9-0.7-1.8-1.5-2.7-2.4
				c-0.2-0.2-0.5-0.4-0.7-0.6c-0.2-0.2-0.5-0.5-0.7-0.7c-0.2-0.2-0.5-0.5-0.7-0.7c-0.2-0.2-0.4-0.5-0.7-0.8
				c-0.2-0.3-0.4-0.5-0.7-0.8c-0.2-0.3-0.4-0.5-0.6-0.8c-0.2-0.3-0.4-0.5-0.6-0.8l-0.4-0.8c-0.4-0.6-0.7-1.2-1-1.8
				c-0.3-0.6-0.6-1.2-0.9-1.8c-0.1-0.3-0.3-0.6-0.4-0.9s-0.2-0.6-0.4-0.9c-0.2-0.6-0.5-1.2-0.7-1.8c-0.4-1.2-0.8-2.3-1.2-3.4
				c-0.4-1.1-0.7-2.1-1-3.1c-1.2-3.8-2-6.3-2-6.3s0.9,2.5,2.3,6.2c0.3,0.9,0.7,1.9,1.1,3c0.4,1.1,0.9,2.2,1.3,3.3
				c0.2,0.6,0.5,1.1,0.8,1.7c0.1,0.3,0.3,0.6,0.4,0.9c0.1,0.3,0.3,0.6,0.4,0.9c0.3,0.6,0.6,1.2,0.9,1.7c0.3,0.6,0.6,1.1,1,1.7
				l0.6,0.8c0.2,0.3,0.4,0.5,0.6,0.8l0.6,0.7c0.2,0.2,0.4,0.5,0.7,0.7c0.2,0.2,0.4,0.5,0.7,0.7c0.2,0.2,0.5,0.4,0.7,0.6
				s0.5,0.4,0.7,0.6c0.2,0.2,0.5,0.4,0.7,0.6c0.9,0.8,1.9,1.5,2.8,2.2c0.9,0.7,1.8,1.3,2.5,1.9c3.2,2.4,5.3,4,5.3,4L-296.3,259.7z"
				/>
			<path class="st7" d="M-285.3,267c0,0,0.4-0.4,1.2-1.1c0.7-0.7,1.8-1.8,3.1-3c2.5-2.5,5.9-5.9,9-9.5c1.5-1.8,3-3.6,4.3-5.5
				c0.6-0.9,1.2-1.8,1.7-2.7c0.5-0.9,1-1.7,1.3-2.5c0.4-0.8,0.7-1.6,0.9-2.2c0.2-0.7,0.4-1.3,0.5-1.8c0.1-0.5,0.2-0.9,0.2-1.2
				c0-0.3,0-0.4,0-0.4s0,0.1,0,0.4s0,0.7,0,1.2s-0.1,1.2-0.3,1.9c-0.1,0.7-0.4,1.5-0.7,2.4c-0.3,0.9-0.7,1.8-1.1,2.7
				c-0.4,1-0.9,1.9-1.5,2.9c-1.1,2-2.4,4.1-3.7,6.1c-2.7,4-5.7,7.8-8,10.6c-1.1,1.4-2.1,2.6-2.8,3.4c-0.7,0.8-1,1.3-1,1.3
				L-285.3,267z"/>
		</g>
	</g>
</g>
<path class="st8" d="M-287.1,302h-0.2c-0.5,0-0.9-0.4-0.9-0.9v-10.1c0-0.5,0.4-0.9,0.9-0.9h0.2c0.5,0,0.9,0.4,0.9,0.9v10.1
	C-286.2,301.6-286.6,302-287.1,302z"/>
<path class="st8" d="M-284.1,331.8L-284.1,331.8c-0.8,0-1.5-0.7-1.5-1.5V324c0-0.8,0.7-1.5,1.5-1.5l0,0c0.8,0,1.5,0.7,1.5,1.5v6.3
	C-282.6,331.1-283.3,331.8-284.1,331.8z"/>
<path class="st8" d="M-287.1,358.5L-287.1,358.5c-0.5,0-0.9-0.4-0.9-0.9v-8.1c0-0.5,0.4-0.9,0.9-0.9l0,0c0.5,0,0.9,0.4,0.9,0.9v8.1
	C-286.2,358.1-286.6,358.5-287.1,358.5z"/>
<path class="st8" d="M-282.7,371.8L-282.7,371.8c-0.4,0-0.7-0.3-0.7-0.7v-7.4c0-0.4,0.3-0.7,0.7-0.7l0,0c0.4,0,0.7,0.3,0.7,0.7v7.4
	C-281.9,371.4-282.3,371.8-282.7,371.8z"/>
</svg>
