<?xml version="1.0" encoding="utf-8"?>
<!-- Generator: Adobe Illustrator 19.0.1, SVG Export Plug-In . SVG Version: 6.00 Build 0)  -->
<svg version="1.1" id="Layer_1" xmlns="http://www.w3.org/2000/svg" xmlns:xlink="http://www.w3.org/1999/xlink" x="0px" y="0px"
	 viewBox="0 0 200 200" style="enable-background:new 0 0 200 200;" xml:space="preserve">
<style type="text/css">
	.st0{fill:#20300A;}
	.st1{fill:#493114;}
	.st2{fill:#B6CAAD;}
	.st3{opacity:0.3;fill:#3E4939;}
	.st4{opacity:0.39;fill:#493114;}
</style>
<g>
	<path class="st0" d="M176.8,114c1-4.2,0.4-9.5-3.4-11.6c-1.7-0.9-3.8-1-5.8-1.1c-8.9-0.2-17.9-0.5-26.8-0.7c4.8-1.1,8.2-6.2,7.4-11
		c-2.6-2.6-6.6-3.1-9.9-4.7c-3.3-1.6-6.1-6.1-3.6-8.8c1.2-1.4,3.2-1.7,4.9-2.4c1.7-0.7,3.3-2.6,2.5-4.3c-0.7-1.2-2.3-1.5-3.2-2.6
		c-1.3-1.6-0.3-4.1,1.3-5.4c1.6-1.3,3.7-2,5.1-3.5c1.5-1.5,2.1-4.2,0.4-5.4c-0.9-0.7-2.3-0.7-2.9-1.7c-0.6-1,0-2.2,0.5-3.3
		c2.1-5.2-1-11.9-6.4-13.5c-1-0.3-2-0.4-2.8-1.1c-1.7-1.5-1-4.2-0.5-6.4c0.5-2.2-0.4-5.4-2.6-5.1c-0.7,0.1-1.3,0.5-1.8,0.9
		c-2.2,1.6-4.5,3.2-6.7,4.8c-1.2-3.3-1.4-6.9-2-10.3c-0.6-3.5-1.8-7-4.4-9.3c-2.6-2.3-7.1-2.9-9.5-0.4c-1.2,1.2-1.9,2.9-3.4,3.5
		c-2,0.8-4-0.8-6.1-0.9c-1.6-0.1-3.1,0.7-4.6,1.4c-3.5,1.8-7.1,3.6-9.9,6.3c-2.8,2.7-4.9,6.5-4.5,10.4c0.3,3,1.9,5.8,2.7,8.7
		c0.7,3,0.2,6.7-2.6,8c-3.8,1.8-7.5-2.4-11.5-3.8c-2.5,4.4-3.1,9.8-1.8,14.7c0.8,3,2.1,6.7-0.3,8.7c-2.6-2.1-5.3-4.2-7.9-6.3
		c-1.2-0.9-2.8-1.9-4.1-1.2c-1.4,0.8-1.2,2.9-1.4,4.5c-0.7,5.8-8.6,10.2-6.4,15.7c0.4,1.1,1.2,1.9,1.9,2.8c3.5,4.4,5.5,10,5.7,15.6
		c-3.2,1.1-6.5-1.2-9.4-3c-2.9-1.8-7.2-3-9.4-0.4c-0.9,1-1.1,2.4-1.3,3.8c-1.6,11.1-0.3,22.5,3.7,32.9c1.5,3.9,3,9.1-0.4,11.6
		c-1.8,1.3-4.5,1.1-6.2,2.7c-1.9,1.8-1.4,5.1,0.3,7c1.7,1.9,4.3,2.8,6.7,3.6c2.3,0.8,4.6,1.6,7,2.3c-2.2,0.1-4.3,0.4-6.2,1.4
		c-3,1.6-5.1,5.2-3.8,8.3c1.5,3.4,5.9,4.2,9.6,4.4c7.6,0.5,15.2,1,22.8,1.6c3.7,0.3,7.4,0.5,11.1,0c7.5-1,14.6-5,22-5.4
		c0,0.3,0,0.5-0.1,0.8c0,0.1,0,0.1,0,0.2c0,0.7-0.1,1.4-0.1,2.2c-1.1,15.5-1.8,25.8-1.8,25.8l7,0.3c0,0,0.3-10.3,0.7-25.8
		c0-0.9,0-1.9,0.1-2.9c2.7,0.7,5.4,2,8,3.1c1.9,1.4,3.9,2.7,6.2,2.8c1.1,0,2.1-0.2,3.1-0.5c1.1-0.1,2.1-0.3,3.1-0.7
		c1.4-0.6,2.6-1.5,4-2c6.1-2.2,28.3-7,36.5-8c1.7-0.2,3.5-0.5,4.8-1.5c2.2-1.6,2.7-4.6,2.7-7.3c0.1-4.6-0.9-9.6-4.4-12.5
		c-1.6-1.4-3.7-2.2-5.2-3.7c-1.5-1.5-2.3-4.2-0.8-5.7C169.6,127.7,175,121.4,176.8,114z"/>
	<g>
		<path class="st1" d="M93.9,196c0,0,0.7-10.3,1.8-25.8c1-15.5,2.4-36.1,3.6-56.7c1.2-20.6,2.3-41.3,2.8-56.8
			c0.2-7.7,0.3-14.2,0.2-18.7c-0.1-2.3-0.2-4-0.3-5.2c-0.1-0.6-0.2-1.1-0.3-1.4c-0.1-0.3-0.1-0.5-0.1-0.5s0,0.2,0.1,0.5
			c0.1,0.3,0.2,0.8,0.3,1.3c0.2,1.2,0.4,3,0.6,5.2c0.3,4.5,0.5,11,0.6,18.7c0.2,15.5,0,36.2-0.4,56.9c-0.3,20.7-0.8,41.4-1.2,56.9
			c-0.4,15.5-0.7,25.8-0.7,25.8L93.9,196z"/>
		<path class="st2" d="M44,156.7c-3.3-0.1-6.8-0.2-9.8,1.4c-3,1.6-5.1,5.2-3.8,8.3c1.5,3.4,5.9,4.2,9.6,4.4c7.6,0.5,15.2,1,22.8,1.6
			c3.7,0.3,7.4,0.5,11.1,0c9-1.2,17.6-6.8,26.5-5.1c7.4,1.4,14.6,7.8,21.6,4.9c1.4-0.6,2.6-1.5,4-2c6.1-2.2,28.3-7,36.5-8
			c1.7-0.2,3.5-0.5,4.8-1.5c2.2-1.6,2.7-4.6,2.7-7.3c0.1-4.6-0.9-9.6-4.4-12.5c-1.6-1.4-3.7-2.2-5.2-3.7c-1.5-1.5-2.3-4.2-0.8-5.7
			c7-2.9,12.4-9.3,14.2-16.6c1-4.2,0.4-9.5-3.4-11.6c-1.7-0.9-3.8-1-5.8-1.1c-8.9-0.2-17.9-0.5-26.8-0.7c4.8-1.1,8.2-6.2,7.4-11
			c-2.6-2.6-6.6-3.1-9.9-4.7c-3.3-1.6-6.1-6.1-3.6-8.8c1.2-1.4,3.2-1.7,4.9-2.4c1.7-0.7,3.3-2.6,2.5-4.3c-0.7-1.2-2.3-1.5-3.2-2.6
			c-1.3-1.6-0.3-4.1,1.3-5.4s3.7-2,5.1-3.5c1.5-1.5,2.1-4.2,0.4-5.4c-0.9-0.7-2.3-0.7-2.9-1.7c-0.6-1,0-2.2,0.5-3.3
			c2.1-5.2-1-11.9-6.4-13.5c-1-0.3-2-0.4-2.8-1.1c-1.7-1.5-1-4.2-0.5-6.4s-0.4-5.4-2.6-5.1c-0.7,0.1-1.3,0.5-1.8,0.9
			c-2.2,1.6-4.5,3.2-6.7,4.8c-1.2-3.3-1.4-6.9-2-10.3c-0.6-3.5-1.8-7-4.4-9.3s-7.1-2.9-9.5-0.4c-1.2,1.2-1.9,2.9-3.4,3.5
			c-2,0.8-4-0.8-6.1-0.9c-1.6-0.1-3.1,0.7-4.6,1.4c-3.5,1.8-7.1,3.6-9.9,6.3c-2.8,2.7-4.9,6.5-4.5,10.4c0.3,3,1.9,5.8,2.7,8.7
			s0.2,6.7-2.6,8c-3.8,1.8-7.5-2.4-11.5-3.8c-2.5,4.4-3.1,9.8-1.8,14.7c0.8,3,2.1,6.7-0.3,8.7c-2.6-2.1-5.3-4.2-7.9-6.3
			c-1.2-0.9-2.8-1.9-4.1-1.2c-1.4,0.8-1.2,2.9-1.4,4.5c-0.7,5.8-8.6,10.2-6.4,15.7c0.4,1.1,1.2,1.9,1.9,2.8c3.5,4.4,5.5,10,5.7,15.6
			c-3.2,1.1-6.5-1.2-9.4-3s-7.2-3-9.4-0.4c-0.9,1-1.1,2.4-1.3,3.8c-1.6,11.1-0.3,22.5,3.7,32.9c1.5,3.9,3,9.1-0.4,11.6
			c-1.8,1.3-4.5,1.1-6.2,2.7c-1.9,1.8-1.4,5.1,0.3,7c1.7,1.9,4.3,2.8,6.7,3.6c3.2,1.1,6.3,2.1,9.5,3.2"/>
		<path class="st3" d="M79.2,165.9c-4.6,1.1-9.6,0.6-13.9-1.4c-2-1-4.2-2.8-3.7-5c0.2-0.9,0.8-1.7,1.4-2.5c2.2-3,3.5-6.8,3.6-10.5
			c0-0.7,0-1.5-0.4-2.1c-0.4-0.6-1-1-1.6-1.3c-5-3-9.5-7-12.9-11.7c-0.6-0.8-1.2-1.7-1.4-2.7c-0.4-2.4,2-4.4,4.2-5.5
			c2.2-1,4.8-1.8,6.1-3.9c2.9-4.7-2.8-11.7,0.7-15.9c1.7-2.1,4.9-2.4,6.7-4.3c1-1.1,1.5-2.5,2-3.9c1.5-4.2,3.3-8.5,6.4-11.8
			c3.1-3.3,7.8-5.4,12.2-4.2c1.5,0.4,3,1.2,4.5,1.5c4.6,0.7,9.2-3.2,13.6-1.8c2.1,0.7,3.6,2.4,5.1,4.1c2.7,3.1,5.4,6.4,7,10.2
			c1.6,3.8,2,8.3,0.1,12c-1.5,2.9-4.3,4.8-6.4,7.3c-3.3,4-4.7,9.4-3.8,14.4c3.6,2.6,7.3,5.3,11.7,5.9c4.7,0.7,9.5-1.1,14.2-0.1
			c6,1.4,10.1,7.6,10.2,13.7c0.1,6.1-3.2,12-7.6,16.2c-4.5,4.2-10,7-15.6,9.5c-1.8,0.8-3.6,1.6-5.5,1.5c-3.3-0.1-5.9-2.6-8.5-4.6
			c-7.9-5.7-18.8-6.9-27.7-2.9"/>
		<path class="st4" d="M150,112.4c-0.3,0.4-0.7,0.8-1.3,1.4c-0.3,0.3-0.6,0.6-1,0.9c-0.4,0.3-0.8,0.7-1.2,1
			c-0.9,0.7-1.9,1.4-3.1,2.2c-0.6,0.4-1.2,0.8-1.8,1.2c-0.6,0.4-1.3,0.8-2,1.2c-1.4,0.8-2.8,1.6-4.4,2.4c-3.1,1.6-6.4,3.3-9.7,4.9
			c-6.7,3.2-13.5,6.3-18.4,8.9c-1.2,0.6-2.4,1.3-3.4,1.8c-0.5,0.3-0.9,0.5-1.4,0.8c0.2-8.3,0.4-16.9,0.5-25.6
			c0.2-9.2,0.3-18.5,0.4-27.3l0.7-0.6c0,0-0.2-0.2-0.7-0.6c0.1-10.4,0.1-20.1,0-28.3c-0.1-7.8-0.3-14.2-0.6-18.7
			c-0.2-2.3-0.4-4-0.6-5.2c-0.1-0.6-0.2-1.1-0.3-1.3c-0.1-0.3-0.1-0.5-0.1-0.5s0,0.2,0.1,0.5c0.1,0.3,0.1,0.8,0.3,1.4
			c0.1,1.2,0.3,3,0.3,5.2c0.1,4.5,0.1,11-0.2,18.7c-0.2,7.6-0.6,16.5-1.1,26.1c0,0-0.1-0.1-0.1-0.1c-0.3-0.3-0.6-0.6-0.9-1
			c-0.3-0.4-0.6-0.8-1-1.2c-0.3-0.4-0.7-0.8-1.1-1.3c-0.4-0.5-0.7-0.9-1.1-1.4c-0.4-0.5-0.8-1-1.1-1.5c-0.4-0.5-0.8-1.1-1.2-1.6
			c-0.8-1.1-1.6-2.2-2.4-3.4c-0.8-1.2-1.6-2.4-2.4-3.5c-0.8-1.2-1.6-2.4-2.4-3.6c-0.8-1.2-1.5-2.4-2.2-3.5c-1.4-2.3-2.8-4.4-3.9-6.3
			c-2.2-3.7-3.7-6.2-3.7-6.2s1.3,2.6,3.2,6.4c1,1.9,2.2,4.2,3.4,6.6c0.6,1.2,1.3,2.4,2,3.7c0.7,1.2,1.4,2.5,2.1,3.8
			c0.7,1.3,1.4,2.5,2.2,3.7c0.7,1.2,1.4,2.4,2.2,3.6c0.4,0.6,0.7,1.1,1.1,1.7c0.4,0.5,0.7,1.1,1.1,1.6c0.3,0.5,0.7,1,1,1.5
			c0.3,0.5,0.7,1,1,1.4c0.3,0.4,0.6,0.9,0.9,1.3c0.3,0.4,0.6,0.8,0.9,1.2c0.6,0.7,1.1,1.4,1.5,1.8c0.2,0.3,0.5,0.5,0.6,0.7
			c-0.4,8.5-0.9,17.4-1.5,26.3c-0.2,3.5-0.4,7.1-0.6,10.6c-0.4-0.1-0.8-0.2-1.3-0.2c-0.9-0.2-1.9-0.3-3.1-0.5
			c-1.2-0.2-2.6-0.4-4.1-0.6c-3-0.4-6.4-0.9-10.1-1.4c-1.8-0.3-3.7-0.6-5.7-0.9c-1.9-0.3-3.9-0.7-5.8-1.2c-1.9-0.4-3.8-0.9-5.7-1.5
			c-1.9-0.6-3.7-1.2-5.4-1.9c-0.4-0.2-0.9-0.4-1.3-0.5c-0.4-0.2-0.8-0.4-1.2-0.6c-0.8-0.4-1.6-0.8-2.3-1.2c-0.7-0.4-1.5-0.8-2.2-1.2
			c-0.7-0.4-1.3-0.8-2-1.3c-1.2-0.8-2.3-1.7-3.2-2.4c-0.5-0.4-0.9-0.8-1.3-1.1c-0.4-0.4-0.7-0.7-1-1c-0.2-0.2-0.3-0.3-0.4-0.4
			c-0.1-0.1-0.3-0.3-0.4-0.4c-0.2-0.2-0.4-0.5-0.6-0.6c-0.3-0.3-0.5-0.5-0.5-0.5s0.2,0.2,0.5,0.5c0.2,0.2,0.3,0.4,0.6,0.7
			c0.1,0.1,0.2,0.3,0.4,0.4c0.1,0.1,0.3,0.3,0.4,0.5c0.3,0.3,0.6,0.7,1,1.1c0.4,0.4,0.8,0.8,1.2,1.2c0.9,0.8,1.9,1.7,3.1,2.6
			c0.6,0.5,1.2,0.9,1.9,1.4c0.7,0.5,1.4,0.9,2.1,1.4c0.8,0.4,1.5,0.9,2.3,1.3c0.4,0.2,0.8,0.4,1.2,0.6c0.4,0.2,0.8,0.4,1.3,0.6
			c1.7,0.8,3.5,1.6,5.4,2.2c1.9,0.7,3.8,1.3,5.7,1.8c1.9,0.6,3.9,1,5.8,1.5c1.9,0.5,3.8,0.8,5.7,1.2c3.7,0.7,7.1,1.4,10.1,1.9
			c1.5,0.3,2.8,0.5,4,0.8c1.2,0.2,2.2,0.5,3,0.7c0.7,0.2,1.3,0.3,1.7,0.4c-1,15.8-2,30.9-2.8,42.9c-1.1,15.5-1.8,25.8-1.8,25.8
			l7,0.3c0,0,0.3-10.3,0.7-25.8c0.2-8,0.4-17.4,0.7-27.5c0.2-0.1,0.4-0.3,0.6-0.4c0.6-0.4,1.4-1,2.4-1.6c0.9-0.6,2-1.3,3.2-2
			c4.8-2.8,11.3-6.3,17.9-9.9c3.3-1.8,6.5-3.6,9.5-5.5c1.5-0.9,2.9-1.8,4.3-2.7c0.7-0.4,1.3-0.9,1.9-1.3c0.6-0.4,1.2-0.9,1.8-1.3
			c1.1-0.8,2.1-1.6,3-2.4c0.4-0.4,0.8-0.7,1.2-1.1c0.3-0.4,0.7-0.7,0.9-1C149.4,113.3,149.8,112.8,150,112.4
			c0.3-0.3,0.4-0.5,0.4-0.5S150.3,112.1,150,112.4z"/>
	</g>
</g>
</svg>
