<?xml version="1.0" encoding="utf-8"?>
<!-- Generator: Adobe Illustrator 19.0.1, SVG Export Plug-In . SVG Version: 6.00 Build 0)  -->
<svg version="1.1" id="Layer_1" xmlns="http://www.w3.org/2000/svg" xmlns:xlink="http://www.w3.org/1999/xlink" x="0px" y="0px"
	 viewBox="0 0 200 200" style="enable-background:new 0 0 200 200;" xml:space="preserve">
<style type="text/css">
	.st0{fill:#20300A;}
	.st1{fill:#282116;}
	.st2{fill:#3F4F1F;}
	.st3{fill:#85A044;}
	.st4{fill:#4F681F;}
	.st5{fill:#2B3816;}
	.st6{opacity:0.42;fill:#282116;}
</style>
<g>
	<path class="st0" d="M169.1,102.5c-2.6-6.3-5.4-12.5-8.5-18.5c-1.4-2.8-3-5.7-5.5-7.6c-4.8-3.6-11.7-2.7-16.9,0.2
		c-5.2,2.9-9.3,7.4-13.9,11.3c-3,2.5-6.3,4.9-8.6,8.1c-2.3,3.2-3.3,7.1-4.8,10.8c-2.8,6.9-7.1,13.2-10.2,20
		c-0.3-4.4-0.6-8.9-0.9-13.3c-0.3-3.8-0.6-7.7-0.8-11.5c3.3,0.5,6.7,0.7,9.4-1.2c1.3-0.9,2.2-2.2,3-3.5c3.2-4.9,5.8-10.3,7.5-15.9
		c0.8-2.6,1.5-5.3,3.2-7.4c2.8-3.3,7.5-4.2,11.9-4.1c1.9,0,4,0.1,5.4-1.1c1-0.9,1.4-2.2,1.7-3.5c1-3.7,1.9-7.5,2.8-11.2
		c0.7-2.8,1.3-5.7,1.1-8.7c-0.2-2.9-1.2-5.7-2.3-8.3c-2.5-5.5-6-10.7-11-14.2c-5-3.4-11.6-4.8-17.2-2.5c-3.8,1.5-6.9,4.6-9.5,7.7
		c-0.4,0.5-1,1.1-1.6,1c-0.5,0-1-0.5-1.3-0.9c-6.4-7.7-10.5-18-19.6-22.2c-1.2-0.6-2.6-1-3.9-0.9c-1.8,0.2-3.3,1.4-4.7,2.6
		c-2.7,2.2-5.4,4.4-7.4,7.2c-2,2.8-3.4,6.2-3,9.7c0.1,1.3,0.5,2.7,0,3.9c-0.4,0.9-1.3,1.5-2.1,2.1c-4,3-7.2,7.5-7.5,12.6
		c-0.1,1,0,2,0.5,2.8c1.3,2.2,4.4,1.9,7,1.9c2.4,0,4.8,0.7,6.9,1.8c1.9,1,3.6,2.4,4.3,4.4c0.3,0.9,0.4,1.9,0.4,2.8
		c-5.7,0-11.6,0.7-17.2-0.6c-5-1.2-10.5-3.8-14.9-1.1c-2.2,1.4-3.4,4-3.3,6.6c0.1,2.6,1.6,5,3.8,6.4c1.5,0.9,3.2,1.4,4.7,2.2
		c1.9,1,3.6,2.4,4.9,4.1c0.3,0.4,0.6,0.9,0.7,1.4c0.1,1.1-0.9,1.9-2,2.2c-1,0.2-2.1,0.1-3.2,0.1c-2.7,0.2-5.3,2.2-6.1,4.8
		c-0.8,2.6,0.1,5.7,2.3,7.4c1.4,1.1,3.2,1.7,4.5,3c2.1,2.1,2.1,5.5,1.6,8.4c-0.3,1.5-0.6,3.1,0.1,4.4c0,0,0,0,0,0
		c-2.8,0.3-5.3,1.5-7.8,2.7c-2.9,1.4-5.8,3.2-7.6,5.9c-2.6,3.9-2.2,9-2.1,13.7c0.2,8-0.8,16-2,23.9c-0.3,1.9-0.6,4-0.1,5.8
		c0.5,1.8,1.8,3.3,3.1,4.5c7,6.7,18,8.9,27,5.5c2.8-1,5.4-2.6,8.3-3.3c8.5-2.3,18.7,2,26-3c0.8-0.5,1.5-1.2,2.1-1.9
		c0.1,0.1,0.1,0.2,0.2,0.4c0,2.8,0,5.5,0,8c0,3.7-0.1,7.2-0.1,10.2c-0.1,3-0.1,5.6-0.2,7.8c-0.2,4.4-0.3,6.9-0.3,6.9l9.1,0.2
		c0,0,0-2.5-0.1-6.9c-0.1-2.2-0.2-4.9-0.3-8c-0.1-3.1-0.3-6.5-0.5-10.3c-0.2-3.8-0.4-7.8-0.7-12.1c-0.3-4.3-0.6-8.8-0.8-13.5
		c0-0.6-0.1-1.2-0.1-1.8c5,0.8,10.6,0.5,14.1-3.2c1.1-1.2,1.9-2.6,2.9-3.9c4.2-5.6,11.8-8.3,18.6-6.6c1.4,0.4,2.9,0.9,4,1.9
		c1.5,1.2,2.4,2.9,3.3,4.6c2.9,5.2,6.2,10,10,14.6c1.1,1.3,2.5,2.8,4.2,2.7c1,0,1.9-0.6,2.8-1.2c1.7-1.1,3.3-2.2,5-3.2
		c1.2-0.8,2.4-1.6,3.2-2.7c1.3-1.9,1.1-4.4,1.3-6.6c0.3-4.7,2.2-9.3,2.6-14C174.3,116.1,171.8,109.1,169.1,102.5z M95.2,113.6
		c0,2.4,0.1,4.8,0.1,7.2c-0.7-1-1.4-2.1-2.1-3.3c-3.3-5.1-7.4-12-11.6-19c2.6-2.5,5.2-5,7.6-7.7c0.9-1,1.7-1.9,2.5-3
		c0.2,2.2,0.7,4.3,1.8,6.1c0.4,0.7,0.9,1.4,1.4,2C95,101.7,95.1,107.7,95.2,113.6z M83.6,116.7c-6.4-2.3-12.8-4.6-19.2-6.9
		c0.5-0.2,1.1-0.3,1.6-0.5c5-1.8,9.3-5.1,13.2-8.6c0.4-0.4,0.8-0.7,1.2-1.1c3.8,7,7.6,14,10.6,19.2c0.3,0.5,0.6,1.1,0.9,1.6
		C89.3,118.9,86.4,117.7,83.6,116.7z M101.7,140.9C101.7,140.9,101.7,140.9,101.7,140.9c0.1,0,0.2,0,0.3,0L101.7,140.9z"/>
	<g>
		<path class="st1" d="M140.4,85c-0.4,0.3-1,0.8-1.8,1.4c-0.7,0.7-1.6,1.4-2.6,2.4c-1,1-2.1,2-3.2,3.2c-0.6,0.6-1.2,1.2-1.8,1.9
			c-0.6,0.7-1.2,1.4-1.8,2.1c-1.3,1.4-2.6,3-3.9,4.5c-1.3,1.6-2.7,3.2-4.1,4.9c-1.4,1.7-2.8,3.4-4.1,5.2c-1.4,1.7-2.7,3.5-4.1,5.2
			c-1.3,1.7-2.6,3.4-3.9,5.1c-2.5,3.3-4.8,6.5-6.7,9.2c-1,1.4-1.9,2.6-2.6,3.7c-0.4,0.5-0.7,1-1,1.4c-0.5-6.8-0.9-13.7-1.4-20.7
			c-0.5-7.1-1-14.2-1.6-21.1c0.1-0.2,0.2-0.4,0.4-0.6c0.2-0.3,0.3-0.6,0.5-0.9c0.4-0.7,1-1.5,1.6-2.4c0.6-0.9,1.4-2,2.2-3.1
			c3.2-4.5,7.8-10.3,12.4-16.2c4.6-5.9,9.1-11.8,12.2-16.5c0.8-1.2,1.4-2.3,2-3.2c0.6-1,1-1.9,1.3-2.6c0.1-0.4,0.3-0.7,0.4-1
			c0.1-0.3,0.2-0.6,0.2-0.8c0-0.4,0.1-0.7,0.1-0.7s0,0.2-0.1,0.7c-0.1,0.2-0.1,0.5-0.2,0.8c-0.1,0.3-0.3,0.6-0.4,1
			c-0.4,0.7-0.8,1.6-1.4,2.5c-0.6,1-1.3,2-2.1,3.1c-3.3,4.5-8.1,10.1-12.9,15.8c-4.9,5.6-9.7,11.2-13.3,15.6c-0.9,1.1-1.7,2.1-2.4,3
			c-0.2,0.3-0.4,0.6-0.6,0.8c-0.5-7-1.1-13.7-1.5-19.8l0.1-0.1c0,0,0,0-0.1-0.1c-0.3-3.2-0.5-6.3-0.7-9.2c-1.2-15-2-25-2-25
			s0.2,10,0.6,25c0.1,2.4,0.1,4.9,0.2,7.4c-0.2-0.2-0.4-0.4-0.6-0.6c-0.5-0.5-1.1-1.1-1.8-1.8C87,62,83.8,58,80.9,53.9
			c-3-4.1-5.7-8.3-7.6-11.6c-0.5-0.8-0.9-1.6-1.3-2.3c-0.4-0.7-0.7-1.3-0.9-1.8c-0.2-0.5-0.4-0.9-0.4-1.2c0-0.1,0-0.3-0.1-0.3
			c0-0.1,0-0.1,0-0.1s0,0,0,0.1c0,0.1,0,0.2,0,0.3c0.1,0.3,0.2,0.7,0.4,1.2c0.2,0.5,0.4,1.2,0.7,1.9c0.3,0.7,0.7,1.5,1.1,2.4
			c1.7,3.4,4.1,7.9,6.8,12.2c2.7,4.3,5.5,8.6,8,11.6c0.6,0.8,1.2,1.4,1.7,2c0.5,0.6,1,1.1,1.4,1.5c0.2,0.2,0.4,0.4,0.6,0.6
			c0.2,0.1,0.3,0.3,0.4,0.4c0.2,0.2,0.3,0.3,0.3,0.3l0,0c0.3,13.1,0.6,28.3,0.8,43.6c0,2.4,0.1,4.8,0.1,7.2c-0.7-1-1.4-2.1-2.1-3.3
			c-3.5-5.4-7.9-12.9-12.4-20.3c-4.5-7.4-9.1-14.8-12.9-20.1c-0.9-1.3-1.8-2.5-2.7-3.6c-0.8-1-1.6-1.9-2.2-2.6
			c-0.3-0.4-0.6-0.6-0.9-0.9c-0.3-0.3-0.5-0.5-0.7-0.6c-0.4-0.3-0.6-0.5-0.6-0.5s0.2,0.2,0.6,0.5c0.2,0.2,0.4,0.4,0.6,0.7
			c0.2,0.3,0.5,0.6,0.8,1c0.6,0.7,1.3,1.6,2.1,2.7c0.8,1.1,1.6,2.3,2.5,3.7c3.5,5.4,7.8,13,11.9,20.6c4.2,7.6,8.3,15.2,11.5,20.9
			c1.6,2.8,3.1,5.2,4.1,6.8c0.1,0.1,0.2,0.3,0.3,0.4c0.1,5.8,0.1,11.5,0.2,17c0,4.3,0.1,8.4,0.1,12.4c-0.1-0.1-0.1-0.2-0.2-0.3
			c-0.4-0.6-0.9-1.3-1.3-2c-0.2-0.3-0.5-0.7-0.7-1c-0.3-0.3-0.5-0.7-0.8-1c-0.5-0.7-1-1.4-1.7-2.1c-0.3-0.4-0.6-0.7-0.9-1.1
			c-0.3-0.4-0.6-0.7-1-1.1c-0.7-0.7-1.4-1.4-2.1-2.1c-0.8-0.6-1.5-1.3-2.3-1.9c-0.4-0.3-0.8-0.6-1.2-0.9c-0.4-0.3-0.8-0.6-1.2-0.9
			c-0.4-0.3-0.8-0.6-1.2-0.9l-1.3-0.8c-0.9-0.5-1.7-1-2.6-1.5c-0.9-0.4-1.8-0.8-2.7-1.3c-0.5-0.2-0.9-0.4-1.3-0.6
			c-0.5-0.2-0.9-0.3-1.4-0.5c-0.9-0.3-1.8-0.7-2.7-1l-0.7-0.2c-0.2-0.1-0.4-0.1-0.7-0.2c-0.4-0.1-0.9-0.3-1.3-0.4
			c-0.9-0.3-1.7-0.5-2.5-0.7c-0.4-0.1-0.8-0.2-1.2-0.3c-0.4-0.1-0.8-0.2-1.2-0.3c-0.8-0.2-1.6-0.3-2.3-0.5c-1.5-0.3-2.8-0.6-4-0.8
			c-1.2-0.2-2.3-0.4-3.1-0.5c-1.7-0.3-2.7-0.4-2.7-0.4s1,0.2,2.7,0.6c0.9,0.2,1.9,0.4,3.1,0.7c1.2,0.2,2.5,0.6,4,1
			c0.7,0.2,1.5,0.4,2.3,0.6c0.4,0.1,0.8,0.2,1.2,0.3c0.4,0.1,0.8,0.3,1.2,0.4c0.8,0.3,1.6,0.6,2.5,0.9c0.4,0.1,0.9,0.3,1.3,0.4
			c0.2,0.1,0.4,0.1,0.7,0.2l0.6,0.3c0.9,0.4,1.7,0.7,2.6,1.1c0.4,0.2,0.9,0.4,1.3,0.6c0.4,0.2,0.9,0.4,1.3,0.7
			c0.9,0.5,1.7,0.9,2.6,1.4c0.9,0.5,1.7,1,2.5,1.6l1.2,0.8l1.2,0.9c0.4,0.3,0.8,0.6,1.2,0.9c0.4,0.3,0.8,0.6,1.1,0.9
			c0.7,0.7,1.4,1.3,2.1,1.9c0.6,0.7,1.3,1.4,1.9,2.1c0.3,0.3,0.6,0.7,0.9,1.1c0.3,0.4,0.5,0.7,0.8,1.1c0.6,0.7,1,1.4,1.5,2.1
			c0.2,0.3,0.5,0.7,0.7,1c0.2,0.4,0.4,0.7,0.6,1c0.4,0.7,0.8,1.3,1.2,2c0.7,1.3,1.4,2.5,2,3.6c0.1,0.2,0.2,0.4,0.4,0.6
			c0,2.8,0,5.5,0,8c0,3.7-0.1,7.2-0.1,10.2c-0.1,3-0.1,5.6-0.2,7.8c-0.2,4.4-0.3,6.9-0.3,6.9l9.1,0.2c0,0,0-2.5-0.1-6.9
			c-0.1-2.2-0.2-4.9-0.3-8c-0.1-3.1-0.3-6.5-0.5-10.3c-0.2-3.8-0.4-7.8-0.7-12.1c-0.3-4.3-0.6-8.8-0.8-13.5
			c-0.1-1.3-0.2-2.6-0.3-3.9c0.3-0.4,0.6-1,1.1-1.7c0.5-0.8,1.2-1.8,1.9-2.9c0.7-1.1,1.6-2.4,2.5-3.8c1.8-2.8,4-6,6.3-9.4
			c1.2-1.7,2.4-3.5,3.7-5.2c1.3-1.8,2.5-3.6,3.8-5.4c1.3-1.8,2.6-3.6,3.9-5.3c1.3-1.7,2.6-3.4,3.9-5.1c1.3-1.6,2.5-3.2,3.7-4.7
			c0.6-0.7,1.2-1.5,1.8-2.1c0.6-0.7,1.1-1.3,1.7-2c1.1-1.3,2.1-2.4,3-3.4c0.9-1,1.8-1.8,2.5-2.5C139.4,85.8,140,85.4,140.4,85
			c0.4-0.3,0.6-0.5,0.6-0.5S140.8,84.7,140.4,85z"/>
		<path class="st2" d="M99.2,142.1c5,0.9,10.7,0.5,14.2-3.2c1.1-1.2,1.9-2.6,2.9-3.9c4.2-5.6,11.8-8.3,18.6-6.6
			c1.4,0.4,2.9,0.9,4,1.9c1.5,1.2,2.4,2.9,3.3,4.6c2.9,5.2,6.2,10,10,14.6c1.1,1.3,2.5,2.8,4.2,2.7c1,0,1.9-0.6,2.8-1.2
			c1.7-1.1,3.3-2.2,5-3.2c1.2-0.8,2.4-1.6,3.2-2.7c1.3-1.9,1.1-4.4,1.3-6.6c0.3-4.7,2.2-9.3,2.6-14c0.7-7.1-1.8-14.1-4.5-20.7
			c-2.6-6.3-5.4-12.5-8.5-18.5c-1.4-2.8-3-5.7-5.5-7.6c-4.8-3.6-11.7-2.7-16.9,0.2c-5.2,2.9-9.3,7.4-13.9,11.3
			c-3,2.5-6.3,4.9-8.6,8.1c-2.3,3.2-3.3,7.1-4.8,10.8c-3.4,8.5-9.1,16-12.1,24.6c-0.7,1.9-1.2,3.9-0.8,5.8c0.4,1.9,2,3.8,3.9,3.8"/>
		<path class="st3" d="M94.7,102.8c3.8,0.7,8,1.3,11.2-0.9c1.3-0.9,2.2-2.2,3-3.5c3.2-4.9,5.8-10.3,7.5-15.9
			c0.8-2.6,1.5-5.3,3.2-7.4c2.8-3.3,7.5-4.2,11.9-4.1c1.9,0,4,0.1,5.4-1.1c1-0.9,1.4-2.2,1.7-3.5c1-3.7,1.9-7.5,2.8-11.2
			c0.7-2.8,1.3-5.7,1.1-8.7c-0.2-2.9-1.2-5.7-2.3-8.3c-2.5-5.5-6-10.7-11-14.2c-5-3.4-11.6-4.8-17.2-2.5c-3.8,1.5-6.9,4.6-9.5,7.7
			c-0.4,0.5-1,1.1-1.6,1c-0.5,0-1-0.5-1.3-0.9c-6.4-7.7-10.5-18-19.6-22.2c-1.2-0.6-2.6-1-3.9-0.9c-1.8,0.2-3.3,1.4-4.7,2.6
			c-2.7,2.2-5.4,4.4-7.4,7.2s-3.4,6.2-3,9.7c0.1,1.3,0.5,2.7,0,3.9c-0.4,0.9-1.3,1.5-2.1,2.1c-4,3-7.2,7.5-7.5,12.6
			c-0.1,1,0,2,0.5,2.8c1.3,2.2,4.4,1.9,7,1.9c2.4,0,4.8,0.7,6.9,1.8c1.9,1,3.6,2.4,4.3,4.4c0.5,1.4,0.4,2.8,0.5,4.3
			c0.4,3.8,2.4,7.5,5.5,9.8c3.4,2.6,8.1,3.7,10.7,7.2c3.9,5.2,1.3,13,4.6,18.6c1.8,3.1,5.4,5.8,4.8,9.3"/>
		<path class="st4" d="M79.6,59.5c-8.4-2.8-17.8,0.1-26.5-1.9c-5-1.2-10.5-3.8-14.9-1.1c-2.2,1.4-3.4,4-3.3,6.6
			c0.1,2.6,1.6,5,3.8,6.4c1.5,0.9,3.2,1.4,4.7,2.2c1.9,1,3.6,2.4,4.9,4.1c0.3,0.4,0.6,0.9,0.7,1.4c0.1,1.1-0.9,1.9-2,2.2
			s-2.1,0.1-3.2,0.1c-2.7,0.2-5.3,2.2-6.1,4.8c-0.8,2.6,0.1,5.7,2.3,7.4c1.4,1.1,3.2,1.7,4.5,3c2.1,2.1,2.1,5.5,1.6,8.4
			c-0.3,1.5-0.6,3.1,0.1,4.4c0.4,0.9,1.3,1.6,2.2,2.1c4.5,2.8,10.3,2.7,15.3,0.9s9.3-5.1,13.2-8.6c3.5-3.1,6.9-6.4,10-9.9
			c2.3-2.5,4.5-5.2,5.5-8.4c1.5-4.8,0-10.1-2.9-14.2s-7-7.1-11.2-9.8"/>
		<path class="st5" d="M97.3,129.9c-2.3-6.6-9.6-9.7-16.1-12c-7.4-2.7-14.8-5.3-22.2-8c-4.2-1.5-8.5-3-12.9-2.5
			c-2.8,0.3-5.3,1.5-7.8,2.7c-2.9,1.4-5.8,3.2-7.6,5.9c-2.6,3.9-2.2,9-2.1,13.7c0.2,8-0.8,16-2,23.9c-0.3,1.9-0.6,4-0.1,5.8
			c0.5,1.8,1.8,3.3,3.1,4.5c7,6.7,18,8.9,27,5.5c2.8-1,5.4-2.6,8.3-3.3c8.5-2.3,18.7,2,26-3c3.8-2.6,5.7-7.1,6.8-11.5
			c1.7-7,2-14.3,0.6-21.4"/>
		<path class="st6" d="M140.4,85c-0.4,0.3-1,0.8-1.8,1.4c-0.7,0.7-1.6,1.4-2.6,2.4c-1,1-2.1,2-3.2,3.2c-0.6,0.6-1.2,1.2-1.8,1.9
			c-0.6,0.7-1.2,1.4-1.8,2.1c-1.3,1.4-2.6,3-3.9,4.5c-1.3,1.6-2.7,3.2-4.1,4.9c-1.4,1.7-2.8,3.4-4.1,5.2c-1.4,1.7-2.7,3.5-4.1,5.2
			c-1.3,1.7-2.6,3.4-3.9,5.1c-2.5,3.3-4.8,6.5-6.7,9.2c-1,1.4-1.9,2.6-2.6,3.7c-0.4,0.5-0.7,1-1,1.4c-0.5-6.8-0.9-13.7-1.4-20.7
			c-0.5-7.1-1-14.2-1.6-21.1c0.1-0.2,0.2-0.4,0.4-0.6c0.2-0.3,0.3-0.6,0.5-0.9c0.4-0.7,1-1.5,1.6-2.4c0.6-0.9,1.4-2,2.2-3.1
			c3.2-4.5,7.8-10.3,12.4-16.2c4.6-5.9,9.1-11.8,12.2-16.5c0.8-1.2,1.4-2.3,2-3.2c0.6-1,1-1.9,1.3-2.6c0.1-0.4,0.3-0.7,0.4-1
			c0.1-0.3,0.2-0.6,0.2-0.8c0-0.4,0.1-0.7,0.1-0.7s0,0.2-0.1,0.7c-0.1,0.2-0.1,0.5-0.2,0.8c-0.1,0.3-0.3,0.6-0.4,1
			c-0.4,0.7-0.8,1.6-1.4,2.5c-0.6,1-1.3,2-2.1,3.1c-3.3,4.5-8.1,10.1-12.9,15.8c-4.9,5.6-9.7,11.2-13.3,15.6c-0.9,1.1-1.7,2.1-2.4,3
			c-0.2,0.3-0.4,0.6-0.6,0.8c-0.5-7-1.1-13.7-1.5-19.8l0.1-0.1c0,0,0,0-0.1-0.1c-0.3-3.2-0.5-6.3-0.7-9.2c-1.2-15-2-25-2-25
			s0.2,10,0.6,25c0.1,2.4,0.1,4.9,0.2,7.4c-0.2-0.2-0.4-0.4-0.6-0.6c-0.5-0.5-1.1-1.1-1.8-1.8C87,62,83.8,58,80.9,53.9
			c-3-4.1-5.7-8.3-7.6-11.6c-0.5-0.8-0.9-1.6-1.3-2.3c-0.4-0.7-0.7-1.3-0.9-1.8c-0.2-0.5-0.4-0.9-0.4-1.2c0-0.1,0-0.3-0.1-0.3
			c0-0.1,0-0.1,0-0.1s0,0,0,0.1c0,0.1,0,0.2,0,0.3c0.1,0.3,0.2,0.7,0.4,1.2c0.2,0.5,0.4,1.2,0.7,1.9c0.3,0.7,0.7,1.5,1.1,2.4
			c1.7,3.4,4.1,7.9,6.8,12.2c2.7,4.3,5.5,8.6,8,11.6c0.6,0.8,1.2,1.4,1.7,2c0.5,0.6,1,1.1,1.4,1.5c0.2,0.2,0.4,0.4,0.6,0.6
			c0.2,0.1,0.3,0.3,0.4,0.4c0.2,0.2,0.3,0.3,0.3,0.3l0,0c0.3,13.1,0.6,28.3,0.8,43.6c0,2.4,0.1,4.8,0.1,7.2c-0.7-1-1.4-2.1-2.1-3.3
			c-3.5-5.4-7.9-12.9-12.4-20.3c-4.5-7.4-9.1-14.8-12.9-20.1c-0.9-1.3-1.8-2.5-2.7-3.6c-0.8-1-1.6-1.9-2.2-2.6
			c-0.3-0.4-0.6-0.6-0.9-0.9c-0.3-0.3-0.5-0.5-0.7-0.6c-0.4-0.3-0.6-0.5-0.6-0.5s0.2,0.2,0.6,0.5c0.2,0.2,0.4,0.4,0.6,0.7
			c0.2,0.3,0.5,0.6,0.8,1c0.6,0.7,1.3,1.6,2.1,2.7c0.8,1.1,1.6,2.3,2.5,3.7c3.5,5.4,7.8,13,11.9,20.6c4.2,7.6,8.3,15.2,11.5,20.9
			c1.6,2.8,3.1,5.2,4.1,6.8c0.1,0.1,0.2,0.3,0.3,0.4c0.1,5.8,0.1,11.5,0.2,17c0,4.3,0.1,8.4,0.1,12.4c-0.1-0.1-0.1-0.2-0.2-0.3
			c-0.4-0.6-0.9-1.3-1.3-2c-0.2-0.3-0.5-0.7-0.7-1c-0.3-0.3-0.5-0.7-0.8-1c-0.5-0.7-1-1.4-1.7-2.1c-0.3-0.4-0.6-0.7-0.9-1.1
			c-0.3-0.4-0.6-0.7-1-1.1c-0.7-0.7-1.4-1.4-2.1-2.1c-0.8-0.6-1.5-1.3-2.3-1.9c-0.4-0.3-0.8-0.6-1.2-0.9c-0.4-0.3-0.8-0.6-1.2-0.9
			c-0.4-0.3-0.8-0.6-1.2-0.9l-1.3-0.8c-0.9-0.5-1.7-1-2.6-1.5c-0.9-0.4-1.8-0.8-2.7-1.3c-0.5-0.2-0.9-0.4-1.3-0.6
			c-0.5-0.2-0.9-0.3-1.4-0.5c-0.9-0.3-1.8-0.7-2.7-1l-0.7-0.2c-0.2-0.1-0.4-0.1-0.7-0.2c-0.4-0.1-0.9-0.3-1.3-0.4
			c-0.9-0.3-1.7-0.5-2.5-0.7c-0.4-0.1-0.8-0.2-1.2-0.3c-0.4-0.1-0.8-0.2-1.2-0.3c-0.8-0.2-1.6-0.3-2.3-0.5c-1.5-0.3-2.8-0.6-4-0.8
			c-1.2-0.2-2.3-0.4-3.1-0.5c-1.7-0.3-2.7-0.4-2.7-0.4s1,0.2,2.7,0.6c0.9,0.2,1.9,0.4,3.1,0.7c1.2,0.2,2.5,0.6,4,1
			c0.7,0.2,1.5,0.4,2.3,0.6c0.4,0.1,0.8,0.2,1.2,0.3c0.4,0.1,0.8,0.3,1.2,0.4c0.8,0.3,1.6,0.6,2.5,0.9c0.4,0.1,0.9,0.3,1.3,0.4
			c0.2,0.1,0.4,0.1,0.7,0.2l0.6,0.3c0.9,0.4,1.7,0.7,2.6,1.1c0.4,0.2,0.9,0.4,1.3,0.6c0.4,0.2,0.9,0.4,1.3,0.7
			c0.9,0.5,1.7,0.9,2.6,1.4c0.9,0.5,1.7,1,2.5,1.6l1.2,0.8l1.2,0.9c0.4,0.3,0.8,0.6,1.2,0.9c0.4,0.3,0.8,0.6,1.1,0.9
			c0.7,0.7,1.4,1.3,2.1,1.9c0.6,0.7,1.3,1.4,1.9,2.1c0.3,0.3,0.6,0.7,0.9,1.1c0.3,0.4,0.5,0.7,0.8,1.1c0.6,0.7,1,1.4,1.5,2.1
			c0.2,0.3,0.5,0.7,0.7,1c0.2,0.4,0.4,0.7,0.6,1c0.4,0.7,0.8,1.3,1.2,2c0.7,1.3,1.4,2.5,2,3.6c0.1,0.2,0.2,0.4,0.4,0.6
			c0,2.8,0,5.5,0,8c0,3.7-0.1,7.2-0.1,10.2c-0.1,3-0.1,5.6-0.2,7.8c-0.2,4.4-0.3,6.9-0.3,6.9l9.1,0.2c0,0,0-2.5-0.1-6.9
			c-0.1-2.2-0.2-4.9-0.3-8c-0.1-3.1-0.3-6.5-0.5-10.3c-0.2-3.8-0.4-7.8-0.7-12.1c-0.3-4.3-0.6-8.8-0.8-13.5
			c-0.1-1.3-0.2-2.6-0.3-3.9c0.3-0.4,0.6-1,1.1-1.7c0.5-0.8,1.2-1.8,1.9-2.9c0.7-1.1,1.6-2.4,2.5-3.8c1.8-2.8,4-6,6.3-9.4
			c1.2-1.7,2.4-3.5,3.7-5.2c1.3-1.8,2.5-3.6,3.8-5.4c1.3-1.8,2.6-3.6,3.9-5.3c1.3-1.7,2.6-3.4,3.9-5.1c1.3-1.6,2.5-3.2,3.7-4.7
			c0.6-0.7,1.2-1.5,1.8-2.1c0.6-0.7,1.1-1.3,1.7-2c1.1-1.3,2.1-2.4,3-3.4c0.9-1,1.8-1.8,2.5-2.5C139.4,85.8,140,85.4,140.4,85
			c0.4-0.3,0.6-0.5,0.6-0.5S140.8,84.7,140.4,85z"/>
	</g>
</g>
</svg>
