<?xml version="1.0" encoding="utf-8"?>
<!-- Generator: Adobe Illustrator 19.0.1, SVG Export Plug-In . SVG Version: 6.00 Build 0)  -->
<svg version="1.1" id="Layer_1" xmlns="http://www.w3.org/2000/svg" xmlns:xlink="http://www.w3.org/1999/xlink" x="0px" y="0px"
	 viewBox="0 0 200 200" style="enable-background:new 0 0 200 200;" xml:space="preserve">
<style type="text/css">
	.st0{fill:#352924;}
	.st1{fill:#878787;}
</style>
<g>
	<path class="st0" d="M17.9,83.4c-2.4,4.5,0.6,10.3,4.8,13.3c4.2,3,9.3,4.5,13.6,7.3c6.7,4.5,10.8,12.1,17.6,16.2
		c8.1,4.9,18.4,4,27.4,1.2s17.4-7.5,26.5-9.8c11.8-3.1,24.2-2.3,36.3-3.4c17-1.6,33.4-7,49.6-12.4c1.8-2.2,1-5.7-1.1-7.7
		c-2.1-2-5-2.8-7.7-3.5c-10.6-2.7-21.3-5.2-32.1-7.1c-40.3-6.9-81.7-4.7-122.4-0.2c-4.5,0.5-9.2,1.1-12.8,3.9"/>
	<path class="st1" d="M9.2,90.1c-2.4,4.5,0.6,10.3,4.8,13.3c4.2,3,9.3,4.5,13.6,7.3c6.7,4.5,10.8,12.1,17.6,16.2
		c8.1,4.9,18.4,4,27.4,1.2s17.4-7.5,26.5-9.8c11.8-3.1,24.2-2.3,36.3-3.4c17-1.6,33.4-7,49.6-12.4c1.8-2.2,1-5.7-1.1-7.7
		c-2.1-2-5-2.8-7.7-3.5c-10.6-2.7-21.3-5.2-32.1-7.1c-40.3-6.9-81.7-4.7-122.4-0.2c-4.5,0.5-9.2,1.1-12.8,3.9"/>
</g>
</svg>
