<?xml version="1.0" encoding="utf-8"?>
<!-- Generator: Adobe Illustrator 19.0.1, SVG Export Plug-In . SVG Version: 6.00 Build 0)  -->
<svg version="1.1" id="Layer_1" xmlns="http://www.w3.org/2000/svg" xmlns:xlink="http://www.w3.org/1999/xlink" x="0px" y="0px"
	 viewBox="0 0 200 200" style="enable-background:new 0 0 200 200;" xml:space="preserve">
<style type="text/css">
	.st0{fill:#352924;}
	.st1{fill:#777777;}
	.st2{fill:#3D3123;}
</style>
<g>
	<g>
		<polygon class="st0" points="173.5,76.6 172.3,76.6 171.5,73.8 171.7,73.8 167.5,59.8 166.9,59.8 166.4,58.3 166.5,58.3 
			162.8,45.1 35.9,45.1 31.7,58.3 32.1,59.8 31.7,59.8 27.2,73.8 27.7,75.5 27.2,75.5 21.4,91.8 22.3,95.2 177.7,96.3 178.5,93 		
			"/>
		<g>
			<polygon class="st1" points="31.2,63.2 166.1,63.2 162.3,50 35.5,50 30.4,59.8 			"/>
			<polygon class="st1" points="31.2,64.7 25.9,75.4 26.8,78.7 171.2,78.7 167.1,64.7 			"/>
			<polygon class="st2" points="30.4,59.8 165.2,59.8 161.5,46.7 34.7,46.7 			"/>
			<polygon class="st2" points="30.4,61.4 25.9,75.4 170.4,75.4 166.3,61.4 			"/>
			<polygon class="st2" points="20.1,93.3 25.9,77.1 172.2,78.1 177.2,94.5 			"/>
		</g>
	</g>
	<g>
		<polygon class="st0" points="190,129 188.5,129 187.6,125.7 187.7,125.7 182.8,108.7 181.9,108.7 181.4,106.9 181.5,106.9 
			176.9,90.9 23.2,90.9 18,106.9 18.4,108.7 18,108.7 12.6,125.7 13.1,127.8 12.6,127.8 5.5,147.5 6.6,151.6 195,153 196,148.9 		
			"/>
		<g>
			<polygon class="st1" points="17.5,112.8 181,112.8 176.4,96.8 22.6,96.8 16.4,108.7 			"/>
			<polygon class="st1" points="17.5,114.7 11,127.6 12.1,131.7 187.2,131.7 182.2,114.7 			"/>
			<polygon class="st1" points="5,153.4 4,149.3 12.1,133.7 189.5,135 194.5,150.8 193.5,154.9 			"/>
			<polygon class="st2" points="16.4,108.7 180,108.7 175.4,92.8 21.6,92.8 			"/>
			<polygon class="st2" points="16.4,110.6 11,127.6 186.2,127.6 181.2,110.6 			"/>
			<polygon class="st2" points="4,149.3 11,129.7 188.5,130.9 194.5,150.8 			"/>
		</g>
	</g>
</g>
</svg>
