<?xml version="1.0" encoding="utf-8"?>
<!-- Generator: Adobe Illustrator 19.0.1, SVG Export Plug-In . SVG Version: 6.00 Build 0)  -->
<svg version="1.1" id="Layer_1" xmlns="http://www.w3.org/2000/svg" xmlns:xlink="http://www.w3.org/1999/xlink" x="0px" y="0px"
	 viewBox="0 0 200 200" style="enable-background:new 0 0 200 200;" xml:space="preserve">
<style type="text/css">
	.st0{fill:#352924;}
	.st1{fill:#878787;}
	.st2{fill:#6D6D6C;}
</style>
<g>
	<path class="st0" d="M58,100.4c-7.2-0.2-14.5-0.3-21.7-0.5c-2.7-0.1-5.6-0.1-7.8,1.4c-2.2,1.5-3.3,4.1-4.7,6.3
		c-3.4,5.4-9.1,9.3-11.7,15.1c-2.5,5.5-1.8,11.8-1.1,17.8c0.2,1.4,0.4,2.9,1.1,4.2c0.9,1.5,2.6,2.3,4.3,2.8
		c7.9,2.6,16.5,0.7,24.7-0.3c28.1-3.4,56.4,4.5,84.8,4.8c7.7,0.1,15.5-0.4,23.2-1c11.7-0.8,23.4-1.6,35.1-2.3
		c3.8-0.2,8.3-1.1,9.5-4.7c1.2-3.8-2.6-7.2-5.7-9.8c-5.7-4.7-10.5-10.4-14.1-16.7c-2.1-3.6-4-7.6-7.7-9.4c-1.8-0.9-3.9-1.1-5.8-1.8
		c-2.4-0.8-4.4-2.4-6.6-3.8c-17.6-11.9-40.7-15.3-61-9c-11.7,3.6-23.3,7.2-35.6,7.2"/>
	<path class="st0" d="M51.8,51.2c-5.8,1.4-10,7.7-9,13.6c-5.6,0.5-11,2.9-15.2,6.7c-2,1.8-3.9,4.3-3.8,7c0.2,4.9,6,7.4,10.8,8.2
		c7.7,1.3,15.7,1.3,23.4,0.1c3.8-0.6,7.7-1.5,11.6-1.1c4.1,0.4,8,2.3,12,3.2c5.3,1.2,10.9,0.7,16.3,0.1c6.3-0.6,12.5-1.3,18.8-1.9
		c4.1-0.4,8.2-0.9,12.1-2.3c4.2-1.5,7.9-4,11.6-6.5c4.3-2.9,8.7-5.9,11.3-10.3c1.7-2.7,2.6-5.8,3.4-8.9c1-3.5,1.9-7.8-0.6-10.5
		c-2.9-3.2-8.1-1.7-12.4-1.6c-5.2,0.2-10.2-1.8-15.4-2.3c-3.7-0.3-7.4,0.1-11.1,0.6c-21.2,2.5-42.6,3.5-63.9,4.6"/>
	<path class="st1" d="M53.8,103.7c-7.2-0.2-14.5-0.3-21.7-0.5c-2.7-0.1-5.6-0.1-7.8,1.4c-2.2,1.5-3.3,4.1-4.7,6.3
		c-3.4,5.4-9.1,9.3-11.7,15.1c-2.5,5.5-1.8,11.8-1.1,17.8c0.2,1.4,0.4,2.9,1.1,4.2c0.9,1.5,2.6,2.3,4.3,2.8
		c7.9,2.6,16.5,0.7,24.7-0.3c28.1-3.4,56.4,4.5,84.8,4.8c7.7,0.1,15.5-0.4,23.2-1c11.7-0.8,23.4-1.6,35.1-2.3
		c3.8-0.2,8.3-1.1,9.5-4.7c1.2-3.8-2.6-7.2-5.7-9.8c-5.7-4.7-10.5-10.4-14.1-16.7c-2.1-3.6-4-7.6-7.7-9.4c-1.8-0.9-3.9-1.1-5.8-1.8
		c-2.4-0.8-4.4-2.4-6.6-3.8c-17.6-11.9-40.7-15.3-61-9c-11.7,3.6-23.3,7.2-35.6,7.2"/>
	<path class="st2" d="M47.6,54.5c-5.8,1.4-10,7.7-9,13.6c-5.6,0.5-11,2.9-15.2,6.7c-2,1.8-3.9,4.3-3.8,7c0.2,4.9,6,7.4,10.8,8.2
		c7.7,1.3,15.7,1.3,23.4,0.1c3.8-0.6,7.7-1.5,11.6-1.1c4.1,0.4,8,2.3,12,3.2c5.3,1.2,10.9,0.7,16.3,0.1c6.3-0.6,12.5-1.3,18.8-1.9
		c4.1-0.4,8.2-0.9,12.1-2.3c4.2-1.5,7.9-4,11.6-6.5c4.3-2.9,8.7-5.9,11.3-10.3c1.7-2.7,2.6-5.8,3.4-8.9c1-3.5,1.9-7.8-0.6-10.5
		c-2.9-3.2-8.1-1.7-12.4-1.6c-5.2,0.2-10.2-1.8-15.4-2.3c-3.7-0.3-7.4,0.1-11.1,0.6c-21.2,2.5-42.6,3.5-63.9,4.6"/>
</g>
</svg>
