<?xml version="1.0" encoding="utf-8"?>
<!-- Generator: Adobe Illustrator 19.0.1, SVG Export Plug-In . SVG Version: 6.00 Build 0)  -->
<svg version="1.1" id="Layer_1" xmlns="http://www.w3.org/2000/svg" xmlns:xlink="http://www.w3.org/1999/xlink" x="0px" y="0px"
	 viewBox="-379 181 200 200" style="enable-background:new -379 181 200 200;" xml:space="preserve">
<style type="text/css">
	.st0{opacity:0.75;}
	.st1{fill:#231F20;}
	.st2{fill:#E7D98A;}
	.st3{fill:#BEB483;}
</style>
<g>
	<g id="XMLID_5_">
		<g class="st0">
			<path class="st1" d="M-354.8,257.1c48.7-39,133.6-59.8,156.8-19.7s16.7,42.2-17.3,76.9s-39,25.8-73,25
				c-34-0.7-75.5-8.2-79.4-28.6C-371.6,290.3-354.8,257.1-354.8,257.1z"/>
		</g>
		<g>
			<path class="st2" d="M-358.5,259.8c48.7-39,133.6-59.8,156.8-19.7S-185,282.3-219,317s-39,25.8-73,25c-34-0.7-75.5-8.2-79.4-28.6
				C-375.3,293-358.5,259.8-358.5,259.8z"/>
		</g>
	</g>
	<path id="XMLID_6_" class="st3" d="M-302.9,320.2c0,0,10.4,0,12.5-3.6s6.1-10.4,9.7-8.6s19,2.3,20.4-0.3
		c1.4-2.6,29.4,11.7,23.8,13.9c-5.6,2.1-18.5,15.7-26,13.6c-7.5-2.1-29-0.7-27.9-3.9c1.1-3.2-10.4,1.8-12.5,0s-6.5-7.5-5-8.2
		C-306.4,322.4-302.9,320.2-302.9,320.2z"/>
</g>
</svg>
