<?xml version="1.0" encoding="utf-8"?>
<!-- Generator: Adobe Illustrator 19.0.1, SVG Export Plug-In . SVG Version: 6.00 Build 0)  -->
<svg version="1.1" id="Layer_1" xmlns="http://www.w3.org/2000/svg" xmlns:xlink="http://www.w3.org/1999/xlink" x="0px" y="0px"
	 viewBox="-379 181 200 200" style="enable-background:new -379 181 200 200;" xml:space="preserve">
<style type="text/css">
	.st0{fill:#231F20;}
	.st1{fill:#26A9E0;}
	.st2{fill:#C3E8F6;}
</style>
<g id="XMLID_7_">
	<g id="XMLID_8_">
		<g>
			<path class="st0" d="M-351.9,370c-1.8,0.7,61.9-41.9,73.8-88.4c13.8-54,66.1-97.6,66.1-97.6h14c0,0-46.3,38.1-55.9,99.9
				c-5.5,35.1-31.7,83.1-57,86.1L-351.9,370z"/>
		</g>
		<g>
			<path class="st1" d="M-355.9,374c-1.8,0.7,61.9-41.9,73.8-88.4c13.8-54,66.1-97.6,66.1-97.6h14c0,0-46.3,38.1-55.9,99.9
				c-5.5,35.1-31.7,83.1-57,86.1L-355.9,374z"/>
		</g>
	</g>
	<path id="XMLID_9_" class="st2" d="M-307.2,358.6c0,0,4.5-8.3,7.6-7.2c3,1.1,6-5.3,6-5.3s7.2-8.3,8.3-7.2s4.9-6.4,3-7.6
		c-1.9-1.1,3.8-11.3,5.7-10.9c1.9,0.4,2.6-3.8,2.8-7.2s2.8-6.4,5.5-9.4C-265.7,300.9-290.2,356.7-307.2,358.6z"/>
</g>
</svg>
