<?xml version="1.0" encoding="utf-8"?>
<!-- Generator: Adobe Illustrator 19.0.1, SVG Export Plug-In . SVG Version: 6.00 Build 0)  -->
<svg version="1.1" id="Layer_1" xmlns="http://www.w3.org/2000/svg" xmlns:xlink="http://www.w3.org/1999/xlink" x="0px" y="0px"
	 viewBox="-379 181 200 200" style="enable-background:new -379 181 200 200;" xml:space="preserve">
<style type="text/css">
	.st0{opacity:0.75;}
	.st1{fill:#231F20;}
	.st2{fill:#E7D98A;}
	.st3{fill:#BEB483;}
</style>
<g>
	<g id="XMLID_2_">
		<g class="st0">
			<path class="st1" d="M-350.7,250.8c17.8-13.3,52.8-16.3,63.1,4.3s46.8-3.5,52.8-9.3c6-5.8,31.1-2,48.8,16s-31.6,49.6-51.6,46.6
				s-53.6-6.3-52.1,3.5s-78.1,1.3-69.6-10.5c8.5-11.8-20.3-18.8-11-25C-360.9,270.1-350.7,250.8-350.7,250.8z"/>
		</g>
		<g>
			<path class="st2" d="M-354.6,253.6c17.8-13.3,52.8-16.3,63.1,4.3s46.8-3.5,52.8-9.3s31.1-2,48.8,16s-31.6,49.6-51.6,46.6
				c-20-3-53.6-6.3-52.1,3.5c1.5,9.8-78.1,1.3-69.6-10.5c8.5-11.8-20.3-18.8-11-25C-364.9,272.9-354.6,253.6-354.6,253.6z"/>
		</g>
	</g>
	<path id="XMLID_4_" class="st3" d="M-346.6,297.7c6.8-3.3,12.5-3.3,15.5,0c3,3.3,6.3,3.5,7.8,2.5c1.5-1,8.6-0.8,11.6,2.5
		c3,3.3,6,7.5,7.7,7c1.8-0.5-13,6.3-16.8,4.8c-3.8-1.5-10-5.3-7.5-6.3s-7.8-2.5-9.8-1c-2,1.5-8.3-0.2-6.3-2.2
		C-342.3,302.9-346.6,297.7-346.6,297.7z"/>
</g>
</svg>
