<?xml version="1.0" encoding="utf-8"?>
<!-- Generator: Adobe Illustrator 19.0.1, SVG Export Plug-In . SVG Version: 6.00 Build 0)  -->
<svg version="1.1" id="Layer_1" xmlns="http://www.w3.org/2000/svg" xmlns:xlink="http://www.w3.org/1999/xlink" x="0px" y="0px"
	 viewBox="-379 181 200 200" style="enable-background:new -379 181 200 200;" xml:space="preserve">
<style type="text/css">
	.st0{opacity:0.75;}
	.st1{fill:#231F20;}
	.st2{fill:#E7D98A;}
	.st3{fill:#BEB483;}
</style>
<g id="XMLID_3_">
	<g class="st0">
		<path class="st1" d="M-365.6,270c26-17.7,131.5-18.4,160.4-1.7s23.1,20.1,23.1,20.1s2.3,14-5.6,14.2c-7.9,0.2-31-18.6-43-13.1
			c-12,5.5-33.2,16.2-57.9,11.6c-24.7-4.6-27.5-17.3-33.6-14.6c-6.1,2.6-49.4,17.5-51.1,3.7C-375.2,276.3-365.6,270-365.6,270z"/>
	</g>
	<g>
		<path class="st2" d="M-367.9,271.6c26-17.7,131.5-18.4,160.4-1.7s23.1,20.1,23.1,20.1s2.3,14-5.6,14.2c-7.9,0.2-31-18.6-43-13.1
			c-12,5.5-33.2,16.2-57.9,11.6s-27.5-17.3-33.6-14.6c-6.1,2.6-49.4,17.5-51.1,3.7S-367.9,271.6-367.9,271.6z"/>
	</g>
</g>
<path id="XMLID_8_" class="st3" d="M-301.9,277.3c4-2.4,1.2-4.4,6.9-1.7s7.4,3.7,12.3,2.6c4.9-1.1,4.7-4.5,9.5-1.7s7.5,5.9,13.4,4.1
	c5.9-1.7-5.8,6.6-3.1,7s-6-2.2-9.4-2.2c-3.3,0-7.7-1.7-13.8-0.9c-6.1,0.9-7,1.3-9.8-1.3C-298.7,280.6-301.9,277.3-301.9,277.3z"/>
</svg>
