<?xml version="1.0" encoding="utf-8"?>
<!-- Generator: Adobe Illustrator 19.0.1, SVG Export Plug-In . SVG Version: 6.00 Build 0)  -->
<svg version="1.1" id="Layer_1" xmlns="http://www.w3.org/2000/svg" xmlns:xlink="http://www.w3.org/1999/xlink" x="0px" y="0px"
	 viewBox="-379 181 200 200" style="enable-background:new -379 181 200 200;" xml:space="preserve">
<style type="text/css">
	.st0{fill:#231F20;}
	.st1{fill:#26A9E0;}
	.st2{fill:#CBEAF5;stroke:#BBE1EF;stroke-width:0.7028;stroke-miterlimit:10;}
</style>
<g id="XMLID_11_">
	<g id="XMLID_5_">
		<g>
			<path class="st0" d="M-363.3,256.6c0,0-7-65.1,100.7-36.1s111.4,93.6-15.5,115.5S-363.3,256.6-363.3,256.6z"/>
		</g>
		<g>
			<path class="st1" d="M-368.3,261.5c0,0-7-65.1,100.7-36.1s111.4,93.6-15.5,115.5S-368.3,261.5-368.3,261.5z"/>
		</g>
	</g>
	<path id="XMLID_6_" class="st2" d="M-299.5,298.4c0,0,1.1,2.5,7.2-5c0,0,6.9,3.7,8.7,1.4s3.8,3.3,5.6-1.4s4.2,1.9,6.1,0
		s6.1,0.5,6.1,0.5s7,3.3,10.3,1.4s7.8-4.4,7.8-4.4s5.5,2.9,10,0c6.9-4.6,7.5,2.1,7.5-2.1c0,0,0,0,3.3-2.8
		C-226.8,285.9-226.4,302.6-299.5,298.4z"/>
</g>
</svg>
