<?xml version="1.0" encoding="utf-8"?>
<!-- Generator: Adobe Illustrator 19.0.1, SVG Export Plug-In . SVG Version: 6.00 Build 0)  -->
<svg version="1.1" id="Layer_1" xmlns="http://www.w3.org/2000/svg" xmlns:xlink="http://www.w3.org/1999/xlink" x="0px" y="0px"
	 viewBox="-379 181 200 200" style="enable-background:new -379 181 200 200;" xml:space="preserve">
<style type="text/css">
	.st0{fill:#E2F3FC;}
	.st1{opacity:0.75;}
	.st2{fill:#231F20;}
	.st3{fill:#26A9E0;}
	.st4{fill:#E7D98A;stroke:#BBE1EF;stroke-width:1.4424;stroke-miterlimit:10;}
	.st5{fill:#CBEAF5;stroke:#BBE1EF;stroke-width:0.4808;stroke-miterlimit:10;}
</style>
<g>
	<path id="XMLID_1_" class="st0" d="M-188.2,277.9"/>
	<g id="XMLID_15_">
		<g class="st1">
			<path class="st2" d="M-364.5,249.9c32.4-25.3,114.7-44.6,153.2-9s39.1,69.6-17.6,80.8s-141.4,34-143.3-13.3
				S-364.5,249.9-364.5,249.9z"/>
		</g>
		<g>
			<path class="st3" d="M-365.9,253.3c32.4-25.3,114.7-44.6,153.2-9s39.1,69.6-17.6,80.8s-141.4,34-143.3-13.3
				S-365.9,253.3-365.9,253.3z"/>
		</g>
	</g>
	<path id="XMLID_16_" class="st4" d="M-304.5,267.4c16.3-16.3,42.3-16.7,51-7.7s1,22.8-4.6,26.6c-5.6,3.8-43.8,9.3-46.3,0
		S-304.5,267.4-304.5,267.4z"/>
	<path id="XMLID_21_" class="st5" d="M-304.5,267.4c0,0-3.3,9.9,0,18.9s38.1,5.1,46.3,0c8.3-5.1,8.2-13.7,8.2-13.7
		s0.9,14.3-3.4,16.6c-4.3,2.3-12.6,7.4-8.1,4.8s-9.6,1-4.5,1.3s-8.3-2.2-4.2-2.6s-5.4,1.3-7.5,4.2c-2.1,2.9-5.3,1-8.8-1.6
		s-1.6,1.6-7.1,1.6c-5.4,0-0.3-2.2-0.3-2.2h-4.2c0,0-6.4,2.2-1,2.2s-3.4,2.2-7,0s0.3-2.2,0.3-2.2l-2.3-3.2c0,0-8.5,2.2-2.3,0
		s0-3.2,0-3.2s2.3-6.1,0-2.9s-1.2-6.3,2.3-2.7c3.4,3.6-2.3-1.8-2.3-1.8v-6.7l2.3-1.5v-3.6L-304.5,267.4z"/>
</g>
</svg>
