<?xml version="1.0" encoding="utf-8"?>
<!-- Generator: Adobe Illustrator 19.0.1, SVG Export Plug-In . SVG Version: 6.00 Build 0)  -->
<svg version="1.1" id="Layer_1" xmlns="http://www.w3.org/2000/svg" xmlns:xlink="http://www.w3.org/1999/xlink" x="0px" y="0px"
	 viewBox="-379 181 200 200" style="enable-background:new -379 181 200 200;" xml:space="preserve">
<style type="text/css">
	.st0{opacity:0.75;}
	.st1{fill:#231F20;}
	.st2{fill:#26A9E0;}
	.st3{fill:#CBEAF5;stroke:#BBE1EF;stroke-width:0.335;stroke-miterlimit:10;}
</style>
<g>
	<g id="XMLID_13_">
		<g class="st0">
			<path class="st1" d="M-364.2,265.9c0,0,65.4,9,86.3,2.6c42.3-13,96.6-5.8,96.6-5.8l-13.4,24.3c0,0-34.6-8.3-83.9,5.6
				c-36.5,10.3-96-2.7-96-2.7L-364.2,265.9z"/>
		</g>
		<g>
			<path class="st2" d="M-365.3,268.2c0,0,65.4,9,86.3,2.6c42.3-13,96.6-5.8,96.6-5.8l-13.4,24.3c0,0-34.6-8.3-83.9,5.6
				c-36.5,10.3-96-2.7-96-2.7L-365.3,268.2z"/>
		</g>
	</g>
	<path id="XMLID_14_" class="st3" d="M-314.3,293.1c0,0,2.6-2.1,4.2-1.9c1.6,0.3,1.6,0.3,1.6,0.3l-2.5,1.2c0,0,4-1.9,5.4-1.4
		c1.4,0.5-1.6,1.8-1.6,1.8s2.4-2.4,5.8-1.9c3.4,0.5,1.8-0.2,1.8-0.2l-2.7,1.5c0,0,5.3-2.7,7.2-2c1.9,0.7,1.9,0.7,1.9,0.7l-3.7,0.7
		c0,0,4.8-5,7.5-3.2c2.7,1.8-0.8,2.4-0.8,2.4s2.9-2.6,6.4-2.2c3.5,0.3,3.5,0.3,3.5,0.3l-5.7,2.7l8.6-3.2l-4.2,4l-28.9,2.6
		L-314.3,293.1z"/>
</g>
</svg>
