<?xml version="1.0" encoding="utf-8"?>
<!-- Generator: Adobe Illustrator 19.0.1, SVG Export Plug-In . SVG Version: 6.00 Build 0)  -->
<svg version="1.1" id="Layer_1" xmlns="http://www.w3.org/2000/svg" xmlns:xlink="http://www.w3.org/1999/xlink" x="0px" y="0px"
	 viewBox="-379 181 200 200" style="enable-background:new -379 181 200 200;" xml:space="preserve">
<style type="text/css">
	.st0{fill:#231F20;}
	.st1{fill:#26A9E0;}
	.st2{fill:#E2F3FC;}
</style>
<g id="XMLID_10_">
	<g id="XMLID_2_">
		<g>
			<path class="st0" d="M-194.6,255c10.6,6.2,14.5,17.9,8.3,23.9c-6.2,6-41.6,38.3-60,26.1s-40.3-17.5-53.2-5.5s-29,27-50.3,21
				s-20.8-60.5-11.3-68.4c9.5-8,32.3-1.8,38.1-16.2c6.9-16.9,77.8-8,106.8,6.2C-211,244.7-203.8,245.8-194.6,255z"/>
		</g>
		<g>
			<path class="st1" d="M-201.3,261.7c10.6,6.2,14.5,17.9,8.3,23.9c-6.2,6-41.6,38.3-60,26.1c-18.4-12.2-40.3-17.5-53.2-5.5
				c-12.8,12-29,27-50.3,21s-20.8-60.5-11.3-68.4c9.5-8,32.3-1.8,38.1-16.2c6.9-16.9,77.8-8,106.8,6.2
				C-217.6,251.4-210.4,252.4-201.3,261.7z"/>
		</g>
	</g>
	<path id="XMLID_3_" class="st2" d="M-296.5,281.4c0,0,15.7,0.7,19.7-4.9c0,0,6.4,8,14.6,6.2c0,0,16.2-1.3,14.8-7.1
		c0,0,9.5,8,19.5,2.7c0,0,12.6-3.8,14-9.6c0,0,9.1,6.6,13.1,4.2C-196.8,270.6-235.6,300.9-296.5,281.4z"/>
</g>
</svg>
