<?xml version="1.0" encoding="utf-8"?>
<!-- Generator: Adobe Illustrator 19.0.1, SVG Export Plug-In . SVG Version: 6.00 Build 0)  -->
<svg version="1.1" id="Layer_1" xmlns="http://www.w3.org/2000/svg" xmlns:xlink="http://www.w3.org/1999/xlink" x="0px" y="0px"
	 viewBox="-211.3 58.3 794.3 514.5" style="enable-background:new -211.3 58.3 794.3 514.5;" xml:space="preserve">
<style type="text/css">
	.st0{fill:#252E35;}
	.st1{fill:#218762;}
	.st2{fill:#90E563;}
</style>
<rect x="-224.2" y="46.1" class="st0" width="819.2" height="542"/>
<path class="st1" d="M-88.2,141.2c-25.4-5.2-54-6.1-75.1,9c-21.1,15.1-27.4,51.3-6.2,66.3c8.4,5.9,20.2,8.5,24.5,17.8
	c1.9,4.1,1.9,8.8,1.6,13.3c-1.1,18.8-6.1,37.3-14.6,54.1c-9.2,18.2-22.3,34.3-30.5,52.9c-8.9,20.3-11.7,43.3-7.8,65.1
	c0.9,4.9,2.2,10,5.7,13.6c5.5,5.7,14.4,5.9,22.2,5.2c40.7-3.6,79.2-20.7,119.8-25.5c6.6-0.8,13.4-1.2,19.8,0.6
	c16.2,4.5,25.1,21.3,33.7,35.8c49.4,82.5,151.3,130.1,246.3,114.9c21.7-3.5,45.6-12.1,54.2-32.4c11.9-28.1-11.3-66.1,9.2-88.7
	c6.7-7.4,16.5-10.9,26.2-13.4c66.6-16.9,136.1,5.2,204.5,11.5c6.3,0.6,13,1,18.6-1.9c11-5.6,12.9-20.3,13.3-32.7
	c1-26.8,1.6-55.3-12.4-78.2c-21.5-35.4-68.1-44-102.8-66.7c-3.6-2.4-7.3-5.1-9.1-9.1c-2.9-6.3-0.2-13.7,3.2-19.7
	c16.2-28.5,47.4-44.7,69.7-68.8c10.4-11.2,19.2-26.9,13.8-41.2c-6.8-17.6-29.8-21.1-48.7-20.8c-52.5,0.8-104.5,9.3-156.4,17.4
	c-10.6,1.7-21.4,3.3-32.1,3c-14.7-0.4-29-4.4-43.2-8c-28.8-7.4-57.8-13.8-87.1-19c-24.9-4.4-50.1-8-75.3-6.5
	c-23.3,1.5-46.1,7.3-68.5,13.8c-39.2,11.3-77.9,24.5-115.8,39.5"/>
<path class="st2" d="M-97.2,116.2c-25.4-5.2-54-6.1-75.1,9s-27.4,51.3-6.2,66.3c8.4,5.9,20.2,8.5,24.5,17.8
	c1.9,4.1,1.9,8.8,1.6,13.3c-1.1,18.8-6.1,37.3-14.6,54.1c-9.2,18.2-22.3,34.3-30.5,52.9c-8.9,20.4-11.7,43.3-7.8,65.2
	c0.9,4.9,2.2,10,5.7,13.6c5.5,5.7,14.4,5.9,22.2,5.2c40.7-3.6,79.2-20.7,119.8-25.5c6.6-0.8,13.4-1.2,19.8,0.6
	c16.2,4.5,25.1,21.3,33.7,35.8C45.3,507,147.2,554.6,242.2,539.4c21.7-3.5,45.6-12.1,54.2-32.4c11.9-28.1-11.3-66.1,9.2-88.7
	c6.7-7.4,16.5-10.9,26.2-13.4c66.6-16.9,136.1,5.2,204.5,11.5c6.3,0.6,13,1,18.6-1.9c11-5.6,12.9-20.3,13.3-32.7
	c1-26.8,1.6-55.3-12.4-78.2c-21.5-35.4-68.1-44-102.8-66.7c-3.6-2.4-7.3-5.1-9.1-9.1c-2.9-6.3-0.2-13.7,3.2-19.7
	c16.2-28.5,47.4-44.7,69.7-68.8c10.4-11.2,19.2-26.9,13.8-41.2c-6.8-17.6-29.8-21.1-48.7-20.8c-52.5,0.8-104.5,9.3-156.4,17.4
	c-10.6,1.7-21.4,3.3-32.1,3c-14.7-0.4-29-4.4-43.2-8c-28.8-7.4-57.8-13.8-87.1-19c-24.9-4.4-50.1-8-75.3-6.5
	C64.5,65.7,41.7,71.5,19.3,78c-39.2,11.3-77.9,24.5-115.8,39.5"/>
</svg>
