<?xml version="1.0" encoding="utf-8"?>
<!-- Generator: Adobe Illustrator 19.0.1, SVG Export Plug-In . SVG Version: 6.00 Build 0)  -->
<svg version="1.1" id="Layer_1" xmlns="http://www.w3.org/2000/svg" xmlns:xlink="http://www.w3.org/1999/xlink" x="0px" y="0px"
	 viewBox="0 0 200 200" style="enable-background:new 0 0 200 200;" xml:space="preserve">
<style type="text/css">
	.st0{fill:#352924;}
	.st1{fill:#919191;}
	.st2{fill:#2B2B2B;}
	.st3{fill:#424242;}
</style>
<g>
	<path class="st0" d="M188.8,67.1l-37.1-6.6l-140,15.2c-6.9,4.9-7.3,15.9-5.5,20.1l16.6,11V118l22.9,19.8l27-7.3l-2.4-23.9l-7.3,1.2
		L136.1,96l25,13l19.4-5.9V88.8l5.9-1C186.4,87.9,204.8,80.6,188.8,67.1z"/>
	<g>
		<polygon class="st1" points="11.1,77.5 32.9,87.2 188.1,68.8 151.1,62.2 		"/>
		<polyline points="45,139.5 22.2,119.8 22.2,104.9 42,106.2 42,112.8 		"/>
		<path class="st2" d="M11.1,77.5c-6.9,4.9-7.3,15.9-5.5,20.1l25.6,17c0,0-6.6-17.7,1.7-27.4L11.1,77.5z"/>
		<path class="st3" d="M31.2,114.6l154.5-24.9c0,0,18.4-7.3,2.4-20.8L32.9,87.2C32.9,87.2,24.2,95.5,31.2,114.6z"/>
		<polygon class="st1" points="42,112.8 45,139.5 72.1,132.2 69.6,108.3 		"/>
		<polygon class="st1" points="160.4,110.7 179.8,104.9 179.8,90.6 162.2,93.4 		"/>
		<polygon points="160.4,110.7 135.4,97.7 162.2,93.4 		"/>
	</g>
</g>
</svg>
