<?xml version="1.0" encoding="utf-8"?>
<!-- Generator: Adobe Illustrator 19.0.1, SVG Export Plug-In . SVG Version: 6.00 Build 0)  -->
<svg version="1.1" id="Layer_1" xmlns="http://www.w3.org/2000/svg" xmlns:xlink="http://www.w3.org/1999/xlink" x="0px" y="0px"
	 viewBox="0 0 200 200" style="enable-background:new 0 0 200 200;" xml:space="preserve">
<style type="text/css">
	.st0{fill:#352924;}
	.st1{fill:#4C372E;}
	.st2{fill:#D3A17D;}
</style>
<g>
	<path class="st0" d="M188.9,71.2l0-0.3c0.3-1.3,0.1-2.5,0.1-2.5c-12.1-2-27.3-8.8-27.3-8.8L17.4,75.9l0,0c-1.4-0.2-2.9,0.3-3.7,1.6
		c-0.9,1.4-0.7,3.1,0.3,4.3l1.1,43.3c0,1.1,1,2,2.1,2l3.5-0.1c1,0,1.9-0.8,2-1.8l8.8,6.9v4.3c0,1,0.8,1.9,1.8,1.9H37
		c1,0,1.8-0.8,1.8-1.9v-11.9l135-26.7l6.3,2.7l-0.2,3.7c-0.1,1,0.7,1.9,1.8,2l3.1,0.2c1,0.1,1.9-0.7,2-1.8l1.6-24.6l0,0l0.4-5.7
		L188.9,71.2C188.9,71.2,188.9,71.2,188.9,71.2z M25.1,120.6l-2.5-2l-1.2-32l10.2,6.5v26.3L25.1,120.6z M38.9,104.6l120.8-19.9
		l-0.6,8.7c0,0.4,0.1,0.8,0.3,1.1L38.9,117.9V104.6z M180.5,95.1L166.3,89l0.4-5.5l14.8-2.4L180.5,95.1z"/>
	<g>
		<g>
			
				<rect x="159.7" y="94.2" transform="matrix(0.9191 0.3941 -0.3941 0.9191 51.9718 -59.5591)" class="st1" width="22.6" height="5.1"/>
		</g>
		<g>
			<path class="st2" d="M162.1,97.7l-3.1-0.2c-1-0.1-1.8-0.9-1.8-2l2.1-30.2c0.1-1,1-1.8,2-1.7l3.1,0.2c1,0.1,1.8,0.9,1.8,2
				L164.1,96C164.1,97,163.2,97.8,162.1,97.7z"/>
		</g>
		<g>
			
				<rect x="13.2" y="124.5" transform="matrix(0.7862 0.6179 -0.6179 0.7862 83.712 12.0088)" class="st1" width="22.6" height="5.1"/>
		</g>
		<g>
			<polygon class="st1" points="23.9,129.3 20.9,123.3 169.9,94.3 173,99.8 			"/>
		</g>
		<g>
			<path class="st2" d="M182.9,108.5l-3.1-0.2c-1-0.1-1.8-1-1.8-2l2.2-33.4c0.1-1,1-1.8,2-1.8l3.1,0.2c1,0.1,1.8,1,1.8,2l-2.2,33.4
				C184.9,107.8,184,108.6,182.9,108.5z"/>
		</g>
		<polygon class="st1" points="36.6,98.3 35.6,107 186.6,82.2 187.2,72.6 37.8,96.5 		"/>
		<g>
			<path class="st2" d="M35.2,140.5h-3.7c-1,0-1.8-0.8-1.8-1.9V94.2c0-1,0.8-1.9,1.8-1.9h3.7c1,0,1.8,0.8,1.8,1.9v44.5
				C37.1,139.7,36.2,140.5,35.2,140.5z"/>
		</g>
		<path class="st2" d="M15.6,78.1l144.3-16.4c0,0,15.3,6.7,27.3,8.8c0,0,0.6,5.2-3,5.4c-3.6,0.2-147.1,22.4-147.1,22.4
			s2.4-3.4,0.2-5.8S19,86.6,15.6,78.1z"/>
		<g>
			<path class="st2" d="M13.3,127.3L12.2,83c0-1.3,1.2-2.3,2.5-2.1l1.4,0.3c1.8,0.4,3.2,2,3.2,3.9l1.6,42c0,1.1-0.9,2.1-2,2.1
				l-3.5,0.1C14.3,129.4,13.4,128.5,13.3,127.3z"/>
		</g>
		<path class="st1" d="M41.9,102.9L12,84c-1.1-0.7-1.4-2.1-0.7-3.2l1.4-2.2c0.7-1.1,2.1-1.4,3.2-0.7l29.9,18.9
			c1.1,0.7,1.4,2.1,0.7,3.2l-1.4,2.2C44.4,103.3,42.9,103.6,41.9,102.9z"/>
	</g>
</g>
</svg>
