<?xml version="1.0" encoding="utf-8"?>
<!-- Generator: Adobe Illustrator 19.0.1, SVG Export Plug-In . SVG Version: 6.00 Build 0)  -->
<svg version="1.1" id="Layer_1" xmlns="http://www.w3.org/2000/svg" xmlns:xlink="http://www.w3.org/1999/xlink" x="0px" y="0px"
	 viewBox="0 0 200 200" style="enable-background:new 0 0 200 200;" xml:space="preserve">
<style type="text/css">
	.st0{fill:#352924;}
	.st1{fill:#FFFFFF;}
	.st2{fill:#FFFFFF;stroke:#000000;stroke-width:7.5896;stroke-miterlimit:10;}
	.st3{fill:#FFFFFF;stroke:#000000;stroke-width:8.1895;stroke-miterlimit:10;}
	.st4{fill:#D3A17D;}
	.st5{fill:#82614A;}
</style>
<g>
	<path class="st0" d="M194.9,108.4c0,0,0.5-1.1-0.6-2.4l0.3,0c0,0,2.8-6.3-19.5-5.4l-0.1-0.1l-0.2,0.2c-1,0-2.1,0.1-3.3,0.2
		l-10.6,0.5l-0.2-4.7l12.8-0.5l-0.3-7.4l-12.7,0.5l-0.1-1.9l13.1-0.5l-0.3-7.4l-13,0.5l-0.1-3.3l13.5-0.6l-0.3-7.4l-13.4,0.5
		l-0.1-2.2l12.8-0.4l-0.2-7.4L6.1,64.7l0.2,7.4l12.1-0.4l0.1,3.4L7,75.6l0.3,7.4l11.4-0.5l0.1,3.3L7,86.2l0.3,7.4L19,93.1l0.1,1.9
		L7,95.5l0.3,7.4l11.9-0.5l0.2,5.8l-8.3,0.4c0,0-1.5,1.9-0.2,3.6c-0.2,0.8-0.3,1.8,0.6,2.7c3.1,3.1,4.9,1.3,8.2,2l0.6,19.7
		c0,1.7,1.5,3.1,3.2,3l3.1-0.1c1.7,0,3.1-1.5,3-3.2l-0.3-10.5l15.1-7.6l-0.2-0.3l107.7-6.8l0.5,15.8c0.1,1.7,1.5,3.1,3.2,3l3.1-0.1
		c1.7-0.1,3.1-1.5,3-3.2l-0.3-7.7l14.4-9.2L194.9,108.4z M150.7,77.1l0.1,3.3l-122.7,5L28,82.1L150.7,77.1z M27.8,74.7l-0.1-3.3
		l122.7-4l0.1,2.2L27.8,74.7z M151,87.7l0.1,1.9l-122.8,5l-0.1-1.9L151,87.7z M151.4,97l0.2,4.7l-122.8,6l-0.2-5.7L151.4,97z"/>
	<g>
		<g>
			<line class="st1" x1="21.8" y1="65.6" x2="23.9" y2="140.6"/>
			<path d="M19.2,137.6l-2-68.8c0-1.7,1.3-3.2,3-3.2l3.1-0.1c1.7,0,3.2,1.3,3.2,3l2,68.8c0,1.7-1.3,3.2-3,3.2l-3.1,0.1
				C20.6,140.7,19.2,139.3,19.2,137.6z"/>
		</g>
		<line class="st2" x1="22.8" y1="125.2" x2="41.5" y2="115.8"/>
		<g>
			<line class="st1" x1="153.7" y1="61.3" x2="156.1" y2="130.8"/>
			<path d="M151.3,127.9l-2.2-63.3c-0.1-1.7,1.3-3.2,3-3.2l3.1-0.1c1.7-0.1,3.2,1.3,3.2,3l2.2,63.3c0.1,1.7-1.3,3.2-3,3.2l-3.1,0.1
				C152.8,131,151.4,129.6,151.3,127.9z"/>
		</g>
		<line class="st3" x1="156.1" y1="117.7" x2="176.1" y2="104.9"/>
		
			<rect x="5.1" y="63.1" transform="matrix(0.9995 -3.223342e-02 3.223342e-02 0.9995 -2.1069 2.8775)" class="st4" width="166.2" height="7.4"/>
		
			<rect x="6" y="73.2" transform="matrix(0.9992 -4.096632e-02 4.096632e-02 0.9992 -3.0757 3.7165)" class="st4" width="166.2" height="7.4"/>
		
			<rect x="6" y="83.9" transform="matrix(0.9992 -4.096632e-02 4.096632e-02 0.9992 -3.512 3.7255)" class="st4" width="166.2" height="7.4"/>
		
			<rect x="6" y="93.2" transform="matrix(0.9992 -4.096632e-02 4.096632e-02 0.9992 -3.8925 3.7333)" class="st4" width="166.2" height="7.4"/>
		<path class="st5" d="M10.4,115.9c4.2,4.2,6.2-0.7,12.6,4.3l170.7-10.7c0,0,3.1-6.9-23.1-5.2L10.4,112
			C10.4,112,8.8,114.2,10.4,115.9z"/>
		<path class="st4" d="M10.1,113.5c4.2,4.2,6.2-0.7,12.6,4.3L193.5,107c0,0,3.1-6.9-23.1-5.2l-160.3,7.8
			C10.1,109.6,8.4,111.8,10.1,113.5z"/>
	</g>
</g>
</svg>
