<?xml version="1.0" encoding="utf-8"?>
<!-- Generator: Adobe Illustrator 19.0.1, SVG Export Plug-In . SVG Version: 6.00 Build 0)  -->
<svg version="1.1" id="Layer_1" xmlns="http://www.w3.org/2000/svg" xmlns:xlink="http://www.w3.org/1999/xlink" x="0px" y="0px"
	 viewBox="0 0 200 200" style="enable-background:new 0 0 200 200;" xml:space="preserve">
<style type="text/css">
	.st0{fill:#352924;}
	.st1{fill:none;stroke:#FCF1B4;stroke-width:4.9423;stroke-miterlimit:10;}
	.st2{fill:none;stroke:#C98C57;stroke-width:8.2372;stroke-miterlimit:10;}
	.st3{fill:none;}
	.st4{fill:#513C33;}
	.st5{fill:#C98C57;}
	.st6{fill:#FCF1B4;}
	.st7{fill:none;stroke:#C98C57;stroke-width:8.6219;stroke-miterlimit:10;}
	.st8{fill:#996945;}
</style>
<g>
	<path class="st0" d="M174.8,91c0.1-0.3,0.1-0.7,0.1-1.1c0-2.4-1.9-4.4-4.4-4.4c-2.4,0-4.4,1.9-4.4,4.4c0,0.6,0.1,1.1,0.3,1.6
		l-0.1,1.4c-11.4-6.4-26.4-11.2-38-14.4c-2.9-0.8-5.8-1.5-8.8-2.2l0-2.2c0.1-0.4,0.2-0.7,0.2-1.1c0-2.4-1.9-4.4-4.4-4.4
		c-2.4,0-4.4,1.9-4.4,4.4c0,0.5,0.1,1,0.3,1.5c-10.9-2.3-22.3-4.2-33.1-5.5l-0.2-3.8c0.1-0.4,0.2-0.9,0.2-1.3c0-2.4-1.9-4.4-4.4-4.4
		s-4.4,1.9-4.4,4.4c0,0.5,0.1,1,0.2,1.4l1.1,20.2c-0.2,0-0.4,0-0.7-0.1l0-2l0,0c0.2-0.4,0.2-0.9,0.2-1.4c0-2.4-1.9-4.4-4.4-4.4
		s-4.4,1.9-4.4,4.4c0,0.5,0.1,1,0.3,1.5l0,0l0,1c-11-3.7-21.8-6.9-30.9-8.6L30.7,72c0-0.1,0-0.2,0-0.4c0-2.4-1.9-4.4-4.4-4.4
		c-2.4,0-4.4,1.9-4.4,4.4c0,0.8,0.2,1.5,0.6,2.2L25,97.6l-1.8,0.5v1.1v5.9c10.8,2.8,75.1,32.6,102.1,49.1c1.7,1,3.2,2,4.6,2.9
		l4.1-2.5c-0.6-0.5-1.2-1-1.9-1.5l0,0c0.6,0.5,1.3,1,1.9,1.5l1.9-1.2l38.5-23.9l0.3-6c-0.6-0.3-1.1-0.6-1.7-0.9L174.8,91L174.8,91z
		 M166.1,98.4l-0.6,9.7c-15.4-8.3-30.7-14.9-46-19.8l0-6.9C138.1,85.8,155.1,91.7,166.1,98.4z M111.4,79.4l0,6.4
		c-10.9-3.1-21.8-5.3-32.6-6.6l-0.3-5.3C89.1,75.1,100.4,77,111.4,79.4z M79.1,84.2c10.7,1.4,21.4,3.6,32.3,6.7l0,4
		c-10.8-3.7-21.7-6.6-32.1-8.4L79.1,84.2z M56.8,87.9l-15.3,4.7c-3-0.6-5.9-1.2-8.9-1.7l-1-10C39.1,82.5,47.8,84.9,56.8,87.9z
		 M129.9,151.4L129.9,151.4c0.6,0.5,1.3,1,1.9,1.5l0,0C131.2,152.4,130.6,151.9,129.9,151.4z M119.6,97.8l0-4.4
		c15.2,5,30.4,11.7,45.7,20.1l-0.3,4.8C151.3,111.1,135.6,103.8,119.6,97.8z"/>
	<g>
		<path class="st1" d="M69.5,71.9c35.1,3.5,81.8,14.3,101,29"/>
		<path class="st1" d="M69.5,82.2c23.7,2,58.3,9.3,100.3,33.4"/>
		<line class="st2" x1="168.9" y1="92.1" x2="167" y2="124.6"/>
		<line class="st2" x1="113.7" y1="74.8" x2="113.6" y2="100.5"/>
		<line class="st2" x1="72.1" y1="66.1" x2="73.3" y2="90.1"/>
		<path class="st3" d="M84.4,123.7c-0.4-0.2-0.8-0.4-1.1-0.6C83.6,123.3,84,123.5,84.4,123.7z"/>
		<path class="st3" d="M82.5,122.7c-0.4-0.2-0.7-0.4-1.1-0.5C81.7,122.3,82.1,122.5,82.5,122.7z"/>
		<path class="st3" d="M80.5,121.7c-0.4-0.2-0.7-0.4-1.1-0.5C79.8,121.4,80.2,121.6,80.5,121.7z"/>
		<path class="st3" d="M78.6,120.8c-0.4-0.2-0.7-0.3-1.1-0.5C77.9,120.4,78.3,120.6,78.6,120.8z"/>
		<path class="st3" d="M91.1,127.2c-0.4-0.2-0.8-0.4-1.2-0.6C90.3,126.8,90.7,127,91.1,127.2z"/>
		<path class="st3" d="M92.9,128.2c-0.4-0.2-0.8-0.4-1.1-0.6C92.2,127.8,92.6,128,92.9,128.2z"/>
		<path class="st3" d="M76.7,119.9c-0.4-0.2-0.7-0.3-1.1-0.5C76,119.5,76.3,119.7,76.7,119.9z"/>
		<path class="st3" d="M88,125.5c-1-0.5-2-1.1-3-1.6C86,124.5,87,125,88,125.5z"/>
		<path class="st3" d="M89.3,126.2c-0.4-0.2-0.8-0.4-1.3-0.7C88.4,125.8,88.9,126,89.3,126.2z"/>
		<path class="st3" d="M64.2,114c-0.3-0.1-0.6-0.3-0.9-0.4C63.6,113.8,63.9,113.9,64.2,114z"/>
		<path class="st3" d="M74.8,118.9c-0.3-0.2-0.7-0.3-1-0.5C74.1,118.6,74.4,118.8,74.8,118.9z"/>
		<path class="st3" d="M62.3,113.2c-0.3-0.1-0.6-0.3-0.9-0.4C61.7,112.9,62,113.1,62.3,113.2z"/>
		<path class="st3" d="M58.5,111.5c-0.3-0.1-0.6-0.3-0.9-0.4C57.9,111.3,58.2,111.4,58.5,111.5z"/>
		<path class="st3" d="M94.8,129.2c-0.4-0.2-0.8-0.4-1.1-0.6C94,128.8,94.4,129,94.8,129.2z"/>
		<path class="st3" d="M56.5,110.7c-0.3-0.1-0.6-0.2-0.8-0.3C56,110.5,56.2,110.6,56.5,110.7z"/>
		<path class="st3" d="M60.4,112.4c-0.3-0.1-0.6-0.3-0.9-0.4C59.8,112.1,60.1,112.2,60.4,112.4z"/>
		<path class="st3" d="M70.8,117.1c-0.6-0.3-1.2-0.5-1.7-0.8C69.7,116.5,70.3,116.8,70.8,117.1z"/>
		<path class="st3" d="M54.5,109.9c-0.2-0.1-0.4-0.2-0.7-0.3C54,109.7,54.3,109.8,54.5,109.9z"/>
		<path class="st3" d="M68.1,115.8c-0.3-0.1-0.6-0.3-0.9-0.4C67.4,115.5,67.7,115.6,68.1,115.8z"/>
		<path class="st3" d="M66.1,114.9c-0.3-0.1-0.6-0.3-0.9-0.4C65.5,114.6,65.8,114.8,66.1,114.9z"/>
		<path class="st3" d="M72.8,118c-0.3-0.2-0.7-0.3-1-0.5C72.1,117.7,72.5,117.8,72.8,118z"/>
		<path class="st3" d="M127.1,149.4c-0.3-0.2-0.6-0.5-1-0.7C126.5,148.9,126.8,149.2,127.1,149.4z"/>
		<path class="st3" d="M125.6,148.3c-0.3-0.2-0.6-0.5-1-0.7C125,147.9,125.3,148.1,125.6,148.3z"/>
		<path class="st3" d="M119.9,144.3c-1.4-0.9-2.8-1.9-4.3-2.8C117.1,142.5,118.5,143.4,119.9,144.3z"/>
		<path class="st3" d="M121.1,145.2c-0.4-0.3-0.8-0.5-1.1-0.8C120.4,144.7,120.8,144.9,121.1,145.2z"/>
		<path class="st3" d="M122.6,146.2c-0.3-0.2-0.7-0.5-1.1-0.7C121.9,145.7,122.3,146,122.6,146.2z"/>
		<path class="st3" d="M124.1,147.3c-0.3-0.2-0.7-0.5-1-0.7C123.5,146.8,123.8,147,124.1,147.3z"/>
		<path class="st3" d="M136.8,157.1c0.4,0.3,0.8,0.7,1.2,1C137.6,157.8,137.2,157.5,136.8,157.1z"/>
		<path class="st3" d="M130,151.6c-0.3-0.3-0.7-0.5-1-0.8C129.3,151.1,129.7,151.3,130,151.6z"/>
		<path class="st3" d="M128.6,150.5c-0.3-0.2-0.6-0.5-1-0.7C127.9,150,128.2,150.3,128.6,150.5z"/>
		<path class="st3" d="M111.9,139.2c-0.4-0.2-0.7-0.5-1.1-0.7C111.2,138.7,111.5,138.9,111.9,139.2z"/>
		<path class="st3" d="M105.2,135.1c-1.5-0.9-3-1.7-4.5-2.6C102.2,133.4,103.7,134.2,105.2,135.1z"/>
		<path class="st3" d="M100.3,132.3c-0.4-0.2-0.8-0.5-1.2-0.7C99.5,131.8,99.9,132,100.3,132.3z"/>
		<path class="st3" d="M98.5,131.2c-0.4-0.2-0.8-0.4-1.2-0.7C97.7,130.8,98.1,131,98.5,131.2z"/>
		<path class="st3" d="M106.8,136c-0.4-0.2-0.8-0.5-1.2-0.7C106,135.6,106.4,135.8,106.8,136z"/>
		<path class="st3" d="M110.2,138.1c-0.4-0.2-0.7-0.5-1.1-0.7C109.4,137.6,109.8,137.9,110.2,138.1z"/>
		<path class="st3" d="M113.6,140.2c-0.4-0.2-0.7-0.5-1.1-0.7C112.8,139.8,113.2,140,113.6,140.2z"/>
		<path class="st3" d="M108.5,137.1c-0.4-0.2-0.8-0.5-1.2-0.7C107.7,136.6,108.1,136.8,108.5,137.1z"/>
		<path class="st3" d="M96.6,130.2c-0.4-0.2-0.8-0.4-1.1-0.6C95.9,129.8,96.3,130,96.6,130.2z"/>
		<path class="st3" d="M115.3,141.3c-0.4-0.2-0.8-0.5-1.2-0.7C114.5,140.8,114.9,141.1,115.3,141.3z"/>
		<path class="st3" d="M39.1,103.9c-0.2-0.1-0.4-0.1-0.6-0.2C38.8,103.8,38.9,103.9,39.1,103.9z"/>
		<path class="st3" d="M41,104.6c-0.2-0.1-0.5-0.2-0.7-0.3C40.6,104.4,40.8,104.5,41,104.6z"/>
		<path class="st3" d="M36.9,103.1c-0.1,0-0.2-0.1-0.3-0.1C36.6,103,36.7,103.1,36.9,103.1z"/>
		<path class="st3" d="M33.5,102c-0.2-0.1-0.4-0.1-0.7-0.2C33,101.8,33.2,101.9,33.5,102z"/>
		<path class="st3" d="M44.7,106c-0.3-0.1-0.5-0.2-0.8-0.3C44.1,105.8,44.4,105.9,44.7,106z"/>
		<path class="st3" d="M46.5,106.7c-0.3-0.1-0.5-0.2-0.8-0.3C45.9,106.4,46.2,106.5,46.5,106.7z"/>
		<path class="st3" d="M31.8,101.4c-0.2-0.1-0.5-0.1-0.7-0.2C31.4,101.3,31.6,101.4,31.8,101.4z"/>
		<path class="st3" d="M42.8,105.3c-0.3-0.1-0.5-0.2-0.8-0.3C42.3,105.1,42.6,105.2,42.8,105.3z"/>
		<path class="st3" d="M139.4,159.4c-0.4-0.4-0.8-0.8-1.2-1.1C138.6,158.6,139,159,139.4,159.4z"/>
		<path class="st3" d="M25.3,99.5c-0.2,0-0.3-0.1-0.5-0.1C24.9,99.4,25.1,99.4,25.3,99.5z"/>
		<path class="st3" d="M26.9,99.9c-0.2-0.1-0.4-0.1-0.6-0.2C26.5,99.8,26.7,99.9,26.9,99.9z"/>
		<path class="st3" d="M28.5,100.4c-0.2-0.1-0.4-0.1-0.7-0.2C28.1,100.3,28.3,100.4,28.5,100.4z"/>
		<path class="st3" d="M30.2,100.9c-0.2-0.1-0.5-0.1-0.7-0.2C29.7,100.8,29.9,100.9,30.2,100.9z"/>
		<path class="st3" d="M35.2,102.5c-0.2-0.1-0.4-0.1-0.6-0.2C34.7,102.4,35,102.5,35.2,102.5z"/>
		<path class="st3" d="M48.3,107.4c-0.3-0.1-0.5-0.2-0.8-0.3C47.8,107.2,48,107.3,48.3,107.4z"/>
		<path class="st3" d="M50.1,108.1c-0.3-0.1-0.5-0.2-0.8-0.3C49.6,107.9,49.9,108,50.1,108.1z"/>
		<path class="st3" d="M52,108.8c-0.2-0.1-0.4-0.2-0.6-0.3C51.6,108.7,51.8,108.7,52,108.8z"/>
		<path class="st4" d="M25.3,99.5c0.3,0.1,0.7,0.2,1,0.3c0.2,0.1,0.4,0.1,0.6,0.2c0.3,0.1,0.6,0.2,1,0.3c0.2,0.1,0.4,0.1,0.7,0.2
			c0.3,0.1,0.6,0.2,0.9,0.3c0.2,0.1,0.5,0.1,0.7,0.2c0.3,0.1,0.6,0.2,1,0.3c0.2,0.1,0.5,0.1,0.7,0.2c0.3,0.1,0.7,0.2,1,0.3
			c0.2,0.1,0.4,0.1,0.7,0.2c0.4,0.1,0.7,0.2,1.1,0.4c0.2,0.1,0.4,0.1,0.6,0.2c0.5,0.2,0.9,0.3,1.4,0.5c0.1,0,0.2,0.1,0.3,0.1
			c0.6,0.2,1.1,0.4,1.7,0.6c0.2,0.1,0.4,0.1,0.6,0.2c0.4,0.1,0.8,0.3,1.2,0.4c0.2,0.1,0.5,0.2,0.7,0.3c0.4,0.1,0.7,0.3,1.1,0.4
			c0.3,0.1,0.5,0.2,0.8,0.3c0.3,0.1,0.7,0.3,1,0.4c0.3,0.1,0.5,0.2,0.8,0.3c0.3,0.1,0.7,0.3,1,0.4c0.3,0.1,0.5,0.2,0.8,0.3
			c0.3,0.1,0.7,0.3,1,0.4c0.3,0.1,0.5,0.2,0.8,0.3c0.4,0.1,0.7,0.3,1.1,0.4c0.3,0.1,0.5,0.2,0.8,0.3c0.4,0.2,0.8,0.3,1.2,0.5
			c0.2,0.1,0.4,0.2,0.6,0.3c0.6,0.2,1.2,0.5,1.8,0.7c0.2,0.1,0.4,0.2,0.7,0.3c0.4,0.2,0.8,0.3,1.2,0.5c0.3,0.1,0.6,0.2,0.8,0.3
			c0.4,0.1,0.7,0.3,1.1,0.4c0.3,0.1,0.6,0.3,0.9,0.4c0.3,0.1,0.7,0.3,1,0.4c0.3,0.1,0.6,0.3,0.9,0.4c0.3,0.1,0.7,0.3,1,0.4
			c0.3,0.1,0.6,0.3,0.9,0.4c0.3,0.1,0.6,0.3,1,0.4c0.3,0.1,0.6,0.3,0.9,0.4c0.3,0.1,0.6,0.3,1,0.4c0.3,0.1,0.6,0.3,0.9,0.4
			c0.3,0.1,0.7,0.3,1,0.4c0.3,0.1,0.6,0.3,0.9,0.4c0.3,0.2,0.7,0.3,1,0.5c0.6,0.3,1.2,0.5,1.7,0.8c0.3,0.1,0.6,0.3,1,0.4
			c0.3,0.2,0.7,0.3,1,0.5c0.3,0.1,0.6,0.3,0.9,0.4c0.3,0.2,0.7,0.3,1,0.5c0.3,0.1,0.6,0.3,0.9,0.4c0.4,0.2,0.7,0.3,1.1,0.5
			c0.3,0.1,0.6,0.3,0.9,0.4c0.4,0.2,0.7,0.3,1.1,0.5c0.3,0.1,0.6,0.3,0.9,0.4c0.4,0.2,0.7,0.4,1.1,0.5c0.3,0.1,0.6,0.3,0.8,0.4
			c0.4,0.2,0.7,0.4,1.1,0.5c0.3,0.1,0.5,0.3,0.8,0.4c0.4,0.2,0.8,0.4,1.1,0.6c0.2,0.1,0.4,0.2,0.6,0.3c1,0.5,2,1,3,1.6c0,0,0,0,0,0
			c0.4,0.2,0.8,0.4,1.3,0.7c0.2,0.1,0.4,0.2,0.6,0.3c0.4,0.2,0.8,0.4,1.2,0.6c0.2,0.1,0.5,0.3,0.7,0.4c0.4,0.2,0.8,0.4,1.1,0.6
			c0.2,0.1,0.5,0.3,0.7,0.4c0.4,0.2,0.8,0.4,1.1,0.6c0.2,0.1,0.5,0.3,0.7,0.4c0.4,0.2,0.8,0.4,1.1,0.6c0.2,0.1,0.5,0.3,0.7,0.4
			c0.4,0.2,0.8,0.4,1.2,0.7c0.2,0.1,0.4,0.2,0.6,0.3c0.4,0.2,0.8,0.5,1.2,0.7c0.1,0.1,0.3,0.1,0.4,0.2c1.5,0.9,3,1.7,4.5,2.6
			c0.1,0.1,0.2,0.1,0.4,0.2c0.4,0.2,0.8,0.5,1.2,0.7c0.2,0.1,0.4,0.2,0.6,0.3c0.4,0.2,0.8,0.5,1.2,0.7c0.2,0.1,0.4,0.2,0.6,0.4
			c0.4,0.2,0.8,0.5,1.1,0.7c0.2,0.1,0.4,0.2,0.6,0.4c0.4,0.2,0.7,0.5,1.1,0.7c0.2,0.1,0.4,0.2,0.6,0.4c0.4,0.2,0.8,0.5,1.1,0.7
			c0.2,0.1,0.3,0.2,0.5,0.3c0.4,0.2,0.8,0.5,1.2,0.7c0.1,0.1,0.2,0.2,0.4,0.2c1.4,0.9,2.9,1.9,4.3,2.8c0,0,0.1,0,0.1,0.1
			c0.4,0.3,0.8,0.5,1.1,0.8c0.1,0.1,0.3,0.2,0.4,0.3c0.4,0.2,0.7,0.5,1.1,0.7c0.2,0.1,0.3,0.2,0.5,0.4c0.3,0.2,0.7,0.5,1,0.7
			c0.2,0.1,0.3,0.2,0.5,0.4c0.3,0.2,0.7,0.5,1,0.7c0.2,0.1,0.3,0.2,0.5,0.4c0.3,0.2,0.6,0.5,1,0.7c0.2,0.1,0.3,0.2,0.5,0.4
			c0.3,0.2,0.6,0.5,1,0.7c0.1,0.1,0.3,0.2,0.4,0.3c0.3,0.3,0.7,0.5,1,0.8l0,0l42.9-26.6c-29.9-16.7-72.8-36.1-108.2-38.6L23.3,98.9
			c0.5,0.1,1,0.3,1.5,0.4C24.9,99.4,25.1,99.4,25.3,99.5z"/>
		<path class="st5" d="M130,151.6c-0.3-0.3-0.7-0.5-1-0.8c-0.1-0.1-0.3-0.2-0.4-0.3c-0.3-0.2-0.6-0.5-1-0.7
			c-0.2-0.1-0.3-0.2-0.5-0.4c-0.3-0.2-0.6-0.5-1-0.7c-0.2-0.1-0.3-0.2-0.5-0.4c-0.3-0.2-0.6-0.5-1-0.7c-0.2-0.1-0.3-0.2-0.5-0.4
			c-0.3-0.2-0.7-0.5-1-0.7c-0.2-0.1-0.3-0.2-0.5-0.4c-0.3-0.2-0.7-0.5-1.1-0.7c-0.1-0.1-0.3-0.2-0.4-0.3c-0.4-0.3-0.8-0.5-1.1-0.8
			c0,0-0.1,0-0.1-0.1c-1.4-0.9-2.8-1.9-4.3-2.8c-0.1-0.1-0.2-0.2-0.4-0.2c-0.4-0.2-0.8-0.5-1.2-0.7c-0.2-0.1-0.3-0.2-0.5-0.3
			c-0.4-0.2-0.7-0.5-1.1-0.7c-0.2-0.1-0.4-0.2-0.6-0.4c-0.4-0.2-0.7-0.5-1.1-0.7c-0.2-0.1-0.4-0.2-0.6-0.4c-0.4-0.2-0.7-0.5-1.1-0.7
			c-0.2-0.1-0.4-0.2-0.6-0.4c-0.4-0.2-0.8-0.5-1.2-0.7c-0.2-0.1-0.4-0.2-0.6-0.3c-0.4-0.2-0.8-0.5-1.2-0.7c-0.1-0.1-0.2-0.1-0.4-0.2
			c-1.5-0.9-3-1.7-4.5-2.6c-0.1-0.1-0.3-0.1-0.4-0.2c-0.4-0.2-0.8-0.5-1.2-0.7c-0.2-0.1-0.4-0.2-0.6-0.3c-0.4-0.2-0.8-0.4-1.2-0.7
			c-0.2-0.1-0.5-0.3-0.7-0.4c-0.4-0.2-0.8-0.4-1.1-0.6c-0.2-0.1-0.5-0.3-0.7-0.4c-0.4-0.2-0.8-0.4-1.1-0.6c-0.2-0.1-0.5-0.3-0.7-0.4
			c-0.4-0.2-0.8-0.4-1.1-0.6c-0.2-0.1-0.5-0.3-0.7-0.4c-0.4-0.2-0.8-0.4-1.2-0.6c-0.2-0.1-0.4-0.2-0.6-0.3c-0.4-0.2-0.8-0.4-1.3-0.7
			c0,0,0,0,0,0c-1-0.5-2-1.1-3-1.6c-0.2-0.1-0.4-0.2-0.6-0.3c-0.4-0.2-0.8-0.4-1.1-0.6c-0.3-0.1-0.5-0.3-0.8-0.4
			c-0.4-0.2-0.7-0.4-1.1-0.5c-0.3-0.1-0.6-0.3-0.8-0.4c-0.4-0.2-0.7-0.4-1.1-0.5c-0.3-0.1-0.6-0.3-0.9-0.4c-0.4-0.2-0.7-0.3-1.1-0.5
			c-0.3-0.1-0.6-0.3-0.9-0.4c-0.4-0.2-0.7-0.3-1.1-0.5c-0.3-0.1-0.6-0.3-0.9-0.4c-0.3-0.2-0.7-0.3-1-0.5c-0.3-0.1-0.6-0.3-0.9-0.4
			c-0.3-0.2-0.7-0.3-1-0.5c-0.3-0.1-0.6-0.3-1-0.4c-0.6-0.3-1.2-0.5-1.7-0.8c-0.3-0.2-0.7-0.3-1-0.5c-0.3-0.1-0.6-0.3-0.9-0.4
			c-0.3-0.1-0.7-0.3-1-0.4c-0.3-0.1-0.6-0.3-0.9-0.4c-0.3-0.1-0.6-0.3-1-0.4c-0.3-0.1-0.6-0.3-0.9-0.4c-0.3-0.1-0.6-0.3-1-0.4
			c-0.3-0.1-0.6-0.3-0.9-0.4c-0.3-0.1-0.7-0.3-1-0.4c-0.3-0.1-0.6-0.3-0.9-0.4c-0.3-0.1-0.7-0.3-1-0.4c-0.3-0.1-0.6-0.3-0.9-0.4
			c-0.4-0.1-0.7-0.3-1.1-0.4c-0.3-0.1-0.6-0.2-0.8-0.3c-0.4-0.2-0.8-0.3-1.2-0.5c-0.2-0.1-0.4-0.2-0.7-0.3c-0.6-0.3-1.2-0.5-1.8-0.7
			c-0.2-0.1-0.4-0.2-0.6-0.3c-0.4-0.2-0.8-0.3-1.2-0.5c-0.3-0.1-0.5-0.2-0.8-0.3c-0.4-0.1-0.7-0.3-1.1-0.4c-0.3-0.1-0.5-0.2-0.8-0.3
			c-0.3-0.1-0.7-0.3-1-0.4c-0.3-0.1-0.5-0.2-0.8-0.3c-0.3-0.1-0.7-0.3-1-0.4c-0.3-0.1-0.5-0.2-0.8-0.3c-0.3-0.1-0.7-0.3-1-0.4
			c-0.3-0.1-0.5-0.2-0.8-0.3c-0.4-0.1-0.7-0.3-1.1-0.4c-0.2-0.1-0.5-0.2-0.7-0.3c-0.4-0.1-0.8-0.3-1.2-0.4c-0.2-0.1-0.4-0.1-0.6-0.2
			c-0.6-0.2-1.1-0.4-1.7-0.6c-0.1,0-0.2-0.1-0.3-0.1c-0.5-0.2-0.9-0.3-1.4-0.5c-0.2-0.1-0.4-0.1-0.6-0.2c-0.4-0.1-0.7-0.2-1.1-0.4
			c-0.2-0.1-0.4-0.1-0.7-0.2c-0.3-0.1-0.7-0.2-1-0.3c-0.2-0.1-0.5-0.1-0.7-0.2c-0.3-0.1-0.6-0.2-1-0.3c-0.2-0.1-0.5-0.1-0.7-0.2
			c-0.3-0.1-0.6-0.2-0.9-0.3c-0.2-0.1-0.4-0.1-0.7-0.2c-0.3-0.1-0.6-0.2-1-0.3c-0.2-0.1-0.4-0.1-0.6-0.2c-0.3-0.1-0.7-0.2-1-0.3
			c-0.2,0-0.3-0.1-0.5-0.1c-0.5-0.1-1-0.3-1.5-0.4l-1.8,0.6v1.1c29.5,7.6,77.9,30.4,106.7,52.2L130,151.6L130,151.6z"/>
		<path class="st5" d="M51.3,108.6c-0.4-0.2-0.8-0.3-1.2-0.5C50.5,108.3,50.9,108.4,51.3,108.6z"/>
		<path class="st5" d="M109.1,137.4c-0.2-0.1-0.4-0.2-0.6-0.4C108.7,137.2,108.9,137.3,109.1,137.4z"/>
		<path class="st5" d="M112.5,139.5c-0.2-0.1-0.4-0.2-0.6-0.4C112.1,139.3,112.3,139.4,112.5,139.5z"/>
		<path class="st5" d="M110.8,138.5c-0.2-0.1-0.4-0.2-0.6-0.4C110.4,138.2,110.6,138.4,110.8,138.5z"/>
		<path class="st5" d="M26.3,99.8c-0.3-0.1-0.7-0.2-1-0.3C25.6,99.6,26,99.7,26.3,99.8z"/>
		<path class="st5" d="M57.6,111.2c-0.4-0.1-0.7-0.3-1.1-0.4C56.9,110.9,57.2,111,57.6,111.2z"/>
		<path class="st5" d="M100.7,132.5c-0.1-0.1-0.3-0.1-0.4-0.2C100.5,132.4,100.6,132.4,100.7,132.5z"/>
		<path class="st5" d="M59.5,112c-0.3-0.1-0.7-0.3-1-0.4C58.8,111.7,59.1,111.8,59.5,112z"/>
		<path class="st5" d="M67.1,115.3c-0.3-0.1-0.7-0.3-1-0.4C66.5,115,66.8,115.2,67.1,115.3z"/>
		<path class="st5" d="M107.3,136.4c-0.2-0.1-0.4-0.2-0.6-0.3C107,136.1,107.1,136.3,107.3,136.4z"/>
		<path class="st5" d="M105.5,135.3c-0.1-0.1-0.2-0.1-0.4-0.2C105.3,135.2,105.4,135.2,105.5,135.3z"/>
		<path class="st5" d="M27.9,100.2c-0.3-0.1-0.6-0.2-1-0.3C27.2,100,27.6,100.1,27.9,100.2z"/>
		<path class="st5" d="M99.1,131.6c-0.2-0.1-0.4-0.2-0.6-0.3C98.7,131.4,98.9,131.5,99.1,131.6z"/>
		<path class="st5" d="M127.6,149.8c-0.2-0.1-0.3-0.2-0.5-0.4C127.3,149.5,127.4,149.7,127.6,149.8z"/>
		<path class="st5" d="M126.1,148.7c-0.2-0.1-0.3-0.2-0.5-0.4C125.8,148.5,126,148.6,126.1,148.7z"/>
		<path class="st5" d="M124.7,147.6c-0.2-0.1-0.3-0.2-0.5-0.4C124.3,147.4,124.5,147.5,124.7,147.6z"/>
		<path class="st5" d="M23.3,98.9c0.5,0.1,1,0.3,1.5,0.4C24.3,99.2,23.8,99,23.3,98.9z"/>
		<path class="st5" d="M129,150.8c-0.1-0.1-0.3-0.2-0.4-0.3C128.7,150.6,128.8,150.7,129,150.8z"/>
		<path class="st5" d="M114.1,140.6c-0.2-0.1-0.3-0.2-0.5-0.3C113.8,140.3,113.9,140.5,114.1,140.6z"/>
		<path class="st5" d="M55.7,110.4c-0.4-0.2-0.8-0.3-1.2-0.5C54.9,110,55.3,110.2,55.7,110.4z"/>
		<polygon class="st5" points="130,151.6 130,151.6 130,151.6 		"/>
		<path class="st5" d="M115.6,141.5c-0.1-0.1-0.2-0.2-0.4-0.2C115.4,141.4,115.5,141.5,115.6,141.5z"/>
		<path class="st5" d="M121.6,145.5c-0.1-0.1-0.3-0.2-0.4-0.3C121.3,145.3,121.4,145.4,121.6,145.5z"/>
		<path class="st5" d="M123.1,146.6c-0.2-0.1-0.3-0.2-0.5-0.4C122.8,146.3,123,146.5,123.1,146.6z"/>
		<path class="st5" d="M120,144.4c0,0-0.1,0-0.1-0.1C119.9,144.4,120,144.4,120,144.4z"/>
		<path class="st5" d="M29.5,100.7c-0.3-0.1-0.6-0.2-0.9-0.3C28.9,100.5,29.2,100.6,29.5,100.7z"/>
		<path class="st5" d="M77.6,120.3c-0.3-0.1-0.6-0.3-0.9-0.4C77,120,77.3,120.1,77.6,120.3z"/>
		<path class="st5" d="M42.1,105c-0.4-0.1-0.7-0.3-1.1-0.4C41.4,104.7,41.7,104.9,42.1,105z"/>
		<path class="st5" d="M63.3,113.6c-0.3-0.1-0.6-0.3-1-0.4C62.6,113.3,62.9,113.5,63.3,113.6z"/>
		<path class="st5" d="M40.3,104.4c-0.4-0.1-0.8-0.3-1.2-0.4C39.5,104.1,39.9,104.2,40.3,104.4z"/>
		<path class="st5" d="M45.7,106.3c-0.3-0.1-0.7-0.3-1-0.4C45,106.1,45.3,106.2,45.7,106.3z"/>
		<path class="st5" d="M75.6,119.3c-0.3-0.1-0.6-0.3-0.9-0.4C75.1,119.1,75.3,119.2,75.6,119.3z"/>
		<path class="st5" d="M79.5,121.2c-0.3-0.1-0.6-0.3-0.9-0.4C78.9,120.9,79.2,121.1,79.5,121.2z"/>
		<path class="st5" d="M65.2,114.5c-0.3-0.1-0.6-0.3-1-0.4C64.5,114.2,64.9,114.3,65.2,114.5z"/>
		<path class="st5" d="M81.4,122.2c-0.3-0.1-0.6-0.3-0.8-0.4C80.8,121.9,81.1,122,81.4,122.2z"/>
		<path class="st5" d="M47.5,107.1c-0.3-0.1-0.7-0.3-1-0.4C46.8,106.8,47.2,106.9,47.5,107.1z"/>
		<path class="st5" d="M71.8,117.5c-0.3-0.1-0.6-0.3-1-0.4C71.2,117.2,71.5,117.4,71.8,117.5z"/>
		<path class="st5" d="M31.1,101.2c-0.3-0.1-0.6-0.2-1-0.3C30.5,101,30.8,101.1,31.1,101.2z"/>
		<path class="st5" d="M73.7,118.4c-0.3-0.1-0.6-0.3-0.9-0.4C73.1,118.1,73.4,118.3,73.7,118.4z"/>
		<path class="st5" d="M43.9,105.7c-0.3-0.1-0.7-0.3-1-0.4C43.2,105.4,43.5,105.5,43.9,105.7z"/>
		<path class="st5" d="M69.1,116.3c-0.3-0.2-0.7-0.3-1-0.5C68.4,115.9,68.8,116.1,69.1,116.3z"/>
		<path class="st5" d="M83.2,123.1c-0.3-0.1-0.5-0.3-0.8-0.4C82.7,122.8,83,123,83.2,123.1z"/>
		<path class="st5" d="M61.4,112.8c-0.3-0.1-0.7-0.3-1-0.4C60.7,112.5,61,112.6,61.4,112.8z"/>
		<path class="st5" d="M34.5,102.3c-0.4-0.1-0.7-0.2-1.1-0.4C33.8,102.1,34.2,102.2,34.5,102.3z"/>
		<path class="st5" d="M91.8,127.6c-0.2-0.1-0.5-0.3-0.7-0.4C91.3,127.3,91.6,127.4,91.8,127.6z"/>
		<path class="st5" d="M32.8,101.8c-0.3-0.1-0.7-0.2-1-0.3C32.1,101.5,32.5,101.7,32.8,101.8z"/>
		<path class="st5" d="M93.7,128.6c-0.2-0.1-0.5-0.3-0.7-0.4C93.2,128.3,93.4,128.4,93.7,128.6z"/>
		<path class="st5" d="M38.6,103.7c-0.6-0.2-1.1-0.4-1.7-0.6C37.4,103.3,38,103.5,38.6,103.7z"/>
		<path class="st5" d="M95.5,129.6c-0.2-0.1-0.5-0.3-0.7-0.4C95,129.3,95.3,129.5,95.5,129.6z"/>
		<path class="st5" d="M49.4,107.8c-0.4-0.1-0.7-0.3-1.1-0.4C48.7,107.5,49,107.6,49.4,107.8z"/>
		<path class="st5" d="M97.3,130.6c-0.2-0.1-0.5-0.3-0.7-0.4C96.9,130.3,97.1,130.5,97.3,130.6z"/>
		<path class="st5" d="M36.5,103c-0.5-0.2-0.9-0.3-1.4-0.5C35.6,102.7,36.1,102.9,36.5,103z"/>
		<path class="st5" d="M89.9,126.6c-0.2-0.1-0.4-0.2-0.6-0.3C89.5,126.3,89.7,126.4,89.9,126.6z"/>
		<path class="st5" d="M84.9,124c-0.2-0.1-0.4-0.2-0.6-0.3C84.6,123.8,84.8,123.9,84.9,124z"/>
		<path class="st5" d="M53.8,109.6c-0.6-0.3-1.2-0.5-1.8-0.7C52.6,109.1,53.2,109.3,53.8,109.6z"/>
		<path class="st5" d="M88,125.6C88,125.6,88,125.6,88,125.6C88,125.6,88,125.6,88,125.6z"/>
		<polygon class="st5" points="134.1,154.8 134.1,154.8 134.1,154.8 		"/>
		<path class="st5" d="M136.8,157.1C136.8,157.1,136.8,157.1,136.8,157.1C136.8,157.1,136.8,157.1,136.8,157.1z"/>
		<path class="st6" d="M131.9,153c-0.6-0.5-1.3-1-1.9-1.5C130.6,152.1,131.3,152.6,131.9,153z"/>
		<path class="st6" d="M134.1,154.8c-0.6-0.5-1.2-1-1.8-1.5C132.9,153.8,133.5,154.3,134.1,154.8z"/>
		<path class="st5" d="M134.1,154.8c-0.6-0.5-1.2-1-1.8-1.5c-0.1-0.1-0.3-0.2-0.4-0.3c-0.6-0.5-1.3-1-1.9-1.5c0,0,0,0,0,0l-1.9,1.2
			l0,0c0.6,0.5,1.3,1,1.9,1.5c0.1,0.1,0.2,0.2,0.4,0.3c0.6,0.5,1.3,1,1.9,1.5L134.1,154.8C134.1,154.8,134.1,154.8,134.1,154.8z"/>
		<polygon class="st6" points="134.1,154.8 134.1,154.8 134.1,154.8 		"/>
		<path class="st6" d="M132.3,153.3c-0.1-0.1-0.3-0.2-0.4-0.3C132,153.1,132.1,153.2,132.3,153.3z"/>
		<polygon class="st6" points="130,151.6 130,151.6 130,151.6 		"/>
		<path class="st0" d="M125.5,130.9c-0.1,0-0.1-0.1-0.2-0.1l-0.1-20.2c0.1-0.3,0.1-0.7,0.1-1.1c0-2.4-1.9-4.4-4.4-4.4
			c-1.6,0-3,0.9-3.8,2.2c-10.7-5.8-28.8-13.7-47.3-20.5l0-4l0,0c0.2-0.4,0.2-0.9,0.2-1.4c0-2.4-1.9-4.4-4.4-4.4s-4.4,1.9-4.4,4.4
			c0,0.5,0.1,1,0.3,1.5l0,0l0,1c-11-3.7-21.8-6.9-30.9-8.6l-0.4-3.8c0-0.1,0-0.2,0-0.4c0-2.4-1.9-4.4-4.4-4.4
			c-2.4,0-4.4,1.9-4.4,4.4c0,0.8,0.2,1.5,0.6,2.2l2.8,27.7l8.2-0.8l-0.5-4.7c9.8,1.7,19.5,4.2,29.1,7.4l0.1,11.5l8.2-0.1l-0.1-8.4
			c15.8,6.1,31.3,14.4,46.6,24.7l0,16.4l8.6,0l0-16.1L125.5,130.9z M32.3,90.5l-1-10c8.9,1.8,19.6,5,30.4,8.7l0.1,8.5
			C52.1,94.6,42.3,92.2,32.3,90.5z M70.1,100.8L70,92.3c18.7,6.9,36.8,14.9,46.7,20.4l0,12.2C101.5,114.8,86,106.7,70.1,100.8z"/>
		<polygon class="st6" points="128.1,152.8 128.1,152.8 128.1,152.8 		"/>
		<path class="st1" d="M24.7,78.8c30.1,4.6,85.2,28.2,97.1,36.7"/>
		<path class="st1" d="M24.5,93.8c27.6,3.7,61.3,14.5,98,40.8"/>
		<circle class="st5" cx="168.7" cy="91.2" r="4.4"/>
		<circle class="st5" cx="113.6" cy="74.2" r="4.4"/>
		<circle class="st5" cx="72.1" cy="65" r="4.4"/>
		<line class="st2" x1="24.7" y1="73.1" x2="27.6" y2="102.4"/>
		<line class="st2" x1="64.2" y1="84.6" x2="64.6" y2="116.2"/>
		<line class="st7" x1="119.4" y1="111.9" x2="119.5" y2="148.9"/>
		<path class="st8" d="M21.4,100.6v5.9c10.8,2.8,75.1,32.6,102.1,49.1l4.6-2.8C99.3,130.9,50.9,108.2,21.4,100.6z"/>
		<path class="st8" d="M128.1,152.8l-4.6,2.8c1.7,1,3.2,2,4.6,2.9l4.1-2.5C130.9,154.9,129.5,153.8,128.1,152.8z"/>
		<circle class="st5" cx="24.5" cy="72.9" r="4.4"/>
		<circle class="st5" cx="64.2" cy="83.2" r="4.4"/>
		<circle class="st5" cx="119.5" cy="111.2" r="4.4"/>
		<g>
			<path class="st0" d="M172.9,124.9L130,151.6c0,0,0,0,0,0c0.6,0.5,1.3,1,1.9,1.5c0.1,0.1,0.3,0.2,0.4,0.3c0.6,0.5,1.2,1,1.8,1.5
				c0,0,0,0,0,0l38.5-23.9L172.9,124.9z"/>
		</g>
	</g>
</g>
</svg>
