<?xml version="1.0" encoding="utf-8"?>
<!-- Generator: Adobe Illustrator 19.0.1, SVG Export Plug-In . SVG Version: 6.00 Build 0)  -->
<svg version="1.1" id="Layer_1" xmlns="http://www.w3.org/2000/svg" xmlns:xlink="http://www.w3.org/1999/xlink" x="0px" y="0px"
	 viewBox="0 0 200 200" style="enable-background:new 0 0 200 200;" xml:space="preserve">
<style type="text/css">
	.st0{fill:#4C323F;}
	.st1{fill:#75364B;}
	.st2{fill:#9D3C55;}
</style>
<g>
	<ellipse class="st0" cx="102.4" cy="186.8" rx="13.3" ry="7.4"/>
	<g>
		<g>
			<g>
				<g>
					<path class="st1" d="M101.7,28.6c0,0,0.1,0.6,0.3,1.7c0.2,1.1,0.7,2.8,1.1,4.9c0.5,2.1,1.1,4.6,1.9,7.6c0.4,1.5,0.8,3,1.2,4.6
						c0.4,1.6,0.8,3.4,1.3,5.2c0.4,1.8,0.9,3.7,1.3,5.6c0.5,1.9,0.9,4,1.3,6c0.9,4.2,1.9,8.5,2.7,13.1c0.4,2.3,0.9,4.6,1.3,7
						c0.2,1.2,0.4,2.4,0.6,3.6c0.2,1.2,0.4,2.4,0.6,3.6c0.8,4.8,1.5,9.7,2.1,14.7c0.6,4.9,1.1,9.9,1.5,14.8
						c0.4,4.9,0.6,9.7,0.7,14.4c0.1,4.7,0,9.2-0.2,13.5c-0.2,4.3-0.7,8.3-1.3,12.1c-0.1,0.9-0.3,1.8-0.5,2.7
						c-0.2,0.9-0.3,1.7-0.6,2.6c-0.4,1.7-0.8,3.2-1.3,4.7c-0.9,2.9-2,5.4-2.9,7.4c-1,2-2,3.4-2.7,4.3c-0.7,0.9-1.1,1.4-1.1,1.4
						l-0.2-0.2c0,0,0.3-0.5,1-1.5c0.3-0.5,0.7-1.1,1.1-1.8c0.4-0.7,0.8-1.6,1.2-2.6c0.9-2,1.7-4.4,2.4-7.4c0.7-2.9,1.3-6.2,1.8-9.9
						c0.9-7.3,1.1-16,0.7-25.2c-0.4-9.2-1.3-19.1-2.5-28.9c-2.4-19.6-6-39-8.8-53.6c-1.4-7.3-2.6-13.3-3.3-17.6
						c-0.4-2.1-0.6-3.8-0.8-5c-0.1-1.2-0.2-1.8-0.2-1.8L101.7,28.6z"/>
				</g>
				<g>
					<path class="st1" d="M96.7,32.7c0,0,0.1,0.6,0.4,1.8c0.3,1.1,0.7,2.8,1.1,5c0.4,2.2,1,4.8,1.5,7.8c0.3,1.5,0.6,3.1,0.9,4.8
						c0.3,1.7,0.6,3.5,0.9,5.3c0.3,1.9,0.7,3.8,1,5.8c0.3,2,0.7,4.1,1,6.2c0.7,4.3,1.4,8.7,2,13.4c0.3,2.3,0.7,4.7,1,7.1
						c0.2,1.2,0.3,2.4,0.5,3.6c0.2,1.2,0.3,2.4,0.5,3.6c0.6,4.9,1.3,9.9,1.9,14.8c0.6,5,1.2,9.9,1.7,14.8c0.3,2.4,0.5,4.9,0.8,7.3
						c0.2,2.4,0.5,4.8,0.7,7.1c0.5,4.7,0.9,9.2,1.3,13.5c0.4,4.3,0.7,8.3,1,12.1c0.3,3.7,0.5,7.2,0.7,10.2c0.2,3.1,0.3,5.7,0.4,7.9
						c0.1,2.2,0.2,3.9,0.2,5.1c0,1.2,0,1.8,0,1.8l-0.3,0c0,0-0.1-0.6-0.2-1.8c-0.1-1.2-0.3-2.9-0.6-5c-0.5-4.3-1.2-10.6-2.1-18
						c-1.8-14.9-4.2-34.8-6.7-54.6c-2.4-19.9-4.8-39.7-6.8-54.6c-0.5-3.7-0.9-7.1-1.3-10.2c-0.4-3-0.8-5.7-1.1-7.8
						c-0.2-1.1-0.3-2.1-0.4-2.9c-0.1-0.8-0.2-1.6-0.3-2.1c-0.2-1.2-0.3-1.8-0.3-1.8L96.7,32.7z"/>
				</g>
				<g>
					<path class="st1" d="M90.2,48.7c0,0,0,0.1,0.1,0.4c0.1,0.3,0.2,0.6,0.4,1.2c0.3,1,0.7,2.5,1.2,4.5c0.5,1.9,1,4.3,1.6,7
						c0.6,2.7,1.2,5.7,1.8,9.1c0.6,3.3,1.3,6.9,2,10.7c0.7,3.8,1.4,7.8,2,12c0.3,2.1,0.6,4.2,1,6.4c0.2,1.1,0.3,2.2,0.5,3.2
						c0.2,1.1,0.3,2.2,0.5,3.3c0.6,4.4,1.2,8.9,1.8,13.3c0.5,4.5,1.1,8.9,1.6,13.4c0.5,4.4,0.9,8.8,1.4,13c0.4,4.2,0.8,8.3,1.1,12.1
						c0.3,3.9,0.6,7.5,0.8,10.9c0.2,3.4,0.4,6.5,0.5,9.2c0.1,2.7,0.2,5.2,0.2,7.1c0,1,0,1.9,0,2.6c0,0.8,0,1.4-0.1,2
						c0,0.3,0,0.5,0,0.7c0,0.2,0,0.4-0.1,0.5c0,0.3,0,0.4,0,0.4l-0.3,0c0,0,0-0.1,0-0.4c0-0.1,0-0.3,0-0.5c0-0.2,0-0.4,0-0.7
						c0-0.5-0.1-1.2-0.1-1.9c-0.1-0.8-0.1-1.6-0.2-2.6c-0.2-2-0.4-4.3-0.7-7.1c-0.3-2.7-0.6-5.8-1-9.2c-1.5-13.4-3.7-31.3-6.1-49.2
						c-2.2-17.9-4.6-35.7-6.5-49.1c-0.9-6.7-1.8-12.3-2.4-16.1c-0.3-1.9-0.6-3.5-0.8-4.5c-0.1-0.5-0.2-0.9-0.3-1.2
						c-0.1-0.3-0.1-0.4-0.1-0.4L90.2,48.7z"/>
				</g>
				<g>
					<path class="st1" d="M92.6,36.4c0,0,0.1,0.6,0.4,1.6c0.3,1.1,0.7,2.6,1.1,4.6c0.5,2,1,4.3,1.6,7.1c0.6,2.7,1.3,5.8,2,9.2
						c0.3,1.7,0.7,3.5,1.1,5.3c0.4,1.8,0.7,3.7,1.1,5.7c0.7,3.9,1.5,8,2.3,12.2c0.4,2.1,0.7,4.3,1.1,6.5c0.2,1.1,0.4,2.2,0.6,3.3
						c0.2,1.1,0.4,2.2,0.5,3.3c0.7,4.5,1.4,9,2.1,13.6c0.6,4.6,1.3,9.1,1.9,13.6c0.3,2.2,0.6,4.5,0.8,6.7c0.3,2.2,0.5,4.4,0.8,6.5
						c0.5,4.3,0.9,8.5,1.3,12.4c0.4,3.9,0.7,7.7,0.9,11.1c0.2,3.5,0.4,6.6,0.5,9.4c0.1,2.8,0.1,5.3,0,7.3c0,2-0.2,3.6-0.4,4.7
						c-0.1,0.3-0.1,0.5-0.1,0.7c-0.1,0.2-0.1,0.4-0.2,0.5c-0.1,0.3-0.2,0.4-0.2,0.4l-0.3-0.2c0,0,0-0.1,0.1-0.3
						c0-0.1,0.1-0.3,0.1-0.5c0-0.2,0-0.4,0.1-0.7c0.1-1.1,0.1-2.6,0-4.6c-0.2-4-0.7-9.7-1.5-16.6c-1.6-13.7-4.2-31.9-6.9-50.1
						c-5.3-36.4-11.2-72.8-11.2-72.8L92.6,36.4z"/>
				</g>
				<g>
					<path class="st1" d="M90.3,44.3c0,0,0.1,0.6,0.3,1.6c0.2,1,0.5,2.6,0.8,4.5c0.3,1.9,0.7,4.3,1.1,7c0.4,2.7,0.9,5.8,1.3,9.1
						c0.2,1.7,0.5,3.4,0.7,5.2c0.2,1.8,0.4,3.7,0.7,5.6c0.5,3.8,1,7.9,1.4,12.1c0.2,2.1,0.4,4.2,0.7,6.4c0.1,1.1,0.2,2.2,0.3,3.3
						c0.1,1.1,0.2,2.2,0.3,3.3c0.4,4.4,0.8,8.9,1.1,13.4c0.3,4.5,0.6,9,0.9,13.4c0.2,2.2,0.3,4.4,0.4,6.6c0.1,2.2,0.2,4.3,0.3,6.4
						c0.2,4.2,0.3,8.3,0.4,12.2c0.1,3.9,0.1,7.5,0.1,10.9c0,3.4-0.1,6.5-0.2,9.2c-0.1,2.8-0.3,5.2-0.4,7.1c-0.2,2-0.4,3.5-0.7,4.6
						c-0.1,0.5-0.2,0.9-0.3,1.2c-0.1,0.3-0.2,0.4-0.2,0.4l-0.3-0.1c0,0,0-0.1,0.1-0.4c0.1-0.3,0.2-0.6,0.2-1.2
						c0.1-1,0.2-2.6,0.3-4.5c0.1-3.9-0.1-9.5-0.4-16.3c-0.6-13.5-1.9-31.4-3.3-49.3C93.2,80.1,90,44.3,90,44.3L90.3,44.3z"/>
				</g>
				<g>
					<path class="st1" d="M86.2,5.2c0,0-0.2,0.1-0.4,0.3c-0.2,0.2-0.5,0.6-0.8,1.2c-0.5,1.2-0.9,3.1-1.2,5.6c-0.3,2.5-0.5,5.5-0.5,9
						c0,1.7,0,3.6,0,5.6c0,2,0,4,0.1,6.2c0.1,2.1,0.1,4.4,0.2,6.7c0.1,2.3,0.2,4.7,0.3,7.2c0.2,4.9,0.6,10.1,0.8,15.5
						c0.2,2.7,0.3,5.4,0.5,8.2c0.1,1.4,0.2,2.8,0.3,4.2c0.1,1.4,0.2,2.8,0.3,4.2c0.4,5.6,0.8,11.4,1.2,17.1
						c0.4,5.7,0.8,11.5,1.2,17.1c0.2,2.8,0.4,5.6,0.6,8.4c0.2,2.8,0.4,5.5,0.6,8.2c0.8,10.7,1.5,20.8,2.1,29.4
						c0.3,4.3,0.6,8.2,0.8,11.7c0.3,3.5,0.5,6.5,0.7,9c0.3,2.5,0.4,4.5,0.6,5.8c0.1,0.7,0.2,1.2,0.3,1.5c0,0.2,0.1,0.3,0.1,0.3
						c0,0,0,0,0,0c0,0,0,0,0,0l-0.1,0.3c-0.2-0.1-0.4-0.7-0.7-2.1c-0.3-1.3-0.6-3.3-1-5.8c-0.7-5-1.6-12.1-2.6-20.7
						c-1.9-17.1-4.1-40.1-5.8-63c-1.6-23-2.7-46-2.4-63.2c0.1-8.6,0.6-15.8,1.5-20.8c0.4-2.5,1-4.4,1.7-5.6c0.3-0.6,0.7-1,0.9-1.3
						C85.9,5,86,4.9,86,4.9L86.2,5.2z"/>
				</g>
				<g>
					<path class="st1" d="M99.9,36.4c0,0,0.1,0.6,0.3,1.6c0.2,1,0.5,2.6,0.8,4.5c0.3,1.9,0.7,4.3,1.1,7c0.4,2.7,0.9,5.8,1.3,9.1
						c0.2,1.7,0.5,3.4,0.7,5.2c0.2,1.8,0.4,3.7,0.7,5.6c0.4,3.8,0.9,7.9,1.3,12.1c0.2,2.1,0.4,4.2,0.6,6.4c0.1,1.1,0.2,2.2,0.3,3.3
						c0.1,1.1,0.2,2.2,0.3,3.3c0.3,4.4,0.7,8.9,0.9,13.4c0.2,4.5,0.4,9,0.6,13.4c0.1,2.2,0.1,4.4,0.2,6.6c0,2.2,0.1,4.3,0.1,6.4
						c0.1,4.2,0,8.3-0.1,12.2c-0.1,3.9-0.3,7.5-0.5,10.9c-0.2,3.4-0.6,6.5-1,9.2c-0.4,2.7-0.8,5.1-1.3,7c-0.4,1.9-1,3.4-1.4,4.4
						c-0.2,0.5-0.4,0.9-0.5,1.1c-0.1,0.2-0.2,0.4-0.2,0.4l-0.3-0.1c0,0,0.1-0.1,0.2-0.4c0.1-0.2,0.3-0.6,0.4-1.1
						c0.3-1,0.7-2.5,1-4.4c0.6-3.9,1.1-9.5,1.2-16.2c0.3-13.4-0.3-31.4-1.4-49.3c-2-35.8-5.6-71.5-5.6-71.5L99.9,36.4z"/>
				</g>
				<g>
					<path class="st1" d="M80.3,63.5c0,0,0.1,0.2,0.2,0.7c0.1,0.5,0.4,1.1,0.6,2c0.3,0.9,0.6,1.9,0.9,3.1c0.3,1.2,0.7,2.5,1.1,4
						c0.4,1.5,0.8,3.1,1.2,4.8c0.4,1.7,0.8,3.5,1.2,5.3c0.4,1.9,0.8,3.7,1.2,5.7c0.4,1.9,0.7,3.9,1.1,5.9c0.3,2,0.7,4,1,5.9
						c0.3,1.9,0.6,3.9,0.9,5.7c0.3,1.8,0.5,3.7,0.8,5.4c0.1,0.9,0.3,1.7,0.4,2.5c0.1,0.8,0.2,1.6,0.3,2.3c0.1,0.7,0.2,1.5,0.3,2.1
						c0.1,0.7,0.1,1.3,0.3,1.9c0.2,1.2,0.3,2.3,0.5,3.1c0.2,0.8,0.3,1.5,0.4,2c0.1,0.5,0.1,0.7,0.1,0.7l-0.3,0.1c0,0-0.4-0.9-1-2.6
						c-0.3-0.8-0.6-1.9-1-3c-0.4-1.2-0.7-2.5-1.1-4c-0.4-1.5-0.7-3.1-1.1-4.8c-0.4-1.7-0.7-3.5-1.1-5.3c-0.4-1.9-0.7-3.8-1.1-5.7
						c-0.4-2-0.7-3.9-1.1-5.9c-1.4-8-2.6-15.9-3.5-21.9c-0.4-3-0.8-5.5-1-7.2c-0.2-1.8-0.4-2.8-0.4-2.8L80.3,63.5z"/>
				</g>
				<g>
					<path class="st1" d="M88.9,53.3c0,0,0.1,0.4,0.3,1.3c0.2,0.8,0.4,2.1,0.7,3.6c0.3,1.6,0.6,3.5,1,5.6c0.2,1.1,0.4,2.3,0.6,3.5
						c0.2,1.2,0.4,2.5,0.6,3.9c0.2,1.3,0.4,2.7,0.6,4.2c0.2,1.5,0.4,3,0.6,4.5c0.4,3.1,0.8,6.3,1.1,9.7c0.2,1.7,0.3,3.4,0.5,5.1
						c0.1,0.9,0.2,1.7,0.3,2.6c0.1,0.9,0.1,1.8,0.2,2.7c0.3,3.6,0.5,7.2,0.8,10.8c0.2,3.6,0.4,7.2,0.6,10.8c0.1,1.8,0.2,3.5,0.2,5.3
						c0.1,1.7,0.1,3.5,0.1,5.2c0.1,3.4,0.1,6.7,0.1,9.8c0,3.1-0.1,6.1-0.2,8.8c-0.1,2.7-0.2,5.2-0.4,7.4c-0.2,2.2-0.3,4.1-0.5,5.7
						c-0.2,1.6-0.4,2.8-0.5,3.7c-0.1,0.8-0.2,1.3-0.2,1.3l-0.3,0c0,0,0.1-1.8,0.2-5c0.1-1.6,0-3.5,0-5.7c0-2.2-0.1-4.7-0.1-7.4
						c0-2.7-0.2-5.6-0.3-8.7c-0.1-3.1-0.3-6.4-0.5-9.8c-0.2-3.4-0.4-6.9-0.6-10.4c-0.2-3.5-0.5-7.2-0.7-10.8
						c-0.5-7.2-0.9-14.4-1.4-21.2c-0.5-6.8-1-13.1-1.4-18.5c-0.8-10.8-1.5-18-1.5-18L88.9,53.3z"/>
				</g>
				<g>
					<path class="st1" d="M107.1,46.3c0,0,0.2,0.5,0.5,1.6c0.3,1,0.8,2.5,1.4,4.4c0.6,1.9,1.2,4.2,1.9,6.9c0.7,2.7,1.5,5.7,2.3,9
						c0.4,1.7,0.8,3.4,1.2,5.2c0.4,1.8,0.8,3.7,1.2,5.6c0.8,3.8,1.7,7.9,2.4,12.1c0.4,2.1,0.7,4.2,1.1,6.4c0.4,2.2,0.7,4.4,1,6.6
						c0.6,4.4,1.3,9,1.8,13.5c0.5,4.5,0.9,9.1,1.3,13.6c0.2,2.2,0.3,4.5,0.4,6.7c0.1,2.2,0.2,4.4,0.2,6.5c0.1,4.3,0,8.4-0.1,12.4
						c-0.1,3.9-0.5,7.7-0.9,11.1c-0.4,3.4-1,6.5-1.6,9.3c-0.6,2.7-1.4,5.1-2.1,7c-0.3,1-0.7,1.8-1,2.5c-0.4,0.7-0.6,1.3-0.9,1.8
						c-0.5,0.9-0.8,1.4-0.8,1.4l-0.3-0.1c0,0,0.2-0.5,0.7-1.5c0.2-0.5,0.4-1.1,0.7-1.8c0.2-0.7,0.6-1.6,0.8-2.5
						c0.6-1.9,1.1-4.2,1.6-7c0.5-2.7,0.8-5.8,1.1-9.2c0.5-6.8,0.6-14.7,0.2-23.2c-0.4-8.5-1.2-17.5-2.2-26.5
						c-2-18-5.1-35.9-7.6-49.3c-2.5-13.4-4.6-22.2-4.6-22.2L107.1,46.3z"/>
				</g>
			</g>
			<g>
				<g>
					<path class="st0" d="M95.9,191.8c0,0,0-0.6-0.1-1.7c-0.1-1.1-0.3-2.7-0.5-4.8c-0.5-4.2-1.3-10.1-2.3-17.3
						c-2-14.3-5-33.3-8.2-52.2c-3.2-19-6.7-37.9-9.9-52c-1.6-7-3.1-12.9-4.4-16.9c-0.6-2-1.3-3.5-1.8-4.5c-0.1-0.3-0.2-0.5-0.4-0.7
						c-0.1-0.2-0.2-0.3-0.3-0.5c-0.2-0.2-0.3-0.3-0.3-0.3s0.1,0.1,0.3,0.3c0.1,0.1,0.2,0.3,0.3,0.4c0.1,0.2,0.2,0.4,0.4,0.6
						c0.5,1,1.2,2.5,1.9,4.5c1.4,4,3,9.8,4.7,16.8c3.4,14,7.3,32.9,10.9,51.8c3.6,18.9,6.9,37.9,9.2,52.1c1.2,7.1,2.1,13.1,2.6,17.3
						c0.3,2.1,0.5,3.7,0.6,4.9c0.1,1.2,0.2,1.8,0.2,1.8L95.9,191.8z"/>
				</g>
				<g>
					<path class="st0" d="M100.8,187.8c0,0-0.5-2.6-1.3-7.1c-0.9-4.5-2.1-11-3.6-18.8c-3-15.6-6.9-36.4-10.7-57.2
						c-3.8-20.8-7.4-41.7-9.6-57.4c-1.1-7.9-2-14.4-2.3-19c-0.2-2.3-0.2-4.1-0.1-5.4c0-0.6,0.1-1.1,0.2-1.4c0-0.2,0.1-0.3,0.2-0.3
						c0.1-0.1,0.1-0.1,0.1-0.1s0,0-0.1,0.1c0,0.1-0.1,0.2-0.2,0.3c-0.1,0.3-0.2,0.8-0.2,1.4c-0.1,1.2,0,3.1,0.2,5.4
						c0.4,4.6,1.3,11.2,2.6,19c2.6,15.7,6.5,36.4,10.7,57.2c4.1,20.7,8.5,41.5,11.7,57c1.6,7.8,3,14.2,4,18.8
						c0.9,4.5,1.5,7.1,1.5,7.1L100.8,187.8z"/>
				</g>
				<g>
					<path class="st0" d="M107.4,171.9c0,0,0-0.1-0.1-0.4c-0.1-0.3-0.2-0.6-0.3-1.2c-0.2-1.1-0.5-2.7-0.8-4.6
						c-0.6-3.9-1.4-9.5-2.3-16.2c-1.8-13.4-4-31.3-6-49.2c-2.1-17.9-4.1-35.8-5.4-49.2c-0.3-3.4-0.6-6.4-0.9-9.2
						c-0.3-2.7-0.5-5.1-0.6-7.1c-0.1-1-0.1-1.9-0.2-2.6c-0.1-0.8-0.1-1.4-0.1-1.9c0-0.5,0-0.9,0-1.2c0-0.3,0-0.4,0-0.4s0,0.1,0,0.4
						c0,0.3,0,0.7,0,1.2c0,0.5,0.1,1.2,0.1,1.9c0.1,0.8,0.1,1.6,0.2,2.6c0.2,2,0.4,4.3,0.8,7.1c0.3,2.7,0.7,5.8,1.1,9.2
						c1.6,13.4,4,31.3,6.5,49.1c2.5,17.8,5,35.7,7.1,49c1,6.7,1.9,12.2,2.6,16.1c0.3,1.9,0.6,3.4,0.8,4.4c0.1,0.5,0.2,0.9,0.3,1.2
						c0.1,0.3,0.1,0.4,0.1,0.4L107.4,171.9z"/>
				</g>
				<g>
					<path class="st0" d="M104.9,184.1c0,0-5.6-36.4-10.6-72.9C91.8,93,89.4,74.7,88,61c-0.7-6.9-1.2-12.6-1.3-16.6
						c-0.1-2-0.1-3.6,0-4.7c0-0.3,0.1-0.5,0.1-0.7c0-0.2,0.1-0.4,0.1-0.5c0.1-0.3,0.2-0.4,0.2-0.4s-0.1,0.1-0.2,0.4
						c0,0.1-0.1,0.3-0.1,0.5c0,0.2,0,0.4-0.1,0.7c-0.1,1.1-0.1,2.7,0.1,4.7c0.2,4,0.8,9.7,1.7,16.6c1.7,13.7,4.4,31.9,7.3,50.1
						c5.8,36.3,12.1,72.6,12.1,72.6L104.9,184.1z"/>
				</g>
				<g>
					<path class="st0" d="M107.2,176.2c0,0-2.9-35.8-5.3-71.7c-1.2-17.9-2.2-35.9-2.6-49.3c-0.2-6.7-0.3-12.4-0.2-16.3
						c0.1-2,0.2-3.5,0.3-4.6c0.1-0.5,0.2-0.9,0.2-1.2c0.1-0.3,0.1-0.4,0.1-0.4s0,0.1-0.1,0.4c-0.1,0.3-0.2,0.7-0.2,1.2
						c-0.1,1-0.2,2.6-0.2,4.5c0,3.9,0.2,9.5,0.5,16.3c0.7,13.4,2.1,31.4,3.7,49.2c3.1,35.8,6.8,71.5,6.8,71.5L107.2,176.2z"/>
				</g>
				<g>
					<path class="st0" d="M113.9,164.2c0,0,0-0.5,0-1.5c0-1-0.1-2.4-0.1-4.2c-0.1-3.6-0.4-8.7-0.7-14.9c-0.6-12.3-1.5-28.8-2.5-45.3
						c-1-16.5-2.1-32.9-3.1-45.2c-0.5-6.2-1-11.3-1.4-14.9c-0.2-1.8-0.4-3.2-0.6-4.1c-0.1-0.5-0.2-0.8-0.3-1.1
						c-0.1-0.2-0.2-0.3-0.2-0.3s0.1,0.1,0.2,0.3c0.1,0.2,0.2,0.6,0.3,1.1c0.2,0.9,0.5,2.3,0.7,4.1c0.5,3.6,1.1,8.7,1.8,14.8
						c1.3,12.3,2.8,28.7,4.2,45.2c1.4,16.4,2.7,32.9,3.6,45.2c0.5,6.2,0.8,11.3,1,14.9c0.1,1.8,0.2,3.2,0.2,4.2c0,1,0.1,1.5,0.1,1.5
						L113.9,164.2z"/>
				</g>
				<g>
					<path class="st0" d="M97.6,184c0,0-0.8-8.9-1.9-22.4c-1-13.4-2.3-31.3-3.1-49.2c-0.9-17.9-1.3-35.9-0.8-49.3
						c0.2-6.7,0.8-12.3,1.5-16.2c0.3-1.9,0.7-3.4,1.1-4.4c0.2-0.5,0.3-0.9,0.4-1.1c0.1-0.3,0.2-0.4,0.2-0.4s-0.1,0.1-0.2,0.4
						c-0.1,0.3-0.3,0.6-0.4,1.1c-0.3,1-0.7,2.5-1,4.4c-0.6,3.9-1,9.5-1.1,16.2c-0.2,13.4,0.6,31.4,1.9,49.2
						c1.2,17.9,2.9,35.7,4.2,49.1c1.3,13.4,2.3,22.3,2.3,22.3L97.6,184z"/>
				</g>
				<g>
					<path class="st0" d="M117.2,157c0,0-0.4-4-1.2-10c-0.7-6-1.8-14-3-22c-0.3-2-0.6-4-0.9-5.9c-0.3-2-0.7-3.9-1-5.7
						c-0.3-1.9-0.7-3.7-1-5.4c-0.4-1.7-0.7-3.3-1-4.8c-0.4-1.5-0.6-2.8-1-4c-0.3-1.2-0.6-2.2-0.9-3.1c-0.6-1.7-0.9-2.6-0.9-2.6
						s0.4,0.9,1.1,2.6c0.3,0.8,0.6,1.9,1,3c0.4,1.2,0.7,2.5,1.1,4c0.4,1.5,0.8,3.1,1.2,4.7c0.4,1.7,0.8,3.5,1.2,5.3
						c0.4,1.8,0.8,3.8,1.2,5.7c0.4,1.9,0.8,3.9,1.2,5.9c1.6,7.9,3,15.9,4,21.8c1,6,1.7,10,1.7,10L117.2,157z"/>
				</g>
				<g>
					<path class="st0" d="M108.6,167.2c0,0-0.5-7.2-1.3-18c-0.4-5.4-0.8-11.7-1.2-18.5c-0.4-6.8-0.8-14-1.2-21.2
						c-0.2-3.6-0.3-7.2-0.5-10.8c-0.1-3.6-0.3-7.1-0.4-10.4c-0.1-3.4-0.2-6.7-0.3-9.8c-0.1-3.1-0.2-6-0.2-8.8c0-2.7-0.1-5.2,0-7.4
						c0-2.2,0-4.1,0.1-5.7c0.2-3.2,0.2-5,0.2-5s0,1.8-0.1,5c0,1.6,0,3.5,0,5.7c0,2.2,0.1,4.7,0.2,7.4c0.1,2.7,0.2,5.6,0.4,8.7
						c0.1,3.1,0.4,6.4,0.6,9.7c0.2,3.4,0.5,6.9,0.7,10.4c0.3,3.5,0.5,7.1,0.8,10.7c0.6,7.2,1.2,14.4,1.7,21.1
						c0.6,6.7,1.2,13,1.7,18.4c1,10.8,1.7,18,1.7,18L108.6,167.2z"/>
				</g>
				<g>
					<path class="st0" d="M90.4,174.3c0,0-1.5-8.3-3.6-20.7c-2-12.4-4.6-29.1-6.5-45.8c-1-8.3-1.9-16.7-2.5-24.6
						c-0.6-7.9-1-15.2-1-21.5c0-6.3,0.4-11.6,1-15.2c0.3-1.8,0.7-3.2,1-4.2c0.1-0.5,0.3-0.8,0.4-1.1c0.1-0.2,0.1-0.4,0.1-0.4
						s0,0.1-0.1,0.4c-0.1,0.2-0.2,0.6-0.3,1.1c-0.3,0.9-0.6,2.4-0.9,4.2c-0.5,3.6-0.8,8.9-0.6,15.2c0.1,6.3,0.7,13.6,1.5,21.4
						c0.8,7.8,1.8,16.1,3,24.5c2.4,16.6,5.3,33.1,7.6,45.5c1.2,6.2,2.2,11.3,2.9,14.9c0.7,3.6,1.1,5.6,1.1,5.6L90.4,174.3z"/>
				</g>
			</g>
			<g>
				<g>
					<path class="st2" d="M98.6,16c0,0-0.1,0.1-0.2,0.4c-0.1,0.1-0.2,0.3-0.2,0.5c-0.1,0.2-0.2,0.4-0.2,0.7
						c-0.3,1.1-0.6,2.9-0.6,5.1c-0.1,4.5,0.6,10.9,1.7,18.5c0.5,3.8,1.2,7.9,1.9,12.3c0.7,4.4,1.5,9,2.3,13.7
						c1.6,9.5,3.3,19.7,4.8,29.9c0.8,5.1,1.5,10.2,2.2,15.2c0.7,5,1.2,10,1.7,14.8c0.4,4.8,0.7,9.5,0.9,13.9
						c0.1,2.2,0.1,4.4,0.2,6.5c0,2.1,0,4.1,0,6c-0.1,3.9-0.3,7.4-0.5,10.6c-0.1,1.6-0.3,3-0.4,4.4c-0.2,1.4-0.3,2.6-0.5,3.7
						c-0.1,1.1-0.3,2.1-0.4,3c-0.1,0.9-0.3,1.6-0.4,2.2c-0.2,1.2-0.4,1.8-0.4,1.8l-0.2,0c0,0,0.1-0.6,0.2-1.8c0-0.6,0.1-1.3,0.2-2.2
						c0.1-0.9,0.1-1.9,0.2-3c0.1-2.2,0.2-5,0.3-8.1c0.1-3.1,0-6.7-0.1-10.5c-0.1-1.9-0.1-3.9-0.2-6c-0.1-2.1-0.2-4.2-0.3-6.4
						c-0.3-4.4-0.6-9-1.1-13.8c-0.4-4.8-0.9-9.7-1.4-14.8c-0.5-5-1.1-10.1-1.8-15.2c-1.3-10.2-2.9-20.4-4.3-29.9
						c-0.7-4.8-1.4-9.4-2-13.8c-0.6-4.4-1.2-8.5-1.6-12.4c-0.9-7.7-1.4-14.1-1.2-18.6c0.1-2.3,0.4-4,0.7-5.2
						c0.1-0.3,0.2-0.5,0.3-0.8c0.1-0.2,0.2-0.4,0.3-0.5c0.2-0.3,0.2-0.4,0.2-0.4L98.6,16z"/>
				</g>
				<g>
					<path class="st2" d="M92.8,30.7c0,0,0.1,0.6,0.3,1.8c0.1,0.6,0.2,1.3,0.4,2.1c0.1,0.8,0.3,1.8,0.4,2.9c0.3,2.2,0.7,4.8,1.2,7.8
						c0.4,3,0.9,6.4,1.5,10.1c0.5,3.7,1.1,7.7,1.7,12c0.6,4.3,1.2,8.8,1.8,13.4c1.2,9.3,2.6,19.2,3.9,29.1c0.7,5,1.3,9.9,2,14.8
						c0.7,4.9,1.3,9.7,1.9,14.3c0.5,4.7,1.1,9.2,1.5,13.4c0.5,4.3,0.9,8.3,1.2,12.1c0.4,3.7,0.6,7.2,0.9,10.2c0.3,3,0.5,5.7,0.6,7.9
						c0.1,2.2,0.3,3.9,0.3,5.1c0.1,1.2,0.1,1.8,0.1,1.8l-0.2,0c0,0-0.4-2.5-1-6.8c-0.2-1.1-0.4-2.3-0.6-3.6
						c-0.2-1.3-0.4-2.7-0.6-4.2c-0.4-3-1-6.4-1.5-10.1c-0.3-1.9-0.5-3.8-0.8-5.8c-0.3-2-0.5-4.1-0.8-6.2c-0.6-4.3-1.1-8.8-1.7-13.4
						c-1.1-9.3-2.1-19.3-3.3-29.2c-2.3-19.9-4.6-39.8-6.3-54.7c-0.4-3.7-0.9-7.1-1.2-10.2c-0.4-3-0.7-5.7-1-7.8
						c-0.1-1.1-0.3-2.1-0.4-2.9c-0.1-0.8-0.2-1.6-0.3-2.1c-0.2-1.2-0.3-1.8-0.3-1.8L92.8,30.7z"/>
				</g>
				<g>
					<path class="st2" d="M86.2,46.7c0,0,0,0.1,0.1,0.4c0.1,0.3,0.2,0.7,0.3,1.2c0.2,1,0.5,2.6,0.9,4.5c0.7,3.9,1.6,9.4,2.6,16.1
						c0.5,3.3,1.1,7,1.7,10.8c0.6,3.8,1.2,7.9,1.8,12c1.2,8.4,2.4,17.3,3.7,26.2c0.6,4.5,1.2,8.9,1.8,13.3c0.6,4.4,1.2,8.7,1.7,12.9
						c0.5,4.2,1,8.2,1.4,12.1c0.2,1.9,0.4,3.8,0.6,5.6c0.2,1.8,0.3,3.6,0.5,5.3c0.3,3.4,0.5,6.5,0.7,9.2c0.2,2.7,0.3,5.1,0.4,7.1
						c0,1,0.1,1.9,0.1,2.6c0,0.8,0,1.4,0,2c0,0.3,0,0.5,0,0.7c0,0.2,0,0.4,0,0.5c0,0.3,0,0.4,0,0.4l-0.2,0c0,0,0-0.1,0-0.4
						c0-0.1,0-0.3,0-0.5c0-0.2,0-0.4-0.1-0.7c-0.1-1-0.3-2.6-0.5-4.5c-0.5-3.9-1.3-9.5-2.2-16.2c-0.4-3.3-0.9-7-1.4-10.8
						c-0.5-3.8-1-7.9-1.5-12.1c-0.9-8.4-2-17.3-3-26.3c-1.1-8.9-2.1-17.9-3.2-26.3c-1-8.4-2-16.2-2.9-22.9
						c-0.9-6.7-1.6-12.3-2.2-16.2c-0.3-1.9-0.5-3.5-0.7-4.5c-0.1-0.5-0.2-0.9-0.2-1.2C86,46.9,86,46.8,86,46.8L86.2,46.7z"/>
				</g>
				<g>
					<path class="st2" d="M88.7,38.1c0,0,1.6,8.8,4,22.1c0.6,3.3,1.2,6.9,1.9,10.7c0.7,3.8,1.3,7.8,2.1,12c1.4,8.3,2.9,17.2,4.3,26
						c0.7,4.4,1.4,8.9,2.1,13.2c0.7,4.4,1.4,8.7,2,12.8c0.6,4.2,1.1,8.2,1.5,12c0.2,1.9,0.4,3.8,0.6,5.6c0.2,1.8,0.3,3.6,0.5,5.2
						c0.3,3.4,0.5,6.4,0.7,9.2c0.2,2.7,0.2,5.1,0.2,7.1c0,2-0.1,3.5-0.2,4.6c0,0.3-0.1,0.5-0.1,0.7c-0.1,0.2-0.1,0.4-0.1,0.5
						c-0.1,0.3-0.2,0.4-0.2,0.4l-0.2-0.1c0,0,0-0.1,0.1-0.4c0-0.1,0-0.3,0.1-0.5c0-0.2,0-0.4,0-0.7c0-1,0-2.6-0.2-4.5
						c-0.2-1.9-0.5-4.3-0.8-7c-0.3-2.7-0.8-5.8-1.2-9.1c-1-6.7-2.1-14.4-3.3-22.7c-0.6-4.2-1.1-8.5-1.7-12.8
						c-0.6-4.4-1.2-8.8-1.8-13.3c-1.3-8.9-2.5-17.8-3.8-26.1C94,74.7,92.8,67,91.8,60.3c-2-13.3-3.4-22.2-3.4-22.2L88.7,38.1z"/>
				</g>
				<g>
					<path class="st2" d="M86.4,42.2c0,0,0.9,8.9,2.3,22.3c0.3,3.4,0.7,7,1.1,10.8c0.4,3.8,0.8,7.9,1.2,12.1
						c0.8,8.4,1.6,17.3,2.4,26.3c0.4,4.5,0.8,9,1.2,13.4c0.4,4.4,0.7,8.7,1,12.9c0.3,4.2,0.5,8.3,0.6,12.1c0.1,1.9,0.1,3.8,0.2,5.6
						c0,1.8,0.1,3.6,0.1,5.3c0.1,3.4,0.1,6.5,0,9.2c0,2.7-0.1,5.1-0.3,7.1c-0.1,2-0.3,3.5-0.5,4.6c-0.1,0.5-0.2,0.9-0.3,1.2
						c-0.1,0.3-0.2,0.4-0.2,0.4l-0.2-0.1c0,0,0-0.1,0.1-0.4c0.1-0.3,0.1-0.6,0.2-1.2c0.1-1,0.1-2.6,0.1-4.5c-0.1-2-0.2-4.3-0.3-7.1
						c-0.1-2.7-0.4-5.8-0.6-9.2c-0.5-6.7-1-14.5-1.6-22.9c-0.2-4.2-0.5-8.5-0.8-13c-0.3-4.4-0.5-8.9-0.8-13.4
						c-0.6-9-1.2-17.9-1.8-26.3c-0.6-8.4-1.2-16.2-1.7-23c-1-13.4-1.7-22.4-1.7-22.4L86.4,42.2z"/>
				</g>
				<g>
					<path class="st2" d="M79.7,54.1c0,0,0.1,2.1,0.3,5.7c0.2,3.6,0.6,8.7,1.1,14.9c0.5,6.2,1,13.4,1.6,21.1
						c0.6,7.7,1.3,15.9,2,24.1c0.7,8.2,1.5,16.4,2.1,24.1c0.3,3.9,0.6,7.6,0.8,11.1c0.2,3.5,0.5,6.9,0.7,10c0.2,3.1,0.4,5.9,0.6,8.4
						c0.2,2.5,0.4,4.7,0.5,6.5c0.1,1.8,0.3,3.2,0.5,4.1c0.1,0.5,0.2,0.8,0.2,1.1c0,0.1,0.1,0.2,0.1,0.2c0,0,0,0,0,0l-0.1,0.2
						c0,0-0.1,0-0.1-0.1c-0.1-0.1-0.1-0.2-0.2-0.3c-0.1-0.2-0.2-0.6-0.4-1.1c-0.3-0.9-0.6-2.3-0.9-4.1c-0.3-1.8-0.7-3.9-1.1-6.4
						c-0.4-2.5-0.7-5.3-1.1-8.4c-0.2-1.5-0.4-3.1-0.6-4.8c-0.2-1.7-0.4-3.4-0.5-5.1c-0.4-3.5-0.7-7.3-1-11.1
						c-0.3-3.9-0.6-7.8-0.8-11.9c-0.2-4.1-0.5-8.2-0.7-12.3c-0.5-8.2-1-16.5-1.4-24.2c-0.2-3.9-0.4-7.6-0.6-11.1
						c-0.2-3.5-0.3-6.9-0.5-10c-0.3-6.2-0.5-11.3-0.6-14.9c-0.1-3.6-0.2-5.7-0.2-5.7L79.7,54.1z"/>
				</g>
				<g>
					<path class="st2" d="M96,34.4c0,0,1,8.9,2.4,22.3c0.3,3.3,0.7,7,1.1,10.8c0.4,3.8,0.7,7.9,1.1,12.1c0.7,8.4,1.4,17.3,2.1,26.3
						c0.3,4.5,0.6,9,0.9,13.4c0.3,4.4,0.5,8.8,0.6,13c0.1,4.2,0.2,8.3,0.1,12.1c0,1.9,0,3.8-0.1,5.6c-0.1,1.8-0.1,3.6-0.2,5.3
						c-0.2,3.4-0.4,6.5-0.7,9.2c-0.3,2.7-0.7,5.1-1.1,7c-0.4,1.9-0.9,3.4-1.3,4.4c-0.2,0.5-0.4,0.9-0.5,1.1
						c-0.1,0.2-0.2,0.4-0.2,0.4l-0.2-0.1c0,0,0-0.1,0.1-0.4c0.1-0.3,0.2-0.6,0.3-1.1c0.3-1,0.6-2.5,0.8-4.4c0.2-1.9,0.4-4.3,0.5-7
						c0.1-2.7,0.2-5.8,0.2-9.1c0-1.7,0-3.4,0-5.2c0-1.8,0-3.7-0.1-5.6c-0.1-3.8-0.2-7.9-0.3-12.1c-0.1-4.2-0.2-8.5-0.4-12.9
						c-0.1-4.4-0.3-8.9-0.5-13.4c-0.4-8.9-1-17.9-1.5-26.3c-0.3-4.2-0.6-8.2-0.8-12.1c-0.3-3.8-0.5-7.5-0.8-10.8
						c-1-13.4-1.8-22.3-1.8-22.3L96,34.4z"/>
				</g>
				<g>
					<path class="st2" d="M76.4,61.5c0,0,0.7,4,1.7,9.9c0.5,3,1.2,6.4,1.8,10.2c0.3,1.9,0.7,3.8,1.1,5.7c0.4,1.9,0.8,3.9,1.1,5.9
						c0.4,2,0.8,3.9,1.2,5.9c0.4,1.9,0.9,3.8,1.2,5.7c0.4,1.8,0.7,3.6,1,5.3c0.2,0.8,0.3,1.7,0.5,2.5c0.1,0.8,0.3,1.6,0.4,2.3
						c0.3,1.5,0.5,2.8,0.8,4c0.3,1.2,0.5,2.2,0.7,3.1c0.5,1.7,0.7,2.7,0.7,2.7l-0.2,0.1c0,0-0.5-0.9-1.3-2.5c-0.4-0.8-0.7-1.8-1.2-3
						c-0.2-0.6-0.4-1.2-0.6-1.9c-0.2-0.7-0.4-1.4-0.7-2.1c-0.5-1.5-0.9-3-1.3-4.7c-0.4-1.7-0.8-3.5-1.2-5.3c-0.4-1.9-0.7-3.8-1-5.8
						c-0.3-2-0.6-4-0.9-6c-0.3-2-0.6-4-0.9-6c-0.3-2-0.5-3.9-0.8-5.8c-0.3-1.9-0.5-3.7-0.7-5.4c-0.2-1.7-0.4-3.3-0.6-4.9
						c-0.7-6-1.1-10-1.1-10L76.4,61.5z"/>
				</g>
				<g>
					<path class="st2" d="M85,51.2c0,0,0.8,7.2,1.8,18c0.3,2.7,0.5,5.6,0.8,8.7c0.3,3.1,0.6,6.4,0.9,9.7c0.6,6.8,1.2,14,1.7,21.2
						c0.5,7.2,1.1,14.4,1.5,21.2c0.1,3.4,0.3,6.7,0.3,9.8c0.1,3.1,0.1,6,0.1,8.8c0,2.7,0,5.2-0.2,7.4c-0.1,2.2-0.2,4.1-0.3,5.7
						c-0.1,1.6-0.3,2.8-0.3,3.7c-0.1,0.8-0.1,1.3-0.1,1.3l-0.2,0c0,0,0-0.5,0-1.3c0-0.8-0.1-2.1-0.1-3.7c0-0.8-0.1-1.7-0.1-2.6
						c0-1-0.1-2-0.1-3.1c-0.1-2.2-0.3-4.7-0.4-7.4c-0.1-1.4-0.1-2.8-0.2-4.2c-0.1-1.5-0.2-3-0.2-4.5c-0.2-3.1-0.4-6.4-0.5-9.7
						c-0.1-3.4-0.3-6.9-0.4-10.4c-0.1-3.6-0.3-7.2-0.5-10.8c-0.4-7.2-0.8-14.4-1.2-21.2c-0.4-6.8-0.8-13.1-1.1-18.5
						c-0.7-10.8-1.2-18-1.2-18L85,51.2z"/>
				</g>
				<g>
					<path class="st2" d="M103.2,44.2c0,0,1.7,8.2,4.1,20.6c0.6,3.1,1.2,6.5,1.9,10c0.7,3.6,1.3,7.3,1.9,11.2
						c1.3,7.8,2.6,16.1,3.8,24.4c0.6,4.2,1.2,8.3,1.7,12.4c0.5,4.1,1,8.2,1.4,12.1c0.3,3.9,0.6,7.7,0.8,11.4
						c0.1,1.8,0.1,3.6,0.2,5.3c0,1.7,0,3.4,0,4.9c0,3.2-0.2,6.1-0.4,8.6c-0.2,2.6-0.6,4.8-0.9,6.6c-0.4,1.8-0.8,3.2-1.1,4.2
						c-0.2,0.5-0.3,0.8-0.4,1.1c-0.1,0.2-0.1,0.4-0.1,0.4l-0.2-0.1c0,0,0-0.1,0.1-0.4c0.1-0.2,0.2-0.6,0.3-1.1
						c0.2-1,0.5-2.4,0.7-4.2c0.2-1.8,0.3-4,0.4-6.6c0-2.5,0-5.4-0.1-8.5c-0.1-3.1-0.3-6.5-0.6-10.1c-0.3-3.6-0.6-7.4-0.9-11.3
						c-0.3-3.9-0.7-8-1.1-12.1c-0.4-4.1-0.9-8.3-1.3-12.4c-1-8.3-2.1-16.6-3.3-24.4c-0.6-3.9-1.1-7.7-1.7-11.2
						c-0.6-3.6-1.1-6.9-1.6-10c-2-12.4-3.5-20.7-3.5-20.7L103.2,44.2z"/>
				</g>
			</g>
			<g>
				<g>
					<path class="st1" d="M101.7,28.6c0,0,0.1,0.6,0.3,1.7c0.2,1.1,0.7,2.8,1.1,4.9c0.5,2.1,1.1,4.6,1.9,7.6c0.4,1.5,0.8,3,1.2,4.6
						c0.4,1.6,0.8,3.4,1.3,5.2c0.4,1.8,0.9,3.7,1.3,5.6c0.5,1.9,0.9,4,1.3,6c0.9,4.2,1.9,8.5,2.7,13.1c0.4,2.3,0.9,4.6,1.3,7
						c0.2,1.2,0.4,2.4,0.6,3.6c0.2,1.2,0.4,2.4,0.6,3.6c0.8,4.8,1.5,9.7,2.1,14.7c0.6,4.9,1.1,9.9,1.5,14.8
						c0.4,4.9,0.6,9.7,0.7,14.4c0.1,4.7,0,9.2-0.2,13.5c-0.2,4.3-0.7,8.3-1.3,12.1c-0.1,0.9-0.3,1.8-0.5,2.7
						c-0.2,0.9-0.3,1.7-0.6,2.6c-0.4,1.7-0.8,3.2-1.3,4.7c-0.9,2.9-2,5.4-2.9,7.4c-1,2-2,3.4-2.7,4.3c-0.7,0.9-1.1,1.4-1.1,1.4
						l-0.2-0.2c0,0,0.3-0.5,1-1.5c0.3-0.5,0.7-1.1,1.1-1.8c0.4-0.7,0.8-1.6,1.2-2.6c0.9-2,1.7-4.4,2.4-7.4c0.7-2.9,1.3-6.2,1.8-9.9
						c0.9-7.3,1.1-16,0.7-25.2c-0.4-9.2-1.3-19.1-2.5-28.9c-2.4-19.6-6-39-8.8-53.6c-1.4-7.3-2.6-13.3-3.3-17.6
						c-0.4-2.1-0.6-3.8-0.8-5c-0.1-1.2-0.2-1.8-0.2-1.8L101.7,28.6z"/>
				</g>
				<g>
					<path class="st1" d="M96.7,32.7c0,0,0.1,0.6,0.4,1.8c0.3,1.1,0.7,2.8,1.1,5c0.4,2.2,1,4.8,1.5,7.8c0.3,1.5,0.6,3.1,0.9,4.8
						c0.3,1.7,0.6,3.5,0.9,5.3c0.3,1.9,0.7,3.8,1,5.8c0.3,2,0.7,4.1,1,6.2c0.7,4.3,1.4,8.7,2,13.4c0.3,2.3,0.7,4.7,1,7.1
						c0.2,1.2,0.3,2.4,0.5,3.6c0.2,1.2,0.3,2.4,0.5,3.6c0.6,4.9,1.3,9.9,1.9,14.8c0.6,5,1.2,9.9,1.7,14.8c0.3,2.4,0.5,4.9,0.8,7.3
						c0.2,2.4,0.5,4.8,0.7,7.1c0.5,4.7,0.9,9.2,1.3,13.5c0.4,4.3,0.7,8.3,1,12.1c0.3,3.7,0.5,7.2,0.7,10.2c0.2,3.1,0.3,5.7,0.4,7.9
						c0.1,2.2,0.2,3.9,0.2,5.1c0,1.2,0,1.8,0,1.8l-0.3,0c0,0-0.1-0.6-0.2-1.8c-0.1-1.2-0.3-2.9-0.6-5c-0.5-4.3-1.2-10.6-2.1-18
						c-1.8-14.9-4.2-34.8-6.7-54.6c-2.4-19.9-4.8-39.7-6.8-54.6c-0.5-3.7-0.9-7.1-1.3-10.2c-0.4-3-0.8-5.7-1.1-7.8
						c-0.2-1.1-0.3-2.1-0.4-2.9c-0.1-0.8-0.2-1.6-0.3-2.1c-0.2-1.2-0.3-1.8-0.3-1.8L96.7,32.7z"/>
				</g>
				<g>
					<path class="st1" d="M90.2,48.7c0,0,0,0.1,0.1,0.4c0.1,0.3,0.2,0.6,0.4,1.2c0.3,1,0.7,2.5,1.2,4.5c0.5,1.9,1,4.3,1.6,7
						c0.6,2.7,1.2,5.7,1.8,9.1c0.6,3.3,1.3,6.9,2,10.7c0.7,3.8,1.4,7.8,2,12c0.3,2.1,0.6,4.2,1,6.4c0.2,1.1,0.3,2.2,0.5,3.2
						c0.2,1.1,0.3,2.2,0.5,3.3c0.6,4.4,1.2,8.9,1.8,13.3c0.5,4.5,1.1,8.9,1.6,13.4c0.5,4.4,0.9,8.8,1.4,13c0.4,4.2,0.8,8.3,1.1,12.1
						c0.3,3.9,0.6,7.5,0.8,10.9c0.2,3.4,0.4,6.5,0.5,9.2c0.1,2.7,0.2,5.2,0.2,7.1c0,1,0,1.9,0,2.6c0,0.8,0,1.4-0.1,2
						c0,0.3,0,0.5,0,0.7c0,0.2,0,0.4-0.1,0.5c0,0.3,0,0.4,0,0.4l-0.3,0c0,0,0-0.1,0-0.4c0-0.1,0-0.3,0-0.5c0-0.2,0-0.4,0-0.7
						c0-0.5-0.1-1.2-0.1-1.9c-0.1-0.8-0.1-1.6-0.2-2.6c-0.2-2-0.4-4.3-0.7-7.1c-0.3-2.7-0.6-5.8-1-9.2c-1.5-13.4-3.7-31.3-6.1-49.2
						c-2.2-17.9-4.6-35.7-6.5-49.1c-0.9-6.7-1.8-12.3-2.4-16.1c-0.3-1.9-0.6-3.5-0.8-4.5c-0.1-0.5-0.2-0.9-0.3-1.2
						c-0.1-0.3-0.1-0.4-0.1-0.4L90.2,48.7z"/>
				</g>
				<g>
					<path class="st1" d="M92.6,36.4c0,0,0.1,0.6,0.4,1.6c0.3,1.1,0.7,2.6,1.1,4.6c0.5,2,1,4.3,1.6,7.1c0.6,2.7,1.3,5.8,2,9.2
						c0.3,1.7,0.7,3.5,1.1,5.3c0.4,1.8,0.7,3.7,1.1,5.7c0.7,3.9,1.5,8,2.3,12.2c0.4,2.1,0.7,4.3,1.1,6.5c0.2,1.1,0.4,2.2,0.6,3.3
						c0.2,1.1,0.4,2.2,0.5,3.3c0.7,4.5,1.4,9,2.1,13.6c0.6,4.6,1.3,9.1,1.9,13.6c0.3,2.2,0.6,4.5,0.8,6.7c0.3,2.2,0.5,4.4,0.8,6.5
						c0.5,4.3,0.9,8.5,1.3,12.4c0.4,3.9,0.7,7.7,0.9,11.1c0.2,3.5,0.4,6.6,0.5,9.4c0.1,2.8,0.1,5.3,0,7.3c0,2-0.2,3.6-0.4,4.7
						c-0.1,0.3-0.1,0.5-0.1,0.7c-0.1,0.2-0.1,0.4-0.2,0.5c-0.1,0.3-0.2,0.4-0.2,0.4l-0.3-0.2c0,0,0-0.1,0.1-0.3
						c0-0.1,0.1-0.3,0.1-0.5c0-0.2,0-0.4,0.1-0.7c0.1-1.1,0.1-2.6,0-4.6c-0.2-4-0.7-9.7-1.5-16.6c-1.6-13.7-4.2-31.9-6.9-50.1
						c-5.3-36.4-11.2-72.8-11.2-72.8L92.6,36.4z"/>
				</g>
				<g>
					<path class="st1" d="M90.3,44.3c0,0,0.1,0.6,0.3,1.6c0.2,1,0.5,2.6,0.8,4.5c0.3,1.9,0.7,4.3,1.1,7c0.4,2.7,0.9,5.8,1.3,9.1
						c0.2,1.7,0.5,3.4,0.7,5.2c0.2,1.8,0.4,3.7,0.7,5.6c0.5,3.8,1,7.9,1.4,12.1c0.2,2.1,0.4,4.2,0.7,6.4c0.1,1.1,0.2,2.2,0.3,3.3
						c0.1,1.1,0.2,2.2,0.3,3.3c0.4,4.4,0.8,8.9,1.1,13.4c0.3,4.5,0.6,9,0.9,13.4c0.2,2.2,0.3,4.4,0.4,6.6c0.1,2.2,0.2,4.3,0.3,6.4
						c0.2,4.2,0.3,8.3,0.4,12.2c0.1,3.9,0.1,7.5,0.1,10.9c0,3.4-0.1,6.5-0.2,9.2c-0.1,2.8-0.3,5.2-0.4,7.1c-0.2,2-0.4,3.5-0.7,4.6
						c-0.1,0.5-0.2,0.9-0.3,1.2c-0.1,0.3-0.2,0.4-0.2,0.4l-0.3-0.1c0,0,0-0.1,0.1-0.4c0.1-0.3,0.2-0.6,0.2-1.2
						c0.1-1,0.2-2.6,0.3-4.5c0.1-3.9-0.1-9.5-0.4-16.3c-0.6-13.5-1.9-31.4-3.3-49.3C93.2,80.1,90,44.3,90,44.3L90.3,44.3z"/>
				</g>
				<g>
					<path class="st1" d="M86.2,5.2c0,0-0.2,0.1-0.4,0.3c-0.2,0.2-0.5,0.6-0.8,1.2c-0.5,1.2-0.9,3.1-1.2,5.6c-0.3,2.5-0.5,5.5-0.5,9
						c0,1.7,0,3.6,0,5.6c0,2,0,4,0.1,6.2c0.1,2.1,0.1,4.4,0.2,6.7c0.1,2.3,0.2,4.7,0.3,7.2c0.2,4.9,0.6,10.1,0.8,15.5
						c0.2,2.7,0.3,5.4,0.5,8.2c0.1,1.4,0.2,2.8,0.3,4.2c0.1,1.4,0.2,2.8,0.3,4.2c0.4,5.6,0.8,11.4,1.2,17.1
						c0.4,5.7,0.8,11.5,1.2,17.1c0.2,2.8,0.4,5.6,0.6,8.4c0.2,2.8,0.4,5.5,0.6,8.2c0.8,10.7,1.5,20.8,2.1,29.4
						c0.3,4.3,0.6,8.2,0.8,11.7c0.3,3.5,0.5,6.5,0.7,9c0.3,2.5,0.4,4.5,0.6,5.8c0.1,0.7,0.2,1.2,0.3,1.5c0,0.2,0.1,0.3,0.1,0.3
						c0,0,0,0,0,0c0,0,0,0,0,0l-0.1,0.3c-0.2-0.1-0.4-0.7-0.7-2.1c-0.3-1.3-0.6-3.3-1-5.8c-0.7-5-1.6-12.1-2.6-20.7
						c-1.9-17.1-4.1-40.1-5.8-63c-1.6-23-2.7-46-2.4-63.2c0.1-8.6,0.6-15.8,1.5-20.8c0.4-2.5,1-4.4,1.7-5.6c0.3-0.6,0.7-1,0.9-1.3
						C85.9,5,86,4.9,86,4.9L86.2,5.2z"/>
				</g>
				<g>
					<path class="st1" d="M99.9,36.4c0,0,0.1,0.6,0.3,1.6c0.2,1,0.5,2.6,0.8,4.5c0.3,1.9,0.7,4.3,1.1,7c0.4,2.7,0.9,5.8,1.3,9.1
						c0.2,1.7,0.5,3.4,0.7,5.2c0.2,1.8,0.4,3.7,0.7,5.6c0.4,3.8,0.9,7.9,1.3,12.1c0.2,2.1,0.4,4.2,0.6,6.4c0.1,1.1,0.2,2.2,0.3,3.3
						c0.1,1.1,0.2,2.2,0.3,3.3c0.3,4.4,0.7,8.9,0.9,13.4c0.2,4.5,0.4,9,0.6,13.4c0.1,2.2,0.1,4.4,0.2,6.6c0,2.2,0.1,4.3,0.1,6.4
						c0.1,4.2,0,8.3-0.1,12.2c-0.1,3.9-0.3,7.5-0.5,10.9c-0.2,3.4-0.6,6.5-1,9.2c-0.4,2.7-0.8,5.1-1.3,7c-0.4,1.9-1,3.4-1.4,4.4
						c-0.2,0.5-0.4,0.9-0.5,1.1c-0.1,0.2-0.2,0.4-0.2,0.4l-0.3-0.1c0,0,0.1-0.1,0.2-0.4c0.1-0.2,0.3-0.6,0.4-1.1
						c0.3-1,0.7-2.5,1-4.4c0.6-3.9,1.1-9.5,1.2-16.2c0.3-13.4-0.3-31.4-1.4-49.3c-2-35.8-5.6-71.5-5.6-71.5L99.9,36.4z"/>
				</g>
				<g>
					<path class="st1" d="M80.3,63.5c0,0,0.1,0.2,0.2,0.7c0.1,0.5,0.4,1.1,0.6,2c0.3,0.9,0.6,1.9,0.9,3.1c0.3,1.2,0.7,2.5,1.1,4
						c0.4,1.5,0.8,3.1,1.2,4.8c0.4,1.7,0.8,3.5,1.2,5.3c0.4,1.9,0.8,3.7,1.2,5.7c0.4,1.9,0.7,3.9,1.1,5.9c0.3,2,0.7,4,1,5.9
						c0.3,1.9,0.6,3.9,0.9,5.7c0.3,1.8,0.5,3.7,0.8,5.4c0.1,0.9,0.3,1.7,0.4,2.5c0.1,0.8,0.2,1.6,0.3,2.3c0.1,0.7,0.2,1.5,0.3,2.1
						c0.1,0.7,0.1,1.3,0.3,1.9c0.2,1.2,0.3,2.3,0.5,3.1c0.2,0.8,0.3,1.5,0.4,2c0.1,0.5,0.1,0.7,0.1,0.7l-0.3,0.1c0,0-0.4-0.9-1-2.6
						c-0.3-0.8-0.6-1.9-1-3c-0.4-1.2-0.7-2.5-1.1-4c-0.4-1.5-0.7-3.1-1.1-4.8c-0.4-1.7-0.7-3.5-1.1-5.3c-0.4-1.9-0.7-3.8-1.1-5.7
						c-0.4-2-0.7-3.9-1.1-5.9c-1.4-8-2.6-15.9-3.5-21.9c-0.4-3-0.8-5.5-1-7.2c-0.2-1.8-0.4-2.8-0.4-2.8L80.3,63.5z"/>
				</g>
				<g>
					<path class="st1" d="M88.9,53.3c0,0,0.1,0.4,0.3,1.3c0.2,0.8,0.4,2.1,0.7,3.6c0.3,1.6,0.6,3.5,1,5.6c0.2,1.1,0.4,2.3,0.6,3.5
						c0.2,1.2,0.4,2.5,0.6,3.9c0.2,1.3,0.4,2.7,0.6,4.2c0.2,1.5,0.4,3,0.6,4.5c0.4,3.1,0.8,6.3,1.1,9.7c0.2,1.7,0.3,3.4,0.5,5.1
						c0.1,0.9,0.2,1.7,0.3,2.6c0.1,0.9,0.1,1.8,0.2,2.7c0.3,3.6,0.5,7.2,0.8,10.8c0.2,3.6,0.4,7.2,0.6,10.8c0.1,1.8,0.2,3.5,0.2,5.3
						c0.1,1.7,0.1,3.5,0.1,5.2c0.1,3.4,0.1,6.7,0.1,9.8c0,3.1-0.1,6.1-0.2,8.8c-0.1,2.7-0.2,5.2-0.4,7.4c-0.2,2.2-0.3,4.1-0.5,5.7
						c-0.2,1.6-0.4,2.8-0.5,3.7c-0.1,0.8-0.2,1.3-0.2,1.3l-0.3,0c0,0,0.1-1.8,0.2-5c0.1-1.6,0-3.5,0-5.7c0-2.2-0.1-4.7-0.1-7.4
						c0-2.7-0.2-5.6-0.3-8.7c-0.1-3.1-0.3-6.4-0.5-9.8c-0.2-3.4-0.4-6.9-0.6-10.4c-0.2-3.5-0.5-7.2-0.7-10.8
						c-0.5-7.2-0.9-14.4-1.4-21.2c-0.5-6.8-1-13.1-1.4-18.5c-0.8-10.8-1.5-18-1.5-18L88.9,53.3z"/>
				</g>
				<g>
					<path class="st1" d="M107.1,46.3c0,0,0.2,0.5,0.5,1.6c0.3,1,0.8,2.5,1.4,4.4c0.6,1.9,1.2,4.2,1.9,6.9c0.7,2.7,1.5,5.7,2.3,9
						c0.4,1.7,0.8,3.4,1.2,5.2c0.4,1.8,0.8,3.7,1.2,5.6c0.8,3.8,1.7,7.9,2.4,12.1c0.4,2.1,0.7,4.2,1.1,6.4c0.4,2.2,0.7,4.4,1,6.6
						c0.6,4.4,1.3,9,1.8,13.5c0.5,4.5,0.9,9.1,1.3,13.6c0.2,2.2,0.3,4.5,0.4,6.7c0.1,2.2,0.2,4.4,0.2,6.5c0.1,4.3,0,8.4-0.1,12.4
						c-0.1,3.9-0.5,7.7-0.9,11.1c-0.4,3.4-1,6.5-1.6,9.3c-0.6,2.7-1.4,5.1-2.1,7c-0.3,1-0.7,1.8-1,2.5c-0.4,0.7-0.6,1.3-0.9,1.8
						c-0.5,0.9-0.8,1.4-0.8,1.4l-0.3-0.1c0,0,0.2-0.5,0.7-1.5c0.2-0.5,0.4-1.1,0.7-1.8c0.2-0.7,0.6-1.6,0.8-2.5
						c0.6-1.9,1.1-4.2,1.6-7c0.5-2.7,0.8-5.8,1.1-9.2c0.5-6.8,0.6-14.7,0.2-23.2c-0.4-8.5-1.2-17.5-2.2-26.5
						c-2-18-5.1-35.9-7.6-49.3c-2.5-13.4-4.6-22.2-4.6-22.2L107.1,46.3z"/>
				</g>
			</g>
		</g>
		<g>
			<g>
				<g>
					<path class="st1" d="M140.3,34.2c0,0-0.1,0.6-0.2,1.8c-0.1,1.1-0.1,2.8-0.3,5c-0.1,2.2-0.2,4.8-0.3,7.8c0,1.5-0.1,3.1-0.1,4.8
						c-0.1,1.7-0.2,3.5-0.2,5.3c-0.1,1.9-0.2,3.8-0.3,5.8c-0.1,2-0.2,4.1-0.4,6.2c-0.3,4.2-0.6,8.7-1,13.3c-0.2,2.3-0.5,4.7-0.7,7
						c-0.1,1.2-0.2,2.4-0.4,3.6c-0.1,1.2-0.3,2.4-0.4,3.6c-0.6,4.8-1.3,9.8-2,14.7c-0.8,4.9-1.7,9.8-2.7,14.6c-1,4.8-2.1,9.5-3.3,14
						c-1.2,4.5-2.6,8.8-4,12.9c-1.4,4.1-3,7.8-4.6,11.2c-0.4,0.9-0.8,1.7-1.2,2.5c-0.4,0.8-0.8,1.6-1.2,2.3
						c-0.8,1.5-1.7,2.9-2.6,4.2c-1.7,2.6-3.4,4.7-4.9,6.3c-1.5,1.6-2.9,2.7-3.8,3.4c-1,0.7-1.5,1-1.5,1l-0.2-0.2
						c0,0,0.5-0.4,1.4-1.1c0.4-0.4,0.9-0.9,1.5-1.5c0.6-0.6,1.2-1.3,1.9-2.1c1.4-1.7,2.9-3.8,4.4-6.4c1.5-2.6,3-5.6,4.4-9
						c2.9-6.8,5.5-15.1,7.7-24c2.2-9,4-18.7,5.6-28.4c3.1-19.5,5.1-39.1,6.4-53.9c0.7-7.4,1.2-13.5,1.7-17.8c0.2-2.1,0.5-3.8,0.6-5
						c0.2-1.2,0.3-1.8,0.3-1.8L140.3,34.2z"/>
				</g>
				<g>
					<path class="st1" d="M134.4,36.7c0,0,0,0.6-0.1,1.8c-0.1,1.2-0.1,2.9-0.3,5.1c-0.2,2.2-0.4,4.9-0.7,7.9
						c-0.1,1.5-0.3,3.1-0.4,4.9c-0.2,1.7-0.4,3.5-0.6,5.4c-0.2,1.9-0.4,3.8-0.6,5.8c-0.2,2-0.5,4.1-0.8,6.2
						c-0.5,4.3-1.1,8.8-1.8,13.4c-0.3,2.3-0.7,4.7-1,7.1c-0.2,1.2-0.3,2.4-0.5,3.6c-0.2,1.2-0.4,2.4-0.6,3.6
						c-0.7,4.9-1.5,9.8-2.3,14.8c-0.8,4.9-1.7,9.9-2.5,14.7c-0.4,2.4-0.8,4.8-1.3,7.2c-0.4,2.4-0.9,4.7-1.3,7
						c-0.8,4.6-1.7,9.1-2.5,13.3c-0.8,4.2-1.6,8.2-2.4,11.9c-0.8,3.7-1.5,7-2.2,10c-0.7,3-1.3,5.6-1.8,7.7c-0.5,2.1-0.9,3.8-1.2,4.9
						c-0.3,1.1-0.5,1.7-0.5,1.7l-0.3-0.1c0,0,0.1-0.6,0.3-1.8c0.2-1.1,0.5-2.8,0.9-5c0.7-4.3,1.7-10.5,3-17.9
						c2.4-14.8,5.6-34.6,8.7-54.3c3.2-19.8,6.4-39.5,8.7-54.4c0.6-3.7,1.1-7.1,1.6-10.1c0.5-3,0.8-5.6,1.2-7.8
						c0.2-1.1,0.3-2,0.4-2.9c0.1-0.8,0.2-1.6,0.3-2.1c0.1-1.2,0.2-1.8,0.2-1.8L134.4,36.7z"/>
				</g>
				<g>
					<path class="st1" d="M123.6,50.3c0,0,0,0.1,0,0.4c0,0.3,0,0.7,0,1.2c0,1.1,0,2.6-0.1,4.6c-0.1,2-0.2,4.4-0.4,7.1
						c-0.2,2.7-0.4,5.8-0.8,9.2c-0.3,3.4-0.7,7-1.1,10.9c-0.4,3.9-0.9,7.9-1.4,12.1c-0.3,2.1-0.5,4.2-0.8,6.4
						c-0.1,1.1-0.3,2.2-0.4,3.3c-0.2,1.1-0.3,2.2-0.5,3.3c-0.6,4.4-1.3,8.8-2,13.3c-0.7,4.4-1.5,8.9-2.2,13.3
						c-0.7,4.4-1.5,8.7-2.3,12.8c-0.7,4.2-1.6,8.2-2.3,12c-0.7,3.8-1.5,7.4-2.3,10.7c-0.7,3.3-1.4,6.3-2.1,9c-0.6,2.7-1.3,5-1.8,6.9
						c-0.3,1-0.5,1.8-0.7,2.5c-0.2,0.7-0.4,1.4-0.6,1.9c-0.1,0.3-0.2,0.5-0.2,0.7c-0.1,0.2-0.1,0.4-0.2,0.5
						c-0.1,0.3-0.2,0.4-0.2,0.4l-0.3-0.1c0,0,0-0.1,0.1-0.4c0-0.1,0.1-0.3,0.2-0.5c0-0.2,0.1-0.4,0.2-0.7c0.1-0.5,0.3-1.1,0.4-1.9
						c0.2-0.7,0.3-1.6,0.5-2.6c0.4-1.9,0.8-4.3,1.3-7c0.5-2.7,1-5.8,1.6-9.1c2.3-13.3,5.1-31.1,7.8-48.9c2.8-17.8,5.5-35.6,7.4-49
						c1-6.7,1.7-12.3,2.2-16.2c0.2-2,0.4-3.5,0.5-4.5c0.1-0.5,0.1-0.9,0.1-1.2c0-0.3,0-0.4,0-0.4L123.6,50.3z"/>
				</g>
				<g>
					<path class="st1" d="M129.4,39.1c0,0,0,0.6-0.1,1.7c0,1.1-0.1,2.7-0.2,4.7c-0.1,2-0.2,4.5-0.4,7.3c-0.2,2.8-0.4,6-0.7,9.4
						c-0.1,1.7-0.3,3.5-0.4,5.4c-0.1,1.9-0.3,3.8-0.5,5.7c-0.4,3.9-0.7,8.1-1.2,12.4c-0.2,2.1-0.5,4.3-0.7,6.5
						c-0.1,1.1-0.2,2.2-0.4,3.3c-0.1,1.1-0.3,2.2-0.4,3.4c-0.6,4.5-1.2,9.1-1.7,13.6c-0.7,4.6-1.3,9.1-2,13.6
						c-0.3,2.2-0.7,4.5-1,6.7c-0.4,2.2-0.7,4.4-1.1,6.5c-0.7,4.3-1.5,8.4-2.2,12.3c-0.7,3.9-1.5,7.6-2.2,11
						c-0.7,3.4-1.5,6.5-2.2,9.2c-0.7,2.7-1.4,5.1-2,7c-0.6,1.9-1.2,3.4-1.7,4.4c-0.1,0.2-0.2,0.5-0.3,0.7c-0.1,0.2-0.2,0.3-0.3,0.5
						c-0.2,0.2-0.3,0.3-0.3,0.3l-0.2-0.2c0,0,0.1-0.1,0.2-0.3c0.1-0.1,0.1-0.3,0.2-0.4c0.1-0.2,0.2-0.4,0.3-0.6
						c0.4-1,0.8-2.5,1.3-4.5c0.9-3.9,2-9.6,3.1-16.4c2.3-13.6,4.9-31.8,7.3-50.1c5-36.5,9.4-73,9.4-73L129.4,39.1z"/>
				</g>
				<g>
					<path class="st1" d="M125,46c0,0-0.1,0.6-0.2,1.6c-0.1,1-0.2,2.6-0.5,4.6c-0.2,2-0.5,4.3-0.9,7.1c-0.4,2.7-0.8,5.8-1.3,9.1
						c-0.2,1.7-0.5,3.4-0.8,5.2c-0.3,1.8-0.6,3.6-0.9,5.6c-0.6,3.8-1.3,7.8-2,12c-0.4,2.1-0.8,4.2-1.1,6.3c-0.2,1.1-0.4,2.1-0.6,3.2
						c-0.2,1.1-0.4,2.2-0.6,3.2c-0.9,4.3-1.7,8.7-2.6,13.2c-1,4.4-1.9,8.8-2.9,13.1c-0.5,2.2-1,4.3-1.5,6.4c-0.5,2.1-1,4.2-1.5,6.2
						c-1,4.1-2,8-3,11.8c-1,3.7-2,7.3-2.9,10.5c-0.9,3.2-1.9,6.2-2.7,8.8c-0.9,2.6-1.7,4.9-2.4,6.7c-0.7,1.9-1.4,3.3-1.9,4.2
						c-0.3,0.5-0.5,0.8-0.7,1.1c-0.2,0.2-0.3,0.3-0.3,0.3l-0.2-0.2c0,0,0.1-0.1,0.2-0.3c0.1-0.2,0.3-0.6,0.5-1
						c0.4-1,0.9-2.4,1.5-4.3c1.2-3.7,2.6-9.2,4.2-15.7c3.1-13.1,6.9-30.7,10.5-48.3c7.4-35.2,14.2-70.4,14.2-70.4L125,46z"/>
				</g>
				<g>
					<path class="st1" d="M131.9,7.3c0,0-0.2,0-0.5,0.2c-0.3,0.2-0.7,0.5-1.1,1c-0.8,1-1.8,2.7-2.7,5c-1,2.3-2,5.1-3,8.5
						c-0.5,1.7-1,3.4-1.5,5.3c-0.5,1.9-1.1,3.9-1.6,5.9c-0.5,2.1-1.1,4.2-1.6,6.5c-0.6,2.3-1.1,4.6-1.7,7c-1.1,4.8-2.3,9.9-3.5,15.1
						c-0.6,2.6-1.2,5.3-1.8,8c-0.3,1.4-0.6,2.7-0.9,4.1c-0.3,1.4-0.6,2.7-0.9,4.1c-1.2,5.5-2.4,11.1-3.6,16.7
						c-1.2,5.6-2.4,11.2-3.6,16.8c-0.6,2.8-1.2,5.5-1.7,8.2c-0.6,2.7-1.1,5.4-1.7,8c-2.2,10.5-4.3,20.4-6.1,28.8
						c-0.9,4.2-1.7,8.1-2.5,11.5c-0.7,3.4-1.3,6.4-1.8,8.9c-0.5,2.5-0.9,4.4-1,5.7c-0.1,0.7-0.2,1.2-0.2,1.5c0,0.2,0,0.3,0,0.4
						c0,0,0,0,0,0c0,0,0,0,0,0l-0.2,0.2c-0.2-0.1-0.2-0.8-0.1-2.2c0.1-1.3,0.3-3.3,0.7-5.8c0.7-5,1.8-12.1,3.3-20.6
						c2.9-17,7.2-39.6,11.9-62.1c4.8-22.5,10.2-44.9,15.2-61.4c2.5-8.3,4.9-15,7.2-19.6c1.1-2.3,2.2-4,3.2-4.9
						c0.5-0.5,0.9-0.8,1.3-1c0.3-0.2,0.5-0.2,0.5-0.2L131.9,7.3z"/>
				</g>
				<g>
					<path class="st1" d="M136.4,41.2c0,0-0.1,0.6-0.1,1.6c-0.1,1-0.2,2.6-0.5,4.5c-0.2,2-0.5,4.3-0.8,7c-0.3,2.7-0.7,5.8-1.3,9.1
						c-0.2,1.7-0.5,3.4-0.8,5.2c-0.3,1.8-0.6,3.6-0.9,5.5c-0.6,3.8-1.3,7.8-2.1,12c-0.4,2.1-0.8,4.2-1.2,6.3
						c-0.2,1.1-0.4,2.1-0.6,3.2c-0.2,1.1-0.4,2.2-0.7,3.2c-0.9,4.3-1.8,8.7-2.8,13.1c-1,4.4-2.1,8.7-3.1,13
						c-0.5,2.2-1.1,4.3-1.7,6.4c-0.6,2.1-1.1,4.2-1.7,6.2c-1.1,4.1-2.3,8-3.5,11.7c-1.2,3.7-2.4,7.2-3.6,10.3
						c-1.2,3.2-2.4,6.1-3.5,8.6c-1.1,2.5-2.2,4.7-3.2,6.4c-1,1.7-1.9,3-2.6,3.8c-0.3,0.4-0.6,0.7-0.8,0.9c-0.2,0.2-0.3,0.3-0.3,0.3
						l-0.2-0.2c0,0,0.1-0.1,0.3-0.3c0.2-0.2,0.4-0.5,0.7-1c0.6-0.9,1.4-2.2,2.2-4c1.7-3.5,3.7-8.8,5.7-15.2
						c4.1-12.8,8.4-30.2,12.3-47.7c8-35,14.4-70.2,14.4-70.2L136.4,41.2z"/>
				</g>
				<g>
					<path class="st1" d="M110.1,61.8c0,0,0,0.3,0,0.7c0,0.5,0.1,1.2,0.1,2.1c0,0.9,0.1,2,0,3.2c0,1.2,0,2.6-0.1,4.2
						c0,1.5-0.1,3.2-0.2,4.9c-0.1,1.7-0.2,3.6-0.3,5.4c-0.2,1.9-0.3,3.8-0.5,5.8c-0.2,2-0.4,4-0.6,6c-0.2,2-0.4,4-0.7,5.9
						c-0.2,2-0.5,3.9-0.8,5.7c-0.2,1.9-0.5,3.7-0.8,5.4c-0.1,0.9-0.2,1.7-0.3,2.5c-0.1,0.8-0.3,1.6-0.4,2.3
						c-0.1,0.7-0.2,1.5-0.3,2.1c-0.1,0.7-0.2,1.3-0.3,1.9c-0.1,1.2-0.3,2.3-0.4,3.1c-0.1,0.9-0.2,1.6-0.2,2
						c-0.1,0.5-0.1,0.7-0.1,0.7l-0.3,0c0,0-0.1-1-0.3-2.8c0-0.9,0-2-0.1-3.2c0-1.2,0-2.6,0.1-4.1c0-1.5,0.2-3.2,0.2-4.9
						c0.1-1.7,0.3-3.6,0.4-5.4c0.2-1.9,0.3-3.8,0.5-5.8c0.2-2,0.4-4,0.6-6c0.9-8,1.9-16,2.8-22c0.4-3,0.8-5.5,1.1-7.2
						c0.3-1.7,0.4-2.7,0.4-2.7L110.1,61.8z"/>
				</g>
				<g>
					<path class="st1" d="M121.2,54.3c0,0,0,0.5-0.1,1.3c-0.1,0.8-0.2,2.1-0.3,3.7c-0.2,1.6-0.4,3.5-0.6,5.7
						c-0.1,1.1-0.3,2.3-0.4,3.5c-0.2,1.2-0.4,2.5-0.5,3.9c-0.2,1.3-0.4,2.7-0.6,4.2c-0.2,1.4-0.5,2.9-0.7,4.5
						c-0.5,3.1-1,6.3-1.7,9.6c-0.3,1.7-0.6,3.4-0.9,5.1c-0.2,0.9-0.3,1.7-0.5,2.6c-0.2,0.9-0.4,1.7-0.5,2.6c-0.7,3.5-1.5,7-2.2,10.6
						c-0.8,3.5-1.6,7-2.5,10.5c-0.4,1.7-0.8,3.4-1.3,5.1c-0.4,1.7-0.9,3.4-1.3,5c-0.9,3.3-1.7,6.4-2.6,9.4c-0.9,3-1.7,5.8-2.6,8.4
						c-0.8,2.6-1.6,5-2.4,7c-0.8,2.1-1.4,3.9-2.1,5.4c-0.6,1.5-1.2,2.6-1.5,3.4c-0.4,0.8-0.5,1.2-0.5,1.2l-0.3-0.1
						c0,0,0.6-1.7,1.5-4.7c0.5-1.5,1-3.4,1.6-5.5c0.6-2.1,1.2-4.5,1.9-7.1c0.7-2.6,1.4-5.5,2.1-8.5c0.8-3,1.5-6.2,2.3-9.5
						c0.8-3.3,1.5-6.7,2.3-10.2c0.8-3.5,1.6-7,2.3-10.5c1.6-7.1,3.1-14.1,4.5-20.7c1.4-6.6,2.7-12.8,3.8-18.1
						c2.2-10.6,3.6-17.7,3.6-17.7L121.2,54.3z"/>
				</g>
				<g>
					<path class="st1" d="M140.6,52.6c0,0,0,0.6,0,1.6c0,1.1,0.1,2.6,0.1,4.6c0,2,0,4.4-0.1,7.2c-0.1,2.8-0.1,5.9-0.3,9.3
						c-0.1,1.7-0.2,3.5-0.3,5.3c-0.1,1.8-0.2,3.7-0.4,5.7c-0.3,3.9-0.6,8-1.1,12.3c-0.2,2.1-0.5,4.3-0.7,6.5
						c-0.2,2.2-0.5,4.4-0.8,6.6c-0.6,4.4-1.3,9-2,13.5c-0.8,4.5-1.6,9-2.6,13.4c-0.4,2.2-0.9,4.4-1.5,6.5c-0.5,2.1-1.1,4.3-1.6,6.3
						c-1.1,4.2-2.3,8.1-3.5,11.9c-1.2,3.7-2.6,7.2-3.9,10.4c-1.3,3.2-2.8,6-4.1,8.5c-1.4,2.5-2.7,4.5-3.9,6.1
						c-0.6,0.8-1.2,1.5-1.7,2.1c-0.5,0.6-1,1.1-1.3,1.5c-0.8,0.8-1.2,1.2-1.2,1.2l-0.2-0.2c0,0,0.4-0.4,1.1-1.2
						c0.3-0.4,0.7-0.9,1.2-1.5c0.4-0.6,1-1.3,1.5-2.2c1.1-1.7,2.3-3.8,3.4-6.2c1.2-2.5,2.4-5.4,3.6-8.5c2.4-6.4,4.6-14,6.6-22.3
						c2-8.3,3.7-17.2,5.2-26.1c3.1-17.9,5.1-35.9,6.4-49.5c1.3-13.5,1.8-22.6,1.8-22.6L140.6,52.6z"/>
				</g>
			</g>
			<g>
				<g>
					<path class="st0" d="M89.4,189.3c0,0,0.1-0.6,0.4-1.6c0.2-1.1,0.5-2.7,0.9-4.8c0.7-4.1,1.6-10.1,2.6-17.2
						c2-14.3,4.5-33.4,6.6-52.5c2.2-19.1,4.1-38.3,4.9-52.7c0.4-7.2,0.6-13.2,0.5-17.4c-0.1-2.1-0.2-3.7-0.4-4.9
						c0-0.3-0.1-0.5-0.2-0.7c-0.1-0.2-0.1-0.4-0.2-0.5c-0.1-0.3-0.2-0.4-0.2-0.4s0.1,0.1,0.2,0.4c0.1,0.1,0.1,0.3,0.2,0.5
						c0.1,0.2,0.1,0.4,0.2,0.7c0.2,1.1,0.4,2.8,0.5,4.9c0.2,4.2,0.2,10.2-0.1,17.4c-0.6,14.4-2.1,33.6-3.9,52.8
						c-1.8,19.2-3.9,38.3-5.6,52.6c-0.9,7.2-1.7,13.1-2.3,17.3c-0.3,2.1-0.6,3.7-0.8,4.9c-0.2,1.2-0.3,1.7-0.3,1.7L89.4,189.3z"/>
				</g>
				<g>
					<path class="st0" d="M95.2,186.9c0,0,0.3-2.6,0.7-7.2c0.4-4.6,1-11.2,1.8-19.1c1.5-15.8,3.4-36.9,5.6-57.9
						c2.2-21.1,4.5-42.1,6.7-57.8c1.1-7.9,2.1-14.4,3.1-18.9c0.5-2.3,0.9-4,1.4-5.2c0.2-0.6,0.4-1,0.6-1.3c0.1-0.1,0.2-0.2,0.2-0.3
						c0.1,0,0.1-0.1,0.1-0.1s0,0-0.1,0.1c-0.1,0-0.2,0.1-0.2,0.3c-0.2,0.3-0.4,0.7-0.6,1.3c-0.4,1.2-0.8,2.9-1.3,5.2
						c-0.9,4.5-1.8,11.1-2.7,19c-1.9,15.8-3.8,36.8-5.6,57.9c-1.8,21.1-3.4,42.2-4.6,58c-0.6,7.9-1.1,14.5-1.4,19.1
						c-0.4,4.6-0.6,7.3-0.6,7.3L95.2,186.9z"/>
				</g>
				<g>
					<path class="st0" d="M106,173.4c0,0,0-0.1,0-0.4c0-0.3,0-0.7,0.1-1.2c0.1-1.1,0.3-2.7,0.5-4.6c0.5-3.9,1.3-9.5,2.3-16.2
						c2-13.4,4.9-31.2,7.8-48.9c3-17.8,6-35.5,8.5-48.8c0.6-3.3,1.2-6.4,1.7-9.1c0.5-2.7,1-5,1.4-7c0.2-1,0.4-1.8,0.6-2.6
						c0.2-0.7,0.3-1.4,0.5-1.9c0.1-0.5,0.2-0.9,0.3-1.2c0.1-0.3,0.1-0.4,0.1-0.4s0,0.1-0.1,0.4c-0.1,0.3-0.2,0.6-0.3,1.2
						c-0.1,0.5-0.3,1.1-0.4,1.9c-0.2,0.7-0.3,1.6-0.5,2.6c-0.4,1.9-0.8,4.3-1.2,7c-0.4,2.7-1,5.8-1.5,9.1c-2.1,13.3-4.8,31.1-7.4,49
						c-2.6,17.8-5.1,35.7-6.8,49c-0.9,6.7-1.6,12.3-2,16.2c-0.2,2-0.4,3.5-0.4,4.5c0,0.5,0,0.9-0.1,1.2c0,0.3,0,0.4,0,0.4L106,173.4
						z"/>
				</g>
				<g>
					<path class="st0" d="M100.2,184.4c0,0,4.7-36.5,10-73c2.7-18.2,5.5-36.4,7.9-50c1.2-6.8,2.4-12.4,3.4-16.3
						c0.5-2,0.9-3.5,1.3-4.5c0.1-0.2,0.2-0.5,0.3-0.7c0.1-0.2,0.2-0.3,0.3-0.5c0.2-0.2,0.3-0.3,0.3-0.3s-0.1,0.1-0.3,0.3
						c-0.1,0.1-0.1,0.3-0.2,0.5c-0.1,0.2-0.2,0.4-0.3,0.7c-0.4,1-0.8,2.5-1.2,4.5c-0.9,3.9-1.9,9.6-3,16.4
						c-2.2,13.6-4.6,31.9-6.9,50.1c-4.6,36.5-8.5,73.1-8.5,73.1L100.2,184.4z"/>
				</g>
				<g>
					<path class="st0" d="M104.6,177.4c0,0,7.1-35.2,14.8-70.3c3.9-17.6,7.8-35.1,11.2-48.1c1.7-6.5,3.2-11.9,4.4-15.7
						c0.6-1.9,1.1-3.3,1.6-4.3c0.2-0.5,0.4-0.8,0.6-1.1c0.2-0.2,0.2-0.3,0.2-0.3s-0.1,0.1-0.2,0.3c-0.1,0.2-0.3,0.6-0.5,1.1
						c-0.4,1-0.9,2.4-1.5,4.3c-1.1,3.8-2.5,9.2-4,15.8c-3,13.1-6.7,30.7-10.1,48.3c-6.9,35.2-13.3,70.6-13.3,70.6L104.6,177.4z"/>
				</g>
				<g>
					<path class="st0" d="M114.4,167.8c0,0,0.1-0.5,0.4-1.4c0.2-0.9,0.6-2.3,1-4c0.9-3.5,2.1-8.5,3.5-14.5
						c2.8-12,6.6-28.1,10.2-44.2c3.6-16.1,7.1-32.2,9.6-44.3c1.2-6.1,2.2-11.1,2.7-14.7c0.3-1.8,0.5-3.2,0.5-4.1c0-0.5,0-0.9,0-1.1
						c0-0.3-0.1-0.4-0.1-0.4s0.1,0.1,0.1,0.4c0,0.2,0,0.6,0,1.1c0,1-0.2,2.4-0.4,4.2c-0.5,3.6-1.3,8.7-2.4,14.8
						c-2.2,12.2-5.3,28.4-8.5,44.6c-3.2,16.2-6.6,32.3-9.1,44.4c-1.3,6.1-2.4,11.1-3.2,14.6c-0.4,1.8-0.7,3.2-0.9,4.1
						c-0.2,0.9-0.3,1.5-0.3,1.5L114.4,167.8z"/>
				</g>
				<g>
					<path class="st0" d="M93.3,182.3c0,0,1.7-8.8,4.4-22c2.7-13.2,6.5-30.7,10.7-48.2c4.2-17.5,8.7-34.8,12.9-47.6
						c2.1-6.4,4.1-11.6,5.9-15.2c0.9-1.8,1.7-3.1,2.3-4c0.3-0.4,0.5-0.7,0.7-1c0.2-0.2,0.3-0.3,0.3-0.3s-0.1,0.1-0.3,0.3
						c-0.2,0.2-0.4,0.5-0.7,1c-0.6,0.9-1.4,2.2-2.2,4c-1.7,3.5-3.6,8.8-5.6,15.2c-3.9,12.8-8.1,30.3-11.9,47.8
						c-3.8,17.5-7.2,35.1-9.6,48.3c-2.4,13.2-3.9,22-3.9,22L93.3,182.3z"/>
				</g>
				<g>
					<path class="st0" d="M119.6,161.8c0,0,0.7-4,1.6-9.9c0.9-6,2.2-13.9,3.2-21.9c0.3-2,0.5-4,0.8-6c0.2-2,0.5-3.9,0.7-5.8
						c0.2-1.9,0.4-3.7,0.5-5.4c0.1-1.7,0.3-3.4,0.4-4.9c0.1-1.5,0.2-2.9,0.2-4.1c0-1.2,0-2.3,0-3.2c-0.1-1.8-0.2-2.8-0.2-2.8
						s0.1,1,0.3,2.8c0,0.9,0.1,2,0.1,3.2c0,1.2,0,2.6,0,4.1c0,1.5-0.1,3.2-0.1,4.9c-0.1,1.7-0.2,3.6-0.3,5.5
						c-0.1,1.9-0.3,3.8-0.4,5.8c-0.2,2-0.3,4-0.5,6c-0.7,8-1.5,16.1-2.2,22.1c-0.7,6-1.2,10-1.2,10L119.6,161.8z"/>
				</g>
				<g>
					<path class="st0" d="M108.5,169.2c0,0,1.5-7.1,3.8-17.7c1.2-5.3,2.5-11.5,4-18.1c1.5-6.6,3.1-13.7,4.7-20.7
						c0.8-3.5,1.7-7,2.5-10.5c0.9-3.5,1.7-6.9,2.5-10.1c0.8-3.3,1.6-6.5,2.4-9.5c0.8-3,1.5-5.8,2.3-8.5c0.7-2.6,1.4-5,2-7.1
						c0.7-2.1,1.2-4,1.7-5.4c1-3,1.6-4.7,1.6-4.7s-0.5,1.7-1.5,4.7c-0.5,1.5-0.9,3.4-1.5,5.5c-0.6,2.1-1.2,4.5-1.9,7.2
						c-0.7,2.6-1.3,5.5-2.1,8.5c-0.7,3-1.4,6.2-2.2,9.5c-0.8,3.3-1.5,6.7-2.2,10.2c-0.7,3.5-1.5,7-2.2,10.5
						c-1.5,7.1-2.9,14.2-4.2,20.8c-1.3,6.6-2.5,12.8-3.5,18.2c-2,10.6-3.3,17.7-3.3,17.7L108.5,169.2z"/>
				</g>
				<g>
					<path class="st0" d="M89,171c0,0,0.8-8.4,2.3-20.9c1.5-12.5,3.7-29.2,6.4-45.8c1.4-8.3,2.9-16.6,4.5-24.3
						c1.6-7.7,3.3-14.9,5-20.9c1.7-6.1,3.6-11,5.2-14.3c0.8-1.7,1.5-2.9,2.1-3.7c0.3-0.4,0.5-0.7,0.6-0.9c0.1-0.2,0.2-0.3,0.2-0.3
						s-0.1,0.1-0.2,0.3c-0.1,0.2-0.4,0.5-0.6,0.9c-0.5,0.8-1.2,2.1-2,3.8c-1.5,3.3-3.2,8.3-4.8,14.4c-1.6,6.1-3.1,13.3-4.6,21
						c-1.4,7.7-2.7,16-3.9,24.3c-2.3,16.6-4.1,33.3-5.4,45.8c-0.6,6.3-1.1,11.5-1.4,15.1c-0.3,3.7-0.5,5.7-0.5,5.7L89,171z"/>
				</g>
			</g>
			<g>
				<g>
					<path class="st2" d="M140.8,21.1c0,0-0.1,0.1-0.3,0.3c-0.1,0.1-0.2,0.3-0.4,0.4c-0.1,0.2-0.3,0.4-0.4,0.6c-0.6,1-1.3,2.6-2,4.8
						c-1.3,4.3-2.5,10.6-3.5,18.3c-0.5,3.8-1.1,8-1.6,12.4c-0.5,4.4-1.1,9-1.6,13.8c-1.1,9.6-2.3,19.8-3.7,30
						c-0.7,5.1-1.4,10.2-2.2,15.2c-0.8,5-1.6,9.9-2.5,14.7c-1,4.7-1.9,9.3-3,13.6c-0.5,2.2-1.1,4.2-1.6,6.3c-0.6,2-1.1,3.9-1.7,5.8
						c-1.1,3.7-2.3,7.1-3.4,10c-0.5,1.5-1.1,2.8-1.6,4.1c-0.5,1.3-1,2.4-1.5,3.4c-0.5,1-0.9,2-1.3,2.7c-0.4,0.8-0.7,1.5-1,2
						c-0.5,1.1-0.8,1.7-0.8,1.7l-0.2-0.1c0,0,0.2-0.6,0.7-1.7c0.2-0.6,0.5-1.3,0.8-2.1c0.3-0.8,0.7-1.8,1-2.8
						c0.7-2.1,1.6-4.7,2.5-7.7c0.9-3,1.9-6.4,2.8-10.1c0.5-1.9,1-3.8,1.5-5.8c0.5-2,1-4.1,1.5-6.3c0.9-4.3,1.9-8.8,2.8-13.6
						c1-4.7,1.9-9.6,2.7-14.6c0.9-5,1.7-10.1,2.5-15.1c1.6-10.2,2.9-20.4,4.2-29.9c0.6-4.8,1.2-9.4,1.9-13.8
						c0.6-4.4,1.2-8.5,1.9-12.3c1.3-7.6,2.6-14,4-18.3c0.7-2.1,1.5-3.8,2.2-4.8c0.2-0.3,0.3-0.5,0.5-0.7c0.1-0.2,0.3-0.3,0.4-0.4
						c0.2-0.2,0.3-0.3,0.3-0.3L140.8,21.1z"/>
				</g>
				<g>
					<path class="st2" d="M131.2,33.7c0,0-0.1,0.6-0.2,1.8c-0.1,0.6-0.1,1.3-0.2,2.1c-0.1,0.8-0.2,1.8-0.4,2.9
						c-0.3,2.2-0.6,4.8-1,7.8c-0.4,3-0.9,6.4-1.4,10.1c-0.5,3.7-1.1,7.7-1.7,12c-0.6,4.3-1.3,8.7-2,13.4c-1.4,9.3-2.9,19.2-4.4,29.1
						c-0.7,5-1.5,9.9-2.2,14.8c-0.7,4.9-1.5,9.7-2.2,14.3c-0.8,4.6-1.5,9.1-2.3,13.3c-0.7,4.2-1.5,8.2-2.2,11.9
						c-0.7,3.7-1.4,7.1-2,10.1c-0.6,3-1.1,5.6-1.6,7.7c-0.5,2.1-0.8,3.8-1.1,5c-0.3,1.1-0.4,1.8-0.4,1.8l-0.2-0.1
						c0,0,0.3-2.5,0.9-6.8c0.1-1.1,0.3-2.3,0.5-3.6c0.2-1.3,0.4-2.7,0.6-4.2c0.4-3,0.9-6.4,1.4-10.1c0.3-1.9,0.5-3.8,0.8-5.8
						c0.3-2,0.6-4.1,0.9-6.2c0.6-4.3,1.4-8.7,2.1-13.4c1.5-9.3,3.3-19.1,5-29c3.3-19.7,6.6-39.5,9.1-54.3c0.6-3.7,1.2-7.1,1.7-10.1
						c0.5-3,0.9-5.6,1.2-7.8c0.2-1.1,0.3-2,0.4-2.9c0.1-0.8,0.2-1.6,0.3-2.1c0.2-1.2,0.2-1.8,0.2-1.8L131.2,33.7z"/>
				</g>
				<g>
					<path class="st2" d="M120.4,47.2c0,0,0,0.1,0,0.4c0,0.3,0,0.7-0.1,1.2c-0.1,1.1-0.2,2.6-0.4,4.6c-0.4,3.9-1.1,9.5-1.9,16.2
						c-0.4,3.3-0.9,7-1.4,10.8c-0.5,3.8-1.1,7.9-1.6,12.1c-1.2,8.4-2.5,17.3-3.7,26.2c-0.6,4.5-1.3,8.9-1.9,13.3
						c-0.6,4.4-1.3,8.7-1.9,12.9c-0.7,4.2-1.4,8.2-2.1,12c-0.3,1.9-0.7,3.8-1,5.5c-0.3,1.8-0.7,3.5-1,5.2c-0.6,3.3-1.3,6.4-1.9,9
						c-0.6,2.7-1.1,5-1.6,6.9c-0.2,1-0.5,1.8-0.6,2.6c-0.2,0.7-0.4,1.4-0.5,1.9c-0.1,0.3-0.1,0.5-0.2,0.7c-0.1,0.2-0.1,0.4-0.2,0.5
						c-0.1,0.3-0.2,0.4-0.2,0.4l-0.2-0.1c0,0,0-0.1,0.1-0.4c0-0.1,0.1-0.3,0.1-0.5c0-0.2,0.1-0.4,0.1-0.7c0.2-1,0.5-2.6,0.7-4.5
						c0.6-3.9,1.4-9.5,2.4-16.1c0.5-3.3,1-7,1.6-10.8c0.6-3.8,1.2-7.9,1.9-12c1.4-8.3,2.9-17.2,4.4-26.1c1.5-8.9,2.9-17.8,4.3-26.1
						c1.3-8.3,2.6-16.1,3.6-22.8c1-6.7,1.9-12.2,2.4-16.1c0.3-2,0.4-3.5,0.5-4.5c0.1-0.5,0.1-0.9,0.1-1.2c0-0.3,0-0.4,0-0.4
						L120.4,47.2z"/>
				</g>
				<g>
					<path class="st2" d="M125.2,39.6c0,0-0.9,8.9-2.3,22.3c-0.4,3.3-0.7,7-1.2,10.8c-0.4,3.8-0.9,7.9-1.4,12.1
						c-1,8.4-2,17.3-3.1,26.2c-0.5,4.5-1.1,8.9-1.6,13.3c-0.5,4.4-1.1,8.7-1.7,12.9c-0.6,4.2-1.2,8.2-1.9,12c-0.3,1.9-0.6,3.8-1,5.5
						c-0.3,1.8-0.7,3.5-1,5.2c-0.6,3.3-1.3,6.3-1.9,9c-0.6,2.7-1.2,5-1.7,6.9c-0.6,1.9-1,3.4-1.5,4.4c-0.1,0.2-0.2,0.5-0.3,0.6
						c-0.1,0.2-0.2,0.3-0.3,0.4c-0.2,0.2-0.3,0.3-0.3,0.3l-0.2-0.2c0,0,0.1-0.1,0.2-0.3c0.1-0.1,0.1-0.3,0.2-0.4
						c0.1-0.2,0.1-0.4,0.2-0.6c0.3-1,0.7-2.5,1-4.4c0.4-1.9,0.8-4.3,1.2-7c0.4-2.7,0.9-5.7,1.3-9.1c0.9-6.7,2-14.4,3.2-22.7
						c0.6-4.2,1.3-8.5,1.9-12.8c0.6-4.4,1.3-8.8,1.9-13.2c1.3-8.9,2.5-17.8,3.6-26.1c1.1-8.3,2.2-16.1,3.1-22.8
						c1.8-13.3,2.9-22.2,2.9-22.2L125.2,39.6z"/>
				</g>
				<g>
					<path class="st2" d="M121.8,43c0,0-1.6,8.8-4,22.1c-0.6,3.3-1.3,6.9-2,10.7c-0.7,3.8-1.5,7.8-2.3,11.9
						c-1.6,8.3-3.3,17.1-5,25.9c-0.9,4.4-1.7,8.8-2.6,13.2c-0.8,4.3-1.7,8.6-2.6,12.7c-0.9,4.1-1.8,8.1-2.7,11.8
						c-0.5,1.9-0.9,3.7-1.4,5.5c-0.5,1.8-0.9,3.5-1.3,5.1c-0.9,3.3-1.7,6.2-2.5,8.9c-0.8,2.6-1.5,4.9-2.2,6.8
						c-0.7,1.9-1.3,3.3-1.8,4.3c-0.2,0.5-0.5,0.8-0.6,1.1c-0.2,0.2-0.3,0.3-0.3,0.3l-0.2-0.2c0,0,0.1-0.1,0.2-0.3
						c0.1-0.2,0.3-0.6,0.5-1.1c0.4-1,0.8-2.4,1.3-4.3c0.5-1.9,1-4.2,1.7-6.9c0.6-2.7,1.3-5.7,2-9c1.4-6.6,3.1-14.3,4.8-22.5
						c0.9-4.1,1.9-8.3,2.9-12.7c1-4.3,1.9-8.7,2.9-13.1c1.9-8.8,3.8-17.6,5.6-25.8c1.7-8.2,3.4-15.9,4.8-22.5
						c2.8-13.2,4.6-22,4.6-22L121.8,43z"/>
				</g>
				<g>
					<path class="st2" d="M112.1,52.5c0,0-0.5,2-1.2,5.5c-0.8,3.5-1.8,8.6-3.1,14.6c-1.3,6.1-2.7,13.1-4.3,20.7
						c-1.5,7.6-3.2,15.7-4.8,23.7c-1.6,8.1-3.2,16.2-4.7,23.8c-0.8,3.8-1.5,7.4-2.3,10.9c-0.7,3.5-1.5,6.7-2.1,9.8
						c-0.7,3-1.3,5.8-1.8,8.2c-0.5,2.5-1,4.6-1.3,6.4c-0.4,1.8-0.6,3.2-0.7,4.1c-0.1,0.5-0.1,0.8-0.1,1.1c0,0.1,0,0.2,0,0.2
						c0,0,0,0,0,0l-0.2,0.2c0,0,0,0-0.1-0.1c0-0.1-0.1-0.2-0.1-0.3c0-0.3-0.1-0.6-0.1-1.1c0-1,0.1-2.4,0.3-4.2
						c0.2-1.8,0.4-4,0.8-6.5c0.3-2.5,0.8-5.3,1.3-8.4c0.3-1.5,0.5-3.1,0.8-4.8c0.3-1.6,0.6-3.3,0.9-5.1c0.6-3.5,1.3-7.2,2.1-11
						c0.8-3.8,1.6-7.7,2.5-11.7c0.9-4,1.8-8,2.7-12c1.8-8,3.6-16.1,5.4-23.6c0.9-3.8,1.7-7.4,2.5-10.9c0.8-3.4,1.6-6.7,2.3-9.7
						c1.4-6,2.7-11,3.5-14.5c0.9-3.5,1.4-5.5,1.4-5.5L112.1,52.5z"/>
				</g>
				<g>
					<path class="st2" d="M133.2,38.1c0,0-1.5,8.8-3.9,22.1c-0.6,3.3-1.3,6.9-2,10.7c-0.7,3.8-1.5,7.8-2.3,11.9
						c-1.6,8.3-3.4,17-5.3,25.8c-0.9,4.4-1.9,8.8-2.9,13.1c-1,4.3-2,8.5-3,12.6c-1.1,4.1-2.1,8-3.2,11.7c-0.6,1.9-1.1,3.6-1.7,5.4
						c-0.6,1.7-1.1,3.4-1.7,5c-1.1,3.2-2.2,6.1-3.2,8.6c-1.1,2.5-2.1,4.7-3,6.5c-0.9,1.7-1.8,3.1-2.4,3.9c-0.3,0.4-0.6,0.7-0.8,0.9
						c-0.2,0.2-0.3,0.3-0.3,0.3l-0.2-0.2c0,0,0.1-0.1,0.2-0.3c0.2-0.2,0.4-0.5,0.6-1c0.5-0.9,1.3-2.2,2-4c0.8-1.8,1.6-4,2.5-6.6
						c0.9-2.6,1.8-5.5,2.7-8.7c0.5-1.6,0.9-3.3,1.4-5c0.5-1.7,1-3.5,1.5-5.4c1-3.7,2-7.6,3.1-11.7c1.1-4.1,2.1-8.3,3.2-12.5
						c1.1-4.3,2.2-8.6,3.2-13c2.1-8.7,4-17.5,5.8-25.7c0.9-4.1,1.7-8.1,2.6-11.8c0.8-3.8,1.6-7.3,2.3-10.6c2.8-13.2,4.5-22,4.5-22
						L133.2,38.1z"/>
				</g>
				<g>
					<path class="st2" d="M106.9,58.7c0,0-0.4,4-1.1,10c-0.3,3-0.7,6.5-1.1,10.3c-0.2,1.9-0.4,3.8-0.6,5.8c-0.2,2-0.4,4-0.5,6
						c-0.2,2-0.3,4-0.5,6c-0.1,2-0.2,3.9-0.4,5.8c-0.1,1.9-0.3,3.7-0.5,5.4c-0.1,0.9-0.2,1.7-0.2,2.5c-0.1,0.8-0.2,1.6-0.2,2.3
						c-0.1,1.5-0.3,2.9-0.4,4.1c-0.1,1.2-0.2,2.3-0.2,3.2c0,1.7-0.1,2.8-0.1,2.8l-0.2,0c0,0-0.2-1-0.6-2.8c-0.1-0.9-0.2-2-0.3-3.2
						c-0.1-0.6-0.1-1.3-0.1-2c0-0.7-0.1-1.4-0.1-2.2c0-1.5,0-3.2,0.1-4.9c0-1.7,0.2-3.6,0.3-5.5c0.2-1.9,0.4-3.8,0.7-5.8
						c0.3-2,0.5-4,0.8-6c0.3-2,0.5-4,0.8-6c0.3-2,0.6-3.9,0.8-5.8c0.3-1.9,0.5-3.7,0.8-5.4c0.3-1.7,0.5-3.3,0.8-4.8
						c1-6,1.7-9.9,1.7-9.9L106.9,58.7z"/>
				</g>
				<g>
					<path class="st2" d="M118,51.2c0,0-1.3,7.1-3.2,17.8c-0.5,2.7-1,5.5-1.6,8.6c-0.6,3.1-1.2,6.3-1.9,9.6
						c-1.3,6.6-2.7,13.7-4.2,20.8c-1.5,7.1-2.9,14.2-4.4,20.8c-0.8,3.3-1.6,6.5-2.4,9.5c-0.8,3-1.6,5.8-2.4,8.4
						c-0.8,2.6-1.5,5-2.2,7.1c-0.7,2.1-1.3,3.9-1.9,5.4c-0.6,1.5-1,2.6-1.4,3.4c-0.3,0.8-0.5,1.2-0.5,1.2l-0.2-0.1
						c0,0,0.1-0.4,0.3-1.3c0.2-0.8,0.5-2,0.9-3.5c0.2-0.8,0.4-1.6,0.6-2.5c0.2-0.9,0.5-1.9,0.7-3c0.5-2.1,1.1-4.6,1.7-7.2
						c0.3-1.3,0.6-2.7,0.9-4.1c0.3-1.4,0.7-2.9,1-4.4c0.7-3,1.4-6.2,2.2-9.5c0.8-3.3,1.6-6.7,2.5-10.1c0.9-3.4,1.7-7,2.5-10.5
						c1.6-7,3.3-14.1,4.7-20.7c1.5-6.6,2.9-12.8,4-18.1c2.3-10.6,3.9-17.6,3.9-17.6L118,51.2z"/>
				</g>
				<g>
					<path class="st2" d="M137.4,49.6c0,0-0.6,8.4-1.8,20.9c-0.3,3.1-0.6,6.5-1,10.1c-0.4,3.6-0.8,7.4-1.2,11.3
						c-0.9,7.8-1.9,16.2-3.1,24.5c-0.6,4.2-1.2,8.3-1.8,12.4c-0.6,4.1-1.3,8.1-2.1,12c-0.8,3.9-1.6,7.6-2.4,11.1
						c-0.4,1.8-0.9,3.5-1.3,5.1c-0.5,1.6-0.9,3.2-1.4,4.7c-0.9,3-1.9,5.8-2.8,8.2c-0.9,2.4-1.9,4.5-2.7,6.1
						c-0.9,1.6-1.6,2.9-2.2,3.7c-0.3,0.4-0.5,0.7-0.7,0.9c-0.2,0.2-0.2,0.3-0.2,0.3l-0.2-0.1c0,0,0.1-0.1,0.2-0.3
						c0.1-0.2,0.3-0.5,0.6-1c0.5-0.9,1.1-2.1,1.8-3.8c0.7-1.7,1.4-3.8,2.2-6.2c0.8-2.4,1.5-5.2,2.3-8.2c0.8-3,1.5-6.4,2.3-9.9
						c0.7-3.5,1.5-7.2,2.2-11.1c0.8-3.8,1.5-7.8,2.3-11.9c0.8-4.1,1.5-8.2,2.2-12.3c1.4-8.3,2.6-16.6,3.6-24.4
						c0.5-3.9,1-7.7,1.5-11.2c0.5-3.6,0.9-7,1.3-10.1c1.5-12.5,2.4-20.9,2.4-20.9L137.4,49.6z"/>
				</g>
			</g>
			<g>
				<g>
					<path class="st1" d="M140.3,34.2c0,0-0.1,0.6-0.2,1.8c-0.1,1.1-0.1,2.8-0.3,5c-0.1,2.2-0.2,4.8-0.3,7.8c0,1.5-0.1,3.1-0.1,4.8
						c-0.1,1.7-0.2,3.5-0.2,5.3c-0.1,1.9-0.2,3.8-0.3,5.8c-0.1,2-0.2,4.1-0.4,6.2c-0.3,4.2-0.6,8.7-1,13.3c-0.2,2.3-0.5,4.7-0.7,7
						c-0.1,1.2-0.2,2.4-0.4,3.6c-0.1,1.2-0.3,2.4-0.4,3.6c-0.6,4.8-1.3,9.8-2,14.7c-0.8,4.9-1.7,9.8-2.7,14.6c-1,4.8-2.1,9.5-3.3,14
						c-1.2,4.5-2.6,8.8-4,12.9c-1.4,4.1-3,7.8-4.6,11.2c-0.4,0.9-0.8,1.7-1.2,2.5c-0.4,0.8-0.8,1.6-1.2,2.3
						c-0.8,1.5-1.7,2.9-2.6,4.2c-1.7,2.6-3.4,4.7-4.9,6.3c-1.5,1.6-2.9,2.7-3.8,3.4c-1,0.7-1.5,1-1.5,1l-0.2-0.2
						c0,0,0.5-0.4,1.4-1.1c0.4-0.4,0.9-0.9,1.5-1.5c0.6-0.6,1.2-1.3,1.9-2.1c1.4-1.7,2.9-3.8,4.4-6.4c1.5-2.6,3-5.6,4.4-9
						c2.9-6.8,5.5-15.1,7.7-24c2.2-9,4-18.7,5.6-28.4c3.1-19.5,5.1-39.1,6.4-53.9c0.7-7.4,1.2-13.5,1.7-17.8c0.2-2.1,0.5-3.8,0.6-5
						c0.2-1.2,0.3-1.8,0.3-1.8L140.3,34.2z"/>
				</g>
				<g>
					<path class="st1" d="M134.4,36.7c0,0,0,0.6-0.1,1.8c-0.1,1.2-0.1,2.9-0.3,5.1c-0.2,2.2-0.4,4.9-0.7,7.9
						c-0.1,1.5-0.3,3.1-0.4,4.9c-0.2,1.7-0.4,3.5-0.6,5.4c-0.2,1.9-0.4,3.8-0.6,5.8c-0.2,2-0.5,4.1-0.8,6.2
						c-0.5,4.3-1.1,8.8-1.8,13.4c-0.3,2.3-0.7,4.7-1,7.1c-0.2,1.2-0.3,2.4-0.5,3.6c-0.2,1.2-0.4,2.4-0.6,3.6
						c-0.7,4.9-1.5,9.8-2.3,14.8c-0.8,4.9-1.7,9.9-2.5,14.7c-0.4,2.4-0.8,4.8-1.3,7.2c-0.4,2.4-0.9,4.7-1.3,7
						c-0.8,4.6-1.7,9.1-2.5,13.3c-0.8,4.2-1.6,8.2-2.4,11.9c-0.8,3.7-1.5,7-2.2,10c-0.7,3-1.3,5.6-1.8,7.7c-0.5,2.1-0.9,3.8-1.2,4.9
						c-0.3,1.1-0.5,1.7-0.5,1.7l-0.3-0.1c0,0,0.1-0.6,0.3-1.8c0.2-1.1,0.5-2.8,0.9-5c0.7-4.3,1.7-10.5,3-17.9
						c2.4-14.8,5.6-34.6,8.7-54.3c3.2-19.8,6.4-39.5,8.7-54.4c0.6-3.7,1.1-7.1,1.6-10.1c0.5-3,0.8-5.6,1.2-7.8
						c0.2-1.1,0.3-2,0.4-2.9c0.1-0.8,0.2-1.6,0.3-2.1c0.1-1.2,0.2-1.8,0.2-1.8L134.4,36.7z"/>
				</g>
				<g>
					<path class="st1" d="M123.6,50.3c0,0,0,0.1,0,0.4c0,0.3,0,0.7,0,1.2c0,1.1,0,2.6-0.1,4.6c-0.1,2-0.2,4.4-0.4,7.1
						c-0.2,2.7-0.4,5.8-0.8,9.2c-0.3,3.4-0.7,7-1.1,10.9c-0.4,3.9-0.9,7.9-1.4,12.1c-0.3,2.1-0.5,4.2-0.8,6.4
						c-0.1,1.1-0.3,2.2-0.4,3.3c-0.2,1.1-0.3,2.2-0.5,3.3c-0.6,4.4-1.3,8.8-2,13.3c-0.7,4.4-1.5,8.9-2.2,13.3
						c-0.7,4.4-1.5,8.7-2.3,12.8c-0.7,4.2-1.6,8.2-2.3,12c-0.7,3.8-1.5,7.4-2.3,10.7c-0.7,3.3-1.4,6.3-2.1,9c-0.6,2.7-1.3,5-1.8,6.9
						c-0.3,1-0.5,1.8-0.7,2.5c-0.2,0.7-0.4,1.4-0.6,1.9c-0.1,0.3-0.2,0.5-0.2,0.7c-0.1,0.2-0.1,0.4-0.2,0.5
						c-0.1,0.3-0.2,0.4-0.2,0.4l-0.3-0.1c0,0,0-0.1,0.1-0.4c0-0.1,0.1-0.3,0.2-0.5c0-0.2,0.1-0.4,0.2-0.7c0.1-0.5,0.3-1.1,0.4-1.9
						c0.2-0.7,0.3-1.6,0.5-2.6c0.4-1.9,0.8-4.3,1.3-7c0.5-2.7,1-5.8,1.6-9.1c2.3-13.3,5.1-31.1,7.8-48.9c2.8-17.8,5.5-35.6,7.4-49
						c1-6.7,1.7-12.3,2.2-16.2c0.2-2,0.4-3.5,0.5-4.5c0.1-0.5,0.1-0.9,0.1-1.2c0-0.3,0-0.4,0-0.4L123.6,50.3z"/>
				</g>
				<g>
					<path class="st1" d="M129.4,39.1c0,0,0,0.6-0.1,1.7c0,1.1-0.1,2.7-0.2,4.7c-0.1,2-0.2,4.5-0.4,7.3c-0.2,2.8-0.4,6-0.7,9.4
						c-0.1,1.7-0.3,3.5-0.4,5.4c-0.1,1.9-0.3,3.8-0.5,5.7c-0.4,3.9-0.7,8.1-1.2,12.4c-0.2,2.1-0.5,4.3-0.7,6.5
						c-0.1,1.1-0.2,2.2-0.4,3.3c-0.1,1.1-0.3,2.2-0.4,3.4c-0.6,4.5-1.2,9.1-1.7,13.6c-0.7,4.6-1.3,9.1-2,13.6
						c-0.3,2.2-0.7,4.5-1,6.7c-0.4,2.2-0.7,4.4-1.1,6.5c-0.7,4.3-1.5,8.4-2.2,12.3c-0.7,3.9-1.5,7.6-2.2,11
						c-0.7,3.4-1.5,6.5-2.2,9.2c-0.7,2.7-1.4,5.1-2,7c-0.6,1.9-1.2,3.4-1.7,4.4c-0.1,0.2-0.2,0.5-0.3,0.7c-0.1,0.2-0.2,0.3-0.3,0.5
						c-0.2,0.2-0.3,0.3-0.3,0.3l-0.2-0.2c0,0,0.1-0.1,0.2-0.3c0.1-0.1,0.1-0.3,0.2-0.4c0.1-0.2,0.2-0.4,0.3-0.6
						c0.4-1,0.8-2.5,1.3-4.5c0.9-3.9,2-9.6,3.1-16.4c2.3-13.6,4.9-31.8,7.3-50.1c5-36.5,9.4-73,9.4-73L129.4,39.1z"/>
				</g>
				<g>
					<path class="st1" d="M125,46c0,0-0.1,0.6-0.2,1.6c-0.1,1-0.2,2.6-0.5,4.6c-0.2,2-0.5,4.3-0.9,7.1c-0.4,2.7-0.8,5.8-1.3,9.1
						c-0.2,1.7-0.5,3.4-0.8,5.2c-0.3,1.8-0.6,3.6-0.9,5.6c-0.6,3.8-1.3,7.8-2,12c-0.4,2.1-0.8,4.2-1.1,6.3c-0.2,1.1-0.4,2.1-0.6,3.2
						c-0.2,1.1-0.4,2.2-0.6,3.2c-0.9,4.3-1.7,8.7-2.6,13.2c-1,4.4-1.9,8.8-2.9,13.1c-0.5,2.2-1,4.3-1.5,6.4c-0.5,2.1-1,4.2-1.5,6.2
						c-1,4.1-2,8-3,11.8c-1,3.7-2,7.3-2.9,10.5c-0.9,3.2-1.9,6.2-2.7,8.8c-0.9,2.6-1.7,4.9-2.4,6.7c-0.7,1.9-1.4,3.3-1.9,4.2
						c-0.3,0.5-0.5,0.8-0.7,1.1c-0.2,0.2-0.3,0.3-0.3,0.3l-0.2-0.2c0,0,0.1-0.1,0.2-0.3c0.1-0.2,0.3-0.6,0.5-1
						c0.4-1,0.9-2.4,1.5-4.3c1.2-3.7,2.6-9.2,4.2-15.7c3.1-13.1,6.9-30.7,10.5-48.3c7.4-35.2,14.2-70.4,14.2-70.4L125,46z"/>
				</g>
				<g>
					<path class="st1" d="M131.9,7.3c0,0-0.2,0-0.5,0.2c-0.3,0.2-0.7,0.5-1.1,1c-0.8,1-1.8,2.7-2.7,5c-1,2.3-2,5.1-3,8.5
						c-0.5,1.7-1,3.4-1.5,5.3c-0.5,1.9-1.1,3.9-1.6,5.9c-0.5,2.1-1.1,4.2-1.6,6.5c-0.6,2.3-1.1,4.6-1.7,7c-1.1,4.8-2.3,9.9-3.5,15.1
						c-0.6,2.6-1.2,5.3-1.8,8c-0.3,1.4-0.6,2.7-0.9,4.1c-0.3,1.4-0.6,2.7-0.9,4.1c-1.2,5.5-2.4,11.1-3.6,16.7
						c-1.2,5.6-2.4,11.2-3.6,16.8c-0.6,2.8-1.2,5.5-1.7,8.2c-0.6,2.7-1.1,5.4-1.7,8c-2.2,10.5-4.3,20.4-6.1,28.8
						c-0.9,4.2-1.7,8.1-2.5,11.5c-0.7,3.4-1.3,6.4-1.8,8.9c-0.5,2.5-0.9,4.4-1,5.7c-0.1,0.7-0.2,1.2-0.2,1.5c0,0.2,0,0.3,0,0.4
						c0,0,0,0,0,0c0,0,0,0,0,0l-0.2,0.2c-0.2-0.1-0.2-0.8-0.1-2.2c0.1-1.3,0.3-3.3,0.7-5.8c0.7-5,1.8-12.1,3.3-20.6
						c2.9-17,7.2-39.6,11.9-62.1c4.8-22.5,10.2-44.9,15.2-61.4c2.5-8.3,4.9-15,7.2-19.6c1.1-2.3,2.2-4,3.2-4.9
						c0.5-0.5,0.9-0.8,1.3-1c0.3-0.2,0.5-0.2,0.5-0.2L131.9,7.3z"/>
				</g>
				<g>
					<path class="st1" d="M136.4,41.2c0,0-0.1,0.6-0.1,1.6c-0.1,1-0.2,2.6-0.5,4.5c-0.2,2-0.5,4.3-0.8,7c-0.3,2.7-0.7,5.8-1.3,9.1
						c-0.2,1.7-0.5,3.4-0.8,5.2c-0.3,1.8-0.6,3.6-0.9,5.5c-0.6,3.8-1.3,7.8-2.1,12c-0.4,2.1-0.8,4.2-1.2,6.3
						c-0.2,1.1-0.4,2.1-0.6,3.2c-0.2,1.1-0.4,2.2-0.7,3.2c-0.9,4.3-1.8,8.7-2.8,13.1c-1,4.4-2.1,8.7-3.1,13
						c-0.5,2.2-1.1,4.3-1.7,6.4c-0.6,2.1-1.1,4.2-1.7,6.2c-1.1,4.1-2.3,8-3.5,11.7c-1.2,3.7-2.4,7.2-3.6,10.3
						c-1.2,3.2-2.4,6.1-3.5,8.6c-1.1,2.5-2.2,4.7-3.2,6.4c-1,1.7-1.9,3-2.6,3.8c-0.3,0.4-0.6,0.7-0.8,0.9c-0.2,0.2-0.3,0.3-0.3,0.3
						l-0.2-0.2c0,0,0.1-0.1,0.3-0.3c0.2-0.2,0.4-0.5,0.7-1c0.6-0.9,1.4-2.2,2.2-4c1.7-3.5,3.7-8.8,5.7-15.2
						c4.1-12.8,8.4-30.2,12.3-47.7c8-35,14.4-70.2,14.4-70.2L136.4,41.2z"/>
				</g>
				<g>
					<path class="st1" d="M110.1,61.8c0,0,0,0.3,0,0.7c0,0.5,0.1,1.2,0.1,2.1c0,0.9,0.1,2,0,3.2c0,1.2,0,2.6-0.1,4.2
						c0,1.5-0.1,3.2-0.2,4.9c-0.1,1.7-0.2,3.6-0.3,5.4c-0.2,1.9-0.3,3.8-0.5,5.8c-0.2,2-0.4,4-0.6,6c-0.2,2-0.4,4-0.7,5.9
						c-0.2,2-0.5,3.9-0.8,5.7c-0.2,1.9-0.5,3.7-0.8,5.4c-0.1,0.9-0.2,1.7-0.3,2.5c-0.1,0.8-0.3,1.6-0.4,2.3
						c-0.1,0.7-0.2,1.5-0.3,2.1c-0.1,0.7-0.2,1.3-0.3,1.9c-0.1,1.2-0.3,2.3-0.4,3.1c-0.1,0.9-0.2,1.6-0.2,2
						c-0.1,0.5-0.1,0.7-0.1,0.7l-0.3,0c0,0-0.1-1-0.3-2.8c0-0.9,0-2-0.1-3.2c0-1.2,0-2.6,0.1-4.1c0-1.5,0.2-3.2,0.2-4.9
						c0.1-1.7,0.3-3.6,0.4-5.4c0.2-1.9,0.3-3.8,0.5-5.8c0.2-2,0.4-4,0.6-6c0.9-8,1.9-16,2.8-22c0.4-3,0.8-5.5,1.1-7.2
						c0.3-1.7,0.4-2.7,0.4-2.7L110.1,61.8z"/>
				</g>
				<g>
					<path class="st1" d="M121.2,54.3c0,0,0,0.5-0.1,1.3c-0.1,0.8-0.2,2.1-0.3,3.7c-0.2,1.6-0.4,3.5-0.6,5.7
						c-0.1,1.1-0.3,2.3-0.4,3.5c-0.2,1.2-0.4,2.5-0.5,3.9c-0.2,1.3-0.4,2.7-0.6,4.2c-0.2,1.4-0.5,2.9-0.7,4.5
						c-0.5,3.1-1,6.3-1.7,9.6c-0.3,1.7-0.6,3.4-0.9,5.1c-0.2,0.9-0.3,1.7-0.5,2.6c-0.2,0.9-0.4,1.7-0.5,2.6c-0.7,3.5-1.5,7-2.2,10.6
						c-0.8,3.5-1.6,7-2.5,10.5c-0.4,1.7-0.8,3.4-1.3,5.1c-0.4,1.7-0.9,3.4-1.3,5c-0.9,3.3-1.7,6.4-2.6,9.4c-0.9,3-1.7,5.8-2.6,8.4
						c-0.8,2.6-1.6,5-2.4,7c-0.8,2.1-1.4,3.9-2.1,5.4c-0.6,1.5-1.2,2.6-1.5,3.4c-0.4,0.8-0.5,1.2-0.5,1.2l-0.3-0.1
						c0,0,0.6-1.7,1.5-4.7c0.5-1.5,1-3.4,1.6-5.5c0.6-2.1,1.2-4.5,1.9-7.1c0.7-2.6,1.4-5.5,2.1-8.5c0.8-3,1.5-6.2,2.3-9.5
						c0.8-3.3,1.5-6.7,2.3-10.2c0.8-3.5,1.6-7,2.3-10.5c1.6-7.1,3.1-14.1,4.5-20.7c1.4-6.6,2.7-12.8,3.8-18.1
						c2.2-10.6,3.6-17.7,3.6-17.7L121.2,54.3z"/>
				</g>
				<g>
					<path class="st1" d="M140.6,52.6c0,0,0,0.6,0,1.6c0,1.1,0.1,2.6,0.1,4.6c0,2,0,4.4-0.1,7.2c-0.1,2.8-0.1,5.9-0.3,9.3
						c-0.1,1.7-0.2,3.5-0.3,5.3c-0.1,1.8-0.2,3.7-0.4,5.7c-0.3,3.9-0.6,8-1.1,12.3c-0.2,2.1-0.5,4.3-0.7,6.5
						c-0.2,2.2-0.5,4.4-0.8,6.6c-0.6,4.4-1.3,9-2,13.5c-0.8,4.5-1.6,9-2.6,13.4c-0.4,2.2-0.9,4.4-1.5,6.5c-0.5,2.1-1.1,4.3-1.6,6.3
						c-1.1,4.2-2.3,8.1-3.5,11.9c-1.2,3.7-2.6,7.2-3.9,10.4c-1.3,3.2-2.8,6-4.1,8.5c-1.4,2.5-2.7,4.5-3.9,6.1
						c-0.6,0.8-1.2,1.5-1.7,2.1c-0.5,0.6-1,1.1-1.3,1.5c-0.8,0.8-1.2,1.2-1.2,1.2l-0.2-0.2c0,0,0.4-0.4,1.1-1.2
						c0.3-0.4,0.7-0.9,1.2-1.5c0.4-0.6,1-1.3,1.5-2.2c1.1-1.7,2.3-3.8,3.4-6.2c1.2-2.5,2.4-5.4,3.6-8.5c2.4-6.4,4.6-14,6.6-22.3
						c2-8.3,3.7-17.2,5.2-26.1c3.1-17.9,5.1-35.9,6.4-49.5c1.3-13.5,1.8-22.6,1.8-22.6L140.6,52.6z"/>
				</g>
			</g>
		</g>
		<g>
			<g>
				<g>
					<path class="st1" d="M59.7,34.4c0,0,0.1,0.6,0.2,1.8c0.1,1.1,0.1,2.8,0.3,5c0.1,2.2,0.2,4.8,0.3,7.8c0,1.5,0.1,3.1,0.1,4.8
						c0.1,1.7,0.2,3.5,0.2,5.3c0.1,1.9,0.2,3.8,0.3,5.8c0.1,2,0.2,4.1,0.4,6.2c0.3,4.2,0.6,8.7,1,13.3c0.2,2.3,0.5,4.7,0.7,7
						c0.1,1.2,0.2,2.4,0.4,3.6c0.1,1.2,0.3,2.4,0.4,3.6c0.6,4.8,1.3,9.8,2,14.7c0.8,4.9,1.7,9.8,2.7,14.6c1,4.8,2.1,9.5,3.3,14
						c1.2,4.5,2.6,8.8,4,12.9c1.4,4.1,3,7.8,4.6,11.2c0.4,0.9,0.8,1.7,1.2,2.5c0.4,0.8,0.8,1.6,1.2,2.3c0.8,1.5,1.7,2.9,2.6,4.2
						c1.7,2.6,3.4,4.7,4.9,6.3c1.5,1.6,2.9,2.7,3.8,3.4c1,0.7,1.5,1,1.5,1l0.2-0.2c0,0-0.5-0.4-1.4-1.1c-0.4-0.4-0.9-0.9-1.5-1.5
						c-0.6-0.6-1.2-1.3-1.9-2.1c-1.4-1.7-2.9-3.8-4.4-6.4c-1.5-2.6-3-5.6-4.4-9c-2.9-6.8-5.5-15.1-7.7-24c-2.2-9-4-18.7-5.6-28.4
						C66,93.3,64,73.6,62.7,58.9C62,51.5,61.5,45.3,61,41c-0.2-2.1-0.5-3.8-0.6-5c-0.2-1.2-0.3-1.8-0.3-1.8L59.7,34.4z"/>
				</g>
				<g>
					<path class="st1" d="M65.6,36.9c0,0,0,0.6,0.1,1.8c0.1,1.2,0.1,2.9,0.3,5.1c0.2,2.2,0.4,4.9,0.7,7.9c0.1,1.5,0.3,3.1,0.4,4.9
						c0.2,1.7,0.4,3.5,0.6,5.4c0.2,1.9,0.4,3.8,0.6,5.8c0.2,2,0.5,4.1,0.8,6.2c0.5,4.3,1.1,8.8,1.8,13.4c0.3,2.3,0.7,4.7,1,7.1
						c0.2,1.2,0.3,2.4,0.5,3.6c0.2,1.2,0.4,2.4,0.6,3.6c0.7,4.9,1.5,9.8,2.3,14.8c0.8,4.9,1.7,9.9,2.5,14.7c0.4,2.4,0.8,4.8,1.3,7.2
						c0.4,2.4,0.9,4.7,1.3,7c0.8,4.6,1.7,9.1,2.5,13.3c0.8,4.2,1.6,8.2,2.4,11.9c0.8,3.7,1.5,7,2.2,10c0.7,3,1.3,5.6,1.8,7.7
						c0.5,2.1,0.9,3.8,1.2,4.9c0.3,1.1,0.5,1.7,0.5,1.7l0.3-0.1c0,0-0.1-0.6-0.3-1.8c-0.2-1.1-0.5-2.8-0.9-5
						c-0.7-4.3-1.7-10.5-3-17.9c-2.4-14.8-5.6-34.6-8.7-54.3c-3.2-19.8-6.4-39.5-8.7-54.4c-0.6-3.7-1.1-7.1-1.6-10.1
						c-0.5-3-0.8-5.6-1.2-7.8c-0.2-1.1-0.3-2-0.4-2.9c-0.1-0.8-0.2-1.6-0.3-2.1c-0.1-1.2-0.2-1.8-0.2-1.8L65.6,36.9z"/>
				</g>
				<g>
					<path class="st1" d="M76.4,50.5c0,0,0,0.1,0,0.4c0,0.3,0,0.7,0,1.2c0,1.1,0,2.6,0.1,4.6c0.1,2,0.2,4.4,0.4,7.1
						c0.2,2.7,0.4,5.8,0.8,9.2c0.3,3.4,0.7,7,1.1,10.9c0.4,3.9,0.9,7.9,1.4,12.1c0.3,2.1,0.5,4.2,0.8,6.4c0.1,1.1,0.3,2.2,0.4,3.3
						c0.2,1.1,0.3,2.2,0.5,3.3c0.6,4.4,1.3,8.8,2,13.3c0.7,4.4,1.5,8.9,2.2,13.3c0.7,4.4,1.5,8.7,2.3,12.8c0.7,4.2,1.6,8.2,2.3,12
						c0.7,3.8,1.5,7.4,2.3,10.7c0.7,3.3,1.4,6.3,2.1,9c0.6,2.7,1.3,5,1.8,6.9c0.3,1,0.5,1.8,0.7,2.5c0.2,0.7,0.4,1.4,0.6,1.9
						c0.1,0.3,0.2,0.5,0.2,0.7c0.1,0.2,0.1,0.4,0.2,0.5c0.1,0.3,0.2,0.4,0.2,0.4l0.3-0.1c0,0,0-0.1-0.1-0.4c0-0.1-0.1-0.3-0.2-0.5
						c0-0.2-0.1-0.4-0.2-0.7c-0.1-0.5-0.3-1.1-0.4-1.9c-0.2-0.7-0.3-1.6-0.5-2.6c-0.4-1.9-0.8-4.3-1.3-7c-0.5-2.7-1-5.8-1.6-9.1
						c-2.3-13.3-5.1-31.1-7.8-48.9c-2.8-17.8-5.5-35.6-7.4-49c-1-6.7-1.7-12.3-2.2-16.2c-0.2-2-0.4-3.5-0.5-4.5
						c-0.1-0.5-0.1-0.9-0.1-1.2c0-0.3,0-0.4,0-0.4L76.4,50.5z"/>
				</g>
				<g>
					<path class="st1" d="M70.6,39.3c0,0,0,0.6,0.1,1.7c0,1.1,0.1,2.7,0.2,4.7c0.1,2,0.2,4.5,0.4,7.3c0.2,2.8,0.4,6,0.7,9.4
						c0.1,1.7,0.3,3.5,0.4,5.4c0.1,1.9,0.3,3.8,0.5,5.7c0.4,3.9,0.7,8.1,1.2,12.4c0.2,2.1,0.5,4.3,0.7,6.5c0.1,1.1,0.2,2.2,0.4,3.3
						c0.1,1.1,0.3,2.2,0.4,3.4c0.6,4.5,1.2,9.1,1.7,13.6c0.7,4.6,1.3,9.1,2,13.6c0.3,2.2,0.7,4.5,1,6.7c0.4,2.2,0.7,4.4,1.1,6.5
						c0.7,4.3,1.5,8.4,2.2,12.3c0.7,3.9,1.5,7.6,2.2,11c0.7,3.4,1.5,6.5,2.2,9.2c0.7,2.7,1.4,5.1,2,7c0.6,1.9,1.2,3.4,1.7,4.4
						c0.1,0.2,0.2,0.5,0.3,0.7c0.1,0.2,0.2,0.3,0.3,0.5c0.2,0.2,0.3,0.3,0.3,0.3l0.2-0.2c0,0-0.1-0.1-0.2-0.3
						c-0.1-0.1-0.1-0.3-0.2-0.4c-0.1-0.2-0.2-0.4-0.3-0.6c-0.4-1-0.8-2.5-1.3-4.5c-0.9-3.9-2-9.6-3.1-16.4
						c-2.3-13.6-4.9-31.8-7.3-50.1c-5-36.5-9.4-73-9.4-73L70.6,39.3z"/>
				</g>
				<g>
					<path class="st1" d="M75,46.2c0,0,0.1,0.6,0.2,1.6c0.1,1,0.2,2.6,0.5,4.6c0.2,2,0.5,4.3,0.9,7.1c0.4,2.7,0.8,5.8,1.3,9.1
						c0.2,1.7,0.5,3.4,0.8,5.2c0.3,1.8,0.6,3.6,0.9,5.6c0.6,3.8,1.3,7.8,2,12c0.4,2.1,0.8,4.2,1.1,6.3c0.2,1.1,0.4,2.1,0.6,3.2
						c0.2,1.1,0.4,2.2,0.6,3.2c0.9,4.3,1.7,8.7,2.6,13.2c1,4.4,1.9,8.8,2.9,13.1c0.5,2.2,1,4.3,1.5,6.4c0.5,2.1,1,4.2,1.5,6.2
						c1,4.1,2,8,3,11.8c1,3.7,2,7.3,2.9,10.5c0.9,3.2,1.9,6.2,2.7,8.8c0.9,2.6,1.7,4.9,2.4,6.7c0.7,1.9,1.4,3.3,1.9,4.2
						c0.3,0.5,0.5,0.8,0.7,1.1c0.2,0.2,0.3,0.3,0.3,0.3l0.2-0.2c0,0-0.1-0.1-0.2-0.3c-0.1-0.2-0.3-0.6-0.5-1c-0.4-1-0.9-2.4-1.5-4.3
						c-1.2-3.7-2.6-9.2-4.2-15.7c-3.1-13.1-6.9-30.7-10.5-48.3c-7.4-35.2-14.2-70.4-14.2-70.4L75,46.2z"/>
				</g>
				<g>
					<path class="st1" d="M68.1,7.5c0,0,0.2,0,0.5,0.2c0.3,0.2,0.7,0.5,1.1,1c0.8,1,1.8,2.7,2.7,5c1,2.3,2,5.1,3,8.5
						c0.5,1.7,1,3.4,1.5,5.3c0.5,1.9,1.1,3.9,1.6,5.9c0.5,2.1,1.1,4.2,1.6,6.5c0.6,2.3,1.1,4.6,1.7,7c1.1,4.8,2.3,9.9,3.5,15.1
						c0.6,2.6,1.2,5.3,1.8,8c0.3,1.4,0.6,2.7,0.9,4.1c0.3,1.4,0.6,2.7,0.9,4.1c1.2,5.5,2.4,11.1,3.6,16.7c1.2,5.6,2.4,11.2,3.6,16.8
						c0.6,2.8,1.2,5.5,1.7,8.2c0.6,2.7,1.1,5.4,1.7,8c2.2,10.5,4.3,20.4,6.1,28.8c0.9,4.2,1.7,8.1,2.5,11.5c0.7,3.4,1.3,6.4,1.8,8.9
						c0.5,2.5,0.9,4.4,1,5.7c0.1,0.7,0.2,1.2,0.2,1.5c0,0.2,0,0.3,0,0.4c0,0,0,0,0,0c0,0,0,0,0,0l0.2,0.2c0.2-0.1,0.2-0.8,0.1-2.2
						c-0.1-1.3-0.3-3.3-0.7-5.8c-0.7-5-1.8-12.1-3.3-20.6c-2.9-17-7.2-39.6-11.9-62.1c-4.8-22.5-10.2-44.9-15.2-61.4
						c-2.5-8.3-4.9-15-7.2-19.6c-1.1-2.3-2.2-4-3.2-4.9c-0.5-0.5-0.9-0.8-1.3-1c-0.3-0.2-0.5-0.2-0.5-0.2L68.1,7.5z"/>
				</g>
				<g>
					<path class="st1" d="M63.6,41.4c0,0,0.1,0.6,0.1,1.6c0.1,1,0.2,2.6,0.5,4.5c0.2,2,0.5,4.3,0.8,7c0.3,2.7,0.7,5.8,1.3,9.1
						c0.2,1.7,0.5,3.4,0.8,5.2c0.3,1.8,0.6,3.6,0.9,5.5c0.6,3.8,1.3,7.8,2.1,12c0.4,2.1,0.8,4.2,1.2,6.3c0.2,1.1,0.4,2.1,0.6,3.2
						c0.2,1.1,0.4,2.2,0.7,3.2c0.9,4.3,1.8,8.7,2.8,13.1c1,4.4,2.1,8.7,3.1,13c0.5,2.2,1.1,4.3,1.7,6.4c0.6,2.1,1.1,4.2,1.7,6.2
						c1.1,4.1,2.3,8,3.5,11.7c1.2,3.7,2.4,7.2,3.6,10.3c1.2,3.2,2.4,6.1,3.5,8.6c1.1,2.5,2.2,4.7,3.2,6.4c1,1.7,1.9,3,2.6,3.8
						c0.3,0.4,0.6,0.7,0.8,0.9c0.2,0.2,0.3,0.3,0.3,0.3l0.2-0.2c0,0-0.1-0.1-0.3-0.3c-0.2-0.2-0.4-0.5-0.7-1c-0.6-0.9-1.4-2.2-2.2-4
						c-1.7-3.5-3.7-8.8-5.7-15.2c-4.1-12.8-8.4-30.2-12.3-47.7c-8-35-14.4-70.2-14.4-70.2L63.6,41.4z"/>
				</g>
				<g>
					<path class="st1" d="M89.9,62c0,0,0,0.3,0,0.7c0,0.5-0.1,1.2-0.1,2.1c0,0.9-0.1,2,0,3.2c0,1.2,0,2.6,0.1,4.2
						c0,1.5,0.1,3.2,0.2,4.9c0.1,1.7,0.2,3.6,0.3,5.4c0.2,1.9,0.3,3.8,0.5,5.8c0.2,2,0.4,4,0.6,6c0.2,2,0.4,4,0.7,5.9
						c0.2,2,0.5,3.9,0.8,5.7c0.2,1.9,0.5,3.7,0.8,5.4c0.1,0.9,0.2,1.7,0.3,2.5c0.1,0.8,0.3,1.6,0.4,2.3c0.1,0.7,0.2,1.5,0.3,2.1
						c0.1,0.7,0.2,1.3,0.3,1.9c0.1,1.2,0.3,2.3,0.4,3.1c0.1,0.9,0.2,1.6,0.2,2c0.1,0.5,0.1,0.7,0.1,0.7l0.3,0c0,0,0.1-1,0.3-2.8
						c0-0.9,0-2,0.1-3.2c0-1.2,0-2.6-0.1-4.1c0-1.5-0.2-3.2-0.2-4.9c-0.1-1.7-0.3-3.6-0.4-5.4c-0.2-1.9-0.3-3.8-0.5-5.8
						c-0.2-2-0.4-4-0.6-6c-0.9-8-1.9-16-2.8-22c-0.4-3-0.8-5.5-1.1-7.2c-0.3-1.7-0.4-2.7-0.4-2.7L89.9,62z"/>
				</g>
				<g>
					<path class="st1" d="M78.8,54.5c0,0,0,0.5,0.1,1.3c0.1,0.8,0.2,2.1,0.3,3.7c0.2,1.6,0.4,3.5,0.6,5.7c0.1,1.1,0.3,2.3,0.4,3.5
						c0.2,1.2,0.4,2.5,0.5,3.9c0.2,1.3,0.4,2.7,0.6,4.2c0.2,1.4,0.5,2.9,0.7,4.5c0.5,3.1,1,6.3,1.7,9.6c0.3,1.7,0.6,3.4,0.9,5.1
						c0.2,0.9,0.3,1.7,0.5,2.6c0.2,0.9,0.4,1.7,0.5,2.6c0.7,3.5,1.5,7,2.2,10.6c0.8,3.5,1.6,7,2.5,10.5c0.4,1.7,0.8,3.4,1.3,5.1
						c0.4,1.7,0.9,3.4,1.3,5c0.9,3.3,1.7,6.4,2.6,9.4c0.9,3,1.7,5.8,2.6,8.4c0.8,2.6,1.6,5,2.4,7c0.8,2.1,1.4,3.9,2.1,5.4
						c0.6,1.5,1.2,2.6,1.5,3.4c0.4,0.8,0.5,1.2,0.5,1.2l0.3-0.1c0,0-0.6-1.7-1.5-4.7c-0.5-1.5-1-3.4-1.6-5.5
						c-0.6-2.1-1.2-4.5-1.9-7.1c-0.7-2.6-1.4-5.5-2.1-8.5c-0.8-3-1.5-6.2-2.3-9.5c-0.8-3.3-1.5-6.7-2.3-10.2
						c-0.8-3.5-1.6-7-2.3-10.5c-1.6-7.1-3.1-14.1-4.5-20.7c-1.4-6.6-2.7-12.8-3.8-18.1c-2.2-10.6-3.6-17.7-3.6-17.7L78.8,54.5z"/>
				</g>
				<g>
					<path class="st1" d="M59.4,52.8c0,0,0,0.6,0,1.6c0,1.1-0.1,2.6-0.1,4.6c0,2,0,4.4,0.1,7.2c0.1,2.8,0.1,5.9,0.3,9.3
						c0.1,1.7,0.2,3.5,0.3,5.3c0.1,1.8,0.2,3.7,0.4,5.7c0.3,3.9,0.6,8,1.1,12.3c0.2,2.1,0.5,4.3,0.7,6.5c0.2,2.2,0.5,4.4,0.8,6.6
						c0.6,4.4,1.3,9,2,13.5c0.8,4.5,1.6,9,2.6,13.4c0.4,2.2,0.9,4.4,1.5,6.5c0.5,2.1,1.1,4.3,1.6,6.3c1.1,4.2,2.3,8.1,3.5,11.9
						c1.2,3.7,2.6,7.2,3.9,10.4c1.3,3.2,2.8,6,4.1,8.5c1.4,2.5,2.7,4.5,3.9,6.1c0.6,0.8,1.2,1.5,1.7,2.1c0.5,0.6,1,1.1,1.3,1.5
						c0.8,0.8,1.2,1.2,1.2,1.2l0.2-0.2c0,0-0.4-0.4-1.1-1.2c-0.3-0.4-0.7-0.9-1.2-1.5c-0.4-0.6-1-1.3-1.5-2.2
						c-1.1-1.7-2.3-3.8-3.4-6.2c-1.2-2.5-2.4-5.4-3.6-8.5c-2.4-6.4-4.6-14-6.6-22.3c-2-8.3-3.7-17.2-5.2-26.1
						C64.9,107,62.8,89,61.5,75.4c-1.3-13.5-1.8-22.6-1.8-22.6L59.4,52.8z"/>
				</g>
			</g>
			<g>
				<g>
					<path class="st0" d="M110.6,189.5c0,0-0.1-0.6-0.4-1.6c-0.2-1.1-0.5-2.7-0.9-4.8c-0.7-4.1-1.6-10.1-2.6-17.2
						c-2-14.3-4.5-33.4-6.6-52.5c-2.2-19.1-4.1-38.3-4.9-52.7c-0.4-7.2-0.6-13.2-0.5-17.4c0.1-2.1,0.2-3.7,0.4-4.9
						c0-0.3,0.1-0.5,0.2-0.7c0.1-0.2,0.1-0.4,0.2-0.5c0.1-0.3,0.2-0.4,0.2-0.4s-0.1,0.1-0.2,0.4c-0.1,0.1-0.1,0.3-0.2,0.5
						c-0.1,0.2-0.1,0.4-0.2,0.7c-0.2,1.1-0.4,2.8-0.5,4.9c-0.2,4.2-0.2,10.2,0.1,17.4c0.6,14.4,2.1,33.6,3.9,52.8
						c1.8,19.2,3.9,38.3,5.6,52.6c0.9,7.2,1.7,13.1,2.3,17.3c0.3,2.1,0.6,3.7,0.8,4.9c0.2,1.2,0.3,1.7,0.3,1.7L110.6,189.5z"/>
				</g>
				<g>
					<path class="st0" d="M104.8,187.1c0,0-0.3-2.6-0.7-7.2c-0.4-4.6-1-11.2-1.8-19.1c-1.5-15.8-3.4-36.9-5.6-57.9
						C94.5,81.8,92.2,60.8,90,45c-1.1-7.9-2.1-14.4-3.1-18.9c-0.5-2.3-0.9-4-1.4-5.2c-0.2-0.6-0.4-1-0.6-1.3
						c-0.1-0.1-0.2-0.2-0.2-0.3c-0.1,0-0.1-0.1-0.1-0.1s0,0,0.1,0.1c0.1,0,0.2,0.1,0.2,0.3c0.2,0.3,0.4,0.7,0.6,1.3
						c0.4,1.2,0.8,2.9,1.3,5.2c0.9,4.5,1.8,11.1,2.7,19c1.9,15.8,3.8,36.8,5.6,57.9c1.8,21.1,3.4,42.2,4.6,58
						c0.6,7.9,1.1,14.5,1.4,19.1c0.4,4.6,0.6,7.3,0.6,7.3L104.8,187.1z"/>
				</g>
				<g>
					<path class="st0" d="M94,173.6c0,0,0-0.1,0-0.4c0-0.3,0-0.7-0.1-1.2c-0.1-1.1-0.3-2.7-0.5-4.6c-0.5-3.9-1.3-9.5-2.3-16.2
						c-2-13.4-4.9-31.2-7.8-48.9c-3-17.8-6-35.5-8.5-48.8c-0.6-3.3-1.2-6.4-1.7-9.1c-0.5-2.7-1-5-1.4-7c-0.2-1-0.4-1.8-0.6-2.6
						c-0.2-0.7-0.3-1.4-0.5-1.9c-0.1-0.5-0.2-0.9-0.3-1.2c-0.1-0.3-0.1-0.4-0.1-0.4s0,0.1,0.1,0.4c0.1,0.3,0.2,0.6,0.3,1.2
						c0.1,0.5,0.3,1.1,0.4,1.9c0.2,0.7,0.3,1.6,0.5,2.6c0.4,1.9,0.8,4.3,1.2,7c0.4,2.7,1,5.8,1.5,9.1c2.1,13.3,4.8,31.1,7.4,49
						c2.6,17.8,5.1,35.7,6.8,49c0.9,6.7,1.6,12.3,2,16.2c0.2,2,0.4,3.5,0.4,4.5c0,0.5,0,0.9,0.1,1.2c0,0.3,0,0.4,0,0.4L94,173.6z"/>
				</g>
				<g>
					<path class="st0" d="M99.8,184.6c0,0-4.7-36.5-10-73c-2.7-18.2-5.5-36.4-7.9-50c-1.2-6.8-2.4-12.4-3.4-16.3
						c-0.5-2-0.9-3.5-1.3-4.5c-0.1-0.2-0.2-0.5-0.3-0.7c-0.1-0.2-0.2-0.3-0.3-0.5c-0.2-0.2-0.3-0.3-0.3-0.3s0.1,0.1,0.3,0.3
						c0.1,0.1,0.1,0.3,0.2,0.5c0.1,0.2,0.2,0.4,0.3,0.7c0.4,1,0.8,2.5,1.2,4.5c0.9,3.9,1.9,9.6,3,16.4c2.2,13.6,4.6,31.9,6.9,50.1
						c4.6,36.5,8.5,73.1,8.5,73.1L99.8,184.6z"/>
				</g>
				<g>
					<path class="st0" d="M95.4,177.7c0,0-7.1-35.2-14.8-70.3c-3.9-17.6-7.8-35.1-11.2-48.1c-1.7-6.5-3.2-11.9-4.4-15.7
						c-0.6-1.9-1.1-3.3-1.6-4.3c-0.2-0.5-0.4-0.8-0.6-1.1c-0.2-0.2-0.2-0.3-0.2-0.3s0.1,0.1,0.2,0.3c0.1,0.2,0.3,0.6,0.5,1.1
						c0.4,1,0.9,2.4,1.5,4.3c1.1,3.8,2.5,9.2,4,15.8c3,13.1,6.7,30.7,10.1,48.3c6.9,35.2,13.3,70.6,13.3,70.6L95.4,177.7z"/>
				</g>
				<g>
					<path class="st0" d="M85.6,168c0,0-0.1-0.5-0.4-1.4c-0.2-0.9-0.6-2.3-1-4c-0.9-3.5-2.1-8.5-3.5-14.5
						c-2.8-12-6.6-28.1-10.2-44.2c-3.6-16.1-7.1-32.2-9.6-44.3c-1.2-6.1-2.2-11.1-2.7-14.7c-0.3-1.8-0.5-3.2-0.5-4.1
						c0-0.5,0-0.9,0-1.1c0-0.3,0.1-0.4,0.1-0.4s-0.1,0.1-0.1,0.4c0,0.2,0,0.6,0,1.1c0,1,0.2,2.4,0.4,4.2c0.5,3.6,1.3,8.7,2.4,14.8
						c2.2,12.2,5.3,28.4,8.5,44.6c3.2,16.2,6.6,32.3,9.1,44.4c1.3,6.1,2.4,11.1,3.2,14.6c0.4,1.8,0.7,3.2,0.9,4.1
						c0.2,0.9,0.3,1.5,0.3,1.5L85.6,168z"/>
				</g>
				<g>
					<path class="st0" d="M106.7,182.5c0,0-1.7-8.8-4.4-22c-2.7-13.2-6.5-30.7-10.7-48.2C87.5,94.9,83,77.5,78.7,64.7
						c-2.1-6.4-4.1-11.6-5.9-15.2c-0.9-1.8-1.7-3.1-2.3-4c-0.3-0.4-0.5-0.7-0.7-1c-0.2-0.2-0.3-0.3-0.3-0.3s0.1,0.1,0.3,0.3
						c0.2,0.2,0.4,0.5,0.7,1c0.6,0.9,1.4,2.2,2.2,4c1.7,3.5,3.6,8.8,5.6,15.2c3.9,12.8,8.1,30.3,11.9,47.8
						c3.8,17.5,7.2,35.1,9.6,48.3c2.4,13.2,3.9,22,3.9,22L106.7,182.5z"/>
				</g>
				<g>
					<path class="st0" d="M80.4,162c0,0-0.7-4-1.6-9.9c-0.9-6-2.2-13.9-3.2-21.9c-0.3-2-0.5-4-0.8-6c-0.2-2-0.5-3.9-0.7-5.8
						c-0.2-1.9-0.4-3.7-0.5-5.4c-0.1-1.7-0.3-3.4-0.4-4.9c-0.1-1.5-0.2-2.9-0.2-4.1c0-1.2,0-2.3,0-3.2c0.1-1.8,0.2-2.8,0.2-2.8
						s-0.1,1-0.3,2.8c0,0.9-0.1,2-0.1,3.2c0,1.2,0,2.6,0,4.1c0,1.5,0.1,3.2,0.1,4.9c0.1,1.7,0.2,3.6,0.3,5.5
						c0.1,1.9,0.3,3.8,0.4,5.8c0.2,2,0.3,4,0.5,6c0.7,8,1.5,16.1,2.2,22.1c0.7,6,1.2,10,1.2,10L80.4,162z"/>
				</g>
				<g>
					<path class="st0" d="M91.5,169.4c0,0-1.5-7.1-3.8-17.7c-1.2-5.3-2.5-11.5-4-18.1c-1.5-6.6-3.1-13.7-4.7-20.7
						c-0.8-3.5-1.7-7-2.5-10.5c-0.9-3.5-1.7-6.9-2.5-10.1c-0.8-3.3-1.6-6.5-2.4-9.5c-0.8-3-1.5-5.8-2.3-8.5c-0.7-2.6-1.4-5-2-7.1
						c-0.7-2.1-1.2-4-1.7-5.4c-1-3-1.6-4.7-1.6-4.7s0.5,1.7,1.5,4.7c0.5,1.5,0.9,3.4,1.5,5.5c0.6,2.1,1.2,4.5,1.9,7.2
						c0.7,2.6,1.3,5.5,2.1,8.5c0.7,3,1.4,6.2,2.2,9.5c0.8,3.3,1.5,6.7,2.2,10.2c0.7,3.5,1.5,7,2.2,10.5c1.5,7.1,2.9,14.2,4.2,20.8
						c1.3,6.6,2.5,12.8,3.5,18.2c2,10.6,3.3,17.7,3.3,17.7L91.5,169.4z"/>
				</g>
				<g>
					<path class="st0" d="M111,171.2c0,0-0.8-8.4-2.3-20.9c-1.5-12.5-3.7-29.2-6.4-45.8c-1.4-8.3-2.9-16.6-4.5-24.3
						c-1.6-7.7-3.3-14.9-5-20.9c-1.7-6.1-3.6-11-5.2-14.3c-0.8-1.7-1.5-2.9-2.1-3.7c-0.3-0.4-0.5-0.7-0.6-0.9
						c-0.1-0.2-0.2-0.3-0.2-0.3s0.1,0.1,0.2,0.3c0.1,0.2,0.4,0.5,0.6,0.9c0.5,0.8,1.2,2.1,2,3.8c1.5,3.3,3.2,8.3,4.8,14.4
						c1.6,6.1,3.1,13.3,4.6,21c1.4,7.7,2.7,16,3.9,24.3c2.3,16.6,4.1,33.3,5.4,45.8c0.6,6.3,1.1,11.5,1.4,15.1
						c0.3,3.7,0.5,5.7,0.5,5.7L111,171.2z"/>
				</g>
			</g>
			<g>
				<g>
					<path class="st2" d="M59.2,21.4c0,0,0.1,0.1,0.3,0.3c0.1,0.1,0.2,0.3,0.4,0.4c0.1,0.2,0.3,0.4,0.4,0.6c0.6,1,1.3,2.6,2,4.8
						c1.3,4.3,2.5,10.6,3.5,18.3c0.5,3.8,1.1,8,1.6,12.4c0.5,4.4,1.1,9,1.6,13.8c1.1,9.6,2.3,19.8,3.7,30c0.7,5.1,1.4,10.2,2.2,15.2
						c0.8,5,1.6,9.9,2.5,14.7c1,4.7,1.9,9.3,3,13.6c0.5,2.2,1.1,4.2,1.6,6.3c0.6,2,1.1,3.9,1.7,5.8c1.1,3.7,2.3,7.1,3.4,10
						c0.5,1.5,1.1,2.8,1.6,4.1c0.5,1.3,1,2.4,1.5,3.4c0.5,1,0.9,2,1.3,2.7c0.4,0.8,0.7,1.5,1,2c0.5,1.1,0.8,1.7,0.8,1.7l0.2-0.1
						c0,0-0.2-0.6-0.7-1.7c-0.2-0.6-0.5-1.3-0.8-2.1c-0.3-0.8-0.7-1.8-1-2.8c-0.7-2.1-1.6-4.7-2.5-7.7c-0.9-3-1.9-6.4-2.8-10.1
						c-0.5-1.9-1-3.8-1.5-5.8c-0.5-2-1-4.1-1.5-6.3c-0.9-4.3-1.9-8.8-2.8-13.6c-1-4.7-1.9-9.6-2.7-14.6c-0.9-5-1.7-10.1-2.5-15.1
						c-1.6-10.2-2.9-20.4-4.2-29.9c-0.6-4.8-1.2-9.4-1.9-13.8c-0.6-4.4-1.2-8.5-1.9-12.3c-1.3-7.6-2.6-14-4-18.3
						c-0.7-2.1-1.5-3.8-2.2-4.8c-0.2-0.3-0.3-0.5-0.5-0.7c-0.1-0.2-0.3-0.3-0.4-0.4c-0.2-0.2-0.3-0.3-0.3-0.3L59.2,21.4z"/>
				</g>
				<g>
					<path class="st2" d="M68.8,33.9c0,0,0.1,0.6,0.2,1.8c0.1,0.6,0.1,1.3,0.2,2.1c0.1,0.8,0.2,1.8,0.4,2.9c0.3,2.2,0.6,4.8,1,7.8
						c0.4,3,0.9,6.4,1.4,10.1c0.5,3.7,1.1,7.7,1.7,12c0.6,4.3,1.3,8.7,2,13.4c1.4,9.3,2.9,19.2,4.4,29.1c0.7,5,1.5,9.9,2.2,14.8
						c0.7,4.9,1.5,9.7,2.2,14.3c0.8,4.6,1.5,9.1,2.3,13.3c0.7,4.2,1.5,8.2,2.2,11.9c0.7,3.7,1.4,7.1,2,10.1c0.6,3,1.1,5.6,1.6,7.7
						c0.5,2.1,0.8,3.8,1.1,5c0.3,1.1,0.4,1.8,0.4,1.8l0.2-0.1c0,0-0.3-2.5-0.9-6.8c-0.1-1.1-0.3-2.3-0.5-3.6
						c-0.2-1.3-0.4-2.7-0.6-4.2c-0.4-3-0.9-6.4-1.4-10.1c-0.3-1.9-0.5-3.8-0.8-5.8c-0.3-2-0.6-4.1-0.9-6.2
						c-0.6-4.3-1.4-8.7-2.1-13.4c-1.5-9.3-3.3-19.1-5-29c-3.3-19.7-6.6-39.5-9.1-54.3c-0.6-3.7-1.2-7.1-1.7-10.1
						c-0.5-3-0.9-5.6-1.2-7.8c-0.2-1.1-0.3-2-0.4-2.9c-0.1-0.8-0.2-1.6-0.3-2.1c-0.2-1.2-0.2-1.8-0.2-1.8L68.8,33.9z"/>
				</g>
				<g>
					<path class="st2" d="M79.6,47.4c0,0,0,0.1,0,0.4c0,0.3,0,0.7,0.1,1.2c0.1,1.1,0.2,2.6,0.4,4.6c0.4,3.9,1.1,9.5,1.9,16.2
						c0.4,3.3,0.9,7,1.4,10.8c0.5,3.8,1.1,7.9,1.6,12.1c1.2,8.4,2.5,17.3,3.7,26.2c0.6,4.5,1.3,8.9,1.9,13.3
						c0.6,4.4,1.3,8.7,1.9,12.9c0.7,4.2,1.4,8.2,2.1,12c0.3,1.9,0.7,3.8,1,5.5c0.3,1.8,0.7,3.5,1,5.2c0.6,3.3,1.3,6.4,1.9,9
						c0.6,2.7,1.1,5,1.6,6.9c0.2,1,0.5,1.8,0.6,2.6c0.2,0.7,0.4,1.4,0.5,1.9c0.1,0.3,0.1,0.5,0.2,0.7c0.1,0.2,0.1,0.4,0.2,0.5
						c0.1,0.3,0.2,0.4,0.2,0.4l0.2-0.1c0,0,0-0.1-0.1-0.4c0-0.1-0.1-0.3-0.1-0.5c0-0.2-0.1-0.4-0.1-0.7c-0.2-1-0.5-2.6-0.7-4.5
						c-0.6-3.9-1.4-9.5-2.4-16.1c-0.5-3.3-1-7-1.6-10.8c-0.6-3.8-1.2-7.9-1.9-12c-1.4-8.3-2.9-17.2-4.4-26.1
						c-1.5-8.9-2.9-17.8-4.3-26.1c-1.3-8.3-2.6-16.1-3.6-22.8c-1-6.7-1.9-12.2-2.4-16.1c-0.3-2-0.4-3.5-0.5-4.5
						c-0.1-0.5-0.1-0.9-0.1-1.2c0-0.3,0-0.4,0-0.4L79.6,47.4z"/>
				</g>
				<g>
					<path class="st2" d="M74.8,39.8c0,0,0.9,8.9,2.3,22.3c0.4,3.3,0.7,7,1.2,10.8c0.4,3.8,0.9,7.9,1.4,12.1c1,8.4,2,17.3,3.1,26.2
						c0.5,4.5,1.1,8.9,1.6,13.3c0.5,4.4,1.1,8.7,1.7,12.9c0.6,4.2,1.2,8.2,1.9,12c0.3,1.9,0.6,3.8,1,5.5c0.3,1.8,0.7,3.5,1,5.2
						c0.6,3.3,1.3,6.3,1.9,9c0.6,2.7,1.2,5,1.7,6.9c0.6,1.9,1,3.4,1.5,4.4c0.1,0.2,0.2,0.5,0.3,0.6c0.1,0.2,0.2,0.3,0.3,0.4
						c0.2,0.2,0.3,0.3,0.3,0.3l0.2-0.2c0,0-0.1-0.1-0.2-0.3c-0.1-0.1-0.1-0.3-0.2-0.4c-0.1-0.2-0.1-0.4-0.2-0.6
						c-0.3-1-0.7-2.5-1-4.4c-0.4-1.9-0.8-4.3-1.2-7c-0.4-2.7-0.9-5.7-1.3-9.1c-0.9-6.7-2-14.4-3.2-22.7c-0.6-4.2-1.3-8.5-1.9-12.8
						c-0.6-4.4-1.3-8.8-1.9-13.2c-1.3-8.9-2.5-17.8-3.6-26.1c-1.1-8.3-2.2-16.1-3.1-22.8C76.2,48.7,75,39.8,75,39.8L74.8,39.8z"/>
				</g>
				<g>
					<path class="st2" d="M78.2,43.2c0,0,1.6,8.8,4,22.1c0.6,3.3,1.3,6.9,2,10.7c0.7,3.8,1.5,7.8,2.3,11.9c1.6,8.3,3.3,17.1,5,25.9
						c0.9,4.4,1.7,8.8,2.6,13.2c0.8,4.3,1.7,8.6,2.6,12.7c0.9,4.1,1.8,8.1,2.7,11.8c0.5,1.9,0.9,3.7,1.4,5.5
						c0.5,1.8,0.9,3.5,1.3,5.1c0.9,3.3,1.7,6.2,2.5,8.9c0.8,2.6,1.5,4.9,2.2,6.8c0.7,1.9,1.3,3.3,1.8,4.3c0.2,0.5,0.5,0.8,0.6,1.1
						c0.2,0.2,0.3,0.3,0.3,0.3l0.2-0.2c0,0-0.1-0.1-0.2-0.3c-0.1-0.2-0.3-0.6-0.5-1.1c-0.4-1-0.8-2.4-1.3-4.3
						c-0.5-1.9-1-4.2-1.7-6.9c-0.6-2.7-1.3-5.7-2-9c-1.4-6.6-3.1-14.3-4.8-22.5c-0.9-4.1-1.9-8.3-2.9-12.7c-1-4.3-1.9-8.7-2.9-13.1
						c-1.9-8.8-3.8-17.6-5.6-25.8C86,79.4,84.4,71.7,83,65.1c-2.8-13.2-4.6-22-4.6-22L78.2,43.2z"/>
				</g>
				<g>
					<path class="st2" d="M87.9,52.7c0,0,0.5,2,1.2,5.5c0.8,3.5,1.8,8.6,3.1,14.6c1.3,6.1,2.7,13.1,4.3,20.7
						c1.5,7.6,3.2,15.7,4.8,23.7c1.6,8.1,3.2,16.2,4.7,23.8c0.8,3.8,1.5,7.4,2.3,10.9c0.7,3.5,1.5,6.7,2.1,9.8
						c0.7,3,1.3,5.8,1.8,8.2c0.5,2.5,1,4.6,1.3,6.4c0.4,1.8,0.6,3.2,0.7,4.1c0.1,0.5,0.1,0.8,0.1,1.1c0,0.1,0,0.2,0,0.2c0,0,0,0,0,0
						l0.2,0.2c0,0,0,0,0.1-0.1c0-0.1,0.1-0.2,0.1-0.3c0-0.3,0.1-0.6,0.1-1.1c0-1-0.1-2.4-0.3-4.2c-0.2-1.8-0.4-4-0.8-6.5
						c-0.3-2.5-0.8-5.3-1.3-8.4c-0.3-1.5-0.5-3.1-0.8-4.8c-0.3-1.6-0.6-3.3-0.9-5.1c-0.6-3.5-1.3-7.2-2.1-11
						c-0.8-3.8-1.6-7.7-2.5-11.7c-0.9-4-1.8-8-2.7-12c-1.8-8-3.6-16.1-5.4-23.6c-0.9-3.8-1.7-7.4-2.5-10.9c-0.8-3.4-1.6-6.7-2.3-9.7
						c-1.4-6-2.7-11-3.5-14.5c-0.9-3.5-1.4-5.5-1.4-5.5L87.9,52.7z"/>
				</g>
				<g>
					<path class="st2" d="M66.8,38.3c0,0,1.5,8.8,3.9,22.1c0.6,3.3,1.3,6.9,2,10.7c0.7,3.8,1.5,7.8,2.3,11.9
						c1.6,8.3,3.4,17,5.3,25.8c0.9,4.4,1.9,8.8,2.9,13.1c1,4.3,2,8.5,3,12.6c1.1,4.1,2.1,8,3.2,11.7c0.6,1.9,1.1,3.6,1.7,5.4
						c0.6,1.7,1.1,3.4,1.7,5c1.1,3.2,2.2,6.1,3.2,8.6c1.1,2.5,2.1,4.7,3,6.5c0.9,1.7,1.8,3.1,2.4,3.9c0.3,0.4,0.6,0.7,0.8,0.9
						c0.2,0.2,0.3,0.3,0.3,0.3l0.2-0.2c0,0-0.1-0.1-0.2-0.3c-0.2-0.2-0.4-0.5-0.6-1c-0.5-0.9-1.3-2.2-2-4c-0.8-1.8-1.6-4-2.5-6.6
						c-0.9-2.6-1.8-5.5-2.7-8.7c-0.5-1.6-0.9-3.3-1.4-5c-0.5-1.7-1-3.5-1.5-5.4c-1-3.7-2-7.6-3.1-11.7c-1.1-4.1-2.1-8.3-3.2-12.5
						c-1.1-4.3-2.2-8.6-3.2-13c-2.1-8.7-4-17.5-5.8-25.7c-0.9-4.1-1.7-8.1-2.6-11.8c-0.8-3.8-1.6-7.3-2.3-10.6
						c-2.8-13.2-4.5-22-4.5-22L66.8,38.3z"/>
				</g>
				<g>
					<path class="st2" d="M93.1,58.9c0,0,0.4,4,1.1,10c0.3,3,0.7,6.5,1.1,10.3c0.2,1.9,0.4,3.8,0.6,5.8c0.2,2,0.4,4,0.5,6
						c0.2,2,0.3,4,0.5,6c0.1,2,0.2,3.9,0.4,5.8c0.1,1.9,0.3,3.7,0.5,5.4c0.1,0.9,0.2,1.7,0.2,2.5c0.1,0.8,0.2,1.6,0.2,2.3
						c0.1,1.5,0.3,2.9,0.4,4.1c0.1,1.2,0.2,2.3,0.2,3.2c0,1.7,0.1,2.8,0.1,2.8l0.2,0c0,0,0.2-1,0.6-2.8c0.1-0.9,0.2-2,0.3-3.2
						c0.1-0.6,0.1-1.3,0.1-2c0-0.7,0.1-1.4,0.1-2.2c0-1.5,0-3.2-0.1-4.9c0-1.7-0.2-3.6-0.3-5.5c-0.2-1.9-0.4-3.8-0.7-5.8
						c-0.3-2-0.5-4-0.8-6c-0.3-2-0.5-4-0.8-6c-0.3-2-0.6-3.9-0.8-5.8c-0.3-1.9-0.5-3.7-0.8-5.4c-0.3-1.7-0.5-3.3-0.8-4.8
						c-1-6-1.7-9.9-1.7-9.9L93.1,58.9z"/>
				</g>
				<g>
					<path class="st2" d="M82,51.4c0,0,1.3,7.1,3.2,17.8c0.5,2.7,1,5.5,1.6,8.6c0.6,3.1,1.2,6.3,1.9,9.6c1.3,6.6,2.7,13.7,4.2,20.8
						c1.5,7.1,2.9,14.2,4.4,20.8c0.8,3.3,1.6,6.5,2.4,9.5c0.8,3,1.6,5.8,2.4,8.4c0.8,2.6,1.5,5,2.2,7.1c0.7,2.1,1.3,3.9,1.9,5.4
						c0.6,1.5,1,2.6,1.4,3.4c0.3,0.8,0.5,1.2,0.5,1.2l0.2-0.1c0,0-0.1-0.4-0.3-1.3c-0.2-0.8-0.5-2-0.9-3.5c-0.2-0.8-0.4-1.6-0.6-2.5
						c-0.2-0.9-0.5-1.9-0.7-3c-0.5-2.1-1.1-4.6-1.7-7.2c-0.3-1.3-0.6-2.7-0.9-4.1c-0.3-1.4-0.7-2.9-1-4.4c-0.7-3-1.4-6.2-2.2-9.5
						c-0.8-3.3-1.6-6.7-2.5-10.1c-0.9-3.4-1.7-7-2.5-10.5c-1.6-7-3.3-14.1-4.7-20.7c-1.5-6.6-2.9-12.8-4-18.1
						c-2.3-10.6-3.9-17.6-3.9-17.6L82,51.4z"/>
				</g>
				<g>
					<path class="st2" d="M62.6,49.8c0,0,0.6,8.4,1.8,20.9c0.3,3.1,0.6,6.5,1,10.1c0.4,3.6,0.8,7.4,1.2,11.3
						c0.9,7.8,1.9,16.2,3.1,24.5c0.6,4.2,1.2,8.3,1.8,12.4c0.6,4.1,1.3,8.1,2.1,12c0.8,3.9,1.6,7.6,2.4,11.1
						c0.4,1.8,0.9,3.5,1.3,5.1c0.5,1.6,0.9,3.2,1.4,4.7c0.9,3,1.9,5.8,2.8,8.2c0.9,2.4,1.9,4.5,2.7,6.1c0.9,1.6,1.6,2.9,2.2,3.7
						c0.3,0.4,0.5,0.7,0.7,0.9c0.2,0.2,0.2,0.3,0.2,0.3l0.2-0.1c0,0-0.1-0.1-0.2-0.3c-0.1-0.2-0.3-0.5-0.6-1
						c-0.5-0.9-1.1-2.1-1.8-3.8c-0.7-1.7-1.4-3.8-2.2-6.2c-0.8-2.4-1.5-5.2-2.3-8.2c-0.8-3-1.5-6.4-2.3-9.9
						c-0.7-3.5-1.5-7.2-2.2-11.1c-0.8-3.8-1.5-7.8-2.3-11.9c-0.8-4.1-1.5-8.2-2.2-12.3c-1.4-8.3-2.6-16.6-3.6-24.4
						c-0.5-3.9-1-7.7-1.5-11.2c-0.5-3.6-0.9-7-1.3-10.1c-1.5-12.5-2.4-20.9-2.4-20.9L62.6,49.8z"/>
				</g>
			</g>
			<g>
				<g>
					<path class="st1" d="M59.7,34.4c0,0,0.1,0.6,0.2,1.8c0.1,1.1,0.1,2.8,0.3,5c0.1,2.2,0.2,4.8,0.3,7.8c0,1.5,0.1,3.1,0.1,4.8
						c0.1,1.7,0.2,3.5,0.2,5.3c0.1,1.9,0.2,3.8,0.3,5.8c0.1,2,0.2,4.1,0.4,6.2c0.3,4.2,0.6,8.7,1,13.3c0.2,2.3,0.5,4.7,0.7,7
						c0.1,1.2,0.2,2.4,0.4,3.6c0.1,1.2,0.3,2.4,0.4,3.6c0.6,4.8,1.3,9.8,2,14.7c0.8,4.9,1.7,9.8,2.7,14.6c1,4.8,2.1,9.5,3.3,14
						c1.2,4.5,2.6,8.8,4,12.9c1.4,4.1,3,7.8,4.6,11.2c0.4,0.9,0.8,1.7,1.2,2.5c0.4,0.8,0.8,1.6,1.2,2.3c0.8,1.5,1.7,2.9,2.6,4.2
						c1.7,2.6,3.4,4.7,4.9,6.3c1.5,1.6,2.9,2.7,3.8,3.4c1,0.7,1.5,1,1.5,1l0.2-0.2c0,0-0.5-0.4-1.4-1.1c-0.4-0.4-0.9-0.9-1.5-1.5
						c-0.6-0.6-1.2-1.3-1.9-2.1c-1.4-1.7-2.9-3.8-4.4-6.4c-1.5-2.6-3-5.6-4.4-9c-2.9-6.8-5.5-15.1-7.7-24c-2.2-9-4-18.7-5.6-28.4
						C66,93.3,64,73.6,62.7,58.9C62,51.5,61.5,45.3,61,41c-0.2-2.1-0.5-3.8-0.6-5c-0.2-1.2-0.3-1.8-0.3-1.8L59.7,34.4z"/>
				</g>
				<g>
					<path class="st1" d="M65.6,36.9c0,0,0,0.6,0.1,1.8c0.1,1.2,0.1,2.9,0.3,5.1c0.2,2.2,0.4,4.9,0.7,7.9c0.1,1.5,0.3,3.1,0.4,4.9
						c0.2,1.7,0.4,3.5,0.6,5.4c0.2,1.9,0.4,3.8,0.6,5.8c0.2,2,0.5,4.1,0.8,6.2c0.5,4.3,1.1,8.8,1.8,13.4c0.3,2.3,0.7,4.7,1,7.1
						c0.2,1.2,0.3,2.4,0.5,3.6c0.2,1.2,0.4,2.4,0.6,3.6c0.7,4.9,1.5,9.8,2.3,14.8c0.8,4.9,1.7,9.9,2.5,14.7c0.4,2.4,0.8,4.8,1.3,7.2
						c0.4,2.4,0.9,4.7,1.3,7c0.8,4.6,1.7,9.1,2.5,13.3c0.8,4.2,1.6,8.2,2.4,11.9c0.8,3.7,1.5,7,2.2,10c0.7,3,1.3,5.6,1.8,7.7
						c0.5,2.1,0.9,3.8,1.2,4.9c0.3,1.1,0.5,1.7,0.5,1.7l0.3-0.1c0,0-0.1-0.6-0.3-1.8c-0.2-1.1-0.5-2.8-0.9-5
						c-0.7-4.3-1.7-10.5-3-17.9c-2.4-14.8-5.6-34.6-8.7-54.3c-3.2-19.8-6.4-39.5-8.7-54.4c-0.6-3.7-1.1-7.1-1.6-10.1
						c-0.5-3-0.8-5.6-1.2-7.8c-0.2-1.1-0.3-2-0.4-2.9c-0.1-0.8-0.2-1.6-0.3-2.1c-0.1-1.2-0.2-1.8-0.2-1.8L65.6,36.9z"/>
				</g>
				<g>
					<path class="st1" d="M76.4,50.5c0,0,0,0.1,0,0.4c0,0.3,0,0.7,0,1.2c0,1.1,0,2.6,0.1,4.6c0.1,2,0.2,4.4,0.4,7.1
						c0.2,2.7,0.4,5.8,0.8,9.2c0.3,3.4,0.7,7,1.1,10.9c0.4,3.9,0.9,7.9,1.4,12.1c0.3,2.1,0.5,4.2,0.8,6.4c0.1,1.1,0.3,2.2,0.4,3.3
						c0.2,1.1,0.3,2.2,0.5,3.3c0.6,4.4,1.3,8.8,2,13.3c0.7,4.4,1.5,8.9,2.2,13.3c0.7,4.4,1.5,8.7,2.3,12.8c0.7,4.2,1.6,8.2,2.3,12
						c0.7,3.8,1.5,7.4,2.3,10.7c0.7,3.3,1.4,6.3,2.1,9c0.6,2.7,1.3,5,1.8,6.9c0.3,1,0.5,1.8,0.7,2.5c0.2,0.7,0.4,1.4,0.6,1.9
						c0.1,0.3,0.2,0.5,0.2,0.7c0.1,0.2,0.1,0.4,0.2,0.5c0.1,0.3,0.2,0.4,0.2,0.4l0.3-0.1c0,0,0-0.1-0.1-0.4c0-0.1-0.1-0.3-0.2-0.5
						c0-0.2-0.1-0.4-0.2-0.7c-0.1-0.5-0.3-1.1-0.4-1.9c-0.2-0.7-0.3-1.6-0.5-2.6c-0.4-1.9-0.8-4.3-1.3-7c-0.5-2.7-1-5.8-1.6-9.1
						c-2.3-13.3-5.1-31.1-7.8-48.9c-2.8-17.8-5.5-35.6-7.4-49c-1-6.7-1.7-12.3-2.2-16.2c-0.2-2-0.4-3.5-0.5-4.5
						c-0.1-0.5-0.1-0.9-0.1-1.2c0-0.3,0-0.4,0-0.4L76.4,50.5z"/>
				</g>
				<g>
					<path class="st1" d="M70.6,39.3c0,0,0,0.6,0.1,1.7c0,1.1,0.1,2.7,0.2,4.7c0.1,2,0.2,4.5,0.4,7.3c0.2,2.8,0.4,6,0.7,9.4
						c0.1,1.7,0.3,3.5,0.4,5.4c0.1,1.9,0.3,3.8,0.5,5.7c0.4,3.9,0.7,8.1,1.2,12.4c0.2,2.1,0.5,4.3,0.7,6.5c0.1,1.1,0.2,2.2,0.4,3.3
						c0.1,1.1,0.3,2.2,0.4,3.4c0.6,4.5,1.2,9.1,1.7,13.6c0.7,4.6,1.3,9.1,2,13.6c0.3,2.2,0.7,4.5,1,6.7c0.4,2.2,0.7,4.4,1.1,6.5
						c0.7,4.3,1.5,8.4,2.2,12.3c0.7,3.9,1.5,7.6,2.2,11c0.7,3.4,1.5,6.5,2.2,9.2c0.7,2.7,1.4,5.1,2,7c0.6,1.9,1.2,3.4,1.7,4.4
						c0.1,0.2,0.2,0.5,0.3,0.7c0.1,0.2,0.2,0.3,0.3,0.5c0.2,0.2,0.3,0.3,0.3,0.3l0.2-0.2c0,0-0.1-0.1-0.2-0.3
						c-0.1-0.1-0.1-0.3-0.2-0.4c-0.1-0.2-0.2-0.4-0.3-0.6c-0.4-1-0.8-2.5-1.3-4.5c-0.9-3.9-2-9.6-3.1-16.4
						c-2.3-13.6-4.9-31.8-7.3-50.1c-5-36.5-9.4-73-9.4-73L70.6,39.3z"/>
				</g>
				<g>
					<path class="st1" d="M75,46.2c0,0,0.1,0.6,0.2,1.6c0.1,1,0.2,2.6,0.5,4.6c0.2,2,0.5,4.3,0.9,7.1c0.4,2.7,0.8,5.8,1.3,9.1
						c0.2,1.7,0.5,3.4,0.8,5.2c0.3,1.8,0.6,3.6,0.9,5.6c0.6,3.8,1.3,7.8,2,12c0.4,2.1,0.8,4.2,1.1,6.3c0.2,1.1,0.4,2.1,0.6,3.2
						c0.2,1.1,0.4,2.2,0.6,3.2c0.9,4.3,1.7,8.7,2.6,13.2c1,4.4,1.9,8.8,2.9,13.1c0.5,2.2,1,4.3,1.5,6.4c0.5,2.1,1,4.2,1.5,6.2
						c1,4.1,2,8,3,11.8c1,3.7,2,7.3,2.9,10.5c0.9,3.2,1.9,6.2,2.7,8.8c0.9,2.6,1.7,4.9,2.4,6.7c0.7,1.9,1.4,3.3,1.9,4.2
						c0.3,0.5,0.5,0.8,0.7,1.1c0.2,0.2,0.3,0.3,0.3,0.3l0.2-0.2c0,0-0.1-0.1-0.2-0.3c-0.1-0.2-0.3-0.6-0.5-1c-0.4-1-0.9-2.4-1.5-4.3
						c-1.2-3.7-2.6-9.2-4.2-15.7c-3.1-13.1-6.9-30.7-10.5-48.3c-7.4-35.2-14.2-70.4-14.2-70.4L75,46.2z"/>
				</g>
				<g>
					<path class="st1" d="M68.1,7.5c0,0,0.2,0,0.5,0.2c0.3,0.2,0.7,0.5,1.1,1c0.8,1,1.8,2.7,2.7,5c1,2.3,2,5.1,3,8.5
						c0.5,1.7,1,3.4,1.5,5.3c0.5,1.9,1.1,3.9,1.6,5.9c0.5,2.1,1.1,4.2,1.6,6.5c0.6,2.3,1.1,4.6,1.7,7c1.1,4.8,2.3,9.9,3.5,15.1
						c0.6,2.6,1.2,5.3,1.8,8c0.3,1.4,0.6,2.7,0.9,4.1c0.3,1.4,0.6,2.7,0.9,4.1c1.2,5.5,2.4,11.1,3.6,16.7c1.2,5.6,2.4,11.2,3.6,16.8
						c0.6,2.8,1.2,5.5,1.7,8.2c0.6,2.7,1.1,5.4,1.7,8c2.2,10.5,4.3,20.4,6.1,28.8c0.9,4.2,1.7,8.1,2.5,11.5c0.7,3.4,1.3,6.4,1.8,8.9
						c0.5,2.5,0.9,4.4,1,5.7c0.1,0.7,0.2,1.2,0.2,1.5c0,0.2,0,0.3,0,0.4c0,0,0,0,0,0c0,0,0,0,0,0l0.2,0.2c0.2-0.1,0.2-0.8,0.1-2.2
						c-0.1-1.3-0.3-3.3-0.7-5.8c-0.7-5-1.8-12.1-3.3-20.6c-2.9-17-7.2-39.6-11.9-62.1c-4.8-22.5-10.2-44.9-15.2-61.4
						c-2.5-8.3-4.9-15-7.2-19.6c-1.1-2.3-2.2-4-3.2-4.9c-0.5-0.5-0.9-0.8-1.3-1c-0.3-0.2-0.5-0.2-0.5-0.2L68.1,7.5z"/>
				</g>
				<g>
					<path class="st1" d="M63.6,41.4c0,0,0.1,0.6,0.1,1.6c0.1,1,0.2,2.6,0.5,4.5c0.2,2,0.5,4.3,0.8,7c0.3,2.7,0.7,5.8,1.3,9.1
						c0.2,1.7,0.5,3.4,0.8,5.2c0.3,1.8,0.6,3.6,0.9,5.5c0.6,3.8,1.3,7.8,2.1,12c0.4,2.1,0.8,4.2,1.2,6.3c0.2,1.1,0.4,2.1,0.6,3.2
						c0.2,1.1,0.4,2.2,0.7,3.2c0.9,4.3,1.8,8.7,2.8,13.1c1,4.4,2.1,8.7,3.1,13c0.5,2.2,1.1,4.3,1.7,6.4c0.6,2.1,1.1,4.2,1.7,6.2
						c1.1,4.1,2.3,8,3.5,11.7c1.2,3.7,2.4,7.2,3.6,10.3c1.2,3.2,2.4,6.1,3.5,8.6c1.1,2.5,2.2,4.7,3.2,6.4c1,1.7,1.9,3,2.6,3.8
						c0.3,0.4,0.6,0.7,0.8,0.9c0.2,0.2,0.3,0.3,0.3,0.3l0.2-0.2c0,0-0.1-0.1-0.3-0.3c-0.2-0.2-0.4-0.5-0.7-1c-0.6-0.9-1.4-2.2-2.2-4
						c-1.7-3.5-3.7-8.8-5.7-15.2c-4.1-12.8-8.4-30.2-12.3-47.7c-8-35-14.4-70.2-14.4-70.2L63.6,41.4z"/>
				</g>
				<g>
					<path class="st1" d="M89.9,62c0,0,0,0.3,0,0.7c0,0.5-0.1,1.2-0.1,2.1c0,0.9-0.1,2,0,3.2c0,1.2,0,2.6,0.1,4.2
						c0,1.5,0.1,3.2,0.2,4.9c0.1,1.7,0.2,3.6,0.3,5.4c0.2,1.9,0.3,3.8,0.5,5.8c0.2,2,0.4,4,0.6,6c0.2,2,0.4,4,0.7,5.9
						c0.2,2,0.5,3.9,0.8,5.7c0.2,1.9,0.5,3.7,0.8,5.4c0.1,0.9,0.2,1.7,0.3,2.5c0.1,0.8,0.3,1.6,0.4,2.3c0.1,0.7,0.2,1.5,0.3,2.1
						c0.1,0.7,0.2,1.3,0.3,1.9c0.1,1.2,0.3,2.3,0.4,3.1c0.1,0.9,0.2,1.6,0.2,2c0.1,0.5,0.1,0.7,0.1,0.7l0.3,0c0,0,0.1-1,0.3-2.8
						c0-0.9,0-2,0.1-3.2c0-1.2,0-2.6-0.1-4.1c0-1.5-0.2-3.2-0.2-4.9c-0.1-1.7-0.3-3.6-0.4-5.4c-0.2-1.9-0.3-3.8-0.5-5.8
						c-0.2-2-0.4-4-0.6-6c-0.9-8-1.9-16-2.8-22c-0.4-3-0.8-5.5-1.1-7.2c-0.3-1.7-0.4-2.7-0.4-2.7L89.9,62z"/>
				</g>
				<g>
					<path class="st1" d="M78.8,54.5c0,0,0,0.5,0.1,1.3c0.1,0.8,0.2,2.1,0.3,3.7c0.2,1.6,0.4,3.5,0.6,5.7c0.1,1.1,0.3,2.3,0.4,3.5
						c0.2,1.2,0.4,2.5,0.5,3.9c0.2,1.3,0.4,2.7,0.6,4.2c0.2,1.4,0.5,2.9,0.7,4.5c0.5,3.1,1,6.3,1.7,9.6c0.3,1.7,0.6,3.4,0.9,5.1
						c0.2,0.9,0.3,1.7,0.5,2.6c0.2,0.9,0.4,1.7,0.5,2.6c0.7,3.5,1.5,7,2.2,10.6c0.8,3.5,1.6,7,2.5,10.5c0.4,1.7,0.8,3.4,1.3,5.1
						c0.4,1.7,0.9,3.4,1.3,5c0.9,3.3,1.7,6.4,2.6,9.4c0.9,3,1.7,5.8,2.6,8.4c0.8,2.6,1.6,5,2.4,7c0.8,2.1,1.4,3.9,2.1,5.4
						c0.6,1.5,1.2,2.6,1.5,3.4c0.4,0.8,0.5,1.2,0.5,1.2l0.3-0.1c0,0-0.6-1.7-1.5-4.7c-0.5-1.5-1-3.4-1.6-5.5
						c-0.6-2.1-1.2-4.5-1.9-7.1c-0.7-2.6-1.4-5.5-2.1-8.5c-0.8-3-1.5-6.2-2.3-9.5c-0.8-3.3-1.5-6.7-2.3-10.2
						c-0.8-3.5-1.6-7-2.3-10.5c-1.6-7.1-3.1-14.1-4.5-20.7c-1.4-6.6-2.7-12.8-3.8-18.1c-2.2-10.6-3.6-17.7-3.6-17.7L78.8,54.5z"/>
				</g>
				<g>
					<path class="st1" d="M59.4,52.8c0,0,0,0.6,0,1.6c0,1.1-0.1,2.6-0.1,4.6c0,2,0,4.4,0.1,7.2c0.1,2.8,0.1,5.9,0.3,9.3
						c0.1,1.7,0.2,3.5,0.3,5.3c0.1,1.8,0.2,3.7,0.4,5.7c0.3,3.9,0.6,8,1.1,12.3c0.2,2.1,0.5,4.3,0.7,6.5c0.2,2.2,0.5,4.4,0.8,6.6
						c0.6,4.4,1.3,9,2,13.5c0.8,4.5,1.6,9,2.6,13.4c0.4,2.2,0.9,4.4,1.5,6.5c0.5,2.1,1.1,4.3,1.6,6.3c1.1,4.2,2.3,8.1,3.5,11.9
						c1.2,3.7,2.6,7.2,3.9,10.4c1.3,3.2,2.8,6,4.1,8.5c1.4,2.5,2.7,4.5,3.9,6.1c0.6,0.8,1.2,1.5,1.7,2.1c0.5,0.6,1,1.1,1.3,1.5
						c0.8,0.8,1.2,1.2,1.2,1.2l0.2-0.2c0,0-0.4-0.4-1.1-1.2c-0.3-0.4-0.7-0.9-1.2-1.5c-0.4-0.6-1-1.3-1.5-2.2
						c-1.1-1.7-2.3-3.8-3.4-6.2c-1.2-2.5-2.4-5.4-3.6-8.5c-2.4-6.4-4.6-14-6.6-22.3c-2-8.3-3.7-17.2-5.2-26.1
						C64.9,107,62.8,89,61.5,75.4c-1.3-13.5-1.8-22.6-1.8-22.6L59.4,52.8z"/>
				</g>
			</g>
		</g>
	</g>
</g>
</svg>
