<?xml version="1.0" encoding="utf-8"?>
<!-- Generator: Adobe Illustrator 19.0.1, SVG Export Plug-In . SVG Version: 6.00 Build 0)  -->
<svg version="1.1" id="Layer_1" xmlns="http://www.w3.org/2000/svg" xmlns:xlink="http://www.w3.org/1999/xlink" x="0px" y="0px"
	 viewBox="0 0 200 200" style="enable-background:new 0 0 200 200;" xml:space="preserve">
<style type="text/css">
	.st0{fill:#352924;}
	.st1{fill:#3D3123;}
	.st2{fill:#96805E;}
	.st3{fill:#6B604E;}
	.st4{fill:#B5AC9C;}
</style>
<g>
	<g>
		<path class="st0" d="M18.3,66.9c0,0-19.2,23.2,0,47.4c0,0,9.4,38.4,33.5,40.7c0,0,21.4,2.7,130.4-41.1c0,0,25.5-13,13.8-43.8
			c0,0-5.8-31.3-31.3-33.1C164.8,37,38,54.9,18.3,66.9z"/>
		<path class="st0" d="M21,71.8c0,0-17.9,22.3,4.9,58.5c0,0,21.4,37.1,39.3,15.2c0,0,16.1-31.3-5.4-58.5C59.9,87,50.5,66.9,21,71.8z
			"/>
		<path class="st0" d="M190.3,105.3c0,0-63.3,17.9-69.4,14.3c0,0,43-12.5,41.7-14.3c-1.3-1.8,3.1-13.4-46.5-3.6
			c0,0,0.9-9.5,7.6-11.4c0,0-2.8,0-17.9-2c-6.6-0.9,25.9-3.6,33.5-13c7.6-9.4-4.9-7.1-6.7-7.1s-24.1-1.8-46.9,5.4
			s-19.2,6.7-19.2,6.7S69.2,69.2,83.1,66c13.8-3.1,43.8-17.9,58.5-15.2c14.7,2.7,30.8-6.7,39.3-4.9S205.1,91,190.3,105.3z"/>
		<path class="st0" d="M62.7,103.1c5.8,15.3,5,38.1-5.7,42.4c-10.7,4.2-26.3-14.1-33.1-27c-13.5-18.6-5-38.1,5.7-42.4
			C40.3,71.9,61.6,89,62.7,103.1z"/>
		<path class="st0" d="M60.5,103.9c5.2,13.7,4.5,34.1-5.1,37.9c-9.6,3.8-23.5-12.6-29.6-24.2c-12.1-16.7-4.5-34.1,5.1-37.9
			C40.5,76,59.5,91.3,60.5,103.9z"/>
		<path class="st0" d="M58.8,104.5c4.8,12.5,4.1,31.1-4.6,34.5c-8.7,3.4-21.4-11.5-27-22c-11-15.2-4.1-31.1,4.6-34.5
			C40.6,79.1,57.9,93,58.8,104.5z"/>
	</g>
	<g>
		<g>
			<path class="st1" d="M13.9,70.9c0,0-19.2,23.2,0,47.4c0,0,9.4,38.4,33.5,40.7c0,0,21.4,2.7,130.4-41.1c0,0,25.5-13,13.8-43.8
				c0,0-5.8-31.3-31.3-33.1C160.4,41,33.5,58.9,13.9,70.9z"/>
			<path class="st2" d="M16.5,75.9c0,0-17.9,22.3,4.9,58.5c0,0,21.4,37.1,39.3,15.2c0,0,16.1-31.3-5.4-58.5
				C55.4,91,46,70.9,16.5,75.9z"/>
			<path class="st3" d="M185.8,109.4c0,0-63.3,17.9-69.4,14.3c0,0,43-12.5,41.7-14.3c-1.3-1.8,3.1-13.4-46.5-3.6
				c0,0,0.9-9.5,7.6-11.4c0,0-2.8,0-17.9-2c-6.6-0.9,25.9-3.6,33.5-13c7.6-9.4-4.9-7.1-6.7-7.1c-1.8,0-24.1-1.8-46.9,5.4
				s-19.2,6.7-19.2,6.7s2.7-11.2,16.5-14.3c13.8-3.1,43.8-17.9,58.5-15.2c14.7,2.7,30.8-6.7,39.3-4.9S200.6,95.1,185.8,109.4z"/>
			<path class="st4" d="M58.3,107.1c5.8,15.3,5,38.1-5.7,42.4c-10.7,4.2-26.3-14.1-33.1-27c-13.5-18.6-5-38.1,5.7-42.4
				C35.9,75.9,57.2,93,58.3,107.1z"/>
			<path class="st2" d="M56,108c5.2,13.7,4.5,34.1-5.1,37.9c-9.6,3.8-23.5-12.6-29.6-24.2C9.2,105,16.8,87.6,26.4,83.8
				C36,80,55.1,95.3,56,108z"/>
			<path class="st4" d="M54.4,108.6c4.8,12.5,4.1,31.1-4.6,34.5c-8.7,3.4-21.4-11.5-27-22c-11-15.2-4.1-31.1,4.6-34.5
				C36.1,83.1,53.5,97,54.4,108.6z"/>
		</g>
	</g>
</g>
</svg>
