<?xml version="1.0" encoding="utf-8"?>
<!-- Generator: Adobe Illustrator 19.0.1, SVG Export Plug-In . SVG Version: 6.00 Build 0)  -->
<svg version="1.1" id="Layer_1" xmlns="http://www.w3.org/2000/svg" xmlns:xlink="http://www.w3.org/1999/xlink" x="0px" y="0px"
	 viewBox="0 0 200 200" style="enable-background:new 0 0 200 200;" xml:space="preserve">
<style type="text/css">
	.st0{fill:#352924;}
	.st1{fill:#878787;}
	.st2{fill:#B5AC9C;}
	.st3{fill:#6D6D6C;}
</style>
<g>
	<g>
		<path class="st0" d="M38.5,51.8c-4.5,4.2-10.4,6.5-17.3,29.5S7.1,117,9,128.1c1.9,11.1,40.6,16.5,42.6,11.9
			c1.9-4.6,28.4,1,25.3,1.6s67.9,1,67.1-2.8c0,0,54.4-1.2,47.9-15.7c0,0,3.1-15.3,6.5-18.4c3.5-3.1-6.5-18-28.4-26.1
			c0,0-28.4-16.9-53.3-11.9c0,0-17.6-8.1-28.8-3.5C88,63.3,43,47.6,38.5,51.8z"/>
		<path class="st0" d="M69.2,57.5c0,0,33.9,23.4,39,8.1c0,0-10.7-6.3-19.5-1.4L69.2,57.5z"/>
		<path class="st0" d="M116.7,67.9c0,0,0,3.5,6.1,2.9s4.2-2.9,4.2-2.9S122.1,67.1,116.7,67.9z"/>
		<path class="st0" d="M114.8,81.3c0,0,15.7,6.9,18.4,0c0,0,30.7,16.9,41.8,10c0,0,18.4-11.5-33.4-13
			C141.6,78.2,109.4,71.3,114.8,81.3z"/>
		<path class="st0" d="M24.3,109.7c0,0-2.3,14.6,6.1,14.6s52.1-10.7,150.7-1.9c0,0,15.7-17.3-14.6-15.7
			C136.3,108.1,89.9,102.4,24.3,109.7z"/>
		<path class="st0" d="M26.6,102.8c0,0,137.6,4.6,163.3,0c25.7-4.6-77.1-12.7-77.1-10c0,2.7-16.1-0.4-17.3-3.8
			c-1.2-3.5-40.6-12.3-44.9,0c0,0-5,0.7-6.1,5.9C44.7,94.9,24.3,96.3,26.6,102.8z"/>
		<path class="st0" d="M20.1,89c0,0,5.8,45.6,15.3,49.8s-24.5-5.4-26.8-15.3"/>
	</g>
	<g>
		<g>
			<path class="st1" d="M34.7,55.2c-4.5,4.2-10.4,6.5-17.3,29.5S3.3,120.4,5.2,131.5c1.9,11.1,40.6,16.5,42.6,11.9
				c1.9-4.6,28.4,1,25.3,1.6c-3.1,0.7,67.9,1,67.1-2.8c0,0,54.4-1.2,47.9-15.7c0,0,3.1-15.3,6.5-18.4c3.5-3.1-6.5-18-28.4-26.1
				c0,0-28.4-16.9-53.3-11.9c0,0-17.6-8.1-28.8-3.5C84.1,66.7,39.1,51,34.7,55.2z"/>
			<path class="st2" d="M65.4,61c0,0,33.9,23.4,39,8.1c0,0-10.7-6.3-19.5-1.4L65.4,61z"/>
			<path class="st2" d="M112.9,71.3c0,0,0,3.5,6.1,2.9c6.1-0.6,4.2-2.9,4.2-2.9S118.3,70.6,112.9,71.3z"/>
			<path class="st2" d="M111,84.8c0,0,15.7,6.9,18.4,0c0,0,30.7,16.9,41.8,10c0,0,18.4-11.5-33.4-13C137.8,81.7,105.6,74.8,111,84.8
				z"/>
			<path class="st2" d="M20.5,113.1c0,0-2.3,14.6,6.1,14.6s52.1-10.7,150.7-1.9c0,0,15.7-17.3-14.6-15.7
				C132.4,111.6,86.1,105.8,20.5,113.1z"/>
			<path class="st3" d="M22.8,106.2c0,0,137.6,4.6,163.3,0c25.7-4.6-77.1-12.7-77.1-10S93,95.9,91.8,92.4s-40.6-12.3-44.9,0
				c0,0-5,0.7-6.1,5.9C40.8,98.3,20.5,99.7,22.8,106.2z"/>
			<path class="st3" d="M16.3,92.4c0,0,5.8,45.6,15.3,49.8s-24.5-5.4-26.8-15.3"/>
		</g>
	</g>
</g>
</svg>
