<?xml version="1.0" encoding="utf-8"?>
<!-- Generator: Adobe Illustrator 19.0.1, SVG Export Plug-In . SVG Version: 6.00 Build 0)  -->
<svg version="1.1" id="Layer_1" xmlns="http://www.w3.org/2000/svg" xmlns:xlink="http://www.w3.org/1999/xlink" x="0px" y="0px"
	 viewBox="0 0 200 200" style="enable-background:new 0 0 200 200;" xml:space="preserve">
<style type="text/css">
	.st0{fill:#352924;}
	.st1{fill:#3D3123;}
	.st2{fill:#96805E;}
	.st3{fill:#B5AC9C;}
	.st4{fill:#6B604E;}
</style>
<g>
	<g>
		<path class="st0" d="M49.2,16.3c0,0,2.2,149,0,153.9s33.2,17.9,36.4,15.2c0,0,45.1,13.6,47.8-3.8c0,0,19,1.1,19.6-10.9
			c0,0,2.7-134.8,8.7-149.5c0,0-0.5-9.8-3.8-9.8c0,0-85.9-12-94.1-6C63.9,5.4,49.1,11.4,49.2,16.3z"/>
		<path class="st0" d="M57.9,12c0,0-20.7,6.5,22.8,10.9c0,0,60.4,3.8,56.5-5.4c0,0,13.6-4.3,17.4-2.7c0,0,15.8-3.3-10.3-6
			c0,0-42.9-2.2-42.9,0C101.5,8.7,75.3,0.5,57.9,12z"/>
		<path class="st0" d="M60.2,12.2c0,0-18.8,5.9,20.7,9.9c0,0,54.8,3.5,51.3-4.9c0,0,12.3-3.9,15.8-2.5c0,0,14.3-3-9.4-5.4
			c0,0-38.9-2-39,0C99.7,9.3,76,1.8,60.2,12.2z"/>
		<path class="st0" d="M65.6,12.7c0,0-15.3,4.8,17,8.1c0,0,44.8,2.8,42-4c0,0,10.1-3.2,12.9-2c0,0,11.7-2.4-7.7-4.4
			c0,0-31.8-1.6-31.9,0C97.9,10.3,78.5,4.2,65.6,12.7z"/>
		<path class="st0" d="M78.8,13.6c0,0-8.4,2.7,9.3,4.4c0,0,24.6,1.6,23.1-2.2c0,0,5.5-1.8,7.1-1.1c0,0,6.4-1.3-4.2-2.4
			c0,0-17.5-0.9-17.5,0C96.5,12.3,85.9,8.9,78.8,13.6z"/>
		<path class="st0" d="M55.7,41.9c0,0-1.9,132.1,21.1,139.2c23,7.1,64.6-3.3,64.2-8.2c-0.4-4.9,17-93.5,8.3-105.5
			c0,0-3.3,34.3-11.4,34.8c-8.2,0.5-4.9-70.1-4.9-70.1s-50,2.7-51.1-3.3c0,0,7.8,80.5-5.1,72.9C76.8,101.7,66.6,57.1,55.7,41.9z"/>
	</g>
	<g>
		<g>
			<path class="st1" d="M43.8,21.2c0,0,2.2,149,0,153.9s33.2,17.9,36.4,15.2c0,0,45.1,13.6,47.8-3.8c0,0,19,1.1,19.6-10.9
				c0,0,2.7-134.8,8.7-149.5c0,0-0.5-9.8-3.8-9.8c0,0-85.9-12-94.1-6C58.5,10.3,43.7,16.3,43.8,21.2z"/>
			<path class="st2" d="M52.5,16.9c0,0-20.7,6.5,22.8,10.9c0,0,60.4,3.8,56.5-5.4c0,0,13.6-4.3,17.4-2.7c0,0,15.8-3.3-10.3-6
				c0,0-42.9-2.2-42.9,0C96,13.6,69.9,5.4,52.5,16.9z"/>
			<path class="st3" d="M54.7,17.1c0,0-18.8,5.9,20.7,9.9c0,0,54.8,3.5,51.3-4.9c0,0,12.3-3.9,15.8-2.5c0,0,14.3-3-9.4-5.4
				c0,0-38.9-2-39,0C94.3,14.1,70.5,6.7,54.7,17.1z"/>
			<path class="st2" d="M60.2,17.6c0,0-15.3,4.8,17,8.1c0,0,44.8,2.8,42-4c0,0,10.1-3.2,12.9-2c0,0,11.7-2.4-7.7-4.4
				c0,0-31.8-1.6-31.9,0C92.5,15.1,73.1,9.1,60.2,17.6z"/>
			<path class="st3" d="M73.3,18.5c0,0-8.4,2.7,9.3,4.4c0,0,24.6,1.6,23.1-2.2c0,0,5.5-1.8,7.1-1.1c0,0,6.4-1.3-4.2-2.4
				c0,0-17.5-0.9-17.5,0C91.1,17.2,80.4,13.8,73.3,18.5z"/>
			<path class="st4" d="M50.3,46.8c0,0-1.9,132.1,21.1,139.2c23,7.1,64.6-3.3,64.2-8.2c-0.4-4.9,17-93.5,8.3-105.5
				c0,0-3.3,34.3-11.4,34.8c-8.2,0.5-4.9-70.1-4.9-70.1s-50,2.7-51.1-3.3c0,0,7.8,80.5-5.1,72.9C71.3,106.6,61.2,62,50.3,46.8z"/>
		</g>
	</g>
</g>
</svg>
