<?xml version="1.0" encoding="utf-8"?>
<!-- Generator: Adobe Illustrator 19.0.1, SVG Export Plug-In . SVG Version: 6.00 Build 0)  -->
<svg version="1.1" id="Layer_1" xmlns="http://www.w3.org/2000/svg" xmlns:xlink="http://www.w3.org/1999/xlink" x="0px" y="0px"
	 viewBox="0 0 200 200" style="enable-background:new 0 0 200 200;" xml:space="preserve">
<style type="text/css">
	.st0{fill:#352924;}
	.st1{fill:#878787;}
	.st2{fill:#B5AC9C;}
	.st3{fill:#6D6D6C;}
</style>
<g>
	<g>
		<path class="st0" d="M41.3,42.8c0,0-8.9,2.6-20.9,29.2c0,0-10.3,19.5-10.9,24.6c0,0-4,13.7,19.8,13.7c0,0,13.5,18.9,26.6,18.9
			c0,0,43.8-6.6,49.8,4.9c0,0,17.2,30.1,51.3,12.3c0,0,11.5,3.7,17.8-7.2c0,0,13.5-3.2,16.3-17.5c0,0,0.9-19.2,3.7-27.2
			c0,0,7.7-24.3-1.1-25.8c0,0-13.2-8.9-31.5-8.6l-7.7-2.6c0,0-13.2-0.6-13.2-1.7s-12.9-3.7-12.9-3.7s-8.9-2.9-9.5-2
			c0,0-12.1-1.9-16.5-3.1c0,0-22.7-4.6-24.2-2.9C78.2,44.2,46.2,39.2,41.3,42.8z"/>
		<path class="st0" d="M40.4,44.5c0,0-30.9,25.8,32.4,27.8c0,0,14.3,7.7,37.2,3.4c0,0,9.7,2.6,7.2,4c0,0,5.2,8.3,24.9,0
			c0,0-14.9,6.3-10,18.3c0,0,28.1,25.2,51.6-2.6c0,0-5.2-13.3,2.3-19c0,0,12.9-9.7-3.7-13.1C182.2,63.4,53.9,41.4,40.4,44.5z"/>
		<path class="st0" d="M28.1,107c0-0.6,14.6-13.5,22.9-10c0,0,14.9-6.3,14-8s15.2-1.7,14.6,0c0,0,4-6,12.9-4c0,0,28.9-3.2,12.9,20
			c0,0-30.6,26.6-33.5,22.1c0,0-21.5,8.6-22.3-5.4c0,0-6-4.9-5.4-9.7C44.1,111.8,27.8,111.8,28.1,107z"/>
		<path class="st0" d="M112.9,134.5c0,0,29.5,11.5,49-26.6c0,0,8-8.6,14.3,1.4c0,0,14,40.7-35.2,36.9
			C140.9,146.3,120.3,146.9,112.9,134.5z"/>
		<path class="st0" d="M25.2,79.5c0,0,18.6-13.6,51.3,1.8C76.5,81.2,30.7,89.2,25.2,79.5z"/>
	</g>
	<g>
		<g>
			<path class="st1" d="M37.7,46c0,0-8.9,2.6-20.9,29.2c0,0-10.3,19.5-10.9,24.6c0,0-4,13.7,19.8,13.7c0,0,13.5,18.9,26.6,18.9
				c0,0,43.8-6.6,49.8,4.9c0,0,17.2,30.1,51.3,12.3c0,0,11.5,3.7,17.8-7.2c0,0,13.5-3.2,16.3-17.5c0,0,0.9-19.2,3.7-27.2
				c0,0,7.7-24.3-1.1-25.8c0,0-13.2-8.9-31.5-8.6l-7.7-2.6c0,0-13.2-0.6-13.2-1.7s-12.9-3.7-12.9-3.7s-8.9-2.9-9.5-2
				c0,0-12.1-1.9-16.5-3.1c0,0-22.7-4.6-24.2-2.9C74.7,47.4,42.7,42.4,37.7,46z"/>
			<path class="st2" d="M36.8,47.7c0,0-30.9,25.8,32.4,27.8c0,0,14.3,7.7,37.2,3.4c0,0,9.7,2.6,7.2,4c0,0,5.2,8.3,24.9,0
				c0,0-14.9,6.3-10,18.3c0,0,28.1,25.2,51.6-2.6c0,0-5.2-13.3,2.3-19c0,0,12.9-9.7-3.7-13.1C178.6,66.6,50.3,44.6,36.8,47.7z"/>
			<path class="st2" d="M24.5,110.2c0-0.6,14.6-13.5,22.9-10c0,0,14.9-6.3,14-8c-0.9-1.7,15.2-1.7,14.6,0c0,0,4-6,12.9-4
				c0,0,28.9-3.2,12.9,20c0,0-30.6,26.6-33.5,22.1c0,0-21.5,8.6-22.3-5.4c0,0-6-4.9-5.4-9.7C40.6,115,24.2,115,24.5,110.2z"/>
			<path class="st3" d="M109.3,137.8c0,0,29.5,11.5,49-26.6c0,0,8-8.6,14.3,1.4c0,0,14,40.7-35.2,36.9
				C137.4,149.5,116.8,150.1,109.3,137.8z"/>
			<path class="st3" d="M21.7,82.7c0,0,18.6-13.6,51.3,1.8C72.9,84.5,27.1,92.4,21.7,82.7z"/>
		</g>
	</g>
</g>
</svg>
