<?xml version="1.0" encoding="utf-8"?>
<!-- Generator: Adobe Illustrator 19.0.1, SVG Export Plug-In . SVG Version: 6.00 Build 0)  -->
<svg version="1.1" id="Layer_1" xmlns="http://www.w3.org/2000/svg" xmlns:xlink="http://www.w3.org/1999/xlink" x="0px" y="0px"
	 viewBox="0 0 200 200" style="enable-background:new 0 0 200 200;" xml:space="preserve">
<style type="text/css">
	.st0{fill:#20300A;}
	.st1{fill:#7A9243;}
	.st2{fill:#374A2C;}
	.st3{opacity:0.28;}
	.st4{opacity:0.83;}
	.st5{fill:#3C5F14;}
</style>
<g>
	<path class="st0" d="M191.9,111c-1.2-3-3.7-5.3-5.6-8c-1.9-2.7-3.2-6.2-1.7-9.1c1.2-2.4,4.1-3.8,4.8-6.5c0.4-1.8-0.3-3.6-1.2-5.2
		c-1.8-3.2-4.3-6-7-8.5c0.8-1.1,1.6-2.2,2.3-3.4l-0.1-0.2c-2.7-2.2-6.2-3.4-9.7-3.2c-0.2,0-0.4,0-0.7,0c-1.3-1-2.7-1.8-4.2-2.3
		c-0.2-1.1,0.1-2.3,0.3-3.4c1.4-5.9,1-12.5-2.7-17.2c-3.8-4.7-11.6-6.3-15.9-2c-0.9,0.9-2.1,2.2-3.3,1.7c-0.6-0.2-1-0.9-1.4-1.5
		c-3.5-5.2-11.8-6.1-16.4-1.9c1-2.5,0.2-5.4-1.4-7.6c-1.6-2.1-4-3.6-6.3-4.9c-3.7-2.1-7.6-4-11.7-5.3c-6.3-1.9-13-2.1-19.4-0.7
		c-0.8,0.2-1.6,0.4-2.2,0.9c-2.5,2-0.1,5.8,0.4,9c0.4,3.1-1.6,6.3-4.5,7.3c-3,1-6.5-0.4-8-3.2c-0.8-1.4-1-3.1-2.1-4.3
		c-1.9-2.1-5.6-1.3-7.6,0.7c-2,2.1-2.7,4.9-3.5,7.7c-0.8,2.7-1.8,5.6-4.1,7.3c-1.2,0.8-2.6,1.3-3.6,2.3c-2,1.9-1.9,5.1-2.1,7.8
		c-0.1,1.1-0.2,2.3-0.9,3.3c-1.2,1.6-3.6,1.8-5.6,1.4s-4-1.2-6-1c-1.1,0.1-2.1,0.5-2.9,1.2c-0.3,0-0.7,0.1-1,0.3
		c-0.5,0.4-0.7,0.9-0.8,1.5c-1.3,1.9-1.8,4.4-1.4,6.7c0.2,1,0.5,1.9,0.8,2.8c-4.8,0.2-9.6,0.2-14.4,0c-0.3,6,0.9,12,3.4,17.5
		c-3.9-0.8-9.1-0.9-10.7,2.8c-0.6,1.5-0.3,3.2-0.4,4.9c-0.1,2.3-0.7,5,0.7,6.8c1.1,1.5,3.4,2.1,4,3.9c0.8,2.4-1.9,4.3-3.9,5.9
		c-3.8,3.2-5.4,8.7-4,13.4c0.3,1,0.7,1.9,1.5,2.5c3,1.9,6.1-3.3,9.6-3.2c-2.3,4,0.1,9.9,4.5,11.2c5.3,1.6,10.3-2.6,15.2-5.2
		c5.2-2.8,11.4-3.8,17.2-2.9c1.1,0.2,2.5,0.9,2.1,2c-0.2,0.6-0.8,0.8-1.4,1c-2.9,1-5.6,2.3-8.2,4c-1.7,1.1-3.4,3-2.5,4.8
		c0.6,1.1,2,1.5,3.2,1.7c4.8,0.9,9.6,1.9,14.4,2.8c5.8,1.1,11.8,2.3,17.6,1c5.8-1.3,10.9-5.2,13.9-10.3c0.1,0.1,0.3,0.2,0.4,0.3
		c0.2,0.1,0.5,0.3,0.7,0.4l0.2,0.1l0.1,0l0.1,0.1l0.3,0.1c0.1,0.1,0.4,0.2,0.7,0.3c0.3,0.1,0.4,0.2,0.6,0.3c0.7,0.3,1.4,0.6,1.9,0.8
		c-0.1,1.4-0.2,2.8-0.4,4.2c-0.1,2-0.3,3.9-0.4,5.7c-0.1,1.9-0.2,3.7-0.3,5.4c0,0.9-0.1,1.7-0.1,2.5c0,0.8-0.1,1.6-0.1,2.4
		c0,1.6-0.1,3.1-0.1,4.5c0,1.4,0,2.7-0.1,3.9c0,1.2,0,2.3,0,3.3c0,2,0.1,3.6,0.1,4.7c0,1.1,0,1.7,0,1.7l16.5-1.1
		c0,0-0.1-0.5-0.2-1.6c-0.1-1-0.3-2.5-0.5-4.5c-0.1-1-0.2-2-0.3-3.2c-0.1-1.2-0.2-2.4-0.3-3.8c-0.1-1.3-0.2-2.8-0.3-4.3
		c-0.1-1.5-0.2-3.1-0.3-4.8c-0.1-1.7-0.2-3.4-0.3-5.2c-0.1-1.8-0.2-3.6-0.2-5.6c-0.1-1.4-0.1-2.8-0.1-4.2c0.2-0.1,0.5-0.2,0.7-0.4
		c0.1,0.4,0.1,0.8,0.1,1.1l0.6-0.7c-0.5,3.1,3.5,5.1,6.7,4.8s6.4-1.7,9.5-0.8c1.8,0.6,3.3,1.9,4.8,3.1c2.6,2,5.6,3.4,8.8,4.3
		c2,0.6,5.1,0,4.8-2.1c-0.1-0.9-0.9-1.5-1.5-2c-2.1-1.7-4.3-3.3-6.4-5c5.3-2.2,11.1,1.5,16.4,3.8c4.4,1.8,9.1,2.7,13.9,2.5
		c4.7-0.2,9.8-1.7,12.3-5.6c2.5-4,0.6-10.6-4-11.1c-1.1-0.1-2.2,0.1-3.2-0.2c-1-0.3-2-1.2-1.8-2.2c4.7-0.6,9.4-2.6,12.5-6.2
		C192.3,120.7,193.6,115.4,191.9,111z M102.3,131.9L102.3,131.9l-0.1-0.1c-0.1,0-0.2-0.1-0.4-0.2c-0.5-0.2-1-0.6-1.5-1
		c-0.1-0.1-0.3-0.2-0.4-0.3c0-0.1,0-0.2,0-0.3c1.2,0.1,2.4,0.3,3.6,0.5c-0.1,0.6-0.1,1.1-0.2,1.7c-0.1,0-0.2-0.1-0.3-0.1
		c-0.1,0-0.2,0-0.4-0.1L102.3,131.9L102.3,131.9L102.3,131.9C102.4,131.9,102.3,131.9,102.3,131.9z"/>
	<g>
		<path d="M103.8,36.6c0,0,0.5,0.3,1.1,1.2c0.6,0.9,1.2,2.3,1.8,4.3c1.1,3.8,1.8,9.5,1.8,16.4c0,3.4-0.1,7.1-0.7,11.1
			c-0.2,1-0.4,2-0.8,3.1c0,0.1-0.2,0.4-0.1,0.3l-0.1,0.4c-0.1,0.2,0,0.2,0,0.4c0,0.3,0.1,0.6,0.2,0.9c0.5,1.3,1.9,2.6,3.4,4.5
			l0.5,0.6l0.5,0.9c0.4,0.6,0.6,1.1,0.9,1.7c0.5,1.2,0.9,2.4,1.1,3.6c0.5,2.4,0.6,4.9,0.6,7.3c0,2.4-0.2,4.7-0.4,6.9
			c-0.1,2.2-0.3,4.5-0.4,6.7c-1.1,17.8-0.8,35.7,0.1,48.9c0.4,6.6,0.9,12.2,1.3,16c0.4,3.8,0.6,6,0.6,6L98.6,179c0,0,0-2.3-0.1-6.3
			c0-2,0-4.5,0-7.3c0-2.8,0.1-6,0.3-9.4c0.3-6.9,0.9-14.9,1.9-23.5c1-8.6,2.4-17.6,4.1-26.6c0.8-4.5,2-9,2.6-13.1
			c0.6-4.1,0.7-8-1-11.1c-0.7-1.6-2.3-3.4-2.9-6.2c-0.1-0.7-0.1-1.4,0.1-2.1c0.1-0.3,0.2-0.8,0.3-1l0.2-0.3l0.2-0.4
			c0.3-0.7,0.6-1.7,0.8-2.5c0.9-3.6,1.3-7.3,1.5-10.6c0.5-6.7,0.3-12.3-0.5-16.2c-0.4-1.9-0.9-3.4-1.4-4.3
			C104.3,37,103.8,36.6,103.8,36.6z"/>
		<path d="M52.1,87.5c0,0,1.1,0.5,2.9,1.4c1.9,1,4.5,2.4,7.5,4.4c3,2,6.4,4.5,9.7,7.6c1.7,1.5,3.3,3.2,4.9,5
			c1.6,1.7,3.2,3.6,4.6,5.5c3,3.8,5.7,7.6,8.4,11c1.3,1.7,2.7,3.3,4,4.8c1.3,1.5,2.5,2.7,3.6,3.5c1.1,0.8,2,1.2,3,1.5
			c1.2,0.4,2.5,0.7,3.8,1.2c1.3,0.5,2.5,1.3,3.2,1.9c0.7,0.6,1.1,1.1,1.1,1.1l-6.9,5.5c0,0,0,0-0.1-0.1c-0.1-0.1-0.2-0.3-0.8-0.6
			c-0.6-0.3-1.6-0.7-3.2-1.3c-1.6-0.6-3.7-1.9-5.2-3.4c-1.6-1.5-2.9-3.2-4.1-4.9c-1.2-1.7-2.5-3.5-3.7-5.4
			c-2.3-3.8-4.8-7.8-7.3-11.8c-1.3-2-2.5-3.8-3.9-5.7c-1.3-1.8-2.8-3.5-4.2-5.1c-2.9-3.2-5.9-6-8.6-8.2c-2.7-2.2-5.1-3.8-6.8-4.9
			c-1.7-1.1-2.7-1.7-2.7-1.7L52.1,87.5z"/>
		<path d="M107.8,133.7c0,0,0.3-0.1,0.8-0.1c0.2,0,0.3-0.1,0.5-0.1c0.2-0.1,0.5-0.2,0.8-0.3c1.2-0.5,3.1-1.8,5-4.3
			c0.5-0.6,0.9-1.3,1.4-2c0.2-0.3,0.5-0.8,0.7-1.2c0.2-0.4,0.5-0.8,0.7-1.2c0.9-1.7,1.9-3.6,3.1-5.7c1.2-2,2.7-4.2,4.6-5.9
			c2-1.9,4.1-3.3,6.2-4.5c2.2-1.2,4.3-2.2,6.3-3.3c2.1-1,4.1-2,6.1-3c3.9-2,7.6-3.8,10.8-5.4c6.3-3.1,10.5-5.2,10.5-5.2l0.6,1.1
			c0,0-4,2.5-10,6.2c-3,1.9-6.5,4-10.2,6.4c-1.9,1.2-3.8,2.4-5.8,3.6c-2,1.2-4,2.4-5.8,3.7c-1.8,1.3-3.5,2.7-4.8,4.1
			c-1.4,1.6-2.3,3.2-3.2,5.1c-0.9,1.8-1.6,3.8-2.5,5.7c-0.2,0.5-0.4,1-0.6,1.4c-0.2,0.5-0.4,0.8-0.7,1.4c-0.5,0.9-1,1.8-1.5,2.7
			c-2.1,3.4-4.8,6-7.3,7.3c-0.6,0.3-1.2,0.6-1.7,0.8c-0.6,0.2-1.1,0.4-1.5,0.5c-0.5,0.1-0.8,0.2-0.8,0.2L107.8,133.7z"/>
		<path d="M110,94.2c0,0-0.1,0-0.2,0c-0.2,0-0.7-0.4-1-0.7c-0.3-0.3-0.5-0.7-0.7-1.2c-0.2-1-0.1-1.7,0.2-2.3
			c0.2-0.6,0.6-1.1,1.1-1.6c0.1-0.1,0.3-0.2,0.4-0.4c0.1-0.1,0.4-0.3,0.5-0.3c0.2-0.1,0.3-0.2,0.5-0.3c0.4-0.2,0.7-0.4,1.2-0.6
			c0.8-0.4,1.8-0.9,2.8-1.4c4.1-2,9.6-4.7,15-7.4c2.7-1.3,5.3-2.6,7.3-4.3c2-1.7,3.2-4,4.4-5.9c1.1-2,2.3-3.6,3.4-4.5
			c0.5-0.4,1-0.7,1.3-0.9c0.3-0.2,0.5-0.3,0.5-0.3l0.1,0.3c0,0-0.1,0.1-0.4,0.3c-0.3,0.2-0.7,0.5-1.1,1c-0.9,0.9-1.7,2.6-2.6,4.7
			c-0.4,1-0.9,2.2-1.5,3.4c-0.6,1.2-1.4,2.5-2.5,3.6c-2.1,2.3-4.8,4-7.4,5.6c-5.1,3.2-10.3,6.4-14.1,8.7c-1,0.6-1.9,1.1-2.6,1.6
			c-0.4,0.2-0.8,0.5-1.1,0.7c-0.2,0.1-0.3,0.2-0.5,0.3c-0.1,0.1,0,0,0,0l0.1,0c0,0,0,0,0-0.2c0-0.1,0.1-0.4-0.1-1
			c-0.1-0.3-0.3-0.6-0.5-0.8c-0.2-0.2-0.6-0.5-0.7-0.5c0.1,0.1,0.1,0.1,0.1,0.1L110,94.2z"/>
		<path d="M85.8,47.2c0,0-0.1,0.6-0.1,1.3c0,0.8,0.3,1.9,0.9,3.2c0.6,1.3,1.6,2.7,2.9,4.2c1.2,1.5,2.6,3.1,4,4.7
			c1.4,1.6,2.8,3,4.2,4.3c0.7,0.6,1.4,1.3,2,1.7c0.6,0.5,1.3,0.9,1.9,1.3c1.2,0.7,2.1,1.1,2.8,1.3c0.7,0.2,1,0.2,1,0.2l-1.3,5.8
			c0,0-0.7-0.2-1.7-0.6c-1.1-0.4-2.5-1.2-3.9-2.4c-0.7-0.6-1.4-1.2-2.1-1.9c-0.7-0.7-1.4-1.4-2-2.2c-1.3-1.6-2.6-3.3-3.9-5.1
			c-1.2-1.8-2.3-3.5-3.4-5.2c-1.1-1.7-2-3.4-2.6-5.1c-0.6-1.6-0.7-3.2-0.6-4.2c0.1-1.2,0.3-1.5,0.3-1.6L85.8,47.2z"/>
	</g>
	<path class="st1" d="M180.9,70.2c-2.7-2.2-6.2-3.4-9.7-3.2c-1.4,0.1-2.9,0.3-3.9-0.6c-1.4-1.2-1-3.3-0.6-5.1
		c1.4-5.9,1-12.5-2.7-17.2c-3.8-4.7-11.6-6.3-15.9-2c-0.9,0.9-2.1,2.2-3.3,1.7c-0.6-0.2-1-0.9-1.4-1.5c-3.5-5.2-11.8-6.1-16.4-1.9
		c1-2.5,0.2-5.4-1.4-7.6s-4-3.6-6.3-4.9c-3.7-2.1-7.6-4-11.7-5.3c-6.3-1.9-13-2.1-19.4-0.7c-0.8,0.2-1.6,0.4-2.2,0.9
		c-2.5,2-0.1,5.8,0.4,9c0.4,3.1-1.6,6.3-4.5,7.3s-6.5-0.4-8-3.2c-0.8-1.4-1-3.1-2.1-4.3c-1.9-2.1-5.6-1.3-7.6,0.7
		c-2,2.1-2.7,4.9-3.5,7.7s-1.8,5.6-4.1,7.3c-1.2,0.8-2.6,1.3-3.6,2.3c-2,1.9-1.9,5.1-2.1,7.8c-0.1,1.1-0.2,2.3-0.9,3.3
		c-1.2,1.6-3.6,1.8-5.6,1.4c-2-0.4-4-1.2-6-1c-4.2,0.5-6.8,5.5-6.1,9.7c0.7,4.2,3.7,7.7,6.7,10.7c8,8.1,17.3,14.9,27.4,20.3
		c4.7,2.5,9.7,4.7,15,5c16.7,1,30.1-16.5,46.8-16.4c3.4,0,6.8,0.8,10.1,1.2c16.7,1.9,34.1-6.8,42.7-21.3"/>
	<path class="st2" d="M48.4,63.4c-3.9-0.3-7.9-0.7-11.8-1c-0.7-0.1-1.6-0.1-2.2,0.3c-0.8,0.6-0.8,1.7-0.9,2.6c0,2.8-0.1,5.6-0.1,8.4
		c-4.9,0.2-9.9,0.2-14.8,0c-0.3,6,0.9,12,3.4,17.5c-3.9-0.8-9.1-0.9-10.7,2.8c-0.6,1.5-0.3,3.2-0.4,4.9c-0.1,2.3-0.7,5,0.7,6.8
		c1.1,1.5,3.4,2.1,4,3.9c0.8,2.4-1.9,4.3-3.9,5.9c-3.8,3.2-5.4,8.7-4,13.4c0.3,1,0.7,1.9,1.5,2.5c3,1.9,6.1-3.3,9.6-3.2
		c-2.3,4,0.1,9.9,4.5,11.2c5.3,1.6,10.3-2.6,15.2-5.2c5.2-2.8,11.4-3.8,17.2-2.9c1.1,0.2,2.5,0.9,2.1,2c-0.2,0.6-0.8,0.8-1.4,1
		c-2.9,1-5.6,2.3-8.2,4c-1.7,1.1-3.4,3-2.5,4.8c0.6,1.1,2,1.5,3.2,1.7c4.8,0.9,9.6,1.9,14.4,2.8c5.8,1.1,11.8,2.3,17.6,1
		c6.9-1.6,12.9-6.8,15.3-13.4c1.4-3.7,1.4-8.3-1.5-10.9c-4.3-3.7-11.6-0.5-16.1-3.9c-3.9-3-3.2-8.9-2.7-13.8
		c0.8-7.6,0.1-16-5.2-21.4c-2.8-2.8-6.5-4.5-9.6-6.9c-5.3-4-8.9-9.9-12.3-15.6"/>
	<g class="st3">
		<path d="M103.8,36.6c0,0,0.5,0.3,1.1,1.2c0.6,0.9,1.2,2.3,1.8,4.3c1.1,3.8,1.8,9.5,1.8,16.4c0,3.4-0.1,7.1-0.7,11.1
			c-0.2,1-0.4,2-0.8,3.1c0,0.1-0.2,0.4-0.1,0.3l-0.1,0.4c-0.1,0.2,0,0.2,0,0.4c0,0.3,0.1,0.6,0.2,0.9c0.5,1.3,1.9,2.6,3.4,4.5
			l0.5,0.6l0.5,0.9c0.4,0.6,0.6,1.1,0.9,1.7c0.5,1.2,0.9,2.4,1.1,3.6c0.5,2.4,0.6,4.9,0.6,7.3c0,2.4-0.2,4.7-0.4,6.9
			c-0.1,2.2-0.3,4.5-0.4,6.7c-1.1,17.8-0.8,35.7,0.1,48.9c0.4,6.6,0.9,12.2,1.3,16c0.4,3.8,0.6,6,0.6,6L98.6,179c0,0,0-2.3-0.1-6.3
			c0-2,0-4.5,0-7.3c0-2.8,0.1-6,0.3-9.4c0.3-6.9,0.9-14.9,1.9-23.5c1-8.6,2.4-17.6,4.1-26.6c0.8-4.5,2-9,2.6-13.1
			c0.6-4.1,0.7-8-1-11.1c-0.7-1.6-2.3-3.4-2.9-6.2c-0.1-0.7-0.1-1.4,0.1-2.1c0.1-0.3,0.2-0.8,0.3-1l0.2-0.3l0.2-0.4
			c0.3-0.7,0.6-1.7,0.8-2.5c0.9-3.6,1.3-7.3,1.5-10.6c0.5-6.7,0.3-12.3-0.5-16.2c-0.4-1.9-0.9-3.4-1.4-4.3
			C104.3,37,103.8,36.6,103.8,36.6z"/>
		<path d="M52.1,87.5c0,0,1.1,0.5,2.9,1.4c1.9,1,4.5,2.4,7.5,4.4c3,2,6.4,4.5,9.7,7.6c1.7,1.5,3.3,3.2,4.9,5
			c1.6,1.7,3.2,3.6,4.6,5.5c3,3.8,5.7,7.6,8.4,11c1.3,1.7,2.7,3.3,4,4.8c1.3,1.5,2.5,2.7,3.6,3.5c1.1,0.8,2,1.2,3,1.5
			c1.2,0.4,2.5,0.7,3.8,1.2c1.3,0.5,2.5,1.3,3.2,1.9c0.7,0.6,1.1,1.1,1.1,1.1l-6.9,5.5c0,0,0,0-0.1-0.1c-0.1-0.1-0.2-0.3-0.8-0.6
			c-0.6-0.3-1.6-0.7-3.2-1.3c-1.6-0.6-3.7-1.9-5.2-3.4c-1.6-1.5-2.9-3.2-4.1-4.9c-1.2-1.7-2.5-3.5-3.7-5.4
			c-2.3-3.8-4.8-7.8-7.3-11.8c-1.3-2-2.5-3.8-3.9-5.7c-1.3-1.8-2.8-3.5-4.2-5.1c-2.9-3.2-5.9-6-8.6-8.2c-2.7-2.2-5.1-3.8-6.8-4.9
			c-1.7-1.1-2.7-1.7-2.7-1.7L52.1,87.5z"/>
		<path d="M107.8,133.7c0,0,0.3-0.1,0.8-0.1c0.2,0,0.3-0.1,0.5-0.1c0.2-0.1,0.5-0.2,0.8-0.3c1.2-0.5,3.1-1.8,5-4.3
			c0.5-0.6,0.9-1.3,1.4-2c0.2-0.3,0.5-0.8,0.7-1.2c0.2-0.4,0.5-0.8,0.7-1.2c0.9-1.7,1.9-3.6,3.1-5.7c1.2-2,2.7-4.2,4.6-5.9
			c2-1.9,4.1-3.3,6.2-4.5c2.2-1.2,4.3-2.2,6.3-3.3c2.1-1,4.1-2,6.1-3c3.9-2,7.6-3.8,10.8-5.4c6.3-3.1,10.5-5.2,10.5-5.2l0.6,1.1
			c0,0-4,2.5-10,6.2c-3,1.9-6.5,4-10.2,6.4c-1.9,1.2-3.8,2.4-5.8,3.6c-2,1.2-4,2.4-5.8,3.7c-1.8,1.3-3.5,2.7-4.8,4.1
			c-1.4,1.6-2.3,3.2-3.2,5.1c-0.9,1.8-1.6,3.8-2.5,5.7c-0.2,0.5-0.4,1-0.6,1.4c-0.2,0.5-0.4,0.8-0.7,1.4c-0.5,0.9-1,1.8-1.5,2.7
			c-2.1,3.4-4.8,6-7.3,7.3c-0.6,0.3-1.2,0.6-1.7,0.8c-0.6,0.2-1.1,0.4-1.5,0.5c-0.5,0.1-0.8,0.2-0.8,0.2L107.8,133.7z"/>
		<path d="M110,94.2c0,0-0.1,0-0.2,0c-0.2,0-0.7-0.4-1-0.7c-0.3-0.3-0.5-0.7-0.7-1.2c-0.2-1-0.1-1.7,0.2-2.3
			c0.2-0.6,0.6-1.1,1.1-1.6c0.1-0.1,0.3-0.2,0.4-0.4c0.1-0.1,0.4-0.3,0.5-0.3c0.2-0.1,0.3-0.2,0.5-0.3c0.4-0.2,0.7-0.4,1.2-0.6
			c0.8-0.4,1.8-0.9,2.8-1.4c4.1-2,9.6-4.7,15-7.4c2.7-1.3,5.3-2.6,7.3-4.3c2-1.7,3.2-4,4.4-5.9c1.1-2,2.3-3.6,3.4-4.5
			c0.5-0.4,1-0.7,1.3-0.9c0.3-0.2,0.5-0.3,0.5-0.3l0.1,0.3c0,0-0.1,0.1-0.4,0.3c-0.3,0.2-0.7,0.5-1.1,1c-0.9,0.9-1.7,2.6-2.6,4.7
			c-0.4,1-0.9,2.2-1.5,3.4c-0.6,1.2-1.4,2.5-2.5,3.6c-2.1,2.3-4.8,4-7.4,5.6c-5.1,3.2-10.3,6.4-14.1,8.7c-1,0.6-1.9,1.1-2.6,1.6
			c-0.4,0.2-0.8,0.5-1.1,0.7c-0.2,0.1-0.3,0.2-0.5,0.3c-0.1,0.1,0,0,0,0l0.1,0c0,0,0,0,0-0.2c0-0.1,0.1-0.4-0.1-1
			c-0.1-0.3-0.3-0.6-0.5-0.8c-0.2-0.2-0.6-0.5-0.7-0.5c0.1,0.1,0.1,0.1,0.1,0.1L110,94.2z"/>
		<path d="M85.8,47.2c0,0-0.1,0.6-0.1,1.3c0,0.8,0.3,1.9,0.9,3.2c0.6,1.3,1.6,2.7,2.9,4.2c1.2,1.5,2.6,3.1,4,4.7
			c1.4,1.6,2.8,3,4.2,4.3c0.7,0.6,1.4,1.3,2,1.7c0.6,0.5,1.3,0.9,1.9,1.3c1.2,0.7,2.1,1.1,2.8,1.3c0.7,0.2,1,0.2,1,0.2l-1.3,5.8
			c0,0-0.7-0.2-1.7-0.6c-1.1-0.4-2.5-1.2-3.9-2.4c-0.7-0.6-1.4-1.2-2.1-1.9c-0.7-0.7-1.4-1.4-2-2.2c-1.3-1.6-2.6-3.3-3.9-5.1
			c-1.2-1.8-2.3-3.5-3.4-5.2c-1.1-1.7-2-3.4-2.6-5.1c-0.6-1.6-0.7-3.2-0.6-4.2c0.1-1.2,0.3-1.5,0.3-1.6L85.8,47.2z"/>
	</g>
	<g class="st4">
		<path class="st5" d="M114,141c-0.5,3.1,3.5,5.1,6.7,4.8c3.2-0.3,6.4-1.7,9.5-0.8c1.8,0.6,3.3,1.9,4.8,3.1c2.6,2,5.6,3.4,8.8,4.3
			c2,0.6,5.1,0,4.8-2.1c-0.1-0.9-0.9-1.5-1.5-2c-2.1-1.7-4.3-3.3-6.4-5c5.3-2.2,11.1,1.5,16.4,3.8c4.4,1.8,9.1,2.7,13.9,2.5
			c4.7-0.2,9.8-1.7,12.3-5.6c2.5-4,0.6-10.6-4-11.1c-1.1-0.1-2.2,0.1-3.2-0.2s-2-1.2-1.8-2.2c4.7-0.6,9.4-2.6,12.5-6.2
			c3.1-3.6,4.5-8.9,2.7-13.3c-1.2-3-3.7-5.3-5.6-8c-1.9-2.7-3.2-6.2-1.7-9.1c1.2-2.4,4.1-3.8,4.8-6.5c0.4-1.8-0.3-3.6-1.2-5.2
			c-3.2-5.7-8.4-9.9-13.5-13.9c-1.8-1.5-3.7-3-5.9-3.7c-3.7-1.2-7.8,0-11,2.3s-5.6,5.3-8,8.4c-4.3-9.2-15.2-14.3-25.4-13.5
			c-10.2,0.8-19.5,6.5-26.5,13.9c-7,7.4-12,16.4-16.8,25.5c-2.5,4.8-5.1,9.9-5.3,15.4c0,1.6,0.1,3.3,1.1,4.6
			c0.7,0.9,1.7,1.5,2.6,2.2c3.2,2,6.4,4,10,5.1c5.1,1.6,10.7,1.2,15.9,2.6c5.2,1.3,10.5,5.3,10.4,10.7"/>
	</g>
</g>
</svg>
