<?xml version="1.0" encoding="utf-8"?>
<!-- Generator: Adobe Illustrator 19.0.1, SVG Export Plug-In . SVG Version: 6.00 Build 0)  -->
<svg version="1.1" id="Layer_1" xmlns="http://www.w3.org/2000/svg" xmlns:xlink="http://www.w3.org/1999/xlink" x="0px" y="0px"
	 viewBox="0 0 200 200" style="enable-background:new 0 0 200 200;" xml:space="preserve">
<style type="text/css">
	.st0{fill:#20300A;}
	.st1{fill:#3F331E;}
	.st2{fill:#335430;}
</style>
<g>
	<path class="st0" d="M165.1,162.7c-9.2,1.3-18.9-2.4-24.8-9.5c6.7,3.5,14.8,3.9,21.8,1.3c1.3-0.5,2.7-1.9,1.8-2.9
		c-2.4-2.6-6.5-2.1-10-1.8c-3.5,0.2-7.9-0.7-8.8-4.1c5,1.7,11,0,14.2-4.2c-8.8-0.5-18.9-1.7-24.2-8.8c9.4,0.7,19.2,1.4,27.7-2.4
		c-7.9-3.5-15.8-7-23.6-10.5c7.9-0.9,15.5-4.2,21.6-9.4c-10.1,2-20.9-0.1-29.4-5.7c4.5,0.8,9.2,1.7,13.8,1.2
		c4.6-0.5,9.2-2.5,11.9-6.3c-9.6,0.3-19.3-3.1-26.7-9.4c6.9,0.1,13.8-2.1,19.5-6.1c-2.2-0.2-4.3-0.4-6.5-0.6
		c3.5-0.7,6.4-3.8,6.9-7.4c-7.5,2-15.4,2.5-23.1,1.5c4.7-0.4,9.1-3.1,11.7-7c1.1-1.6,1.9-3.4,2.8-5.2c1.5-3.2,3-6.4,4.5-9.6
		c-6.9,2.7-14.6,3.5-21.9,2.2c2.5-3.3,6.5-5.1,9.8-7.6c3.3-2.5,6.1-6.7,4.7-10.6c-6.2,4-13.7,5.7-21,4.8c3.4-2.3,6.9-4.6,9.5-7.7
		c2.7-3.1,4.5-7.2,4-11.3c-3.5,2.3-7.5,3.9-11.6,4.6c-0.7,0.1-1.6,0.2-2.2-0.2c-0.7-0.4-0.9-1.3-1-2.1c-0.3-3,1.4-6,0.5-8.8
		c-1-3.5-5-4.9-8.2-6.6c-3.2-1.7-4.9-5.6-2.9-8.6l-2.1-0.3c-2,4.1-2,9-4.2,13.4c-2.3,4.7-2.6,7.1-3.9,11.9s-6.5,10.8-2.3,13.4
		c-5.2-2.8-10.4-5.7-15.5-8.5c3.5,8.2,9.8,15,17.7,19.1c-8.7-0.9-17.1-4.3-24-9.7c4,5.7,9,10.7,14.7,14.8
		c-7.6-1.1-15.3-2.2-22.9-3.2c2.2,4.7,7.2,7.3,11.3,10.5c4.1,3.2,8,8.2,6.4,13.1c-7-0.3-14-2.3-20.1-5.9c6.5,7.1,14.1,13.2,22.5,18
		c-9.4-0.7-18.8-1.4-28.2-2.1c6.5,4.6,13.5,8.6,20.8,11.9c-3.6,4.1-10.6,4.4-14.6,0.8c2.8,5.1,7.6,9.1,13.2,10.7
		c-7.3,1.2-14.9,0.9-22.1-0.7c0.3,2.5,3.1,3.8,5.2,5.3c2.1,1.5,3.6,4.9,1.4,6.3c-0.7,0.5-1.6,0.5-2.5,0.5c-3.6,0.1-7.2,0.1-10.8,0.2
		c8.6,5.9,19.1,8.7,29.5,8.1c-8.6,6.2-18.9,9.6-29.1,12.9c6.3-0.4,12.6-0.7,18.9-1.1c-8.1,5.7-17.5,9.5-27.3,10.9
		c8.9,3.8,19,2.4,28.5,0.9c-6.4,7.7-16.7,11.9-26.7,11.1c6.7,6.2,15.8,9.1,24.9,10.1s18.2,0.3,27.3,0.1c1.6,0,3.3-0.1,4.9-0.1
		l-1,19.1h18.7l-1-18.7c1.8,0.1,3.7,0.2,5.5,0.4c7.1,0.6,14.2,1.4,21.2,0.4c6.1-0.9,11.9-3.2,17.6-5.6c2-0.8,4.1-1.7,5.7-3.3
		C165.1,167.1,166,164.7,165.1,162.7z"/>
	<g>
		<polygon class="st1" points="92.5,196.3 101.8,15.7 111.2,196.3 		"/>
		<path class="st2" d="M102.5,4.8c-2,3-0.3,6.9,2.9,8.6s7.2,3.2,8.2,6.6c0.8,2.9-0.8,5.9-0.5,8.8c0.1,0.8,0.3,1.6,1,2.1
			c0.6,0.4,1.4,0.3,2.2,0.2c4.1-0.7,8.1-2.3,11.6-4.6c0.5,4.1-1.3,8.1-4,11.3c-2.7,3.1-6.1,5.4-9.5,7.7c7.3,0.9,14.8-0.8,21-4.8
			c1.4,3.9-1.4,8.1-4.7,10.6c-3.3,2.5-7.3,4.3-9.8,7.6c7.3,1.3,15,0.6,21.9-2.2c-1.5,3.2-3,6.4-4.5,9.6c-0.8,1.8-1.7,3.6-2.8,5.2
			c-2.7,3.9-7,6.6-11.7,7c7.7,1,15.6,0.5,23.1-1.5c-0.5,3.6-3.4,6.6-6.9,7.4c2.2,0.2,4.3,0.4,6.5,0.6c-5.6,4-12.5,6.2-19.5,6.1
			c7.3,6.2,17.1,9.6,26.7,9.4c-2.6,3.8-7.3,5.8-11.9,6.3c-4.6,0.5-9.2-0.4-13.8-1.2c8.6,5.7,19.4,7.8,29.4,5.7
			c-6.1,5.1-13.7,8.4-21.6,9.4c7.9,3.5,15.8,7,23.6,10.5c-8.6,3.8-18.4,3.1-27.7,2.4c5.3,7.1,15.3,8.2,24.2,8.8
			c-3.3,4.1-9.3,5.9-14.2,4.2c0.9,3.4,5.3,4.3,8.8,4.1c3.5-0.2,7.6-0.7,10,1.8c0.9,1-0.5,2.4-1.8,2.9c-7,2.6-15.2,2.2-21.8-1.3
			c6,7.1,15.7,10.8,24.8,9.5c0.9,2,0,4.5-1.6,6c-1.5,1.6-3.6,2.5-5.7,3.3c-5.7,2.4-11.5,4.7-17.6,5.6c-7,1-14.2,0.2-21.2-0.4
			c-9-0.7-18.1-1-27.1-0.7c-9.1,0.2-18.2,0.9-27.3-0.1c-9-1-18.2-4-24.9-10.1c10,0.8,20.2-3.4,26.7-11.1c-9.5,1.5-19.7,2.8-28.5-0.9
			c9.8-1.4,19.2-5.2,27.3-10.9c-6.3,0.4-12.6,0.7-18.9,1.1c10.1-3.3,20.4-6.7,29.1-12.9c-10.4,0.7-20.9-2.2-29.5-8.1
			c3.6-0.1,7.2-0.1,10.8-0.2c0.9,0,1.8,0,2.5-0.5c2.1-1.4,0.7-4.8-1.4-6.3c-2.1-1.5-4.8-2.8-5.2-5.3c7.2,1.6,14.8,1.8,22.1,0.7
			c-5.6-1.6-10.5-5.6-13.2-10.7c4,3.7,11,3.3,14.6-0.8c-7.3-3.3-14.3-7.3-20.8-11.9c9.4,0.7,18.8,1.4,28.2,2.1
			c-8.4-4.8-16-10.9-22.5-18c6.1,3.6,13,5.6,20.1,5.9c1.5-5-2.3-10-6.4-13.1c-4.1-3.2-9.1-5.8-11.3-10.5c7.6,1.1,15.3,2.2,22.9,3.2
			c-5.7-4.1-10.7-9.1-14.7-14.8c6.9,5.4,15.3,8.7,24,9.7c-7.9-4.1-14.2-11-17.7-19.1c5.2,2.8,10.4,5.7,15.5,8.5
			c-4.2-2.6,0.9-8.6,2.3-13.4s1.5-7.2,3.9-11.9c2.2-4.4,2.2-9.3,4.2-13.4"/>
	</g>
</g>
</svg>
