<?xml version="1.0" encoding="utf-8"?>
<!-- Generator: Adobe Illustrator 19.0.1, SVG Export Plug-In . SVG Version: 6.00 Build 0)  -->
<svg version="1.1" id="Layer_1" xmlns="http://www.w3.org/2000/svg" xmlns:xlink="http://www.w3.org/1999/xlink" x="0px" y="0px"
	 viewBox="0 0 200 200" style="enable-background:new 0 0 200 200;" xml:space="preserve">
<style type="text/css">
	.st0{fill:#352924;}
	.st1{fill:#7F7463;}
	.st2{fill:#96805E;}
	.st3{fill:#B5AC9C;}
	.st4{fill:#93866F;}
	.st5{fill:#6B604E;}
	.st6{fill:#B2A48D;}
</style>
<g>
	<g>
		<path class="st0" d="M65.1,76.9c0.5,3,3.4,4.9,6,6.6c4.4,2.9,8.5,6.3,12.1,10.1c1.4,1.4,2.8,2.9,4.6,3.5c1.5,0.5,3.1,0.3,4.7,0
			c6.2-0.9,12.4-1.7,18.6-2.6c3.1-0.4,6.4-0.8,9.3,0.3c0.8,0.3,1.6,0.7,2.4,0.5c0.6-0.2,1-0.7,1.3-1.2c2.6-3.9,4-8.9,2.2-13.2
			c-2-4.9-7.7-7.7-9.5-12.7c-0.9-2.4-1-5.4-3.2-6.7c-1.2-0.7-2.6-0.7-3.9-0.7c-7.1,0.2-14.1,0.3-21.2,0.5
			c-2.5-0.6-13.9,2.5-19.3,7.5C67,70.8,64.6,73.7,65.1,76.9z"/>
		<path class="st0" d="M86.1,99c-2.2-1.7-4.4-3.4-7.1-4.2c-2.7-0.8-5.7-0.6-8.5-0.2c-9,1.1-17.9,3.5-26.3,7c-1,0.4-2.1,1-2.5,2
			c-0.4,1,0.2,2.2,0.7,3.1c0.9,1.7,1.9,3.4,2.8,5.1c6.1,10.8,12.8,21.3,20.1,31.4c10-5.1,20-10.1,30-15.2c4.6-2.3,9.9-4.7,14.6-2.8
			l0.5,0.4C103.7,115.6,95.5,106.6,86.1,99z"/>
		<path class="st0" d="M165.7,108.4c4.8,0.6,9.7,2,14.3,0.8c4.7-1.2,8.8-6.4,6.7-10.7c-0.2-0.5-0.5-0.9-1-1.2
			c-0.4-0.3-0.9-0.3-1.4-0.4c-5.7-0.8-11.2-2.5-16.4-5c-9.8-4.8-18.7-12.6-29.5-13.5c-3.1-0.3-6.7,0.3-8.5,2.8
			c-0.7,1-1.1,2.2-1.4,3.4c-2.3,7.4-4.6,15.5-2.3,22.9l-0.7,1.9C138.7,111.6,152.3,106.8,165.7,108.4z"/>
		<path class="st0" d="M111.7,98.6c-2.9-0.9-6-0.1-9,0.7c-3.4,0.9-6.8,1.9-10.1,2.8l0,0c3.7,2.1,6.9,5.1,9.3,8.6
			c0.6,0.8,1.1,1.7,2.1,2.2c0.6,0.3,1.4,0.3,2.1,0.3c5.3-0.2,10.1-3.7,15.4-3.2c0.5-2.6-1.5-4.9-3.3-6.8
			C116.3,101.4,114.3,99.4,111.7,98.6z"/>
		<path class="st0" d="M7,113.8c5.4-1.3,10.8-2.6,16.1-3.8c3.8-0.9,8.4-1.6,11.3,1.1c-0.1-7.2,5.5-13.5,12.1-16.3
			c6.6-2.8,14-2.8,21.2-2.1c0.3-3.6-3.2-6.2-4.9-9.4c-1.8-3.3-1.5-7.4-0.2-10.9c1.3-3.5,3.5-6.6,5.7-9.6
			c-18.9-2.2-37.7-4.3-56.6-6.5l-1.2-0.7c4.7,9.7,9.5,20.3,7.7,30.9C16.4,96.2,9.4,104.2,7,113.8z"/>
		<path class="st0" d="M179.9,118.4c-1.2-1.5-2.4-3-4-3.8c-1.6-0.8-3.4-1-5.2-1.1c-13.1-0.9-26.1-1.8-39.2-2.8
			c-1.7-0.1-3.9-0.1-4.7,1.5c-3.4-0.3-5,0.6-8.1,1.9c-3.2,1.3-5.8,4.5-5.4,7.9c0.4,3.3,3.4,5.5,6.1,7.4c3.4,2.4,6.8,4.7,10.7,6.2
			c2.5,0.9,5.2,1.4,7.8,1.8c18.7,2.4,37.7-3.1,56.4-0.5C189.5,130.7,184.7,124.5,179.9,118.4z"/>
		<path class="st0" d="M126.8,76.9c2.1,0.9,4.9,1.3,6.5-0.3c1.3-1.3,1.4-3.4,1.3-5.2c0-1.1-0.1-2.3-0.7-3.3c-0.6-1-1.8-1.6-2.8-1.2
			c-0.3-0.3-0.9-0.4-1.4-0.4c-2,0-4,0-6-0.1c-0.4,0-0.9,0-1.3,0.2c-0.4,0.2-0.6,0.5-0.9,0.9c-1,1.8-0.7,4,0.4,5.8
			C123.2,74.8,124.9,76,126.8,76.9z"/>
		<path class="st0" d="M145.8,78.1c10.2,0.4,20.5,0.6,30.7,0.5c2.9,0,6.2-0.3,8-2.6c1.4-1.8,1.2-4.5,0.1-6.5c-1.1-2-2.9-3.5-4.8-4.7
			c-6.2-4.1-13.8-6.2-21.2-5.9c-6.6-2.1-13.9,0.3-19.3,4.5c-3.1,2.4-5.6,6.6-3.9,10.2C137,77.2,141.8,77.9,145.8,78.1z"/>
		<path class="st0" d="M165.5,80.1c-3.1,0.6-6.1,1.5-9,2.5c-0.4,1,0.3,2.2,1.3,2.7c1,0.5,2.1,0.6,3.2,0.7c4.6,0.5,8.8,2.5,13.4,3.4
			c2.2,0.4,4.4,0.6,6.7,0.7c3,0.2,6,0.4,9.1,0.6c0-3.8,0-7.5,0.1-11.3l-0.9,0C181.3,79.8,173.3,78.6,165.5,80.1z"/>
		<path class="st0" d="M41.4,121.7c0-1.8,0-3.6-0.1-5.4c0-0.6-0.1-1.2-0.5-1.6c-0.3-0.2-0.7-0.3-1-0.3c-5.7-0.6-11.4-1.1-17.1-1.4
			c-0.6,0-1.2,0-1.6,0.4c-0.3,0.3-0.4,0.6-0.4,1c-0.3,2.2,1,4.3,2.7,5.7c1.7,1.4,3.8,2.1,5.8,2.9c3.6,1.3,7.2,2.6,10.8,3.9
			C41.1,125.6,41.4,123.5,41.4,121.7z"/>
		<path class="st0" d="M39.2,127.3l-0.5,0.2C38.9,127.5,39,127.4,39.2,127.3z"/>
		<path class="st0" d="M40.4,126.9c-0.1,0-0.3-0.1-0.4-0.1c-0.2,0.2-0.5,0.4-0.8,0.6L40.4,126.9z"/>
	</g>
	<path class="st1" d="M87.3,62.5C84.8,61.9,73.3,65,68,70c-2.3,2.2-4.7,5.1-4.2,8.2c0.5,3,3.4,4.9,6,6.6c4.4,2.9,8.5,6.3,12.1,10.1
		c1.4,1.4,2.8,2.9,4.6,3.5c1.5,0.5,3.1,0.3,4.7,0c6.2-0.9,12.4-1.7,18.6-2.6c3.1-0.4,6.4-0.8,9.3,0.3c0.8,0.3,1.6,0.7,2.4,0.5
		c0.6-0.2,1-0.7,1.3-1.2c2.6-3.9,4-8.9,2.2-13.2c-2-4.9-7.7-7.7-9.5-12.7c-0.9-2.4-1-5.4-3.2-6.7c-1.2-0.7-2.6-0.7-3.9-0.7
		C101.4,62.2,94.4,62.3,87.3,62.5"/>
	<path class="st2" d="M108.6,126.5c-4.8-1.9-10.1,0.5-14.6,2.8c-10,5.1-20,10.1-30,15.2c-7.3-10.1-14-20.6-20.1-31.4
		c-0.9-1.7-1.9-3.4-2.8-5.1c-0.5-1-1.1-2.1-0.7-3.1c0.4-1.1,1.5-1.6,2.5-2c8.4-3.5,17.2-5.9,26.3-7c2.8-0.3,5.7-0.6,8.5,0.2
		c2.7,0.8,4.9,2.5,7.1,4.2c9.4,7.6,17.7,16.6,24.4,26.6"/>
	<path class="st3" d="M124.1,110.7c13.3,2.3,26.9-2.5,40.3-0.9c4.8,0.6,9.7,2,14.3,0.8c4.7-1.2,8.8-6.4,6.7-10.7
		c-0.2-0.5-0.5-0.9-1-1.2c-0.4-0.3-0.9-0.3-1.4-0.4c-5.7-0.8-11.2-2.5-16.4-5c-9.8-4.8-18.7-12.6-29.5-13.5
		c-3.1-0.3-6.7,0.3-8.5,2.8c-0.7,1-1.1,2.2-1.4,3.4c-2.3,7.4-4.6,15.5-2.3,22.9"/>
	<path class="st4" d="M91.3,103.5c3.7,2.1,6.9,5.1,9.3,8.6c0.6,0.8,1.1,1.7,2.1,2.2c0.6,0.3,1.4,0.3,2.1,0.3
		c5.3-0.2,10.1-3.7,15.4-3.2c0.5-2.6-1.5-4.9-3.3-6.8c-1.9-1.9-3.8-3.9-6.4-4.7c-2.9-0.9-6-0.1-9,0.7
		C98.1,101.6,94.7,102.5,91.3,103.5"/>
	<path class="st4" d="M9,56.8c4.7,9.7,9.5,20.3,7.7,30.9c-1.7,9.7-8.6,17.8-11.1,27.3c5.4-1.3,10.8-2.6,16.1-3.8
		c3.8-0.9,8.4-1.6,11.3,1.1C33,105.2,38.5,98.9,45.1,96c6.6-2.8,14-2.8,21.2-2.1c0.3-3.6-3.2-6.2-4.9-9.4c-1.8-3.3-1.5-7.4-0.2-10.9
		c1.3-3.5,3.5-6.6,5.7-9.6c-18.9-2.2-37.7-4.3-56.6-6.5"/>
	<path class="st5" d="M125.5,113.5c-3.4-0.3-5,0.6-8.1,1.9s-5.8,4.5-5.4,7.9c0.4,3.3,3.4,5.5,6.1,7.4c3.4,2.4,6.8,4.7,10.7,6.2
		c2.5,0.9,5.2,1.4,7.8,1.8c18.7,2.4,37.7-3.1,56.4-0.5c-4.8-6.1-9.6-12.2-14.4-18.3c-1.2-1.5-2.4-3-4-3.8c-1.6-0.8-3.4-1-5.2-1.1
		c-13.1-0.9-26.1-1.8-39.2-2.8C128.5,111.9,126.4,112,125.5,113.5"/>
	<path class="st4" d="M130.1,68.9c0.3-0.7-0.8-1.2-1.6-1.2c-2,0-4,0-6-0.1c-0.4,0-0.9,0-1.3,0.2c-0.4,0.2-0.6,0.5-0.9,0.9
		c-1,1.8-0.7,4,0.4,5.8c1.1,1.7,2.8,2.9,4.6,3.7c2.1,0.9,4.9,1.3,6.5-0.3c1.3-1.3,1.4-3.4,1.3-5.2c0-1.1-0.1-2.3-0.7-3.3
		c-0.6-1-1.8-1.7-2.9-1.2"/>
	<path class="st2" d="M157.3,60.1c-6.6-2.1-13.9,0.3-19.3,4.5c-3.1,2.4-5.6,6.6-3.9,10.2c1.7,3.6,6.5,4.4,10.5,4.5
		c10.2,0.4,20.5,0.6,30.7,0.5c2.9,0,6.2-0.3,8-2.6c1.4-1.8,1.2-4.5,0.1-6.5c-1.1-2-2.9-3.5-4.8-4.7C172.3,62,164.8,59.9,157.3,60.1"
		/>
	<path class="st4" d="M188.8,80.7c0,3.8,0,7.5-0.1,11.3c-3-0.2-6-0.4-9.1-0.6c-2.2-0.1-4.5-0.3-6.7-0.7c-4.5-0.9-8.8-2.9-13.4-3.4
		c-1.1-0.1-2.3-0.2-3.2-0.7c-1-0.5-1.7-1.7-1.3-2.7c3-1,6-1.9,9-2.5C172,80,180,81.1,188,80.7"/>
	<path class="st6" d="M37.4,128.8c2.3-0.5,2.7-3.5,2.7-5.8c0-1.8,0-3.6-0.1-5.4c0-0.6-0.1-1.2-0.5-1.6c-0.3-0.2-0.7-0.3-1-0.3
		c-5.7-0.6-11.4-1.1-17.1-1.4c-0.6,0-1.2,0-1.6,0.4c-0.3,0.3-0.4,0.6-0.4,1c-0.3,2.2,1,4.3,2.7,5.7c1.7,1.4,3.8,2.1,5.8,2.9
		c3.7,1.3,7.5,2.7,11.2,4"/>
</g>
</svg>
