<?xml version="1.0" encoding="utf-8"?>
<!-- Generator: Adobe Illustrator 19.0.1, SVG Export Plug-In . SVG Version: 6.00 Build 0)  -->
<svg version="1.1" id="Layer_1" xmlns="http://www.w3.org/2000/svg" xmlns:xlink="http://www.w3.org/1999/xlink" x="0px" y="0px"
	 viewBox="0 0 200 200" style="enable-background:new 0 0 200 200;" xml:space="preserve">
<style type="text/css">
	.st0{fill:#352924;}
	.st1{fill:#777777;}
	.st2{fill:#3D3123;}
</style>
<g>
	<polygon class="st0" points="191.8,106.3 190.3,106.3 189.3,102.9 189.5,102.9 184.4,85.5 183.6,85.5 183,83.6 183.2,83.6 
		178.5,67.4 21.6,67.4 16.3,83.6 16.8,85.5 16.3,85.5 10.8,102.9 11.4,105 10.8,105 3.6,125.1 4.7,129.3 197,130.7 198,126.6 	"/>
	<g>
		<polygon class="st1" points="15.8,89.7 182.6,89.7 178,73.4 21.1,73.4 14.7,85.5 		"/>
		<polygon class="st1" points="15.8,91.6 9.2,104.8 10.3,109 189,109 183.9,91.6 		"/>
		<polygon class="st1" points="3.1,131.2 2,127 10.3,111.1 191.3,112.3 196.4,128.5 195.4,132.6 		"/>
		<polygon class="st2" points="14.7,85.5 181.6,85.5 176.9,69.3 20,69.3 		"/>
		<polygon class="st2" points="14.7,87.4 9.2,104.8 187.9,104.8 182.8,87.4 		"/>
		<polygon class="st2" points="2,127 9.2,106.9 190.2,108.2 196.4,128.5 		"/>
	</g>
</g>
</svg>
